<?xml version="1.0" encoding="utf-8"?>
<!-- Generator: Adobe Illustrator 24.1.0, SVG Export Plug-In . SVG Version: 6.00 Build 0)  -->
<svg version="1.1" id="Layer_1" xmlns="http://www.w3.org/2000/svg" xmlns:xlink="http://www.w3.org/1999/xlink" x="0px" y="0px"
	 viewBox="0 0 1242 777.2" style="enable-background:new 0 0 1242 777.2;" xml:space="preserve">
<style type="text/css">
	.st0{fill:#F4F1ED;}
	.st1{fill:none;stroke:#305F89;stroke-width:3.025;stroke-miterlimit:10;}
	.st2{fill:none;stroke:#698588;stroke-width:3.0329;stroke-miterlimit:10;}
	.st3{fill:#EFB63B;stroke:#698588;stroke-width:3.0329;stroke-linecap:round;stroke-linejoin:round;}
	.st4{fill:none;stroke:#305F89;stroke-width:4.2639;stroke-linecap:round;stroke-linejoin:round;}
	.st5{fill:none;stroke:#698588;stroke-width:2.591;stroke-miterlimit:10;}
	.st6{fill:none;stroke:#698588;stroke-width:2.5522;stroke-miterlimit:10;}
	.st7{fill:none;stroke:#EFB63B;stroke-width:1.8452;stroke-miterlimit:10;}
	.st8{fill:#EFB63B;stroke:#305F89;stroke-width:2.5984;stroke-miterlimit:10;}
	.st9{fill:none;stroke:#698588;stroke-width:3.547;stroke-linecap:round;stroke-linejoin:round;}
	.st10{fill:#FFFFFF;stroke:#698588;stroke-width:3.547;stroke-linecap:round;stroke-linejoin:round;}
	.st11{fill:none;stroke:#EFB63B;stroke-width:2.705;stroke-linecap:round;stroke-linejoin:round;}
	.st12{fill:none;stroke:#EFB63B;stroke-width:5.6853;stroke-linecap:round;stroke-linejoin:round;}
	.st13{fill:#EFB63B;}
	.st14{fill:none;stroke:#EFB63B;stroke-width:2.7041;stroke-linecap:round;stroke-linejoin:round;}
	.st15{fill:#698588;}
	.st16{fill:none;stroke:#698588;stroke-width:3.0923;stroke-linecap:round;stroke-linejoin:round;}
	.st17{fill:none;stroke:#305F89;stroke-width:3.1976;stroke-miterlimit:10;}
	.st18{fill:#EFB63B;stroke:#305F89;stroke-width:2.8426;stroke-miterlimit:10;}
	.st19{fill:none;stroke:#C9A87E;stroke-width:4.0769;stroke-miterlimit:10;}
	.st20{fill:#303030;}
</style>
<g>
	<polygon class="st0" points="984.8,225.2 936.6,225.2 902.7,259.2 902.7,307.3 936.6,341.4 984.8,341.4 1018.7,307.3 1018.7,259.2 
			"/>
	<polygon class="st0" points="955.6,44.9 907.5,44.9 873.5,78.8 873.5,126.9 907.5,161 955.6,161 989.6,126.9 989.6,78.8 	"/>
	<polygon class="st0" points="960.2,406.2 912.5,406.2 878.8,439.7 878.8,487.5 912.5,521.4 960.2,521.4 993.8,487.5 993.8,439.7 	
		"/>
	<polygon class="st1" points="967.7,388.3 905.2,388.3 860.9,432.4 860.9,494.9 905.2,539.1 967.7,539.1 1011.7,494.9 1011.7,432.4 
			"/>
	<polygon class="st1" points="963.5,27.9 900.8,27.9 856.7,72.1 856.7,134.7 900.8,178.8 963.5,178.8 1007.7,134.7 1007.7,72.1 	"/>
	<polygon class="st1" points="992,207.9 929.4,207.9 885.3,252 885.3,314.7 929.4,358.9 992,358.9 1036.2,314.7 1036.2,252 	"/>
	<g id="XMLID_1_">
		<g>
			<path class="st2" d="M953.1,141.6c-7.2,4.7-15.3,7.3-24.5,7.3c-24.1,0-43.9-19.7-43.9-43.9s19.7-43.9,43.9-43.9h0.4v43.5
				L953.1,141.6z"/>
			<path class="st3" d="M977.7,105.2c0,13.5-6.1,25.8-16,34L937.2,105l0,0L977.7,105.2L977.7,105.2L977.7,105.2z"/>
			<path class="st2" d="M978.5,97.4h-42.2V55.8C958.4,58.3,976,75.5,978.5,97.4z"/>
		</g>
	</g>
	<path class="st4" d="M806,240.8v-12.7V208l-34-17.5l-0.5-68.6l-68.8-0.5l-0.2-0.7L687,86.9H531.9l-15.7,34.5l-68.8,0.5l-0.5,68.6
		l-34,17.5v151.3l34,17.5l0.5,68.6l68.8,0.5l15.7,34.5h69.3c0.5,0,16.8,0,16.8,0h69l15.7-34.5l68.8-0.5l0.5-68.6l34-17.5v-18.5
		V240.8"/>
	<path class="st0" d="M777.8,332.7v15.9l-29.2,15l-0.4,58.8l-59,0.4l-13.5,29.6h-59.2c0,0-13.9,0-14.4,0h-59.4l-13.5-29.6l-59-0.4
		l-0.4-58.8l-29.2-15V219l29.2-15l0.4-58.7l59-0.5l13.5-29.6h133l13.3,28.9l0.2,0.7l59,0.5l0.4,58.7l29.2,15v17.2v10.9L777.8,332.7
		L777.8,332.7z"/>
	<g>
		<g>
			<polyline class="st5" points="968.4,242.2 950.2,242.2 949.3,248.3 941.3,251.7 935.2,248.3 922.1,261.3 925.6,266.8 
				922.1,275.4 915.9,276.3 915.9,295.7 922.1,296.5 925.6,304.4 922.1,310.6 935.2,323.8 940.4,320.1 949.3,323.8 950.2,329.9 
				968.4,329.9 			"/>
			<polyline class="st5" points="951.1,242.2 969.3,242.2 970.2,248.3 978.2,251.7 984.3,248.3 997.4,261.3 994,266.8 997.4,275.4 
				1003.6,276.3 1003.6,295.7 997.4,296.5 994,304.4 997.4,310.6 984.3,323.8 979.1,320.1 970.2,323.8 969.3,329.9 951.1,329.9 			
				"/>
		</g>
		<circle class="st6" cx="959.7" cy="286" r="26.5"/>
		<circle class="st7" cx="959.7" cy="286" r="31.8"/>
	</g>
	<path class="st8" d="M817.7,283.4c0,0.5,0,0.9,0,1.4c-0.7,4.6-4.2,8.2-8.8,8.8c-0.5,0-0.9,0.2-1.6,0.2c-5.8,0-10.4-4.6-10.4-10.4
		s4.6-10.4,10.4-10.4c0.5,0,0.9,0,1.6,0.2C813.7,273.8,817.7,278.2,817.7,283.4z"/>
	<g>
		<polyline class="st9" points="539.1,316.4 522.7,373.2 548,366.9 569.1,400.6 581.6,361.6 		"/>
		<polyline class="st9" points="642,363.9 654.4,403 675.6,369.2 700.9,375.6 684.4,318.7 		"/>
		<path class="st10" d="M612,173.6c-0.2,0.2-0.4,0.4-0.7,0.4c-8.6,6.1-22.6,14.6-41.4,19.7c-20.9,5.7-38.6,4.9-49.4,3.6
			c-4.4,47.3,1.1,87.4,18.8,118.9c10.1,17.9,24.1,33.2,42.5,45.2c8.9,6,18.8,11,29.8,15.2c0.2,0.2,0.4,0.2,0.7,0.2"/>
		<g>
			<path class="st10" d="M612.2,376.8c73.3-28.9,100.8-92.3,92.5-180c-10.8,1.3-28.5,2.1-49.4-3.6c-18.8-5.1-34.7-13.5-43.3-19.7"/>
		</g>
		<path class="st11" d="M612.1,190.9c-0.2,0.2-0.3,0.3-0.6,0.3c-7.3,5.1-18.9,12.2-34.7,16.5c-17.5,4.8-32.4,4.1-41.3,3
			c-3.8,39.5,0.9,73.1,15.7,99.5c8.5,15,20.1,27.7,35.6,37.8c7.4,5,15.7,9.2,25,12.7c0.2,0.2,0.3,0.2,0.6,0.2"/>
		<g>
			<path class="st11" d="M612.3,360.9c61.3-24.2,84.3-77.2,77.5-150.6c-9.1,1.1-23.9,1.8-41.3-3c-15.7-4.2-29-11.3-36.3-16.5"/>
		</g>
		<polyline class="st12" points="576.3,282.1 600,305.8 651.7,254.1 		"/>
	</g>
	<g>
		<g id="XMLID_2_">
			<g>
				<polygon class="st13" points="953.3,444.8 949.8,462.3 942.8,455.2 				"/>
				<polygon class="st13" points="953.3,444.8 942.8,455.2 935.4,447.9 				"/>
			</g>
			<g>
				<polyline class="st14" points="935.4,447.9 953.3,444.8 942.8,455.2 918,479.9 899.6,461.5 889.4,471.7 				"/>
				<polyline class="st14" points="935.4,447.9 942.8,455.2 949.8,462.3 953.3,444.8 				"/>
			</g>
		</g>
		<g id="XMLID_5_">
			<g>
				<polygon class="st15" points="980.2,438.8 976.3,458.9 968.2,450.8 				"/>
				<polygon class="st15" points="980.2,438.8 968.2,450.8 959.8,442.4 				"/>
			</g>
			<g>
				<polyline class="st16" points="959.8,442.4 980.2,438.8 968.2,450.8 940,479.1 918.9,458 888.6,488.3 				"/>
				<polyline class="st16" points="959.8,442.4 968.2,450.8 976.3,458.9 980.2,438.8 				"/>
			</g>
		</g>
	</g>
	<line class="st17" x1="884.5" y1="283.5" x2="817.3" y2="283.5"/>
	<polyline class="st17" points="855.9,135 814.9,135 773.9,190 	"/>
	<polyline class="st17" points="859.4,433.3 815.6,433.3 774.5,378.3 	"/>
	<circle class="st18" cx="772.6" cy="376.9" r="8.9"/>
	<circle class="st18" cx="772.3" cy="190.2" r="8.9"/>
</g>
<line class="st19" x1="526.3" y1="586.4" x2="697.6" y2="586.4"/>
<g>
	<path class="st20" d="M474.1,550.6c-4.2,0-7.1-1.1-8.7-3.4s-2.5-5.8-2.5-10.6s0.8-8.4,2.5-10.8c1.7-2.3,4.6-3.5,8.7-3.5
		s7,1.2,8.6,3.5c1.7,2.3,2.5,5.9,2.5,10.8c0,3.2-0.3,5.8-1,7.8s-1.8,3.5-3.3,4.5l3.4,5.4l-4.1,1.9l-3.6-5.8
		C476,550.6,475.2,550.6,474.1,550.6z M468.9,544.4c0.9,1.6,2.6,2.3,5.2,2.3s4.3-0.8,5.2-2.3c0.9-1.5,1.3-4.1,1.3-7.8
		s-0.5-6.3-1.4-8s-2.6-2.5-5.1-2.5s-4.2,0.8-5.2,2.5c-0.9,1.7-1.4,4.3-1.4,7.9C467.5,540.3,468,542.9,468.9,544.4z"/>
	<path class="st20" d="M502,530.2h4.3v20H502V549c-1.9,1.1-3.7,1.7-5.4,1.7c-2.7,0-4.6-0.7-5.5-2.2s-1.4-4.1-1.4-7.8v-10.4h4.4v10.5
		c0,2.4,0.2,4,0.6,4.8s1.3,1.2,2.8,1.2c1.4,0,2.8-0.3,4-0.8l0.6-0.2v-15.6H502z"/>
	<path class="st20" d="M526.4,536.4v9.1c0,0.6,0.2,1,0.5,1.3s0.7,0.5,1.3,0.5l-0.1,3.3c-2.3,0-4.1-0.5-5.3-1.5
		c-2.1,1-4.3,1.5-6.4,1.5c-4,0-6-2.1-6-6.4c0-2,0.5-3.5,1.6-4.4s2.7-1.5,5-1.6l5.2-0.4v-1.4c0-1.1-0.2-1.8-0.7-2.2s-1.2-0.6-2.1-0.6
		c-1.7,0-3.8,0.1-6.4,0.3l-1.3,0.1l-0.2-3.1c2.9-0.7,5.6-1,8-1s4.2,0.5,5.3,1.6C525.8,532.4,526.4,534.1,526.4,536.4z M517.4,541.3
		c-1.8,0.2-2.8,1.2-2.8,3s0.8,2.8,2.4,2.8c1.3,0,2.7-0.2,4.2-0.6l0.7-0.2V541L517.4,541.3z"/>
	<path class="st20" d="M532.1,550.2v-28.3h4.4v28.3H532.1z"/>
	<path class="st20" d="M542,526.8v-4.6h4.4v4.6H542z M542,550.2v-20h4.4v20H542z"/>
	<path class="st20" d="M562.4,533.9h-5.5v8.8c0,1.6,0.1,2.7,0.4,3.2c0.2,0.5,0.9,0.8,1.8,0.8l3.3-0.1l0.2,3.5
		c-1.8,0.3-3.1,0.5-4.1,0.5c-2.3,0-3.8-0.5-4.7-1.6c-0.8-1-1.3-3-1.3-5.9v-9.3H550v-3.7h2.6v-5.8h4.3v5.8h5.5L562.4,533.9
		L562.4,533.9z"/>
	<path class="st20" d="M564.1,530.2h4.3l4.2,16.3h1.1l4.2-16.3h4.3l-7.6,28.6h-4.3l2.4-8.6h-3.4L564.1,530.2z"/>
	<path class="st20" d="M592.6,550.2l6.8-27.4h8.8l6.8,27.4h-4.5l-1.5-5.9h-10.5l-1.5,5.9H592.6z M602.8,526.5l-3.4,13.9h8.8
		l-3.4-13.9H602.8z"/>
	<path class="st20" d="M632.3,534.3c-3.1-0.4-5.4-0.6-6.8-0.6s-2.4,0.2-2.9,0.5s-0.8,0.9-0.8,1.6c0,0.7,0.3,1.2,0.9,1.5
		c0.6,0.3,2,0.6,4.2,1s3.8,1,4.7,1.8s1.4,2.3,1.4,4.4s-0.7,3.7-2,4.6c-1.3,1-3.3,1.5-5.9,1.5c-1.6,0-3.7-0.2-6.2-0.7l-1.2-0.2
		l0.2-3.6c3.2,0.4,5.5,0.6,6.9,0.6s2.4-0.2,3-0.5s0.9-0.9,0.9-1.7s-0.3-1.4-0.9-1.7s-1.9-0.6-4.1-1c-2.2-0.4-3.8-0.9-4.8-1.7
		s-1.5-2.2-1.5-4.2c0-2.1,0.7-3.6,2.1-4.6c1.4-1,3.2-1.5,5.4-1.5c1.7,0,3.8,0.2,6.3,0.6l1.2,0.2L632.3,534.3z"/>
	<path class="st20" d="M651,534.3c-3.1-0.4-5.4-0.6-6.8-0.6s-2.4,0.2-2.9,0.5s-0.8,0.9-0.8,1.6c0,0.7,0.3,1.2,0.9,1.5
		c0.6,0.3,2,0.6,4.2,1s3.8,1,4.7,1.8s1.4,2.3,1.4,4.4s-0.7,3.7-2,4.6c-1.3,1-3.3,1.5-5.9,1.5c-1.6,0-3.7-0.2-6.2-0.7l-1.2-0.2
		l0.2-3.6c3.2,0.4,5.5,0.6,6.9,0.6s2.4-0.2,3-0.5s0.9-0.9,0.9-1.7s-0.3-1.4-0.9-1.7s-1.9-0.6-4.1-1c-2.2-0.4-3.8-0.9-4.8-1.7
		s-1.5-2.2-1.5-4.2c0-2.1,0.7-3.6,2.1-4.6c1.4-1,3.2-1.5,5.4-1.5c1.7,0,3.8,0.2,6.3,0.6l1.2,0.2L651,534.3z"/>
	<path class="st20" d="M668,530.2h4.3v20H668V549c-1.9,1.1-3.7,1.7-5.4,1.7c-2.7,0-4.6-0.7-5.5-2.2s-1.4-4.1-1.4-7.8v-10.4h4.4v10.5
		c0,2.4,0.2,4,0.6,4.8c0.4,0.8,1.3,1.2,2.8,1.2c1.4,0,2.8-0.3,4-0.8l0.6-0.2L668,530.2L668,530.2z"/>
	<path class="st20" d="M677.6,550.2v-20h4.3v2.4c2.3-1.5,4.5-2.4,6.8-2.8v4.4c-2.3,0.5-4.3,1-5.9,1.8l-0.9,0.4v14h-4.3V550.2z"/>
	<path class="st20" d="M706.9,536.4v9.1c0,0.6,0.2,1,0.5,1.3s0.7,0.5,1.3,0.5l-0.1,3.3c-2.3,0-4.1-0.5-5.3-1.5
		c-2.1,1-4.3,1.5-6.4,1.5c-4,0-6-2.1-6-6.4c0-2,0.5-3.5,1.6-4.4s2.7-1.5,5-1.6l5.2-0.4v-1.4c0-1.1-0.2-1.8-0.7-2.2s-1.2-0.6-2.1-0.6
		c-1.7,0-3.8,0.1-6.4,0.3l-1.3,0.1l-0.2-3.1c2.9-0.7,5.6-1,8-1s4.2,0.5,5.3,1.6C706.3,532.4,706.9,534.1,706.9,536.4z M697.9,541.3
		c-1.8,0.2-2.8,1.2-2.8,3s0.8,2.8,2.4,2.8c1.3,0,2.7-0.2,4.2-0.6l0.7-0.2V541L697.9,541.3z"/>
	<path class="st20" d="M716.7,550.2h-4.4v-20h4.3v1.2c1.9-1.1,3.8-1.7,5.5-1.7c2.7,0,4.5,0.8,5.5,2.3s1.5,4,1.5,7.5v10.7h-4.3v-10.6
		c0-2.2-0.2-3.7-0.7-4.6c-0.5-0.9-1.4-1.4-2.9-1.4c-1.4,0-2.7,0.3-3.9,0.8l-0.6,0.2L716.7,550.2L716.7,550.2z"/>
	<path class="st20" d="M741.7,529.8c1.4,0,3.1,0.2,5,0.6l1,0.2l-0.2,3.4c-2.1-0.2-3.7-0.3-4.7-0.3c-2,0-3.4,0.5-4.1,1.4
		c-0.7,0.9-1,2.6-1,5.1s0.3,4.2,1,5.2s2.1,1.4,4.2,1.4l4.7-0.3l0.1,3.5c-2.7,0.5-4.7,0.7-6.1,0.7c-3,0-5.2-0.8-6.4-2.5
		c-1.2-1.6-1.9-4.3-1.9-8.1s0.7-6.4,2-8S738.7,529.8,741.7,529.8z"/>
	<path class="st20" d="M765.9,546.6l1.1-0.1l0.1,3.2c-3,0.6-5.7,0.9-8.1,0.9c-3,0-5.1-0.8-6.4-2.4c-1.3-1.6-1.9-4.2-1.9-7.8
		c0-7.1,2.9-10.6,8.7-10.6c5.6,0,8.4,3.1,8.4,9.2l-0.3,3.1h-12.4c0,1.7,0.4,2.9,1.1,3.6c0.7,0.8,2,1.2,3.9,1.2
		S763.9,546.8,765.9,546.6z M763.5,538.7c0-2-0.3-3.4-0.9-4.1c-0.6-0.8-1.7-1.2-3.2-1.2s-2.6,0.4-3.3,1.2s-1,2.2-1.1,4.1H763.5z"/>
</g>
<g>
	<path class="st20" d="M311.3,653.7l6.7-24.2h5.9l6.6,24.2h-2.7l-1.8-6.2h-10.4l-1.8,6.2H311.3z M320,631.8l-3.7,13.3h9.2l-3.7-13.3
		H320z"/>
	<path class="st20" d="M339.3,638.2c-2.5,0-3.8,0.9-3.8,2.7c0,0.8,0.3,1.4,0.9,1.7s1.9,0.7,4,1c2.1,0.4,3.5,0.9,4.4,1.5
		c0.9,0.7,1.3,1.9,1.3,3.7s-0.6,3.1-1.7,4c-1.2,0.8-2.8,1.3-5.1,1.3c-1.4,0-3.1-0.2-5.1-0.5l-1.1-0.2l0.1-2.3c2.7,0.4,4.7,0.6,6,0.6
		c1.4,0,2.4-0.2,3.1-0.6c0.7-0.4,1.1-1.2,1.1-2.2s-0.3-1.7-0.9-2.1c-0.6-0.4-1.9-0.7-4-1s-3.5-0.8-4.4-1.4c-0.9-0.6-1.3-1.8-1.3-3.5
		s0.6-3,1.8-3.8c1.2-0.8,2.7-1.2,4.5-1.2c1.4,0,3.2,0.2,5.4,0.5l1,0.2l-0.1,2.2C342.9,638.4,340.8,638.2,339.3,638.2z"/>
	<path class="st20" d="M356.2,636.2h2.6l4.4,15.2h1.2l4.4-15.2h2.6l-7.3,25.3h-2.6l2.3-7.8h-2.6L356.2,636.2z"/>
	<path class="st20" d="M373.6,644.9c0-3.2,0.6-5.5,1.7-6.9s3.1-2.1,5.8-2.1s4.6,0.7,5.8,2.1c1.1,1.4,1.7,3.7,1.7,6.9s-0.5,5.5-1.6,7
		c-1.1,1.4-3,2.2-5.9,2.2c-2.8,0-4.8-0.7-5.9-2.2C374.2,650.4,373.6,648.1,373.6,644.9z M376.3,644.8c0,2.6,0.3,4.3,0.9,5.4
		c0.6,1,1.9,1.5,3.9,1.5s3.3-0.5,3.9-1.5s0.9-2.8,0.9-5.4c0-2.6-0.3-4.3-1-5.3s-1.9-1.5-3.8-1.5c-1.8,0-3.1,0.5-3.8,1.5
		C376.7,640.5,376.3,642.3,376.3,644.8z"/>
	<path class="st20" d="M403.8,636.2h2.6v17.5h-2.6v-1.2c-1.8,1-3.5,1.6-5.2,1.6c-2.4,0-4-0.6-4.7-1.9c-0.8-1.2-1.2-3.5-1.2-6.9v-9.1
		h2.6v9.1c0,2.5,0.2,4.2,0.7,5.1s1.4,1.3,3,1.3c0.8,0,1.6-0.1,2.3-0.3c0.8-0.2,1.4-0.4,1.8-0.6l0.6-0.3v-14.3H403.8z"/>
	<path class="st20" d="M411.5,653.7v-17.5h2.6v2.4c2-1.4,4.2-2.3,6.4-2.8v2.7c-1,0.2-2,0.5-3.1,0.9s-1.9,0.7-2.4,1l-0.9,0.5v12.8
		L411.5,653.7L411.5,653.7z"/>
	<path class="st20" d="M440.3,654c-3.6,0-6.1-1-7.5-3s-2.1-5.1-2.1-9.4c0-4.3,0.7-7.4,2.1-9.5s3.9-3.1,7.5-3.1s6.1,1,7.5,3.1
		s2.1,5.2,2.1,9.5c0,3-0.3,5.3-0.9,7.1s-1.6,3.1-3.1,4l3,4.8l-2.5,1.2l-3.1-5C442.5,653.9,441.5,654,440.3,654z M433.5,641.7
		c0,3.5,0.5,6.1,1.4,7.6c0.9,1.6,2.7,2.3,5.4,2.3c2.7,0,4.5-0.8,5.4-2.3s1.4-4,1.4-7.6s-0.5-6.2-1.4-7.8c-1-1.6-2.7-2.5-5.4-2.5
		s-4.4,0.8-5.4,2.4C434,635.5,433.5,638.1,433.5,641.7z"/>
	<path class="st20" d="M452.3,653.7l6.7-24.2h5.9l6.6,24.2h-2.7l-1.8-6.2h-10.4l-1.8,6.2H452.3z M461,631.8l-3.7,13.3h9.2l-3.7-13.3
		H461z"/>
	<path class="st20" d="M488,638.2c-2.5,0-3.8,0.9-3.8,2.7c0,0.8,0.3,1.4,0.9,1.7s1.9,0.7,4,1c2.1,0.4,3.5,0.9,4.4,1.5
		c0.9,0.7,1.3,1.9,1.3,3.7s-0.6,3.1-1.7,4c-1.2,0.8-2.8,1.3-5.1,1.3c-1.4,0-3.1-0.2-5.1-0.5l-1.1-0.2l0.1-2.3c2.7,0.4,4.7,0.6,6,0.6
		c1.4,0,2.4-0.2,3.1-0.6c0.7-0.4,1.1-1.2,1.1-2.2s-0.3-1.7-0.9-2.1c-0.6-0.4-1.9-0.7-4-1s-3.5-0.8-4.4-1.4c-0.9-0.6-1.3-1.8-1.3-3.5
		s0.6-3,1.8-3.8c1.2-0.8,2.7-1.2,4.5-1.2c1.4,0,3.2,0.2,5.4,0.5l1,0.2l-0.1,2.2C491.6,638.4,489.5,638.2,488,638.2z"/>
	<path class="st20" d="M498.8,661.4v-25.3h2.6v1.3c1.8-1.1,3.5-1.6,5.2-1.6c2.2,0,3.8,0.7,4.8,2.1c1,1.4,1.5,3.7,1.5,7
		s-0.6,5.6-1.8,7s-3.1,2.1-5.9,2.1c-1.4,0-2.7-0.1-3.9-0.4v7.8L498.8,661.4L498.8,661.4z M506.3,638.2c-0.7,0-1.5,0.1-2.3,0.3
		s-1.4,0.5-1.9,0.7l-0.7,0.3v11.8c1.7,0.3,2.9,0.4,3.8,0.4c1.9,0,3.2-0.5,4-1.6s1.1-2.8,1.1-5.2s-0.3-4.2-1-5.2
		C508.6,638.7,507.6,638.2,506.3,638.2z"/>
	<path class="st20" d="M529.1,651.5l1-0.1l0.1,2.1c-2.7,0.4-4.9,0.6-6.8,0.6c-2.5,0-4.3-0.7-5.4-2.2c-1.1-1.5-1.6-3.7-1.6-6.8
		c0-6.1,2.4-9.2,7.3-9.2c2.4,0,4.1,0.7,5.3,2s1.8,3.4,1.8,6.2l-0.1,2h-11.5c0,1.9,0.3,3.4,1,4.3c0.7,0.9,1.9,1.4,3.7,1.4
		C525.6,651.7,527.4,651.6,529.1,651.5z M528.2,643.9c0-2.1-0.3-3.7-1-4.6c-0.7-0.9-1.8-1.3-3.4-1.3c-1.6,0-2.7,0.5-3.5,1.4
		s-1.2,2.4-1.2,4.5L528.2,643.9L528.2,643.9z"/>
	<path class="st20" d="M541.5,635.8c0.8,0,2.1,0.1,3.9,0.4l0.8,0.1l-0.1,2.1c-1.9-0.2-3.2-0.3-4.1-0.3c-2,0-3.3,0.5-4,1.4
		s-1.1,2.7-1.1,5.2c0,2.6,0.3,4.3,1,5.3s2,1.5,4.1,1.5l4.1-0.3l0.1,2.2c-2.2,0.3-3.8,0.5-4.9,0.5c-2.7,0-4.6-0.7-5.7-2.1
		s-1.6-3.8-1.6-7.1s0.6-5.7,1.7-7C537,636.5,538.9,635.8,541.5,635.8z"/>
	<path class="st20" d="M550.2,632.2v-3h2.6v3H550.2z M550.2,653.7v-17.5h2.6v17.5H550.2z"/>
	<path class="st20" d="M570.2,641.5v9c0.1,0.9,0.7,1.4,2,1.5l-0.1,2.1c-1.8,0-3.2-0.5-4.2-1.4c-2.1,0.9-4.2,1.4-6.3,1.4
		c-1.6,0-2.8-0.5-3.7-1.4c-0.8-0.9-1.3-2.2-1.3-3.9s0.4-3,1.3-3.8c0.9-0.8,2.2-1.3,4.1-1.5l5.5-0.5v-1.5c0-1.2-0.3-2-0.8-2.6
		c-0.5-0.5-1.2-0.8-2.1-0.8c-1.9,0-3.8,0.1-5.8,0.3l-1.1,0.1l-0.1-2c2.6-0.5,4.8-0.8,6.8-0.8s3.4,0.5,4.3,1.4
		C569.8,638.1,570.2,639.5,570.2,641.5z M559.4,648.6c0,2.1,0.9,3.2,2.7,3.2c1.6,0,3.1-0.3,4.7-0.8l0.8-0.3V645l-5.2,0.5
		c-1,0.1-1.8,0.4-2.3,0.9C559.7,646.9,559.4,647.6,559.4,648.6z"/>
	<path class="st20" d="M575.6,653.7v-25.1h2.6v25.1H575.6z"/>
	<path class="st20" d="M583.5,632.2v-3h2.6v3H583.5z M583.5,653.7v-17.5h2.6v17.5H583.5z"/>
	<path class="st20" d="M596.6,638.2c-2.5,0-3.8,0.9-3.8,2.7c0,0.8,0.3,1.4,0.9,1.7c0.6,0.3,1.9,0.7,4,1c2.1,0.4,3.5,0.9,4.4,1.5
		c0.9,0.7,1.3,1.9,1.3,3.7s-0.6,3.1-1.7,4c-1.2,0.8-2.8,1.3-5.1,1.3c-1.4,0-3.1-0.2-5.1-0.5l-1.1-0.2l0.1-2.3c2.7,0.4,4.7,0.6,6,0.6
		c1.4,0,2.4-0.2,3.1-0.6c0.7-0.4,1.1-1.2,1.1-2.2s-0.3-1.7-0.9-2.1c-0.6-0.4-1.9-0.7-4-1s-3.5-0.8-4.4-1.4c-0.9-0.6-1.3-1.8-1.3-3.5
		s0.6-3,1.8-3.8s2.7-1.2,4.5-1.2c1.4,0,3.2,0.2,5.4,0.5l1,0.2l-0.1,2.2C600.2,638.4,598.1,638.2,596.6,638.2z"/>
	<path class="st20" d="M616.5,638.5h-5.6v8.4c0,2,0.1,3.3,0.4,4c0.3,0.6,1,0.9,2.1,0.9l3.1-0.2l0.2,2.2c-1.6,0.3-2.8,0.4-3.6,0.4
		c-1.8,0-3.1-0.4-3.8-1.3c-0.7-0.9-1-2.6-1-5.1v-9.2h-2.5v-2.3h2.5v-5.4h2.6v5.4h5.6V638.5z"/>
	<path class="st20" d="M618.4,658l1.6-8h2.9l-2.3,8H618.4z"/>
	<path class="st20" d="M633.7,629.5h2.8l4.1,21.8h1l4.9-21.6h3.2l4.9,21.6h1l4.1-21.8h2.8l-4.9,24.2h-4.9l-4.6-20.7l-4.6,20.7h-4.9
		L633.7,629.5z"/>
	<path class="st20" d="M666.2,632.2v-3h2.6v3H666.2z M666.2,653.7v-17.5h2.6v17.5H666.2z"/>
	<path class="st20" d="M679.4,638.2c-2.5,0-3.8,0.9-3.8,2.7c0,0.8,0.3,1.4,0.9,1.7c0.6,0.3,1.9,0.7,4,1c2.1,0.4,3.5,0.9,4.4,1.5
		s1.3,1.9,1.3,3.7s-0.6,3.1-1.7,4c-1.2,0.8-2.8,1.3-5.1,1.3c-1.4,0-3.2-0.2-5.1-0.5l-1-0.2l0.1-2.3c2.7,0.4,4.7,0.6,6,0.6
		c1.4,0,2.4-0.2,3.1-0.6s1.1-1.2,1.1-2.2s-0.3-1.7-0.9-2.1c-0.6-0.4-1.9-0.7-4-1s-3.5-0.8-4.4-1.4s-1.3-1.8-1.3-3.5s0.6-3,1.8-3.8
		s2.7-1.2,4.5-1.2c1.4,0,3.2,0.2,5.4,0.5l1,0.2l-0.1,2.2C682.9,638.4,680.9,638.2,679.4,638.2z"/>
	<path class="st20" d="M692.8,653.7h-2.6v-25.1h2.6v8.6c1.9-0.9,3.7-1.3,5.4-1.3c2.3,0,3.9,0.6,4.7,1.9c0.8,1.3,1.2,3.5,1.2,6.7v9.2
		h-2.6v-9.2c0-2.4-0.2-4.1-0.7-5s-1.5-1.3-3-1.3s-2.9,0.3-4.3,0.8l-0.7,0.2L692.8,653.7L692.8,653.7z"/>
	<path class="st20" d="M715.2,629.5h2.8l4.1,21.8h1l4.9-21.6h3.2l4.9,21.6h1l4.1-21.8h2.8l-4.9,24.2h-4.9l-4.6-20.7l-4.6,20.7h-4.9
		L715.2,629.5z"/>
	<path class="st20" d="M746.2,644.9c0-3.2,0.6-5.5,1.7-6.9c1.1-1.4,3.1-2.1,5.8-2.1s4.6,0.7,5.8,2.1c1.1,1.4,1.7,3.7,1.7,6.9
		s-0.5,5.5-1.6,7c-1.1,1.4-3,2.2-5.9,2.2c-2.8,0-4.8-0.7-5.9-2.2C746.7,650.4,746.2,648.1,746.2,644.9z M748.9,644.8
		c0,2.6,0.3,4.3,0.9,5.4c0.6,1,1.9,1.5,3.9,1.5s3.3-0.5,3.9-1.5c0.6-1,0.9-2.8,0.9-5.4c0-2.6-0.3-4.3-1-5.3s-1.9-1.5-3.8-1.5
		c-1.8,0-3.1,0.5-3.8,1.5C749.2,640.5,748.9,642.3,748.9,644.8z"/>
	<path class="st20" d="M765.4,653.7v-17.5h2.6v2.4c2-1.4,4.2-2.3,6.4-2.8v2.7c-1,0.2-2,0.5-3.1,0.9s-1.9,0.7-2.4,1l-0.9,0.5v12.8
		L765.4,653.7L765.4,653.7z"/>
	<path class="st20" d="M780.2,653.7h-2.6v-25.1h2.6v14.8l2.7-0.1l5-7.1h3l-5.7,8l5.9,9.5h-3l-5.2-8.1l-2.8,0.1L780.2,653.7
		L780.2,653.7z"/>
	<path class="st20" d="M804.6,653.7H802v-17.5h2.6v1.2c1.8-1,3.5-1.6,5.1-1.6c2.2,0,3.7,0.6,4.5,1.8c0.8-0.5,1.8-0.9,3-1.2
		c1.2-0.4,2.3-0.5,3.2-0.5c2.3,0,3.9,0.6,4.7,1.9c0.8,1.2,1.2,3.5,1.2,6.7v9.2h-2.6v-9.2c0-2.4-0.2-4.1-0.7-5s-1.5-1.3-3-1.3
		c-0.8,0-1.6,0.1-2.4,0.3c-0.8,0.2-1.4,0.4-1.9,0.6l-0.7,0.3c0.3,0.8,0.5,2.5,0.5,5.1v9.1H813v-9c0-2.5-0.2-4.2-0.7-5.1
		s-1.5-1.3-3-1.3c-0.7,0-1.5,0.1-2.3,0.3s-1.4,0.4-1.8,0.6l-0.6,0.3L804.6,653.7L804.6,653.7z"/>
	<path class="st20" d="M843.6,641.5v9c0.1,0.9,0.7,1.4,2,1.5l-0.1,2.1c-1.8,0-3.2-0.5-4.2-1.4c-2.1,0.9-4.2,1.4-6.3,1.4
		c-1.6,0-2.8-0.5-3.7-1.4c-0.8-0.9-1.3-2.2-1.3-3.9s0.4-3,1.3-3.8c0.9-0.8,2.2-1.3,4.1-1.5l5.5-0.5v-1.5c0-1.2-0.3-2-0.8-2.6
		c-0.5-0.5-1.2-0.8-2.1-0.8c-1.9,0-3.8,0.1-5.8,0.3l-1.1,0.1l-0.1-2c2.6-0.5,4.8-0.8,6.8-0.8s3.4,0.5,4.3,1.4
		C843.2,638.1,843.6,639.5,843.6,641.5z M832.8,648.6c0,2.1,0.9,3.2,2.7,3.2c1.6,0,3.2-0.3,4.7-0.8l0.8-0.3V645l-5.2,0.5
		c-1.1,0.1-1.8,0.4-2.3,0.9C833.1,646.9,832.8,647.6,832.8,648.6z"/>
	<path class="st20" d="M851.4,653.7h-2.6v-25.1h2.6v14.8l2.7-0.1l5-7.1h3l-5.7,8l5.9,9.5h-3l-5.2-8.1l-2.8,0.1L851.4,653.7
		L851.4,653.7z"/>
	<path class="st20" d="M877,651.5l1-0.1l0.1,2.1c-2.7,0.4-4.9,0.6-6.8,0.6c-2.5,0-4.3-0.7-5.4-2.2c-1-1.5-1.6-3.7-1.6-6.8
		c0-6.1,2.4-9.2,7.3-9.2c2.4,0,4.1,0.7,5.3,2s1.8,3.4,1.8,6.2l-0.1,2H867c0,1.9,0.3,3.4,1,4.3c0.7,0.9,1.9,1.4,3.7,1.4
		S875.2,651.6,877,651.5z M876.1,643.9c0-2.1-0.3-3.7-1-4.6c-0.7-0.9-1.8-1.3-3.4-1.3s-2.7,0.5-3.5,1.4s-1.2,2.4-1.2,4.5
		L876.1,643.9L876.1,643.9z"/>
	<path class="st20" d="M888.3,638.2c-2.5,0-3.8,0.9-3.8,2.7c0,0.8,0.3,1.4,0.9,1.7c0.6,0.3,1.9,0.7,4,1c2.1,0.4,3.5,0.9,4.4,1.5
		s1.3,1.9,1.3,3.7s-0.6,3.1-1.7,4c-1.2,0.8-2.8,1.3-5.1,1.3c-1.4,0-3.2-0.2-5.1-0.5l-1-0.2l0.1-2.3c2.7,0.4,4.7,0.6,6,0.6
		c1.4,0,2.4-0.2,3.1-0.6s1.1-1.2,1.1-2.2s-0.3-1.7-0.9-2.1c-0.6-0.4-1.9-0.7-4-1s-3.5-0.8-4.4-1.4s-1.3-1.8-1.3-3.5s0.6-3,1.8-3.8
		s2.7-1.2,4.5-1.2c1.4,0,3.2,0.2,5.4,0.5l1,0.2l-0.1,2.2C891.8,638.4,889.8,638.2,888.3,638.2z"/>
	<path class="st20" d="M311.5,680.2c-2.5,0-3.8,0.9-3.8,2.7c0,0.8,0.3,1.4,0.9,1.7s1.9,0.7,4,1c2.1,0.4,3.5,0.9,4.4,1.5
		c0.9,0.7,1.3,1.9,1.3,3.7s-0.6,3.1-1.7,4c-1.2,0.8-2.8,1.3-5.1,1.3c-1.4,0-3.1-0.2-5.1-0.5l-1.1-0.2l0.1-2.3c2.7,0.4,4.7,0.6,6,0.6
		c1.4,0,2.4-0.2,3.1-0.6c0.7-0.4,1.1-1.2,1.1-2.2s-0.3-1.7-0.9-2.1c-0.6-0.4-1.9-0.7-4-1s-3.5-0.8-4.4-1.4c-0.9-0.6-1.3-1.8-1.3-3.5
		s0.6-3,1.8-3.8c1.2-0.8,2.7-1.2,4.5-1.2c1.4,0,3.2,0.2,5.4,0.5l1,0.2l-0.1,2.2C315,680.4,312.9,680.2,311.5,680.2z"/>
	<path class="st20" d="M333.2,678.2h2.6v17.5h-2.6v-1.2c-1.8,1-3.5,1.6-5.2,1.6c-2.4,0-4-0.6-4.7-1.9c-0.8-1.2-1.2-3.5-1.2-6.9v-9.1
		h2.6v9.1c0,2.5,0.2,4.2,0.7,5.1s1.4,1.3,3,1.3c0.8,0,1.6-0.1,2.3-0.3c0.8-0.2,1.4-0.4,1.8-0.6l0.6-0.3v-14.3H333.2z"/>
	<path class="st20" d="M340.8,695.7v-17.5h2.6v2.4c2-1.4,4.2-2.3,6.4-2.8v2.7c-1,0.2-2,0.5-3.1,0.9s-1.9,0.7-2.4,1l-0.9,0.5v12.8
		L340.8,695.7L340.8,695.7z"/>
	<path class="st20" d="M364.5,693.5l1-0.1l0.1,2.1c-2.7,0.4-4.9,0.6-6.8,0.6c-2.5,0-4.3-0.7-5.4-2.2s-1.6-3.7-1.6-6.8
		c0-6.1,2.4-9.2,7.3-9.2c2.4,0,4.1,0.7,5.3,2c1.2,1.3,1.8,3.4,1.8,6.2l-0.1,2h-11.5c0,1.9,0.3,3.4,1,4.3c0.7,0.9,1.9,1.4,3.7,1.4
		C360.9,693.7,362.7,693.6,364.5,693.5z M363.5,685.9c0-2.1-0.3-3.7-1-4.6c-0.7-0.9-1.8-1.3-3.4-1.3s-2.7,0.5-3.5,1.4
		s-1.2,2.4-1.2,4.5L363.5,685.9L363.5,685.9z"/>
	<path class="st20" d="M387,680.5h-5.6v8.4c0,2,0.1,3.3,0.4,4c0.3,0.6,1,0.9,2.1,0.9l3.1-0.2l0.2,2.2c-1.6,0.3-2.8,0.4-3.6,0.4
		c-1.8,0-3.1-0.4-3.8-1.3c-0.7-0.9-1-2.6-1-5.1v-9.2h-2.5v-2.3h2.5v-5.4h2.6v5.4h5.6L387,680.5L387,680.5z"/>
	<path class="st20" d="M392.9,695.7h-2.6v-25.1h2.6v8.6c1.9-0.9,3.7-1.3,5.4-1.3c2.3,0,3.9,0.6,4.7,1.9c0.8,1.3,1.2,3.5,1.2,6.7v9.2
		h-2.6v-9.2c0-2.4-0.2-4.1-0.7-5s-1.5-1.3-3-1.3s-2.9,0.3-4.3,0.8l-0.7,0.2V695.7z"/>
	<path class="st20" d="M421.4,683.5v9c0.1,0.9,0.7,1.4,2,1.5l-0.1,2.1c-1.8,0-3.2-0.5-4.2-1.4c-2.1,0.9-4.2,1.4-6.3,1.4
		c-1.6,0-2.8-0.5-3.7-1.4c-0.8-0.9-1.3-2.2-1.3-3.9s0.4-3,1.3-3.8s2.2-1.3,4.1-1.5l5.5-0.5v-1.5c0-1.2-0.3-2-0.8-2.6
		c-0.5-0.5-1.2-0.8-2.1-0.8c-1.9,0-3.8,0.1-5.8,0.3l-1.1,0.1l-0.1-2c2.6-0.5,4.8-0.8,6.8-0.8s3.4,0.5,4.3,1.4
		C420.9,680.1,421.4,681.5,421.4,683.5z M410.6,690.6c0,2.1,0.9,3.2,2.7,3.2c1.6,0,3.1-0.3,4.7-0.8l0.8-0.3V687l-5.2,0.5
		c-1,0.1-1.8,0.4-2.3,0.9C410.8,688.9,410.6,689.6,410.6,690.6z"/>
	<path class="st20" d="M435.6,680.5H430v8.4c0,2,0.1,3.3,0.4,4c0.3,0.6,1,0.9,2.1,0.9l3.1-0.2l0.2,2.2c-1.6,0.3-2.8,0.4-3.6,0.4
		c-1.8,0-3.1-0.4-3.8-1.3c-0.7-0.9-1-2.6-1-5.1v-9.2H425v-2.3h2.5v-5.4h2.6v5.4h5.6v2.2H435.6z"/>
	<path class="st20" d="M444.9,678.2h2.6l4.4,15.2h1.2l4.4-15.2h2.6l-7.3,25.3h-2.6l2.3-7.8h-2.6L444.9,678.2z"/>
	<path class="st20" d="M462.4,686.9c0-3.2,0.6-5.5,1.7-6.9s3.1-2.1,5.8-2.1s4.6,0.7,5.8,2.1c1.1,1.4,1.7,3.7,1.7,6.9s-0.5,5.5-1.6,7
		c-1.1,1.4-3,2.2-5.9,2.2c-2.8,0-4.8-0.7-5.9-2.2S462.4,690.1,462.4,686.9z M465.1,686.8c0,2.6,0.3,4.3,0.9,5.4
		c0.6,1,1.9,1.5,3.9,1.5s3.3-0.5,3.9-1.5s0.9-2.8,0.9-5.4c0-2.6-0.3-4.3-1-5.3s-1.9-1.5-3.8-1.5c-1.8,0-3.1,0.5-3.8,1.5
		C465.4,682.5,465.1,684.3,465.1,686.8z"/>
	<path class="st20" d="M492.5,678.2h2.6v17.5h-2.6v-1.2c-1.8,1-3.5,1.6-5.2,1.6c-2.4,0-4-0.6-4.7-1.9c-0.8-1.2-1.2-3.5-1.2-6.9v-9.1
		h2.6v9.1c0,2.5,0.2,4.2,0.7,5.1s1.4,1.3,3,1.3c0.8,0,1.6-0.1,2.3-0.3c0.8-0.2,1.4-0.4,1.8-0.6l0.6-0.3v-14.3H492.5z"/>
	<path class="st20" d="M500.2,695.7v-17.5h2.6v2.4c2-1.4,4.2-2.3,6.4-2.8v2.7c-1,0.2-2,0.5-3.1,0.9s-1.9,0.7-2.4,1l-0.9,0.5v12.8
		L500.2,695.7L500.2,695.7z"/>
	<path class="st20" d="M520,703.4v-25.3h2.6v1.3c1.8-1.1,3.5-1.6,5.2-1.6c2.2,0,3.8,0.7,4.8,2.1c1,1.4,1.5,3.7,1.5,7s-0.6,5.6-1.8,7
		s-3.1,2.1-5.9,2.1c-1.4,0-2.7-0.1-3.9-0.4v7.8L520,703.4L520,703.4z M527.5,680.2c-0.7,0-1.5,0.1-2.3,0.3s-1.4,0.5-1.9,0.7
		l-0.7,0.3v11.8c1.7,0.3,2.9,0.4,3.8,0.4c1.9,0,3.2-0.5,4-1.6s1.1-2.8,1.1-5.2s-0.3-4.2-1-5.2C529.8,680.7,528.8,680.2,527.5,680.2z
		"/>
	<path class="st20" d="M538.5,695.7v-17.5h2.6v2.4c2-1.4,4.2-2.3,6.4-2.8v2.7c-1,0.2-2,0.5-3.1,0.9s-1.9,0.7-2.4,1l-0.9,0.5v12.8
		L538.5,695.7L538.5,695.7z"/>
	<path class="st20" d="M549.4,686.9c0-3.2,0.6-5.5,1.7-6.9c1.1-1.4,3.1-2.1,5.8-2.1s4.6,0.7,5.8,2.1c1.1,1.4,1.7,3.7,1.7,6.9
		s-0.5,5.5-1.6,7c-1.1,1.4-3,2.2-5.9,2.2c-2.8,0-4.8-0.7-5.9-2.2C550,692.4,549.4,690.1,549.4,686.9z M552.1,686.8
		c0,2.6,0.3,4.3,0.9,5.4c0.6,1,1.9,1.5,3.9,1.5s3.3-0.5,3.9-1.5c0.6-1,0.9-2.8,0.9-5.4c0-2.6-0.3-4.3-1-5.3s-1.9-1.5-3.8-1.5
		c-1.8,0-3.1,0.5-3.8,1.5C552.5,682.5,552.1,684.3,552.1,686.8z"/>
	<path class="st20" d="M568.7,695.2v-17h2.6v17.1c0,2.1-0.4,3.8-1.2,4.8c-0.8,1.1-2.3,2.2-4.7,3.4l-1-2c1.8-1.1,3-1.9,3.5-2.7
		C568.5,698,568.7,696.9,568.7,695.2z M568.7,674.2v-3h2.6v3H568.7z"/>
	<path class="st20" d="M588.3,693.5l1-0.1l0.1,2.1c-2.7,0.4-4.9,0.6-6.8,0.6c-2.5,0-4.3-0.7-5.4-2.2c-1.1-1.5-1.6-3.7-1.6-6.8
		c0-6.1,2.4-9.2,7.3-9.2c2.4,0,4.1,0.7,5.3,2s1.8,3.4,1.8,6.2l-0.1,2h-11.5c0,1.9,0.3,3.4,1,4.3c0.7,0.9,1.9,1.4,3.7,1.4
		C584.7,693.7,586.5,693.6,588.3,693.5z M587.3,685.9c0-2.1-0.3-3.7-1-4.6c-0.7-0.9-1.8-1.3-3.4-1.3c-1.6,0-2.7,0.5-3.5,1.4
		s-1.2,2.4-1.2,4.5L587.3,685.9L587.3,685.9z"/>
	<path class="st20" d="M600.6,677.8c0.8,0,2.1,0.1,3.9,0.4l0.8,0.1l-0.1,2.1c-1.9-0.2-3.2-0.3-4.1-0.3c-2,0-3.3,0.5-4,1.4
		s-1.1,2.7-1.1,5.2c0,2.6,0.3,4.3,1,5.3s2,1.5,4.1,1.5l4.1-0.3l0.1,2.2c-2.2,0.3-3.8,0.5-4.9,0.5c-2.7,0-4.6-0.7-5.7-2.1
		s-1.6-3.8-1.6-7.1s0.6-5.7,1.7-7C596.1,678.5,598,677.8,600.6,677.8z"/>
	<path class="st20" d="M618.4,680.5h-5.6v8.4c0,2,0.1,3.3,0.4,4c0.3,0.6,1,0.9,2.1,0.9l3.1-0.2l0.2,2.2c-1.6,0.3-2.8,0.4-3.6,0.4
		c-1.8,0-3.1-0.4-3.8-1.3c-0.7-0.9-1-2.6-1-5.1v-9.2h-2.5v-2.3h2.5v-5.4h2.6v5.4h5.6V680.5z"/>
	<path class="st20" d="M629.3,674.2v-3h2.6v3H629.3z M629.3,695.7v-17.5h2.6v17.5H629.3z"/>
	<path class="st20" d="M642.4,680.2c-2.5,0-3.8,0.9-3.8,2.7c0,0.8,0.3,1.4,0.9,1.7c0.6,0.3,1.9,0.7,4,1c2.1,0.4,3.5,0.9,4.4,1.5
		s1.3,1.9,1.3,3.7s-0.6,3.1-1.7,4c-1.2,0.8-2.8,1.3-5.1,1.3c-1.4,0-3.2-0.2-5.1-0.5l-1-0.2l0.1-2.3c2.7,0.4,4.7,0.6,6,0.6
		c1.4,0,2.4-0.2,3.1-0.6s1.1-1.2,1.1-2.2s-0.3-1.7-0.9-2.1c-0.6-0.4-1.9-0.7-4-1s-3.5-0.8-4.4-1.4s-1.3-1.8-1.3-3.5s0.6-3,1.8-3.8
		s2.7-1.2,4.5-1.2c1.4,0,3.2,0.2,5.4,0.5l1,0.2l-0.1,2.2C646,680.4,643.9,680.2,642.4,680.2z"/>
	<path class="st20" d="M670,680.5h-5.6v8.4c0,2,0.1,3.3,0.4,4s1,0.9,2.1,0.9l3.1-0.2l0.2,2.2c-1.6,0.3-2.8,0.4-3.6,0.4
		c-1.8,0-3.1-0.4-3.8-1.3c-0.7-0.9-1.1-2.6-1.1-5.1v-9.2h-2.5v-2.3h2.5v-5.4h2.6v5.4h5.6L670,680.5L670,680.5z"/>
	<path class="st20" d="M675.8,695.7h-2.6v-25.1h2.6v8.6c1.9-0.9,3.7-1.3,5.4-1.3c2.3,0,3.9,0.6,4.7,1.9c0.8,1.3,1.2,3.5,1.2,6.7v9.2
		h-2.6v-9.2c0-2.4-0.2-4.1-0.7-5s-1.5-1.3-3-1.3s-2.9,0.3-4.3,0.8l-0.7,0.2L675.8,695.7L675.8,695.7z"/>
	<path class="st20" d="M703.9,693.5l1-0.1l0.1,2.1c-2.7,0.4-4.9,0.6-6.8,0.6c-2.5,0-4.3-0.7-5.4-2.2c-1-1.5-1.6-3.7-1.6-6.8
		c0-6.1,2.4-9.2,7.3-9.2c2.4,0,4.1,0.7,5.3,2s1.8,3.4,1.8,6.2l-0.1,2H694c0,1.9,0.3,3.4,1,4.3c0.7,0.9,1.9,1.4,3.7,1.4
		S702.1,693.6,703.9,693.5z M703,685.9c0-2.1-0.3-3.7-1-4.6c-0.7-0.9-1.8-1.3-3.4-1.3s-2.7,0.5-3.5,1.4s-1.2,2.4-1.2,4.5L703,685.9
		L703,685.9z"/>
	<path class="st20" d="M720,695.7h-2.6v-17.5h2.6v1.2c1.8-1,3.5-1.6,5.1-1.6c2.2,0,3.7,0.6,4.5,1.8c0.8-0.5,1.8-0.9,3-1.2
		c1.2-0.4,2.3-0.5,3.2-0.5c2.3,0,3.9,0.6,4.7,1.9c0.8,1.2,1.2,3.5,1.2,6.7v9.2h-2.6v-9.2c0-2.4-0.2-4.1-0.7-5s-1.5-1.3-3-1.3
		c-0.8,0-1.6,0.1-2.4,0.3c-0.8,0.2-1.4,0.4-1.9,0.6l-0.7,0.3c0.3,0.8,0.5,2.5,0.5,5.1v9.1h-2.6v-9c0-2.5-0.2-4.2-0.7-5.1
		s-1.5-1.3-3-1.3c-0.7,0-1.5,0.1-2.3,0.3s-1.4,0.4-1.8,0.6l-0.6,0.3L720,695.7L720,695.7z"/>
	<path class="st20" d="M745.9,686.9c0-3.2,0.6-5.5,1.7-6.9c1.1-1.4,3.1-2.1,5.8-2.1s4.6,0.7,5.8,2.1c1.1,1.4,1.7,3.7,1.7,6.9
		s-0.5,5.5-1.6,7c-1.1,1.4-3,2.2-5.9,2.2c-2.8,0-4.8-0.7-5.9-2.2C746.4,692.4,745.9,690.1,745.9,686.9z M748.6,686.8
		c0,2.6,0.3,4.3,0.9,5.4c0.6,1,1.9,1.5,3.9,1.5s3.3-0.5,3.9-1.5c0.6-1,0.9-2.8,0.9-5.4c0-2.6-0.3-4.3-1-5.3s-1.9-1.5-3.8-1.5
		c-1.8,0-3.1,0.5-3.8,1.5C748.9,682.5,748.6,684.3,748.6,686.8z"/>
	<path class="st20" d="M770.6,680.2c-2.5,0-3.8,0.9-3.8,2.7c0,0.8,0.3,1.4,0.9,1.7c0.6,0.3,1.9,0.7,4,1c2.1,0.4,3.5,0.9,4.4,1.5
		s1.3,1.9,1.3,3.7s-0.6,3.1-1.7,4c-1.2,0.8-2.8,1.3-5.1,1.3c-1.4,0-3.2-0.2-5.1-0.5l-1-0.2l0.1-2.3c2.7,0.4,4.7,0.6,6,0.6
		c1.4,0,2.4-0.2,3.1-0.6s1.1-1.2,1.1-2.2s-0.3-1.7-0.9-2.1c-0.6-0.4-1.9-0.7-4-1s-3.5-0.8-4.4-1.4s-1.3-1.8-1.3-3.5s0.6-3,1.8-3.8
		s2.7-1.2,4.5-1.2c1.4,0,3.2,0.2,5.4,0.5l1,0.2l-0.1,2.2C774.1,680.4,772.1,680.2,770.6,680.2z"/>
	<path class="st20" d="M790.5,680.5h-5.6v8.4c0,2,0.1,3.3,0.4,4s1,0.9,2.1,0.9l3.1-0.2l0.2,2.2c-1.6,0.3-2.8,0.4-3.6,0.4
		c-1.8,0-3.1-0.4-3.8-1.3c-0.7-0.9-1.1-2.6-1.1-5.1v-9.2h-2.5v-2.3h2.5v-5.4h2.6v5.4h5.6L790.5,680.5L790.5,680.5z"/>
	<path class="st20" d="M801.4,703.4v-25.3h2.6v1.3c1.8-1.1,3.5-1.6,5.2-1.6c2.2,0,3.8,0.7,4.8,2.1c1,1.4,1.5,3.7,1.5,7
		s-0.6,5.6-1.8,7s-3.1,2.1-5.9,2.1c-1.4,0-2.7-0.1-3.9-0.4v7.8L801.4,703.4L801.4,703.4z M808.8,680.2c-0.7,0-1.5,0.1-2.3,0.3
		s-1.4,0.5-1.9,0.7l-0.7,0.3v11.8c1.7,0.3,2.9,0.4,3.8,0.4c1.9,0,3.2-0.5,4-1.6s1.1-2.8,1.1-5.2s-0.3-4.2-1-5.2
		C811.2,680.7,810.2,680.2,808.8,680.2z"/>
	<path class="st20" d="M831.7,693.5l1-0.1l0.1,2.1c-2.7,0.4-4.9,0.6-6.8,0.6c-2.5,0-4.3-0.7-5.4-2.2c-1-1.5-1.6-3.7-1.6-6.8
		c0-6.1,2.4-9.2,7.3-9.2c2.4,0,4.1,0.7,5.3,2s1.8,3.4,1.8,6.2l-0.1,2h-11.5c0,1.9,0.3,3.4,1,4.3c0.7,0.9,1.9,1.4,3.7,1.4
		S829.9,693.6,831.7,693.5z M830.8,685.9c0-2.1-0.3-3.7-1-4.6c-0.7-0.9-1.8-1.3-3.4-1.3s-2.7,0.5-3.5,1.4s-1.2,2.4-1.2,4.5
		L830.8,685.9L830.8,685.9z"/>
	<path class="st20" d="M837.5,695.7v-17.5h2.6v2.4c2-1.4,4.2-2.3,6.4-2.8v2.7c-1,0.2-2,0.5-3.1,0.9s-1.9,0.7-2.4,1l-0.9,0.5v12.8
		L837.5,695.7L837.5,695.7z"/>
	<path class="st20" d="M853,680.5v15.2h-2.6v-15.2h-2.2v-2.3h2.2v-1.6c0-2.5,0.4-4.2,1-5.1c0.7-0.9,1.9-1.3,3.7-1.3l3.5,0.2v2.2
		c-1.3,0-2.4-0.1-3.2-0.1s-1.5,0.3-1.8,0.8c-0.4,0.6-0.5,1.6-0.5,3.3v1.5h5.1v2.3L853,680.5L853,680.5z"/>
	<path class="st20" d="M872.8,693.5l1-0.1l0.1,2.1c-2.7,0.4-4.9,0.6-6.8,0.6c-2.5,0-4.3-0.7-5.4-2.2c-1-1.5-1.6-3.7-1.6-6.8
		c0-6.1,2.4-9.2,7.3-9.2c2.4,0,4.1,0.7,5.3,2s1.8,3.4,1.8,6.2l-0.1,2h-11.5c0,1.9,0.3,3.4,1,4.3c0.7,0.9,1.9,1.4,3.7,1.4
		S871,693.6,872.8,693.5z M871.8,685.9c0-2.1-0.3-3.7-1-4.6c-0.7-0.9-1.8-1.3-3.4-1.3s-2.7,0.5-3.5,1.4s-1.2,2.4-1.2,4.5
		L871.8,685.9L871.8,685.9z"/>
	<path class="st20" d="M885.1,677.8c0.8,0,2.1,0.1,3.9,0.4l0.8,0.1l-0.1,2.1c-1.9-0.2-3.2-0.3-4.1-0.3c-2,0-3.3,0.5-4,1.4
		s-1.1,2.7-1.1,5.2c0,2.6,0.3,4.3,1,5.3s2,1.5,4.1,1.5l4.1-0.3l0.1,2.2c-2.2,0.3-3.8,0.5-4.9,0.5c-2.7,0-4.6-0.7-5.7-2.1
		c-1-1.4-1.6-3.8-1.6-7.1s0.6-5.7,1.7-7C880.6,678.5,882.5,677.8,885.1,677.8z"/>
	<path class="st20" d="M902.9,680.5h-5.6v8.4c0,2,0.1,3.3,0.4,4s1,0.9,2.1,0.9l3.1-0.2l0.2,2.2c-1.6,0.3-2.8,0.4-3.6,0.4
		c-1.8,0-3.1-0.4-3.8-1.3c-0.7-0.9-1.1-2.6-1.1-5.1v-9.2h-2.5v-2.3h2.5v-5.4h2.6v5.4h5.6L902.9,680.5L902.9,680.5z"/>
	<path class="st20" d="M541.6,745.4v-25.3h2.6v1.3c1.8-1.1,3.5-1.6,5.2-1.6c2.2,0,3.8,0.7,4.8,2.1c1,1.4,1.5,3.7,1.5,7
		s-0.6,5.6-1.8,7s-3.1,2.1-5.9,2.1c-1.4,0-2.7-0.1-3.9-0.4v7.8L541.6,745.4L541.6,745.4z M549,722.2c-0.7,0-1.5,0.1-2.3,0.3
		s-1.4,0.5-1.9,0.7l-0.7,0.3v11.8c1.7,0.3,2.9,0.4,3.8,0.4c1.9,0,3.2-0.5,4-1.6s1.1-2.8,1.1-5.2s-0.3-4.2-1-5.2
		C551.4,722.7,550.4,722.2,549,722.2z"/>
	<path class="st20" d="M559.3,728.9c0-3.2,0.6-5.5,1.7-6.9c1.1-1.4,3.1-2.1,5.8-2.1s4.6,0.7,5.8,2.1c1.1,1.4,1.7,3.7,1.7,6.9
		s-0.5,5.5-1.6,7c-1.1,1.4-3,2.2-5.9,2.2c-2.8,0-4.8-0.7-5.9-2.2C559.8,734.4,559.3,732.1,559.3,728.9z M562,728.8
		c0,2.6,0.3,4.3,0.9,5.4c0.6,1,1.9,1.5,3.9,1.5s3.3-0.5,3.9-1.5c0.6-1,0.9-2.8,0.9-5.4c0-2.6-0.3-4.3-1-5.3s-1.9-1.5-3.8-1.5
		c-1.8,0-3.1,0.5-3.8,1.5C562.3,724.5,562,726.3,562,728.8z"/>
	<path class="st20" d="M584,722.2c-2.5,0-3.8,0.9-3.8,2.7c0,0.8,0.3,1.4,0.9,1.7c0.6,0.3,1.9,0.7,4,1c2.1,0.4,3.5,0.9,4.4,1.5
		c0.9,0.7,1.3,1.9,1.3,3.7s-0.6,3.1-1.7,4c-1.2,0.8-2.8,1.3-5.1,1.3c-1.4,0-3.1-0.2-5.1-0.5l-1.1-0.2l0.1-2.3c2.7,0.4,4.7,0.6,6,0.6
		c1.4,0,2.4-0.2,3.1-0.6c0.7-0.4,1.1-1.2,1.1-2.2s-0.3-1.7-0.9-2.1c-0.6-0.4-1.9-0.7-4-1s-3.5-0.8-4.4-1.4c-0.9-0.6-1.3-1.8-1.3-3.5
		s0.6-3,1.8-3.8s2.7-1.2,4.5-1.2c1.4,0,3.2,0.2,5.4,0.5l1,0.2l-0.1,2.2C587.5,722.4,585.5,722.2,584,722.2z"/>
	<path class="st20" d="M600.3,722.2c-2.5,0-3.8,0.9-3.8,2.7c0,0.8,0.3,1.4,0.9,1.7c0.6,0.3,1.9,0.7,4,1c2.1,0.4,3.5,0.9,4.4,1.5
		c0.9,0.7,1.3,1.9,1.3,3.7s-0.6,3.1-1.7,4c-1.2,0.8-2.8,1.3-5.1,1.3c-1.4,0-3.1-0.2-5.1-0.5l-1.1-0.2l0.1-2.3c2.7,0.4,4.7,0.6,6,0.6
		c1.4,0,2.4-0.2,3.1-0.6c0.7-0.4,1.1-1.2,1.1-2.2s-0.3-1.7-0.9-2.1c-0.6-0.4-1.9-0.7-4-1s-3.5-0.8-4.4-1.4c-0.9-0.6-1.3-1.8-1.3-3.5
		s0.6-3,1.8-3.8s2.7-1.2,4.5-1.2c1.4,0,3.2,0.2,5.4,0.5l1,0.2l-0.1,2.2C603.8,722.4,601.8,722.2,600.3,722.2z"/>
	<path class="st20" d="M611.1,716.2v-3h2.6v3H611.1z M611.1,737.7v-17.5h2.6v17.5H611.1z"/>
	<path class="st20" d="M626.5,719.8c2.4,0,4,0.7,5,2c0.9,1.3,1.4,3.7,1.4,7.1c0,3.4-0.6,5.7-1.8,7.1c-1.2,1.4-3.3,2-6.5,2
		c-1,0-2.6-0.1-4.9-0.3l-1-0.1v-25.1h2.6v8.5C623.1,720.2,624.8,719.8,626.5,719.8z M624.5,735.7c2.3,0,3.8-0.5,4.5-1.6
		c0.7-1,1.1-2.8,1.1-5.3s-0.3-4.2-0.9-5.2c-0.6-1-1.6-1.5-3.1-1.5c-1.4,0-2.7,0.3-4.2,0.8l-0.7,0.2v12.3
		C622.8,735.6,623.9,735.7,624.5,735.7z"/>
	<path class="st20" d="M637.3,737.7v-25.1h2.6v25.1H637.3z"/>
	<path class="st20" d="M657.1,735.5l1-0.1l0.1,2.1c-2.7,0.4-4.9,0.6-6.8,0.6c-2.5,0-4.3-0.7-5.4-2.2c-1-1.5-1.6-3.7-1.6-6.8
		c0-6.1,2.4-9.2,7.3-9.2c2.4,0,4.1,0.7,5.3,2s1.8,3.4,1.8,6.2l-0.1,2h-11.5c0,1.9,0.3,3.4,1,4.3c0.7,0.9,1.9,1.4,3.7,1.4
		S655.3,735.6,657.1,735.5z M656.2,727.9c0-2.1-0.3-3.7-1-4.6c-0.7-0.9-1.8-1.3-3.4-1.3s-2.7,0.5-3.5,1.4s-1.2,2.4-1.2,4.5
		L656.2,727.9L656.2,727.9z"/>
	<path class="st20" d="M662.7,737.7v-4h2.9v4H662.7z"/>
</g>
</svg>
