<?xml version="1.0" encoding="utf-8"?>
<!-- Generator: Adobe Illustrator 24.1.0, SVG Export Plug-In . SVG Version: 6.00 Build 0)  -->
<svg version="1.1" id="Layer_1" xmlns="http://www.w3.org/2000/svg" xmlns:xlink="http://www.w3.org/1999/xlink" x="0px" y="0px"
	 viewBox="0 0 1242 854.6" style="enable-background:new 0 0 1242 854.6;" xml:space="preserve">
<style type="text/css">
	.st0{fill:none;stroke:#698588;stroke-width:4.578;stroke-miterlimit:10;}
	.st1{fill:none;stroke:#305F89;stroke-width:3.2228;stroke-miterlimit:10;}
	.st2{fill:#F4F1ED;}
	.st3{fill:none;stroke:#305F89;stroke-width:3.0488;stroke-miterlimit:10;}
	.st4{fill:none;stroke:#305F89;stroke-width:4.2794;stroke-linecap:round;stroke-linejoin:round;}
	.st5{fill:none;stroke:#698588;stroke-width:2.8294;stroke-linecap:round;stroke-linejoin:round;stroke-miterlimit:9.9996;}
	.st6{fill:none;stroke:#EFB63B;stroke-width:4.2443;stroke-linecap:round;stroke-miterlimit:10;}
	.st7{fill:none;stroke:#698588;stroke-width:2.6838;stroke-linecap:round;stroke-linejoin:round;stroke-miterlimit:10;}
	.st8{fill:none;stroke:#698588;stroke-width:2.5217;stroke-miterlimit:10;}
	.st9{fill:#EFB63B;stroke:#698588;stroke-width:2.5217;stroke-miterlimit:10;}
	.st10{fill:none;stroke:#698588;stroke-width:4.2794;stroke-linecap:round;stroke-linejoin:round;}
	.st11{fill:#EFB63B;stroke:#698588;stroke-width:4.2792;stroke-linecap:round;stroke-linejoin:round;stroke-miterlimit:3.9998;}
	.st12{fill:#FFFFFF;stroke:#698588;stroke-width:4.2794;stroke-linecap:round;stroke-linejoin:round;}
	.st13{fill:#EFB63B;stroke:#698588;stroke-width:4.2794;stroke-linecap:round;stroke-linejoin:round;}
	.st14{display:none;fill:none;stroke:#305F89;stroke-width:4.2794;stroke-linecap:round;stroke-linejoin:round;}
	.st15{fill:#EFB63B;stroke:#305F89;stroke-width:2.853;stroke-miterlimit:10;}
	.st16{fill:none;stroke:#EFB63B;stroke-width:2.6838;stroke-linecap:round;stroke-miterlimit:10;}
	.st17{fill:none;stroke:#C9A87E;stroke-width:4.0769;stroke-miterlimit:10;}
	.st18{fill:#303030;}
</style>
<path class="st0" d="M847.9,245.8"/>
<g>
	<line class="st1" x1="337.2" y1="271.2" x2="404.9" y2="271.2"/>
	<polygon class="st2" points="236.7,213.6 285.2,213.6 319.4,247.9 319.4,296.4 285.2,330.7 236.7,330.7 202.5,296.4 202.5,247.9 	
		"/>
	<polygon class="st2" points="261,21.7 309.5,21.7 343.7,55.9 343.7,104.4 309.5,138.8 261,138.8 226.8,104.4 226.8,55.9 	"/>
	<polygon class="st2" points="255.4,398 303.5,398 337.4,431.9 337.4,480 303.5,514.1 255.4,514.1 221.5,480 221.5,431.9 	"/>
	<polygon class="st3" points="247.8,380.1 310.8,380.1 355.4,424.5 355.4,487.4 310.8,532 247.8,532 203.4,487.4 203.4,424.5 	"/>
	<polygon class="st3" points="253.1,4.6 316.2,4.6 360.7,49.1 360.7,112.2 316.2,156.7 253.1,156.7 208.6,112.2 208.6,49.1 	"/>
	<polygon class="st3" points="229.4,196.1 292.5,196.1 337,240.7 337,303.7 292.5,348.3 229.4,348.3 184.9,303.7 184.9,240.7 	"/>
	<path class="st4" d="M412.1,270v-55.1v-20.1l34.2-17.6l0.5-68.8l69.1-0.5l0.2-0.7l15.6-33.9h155.7l15.8,34.7l69.1,0.5l0.5,68.8
		l34.2,17.6v151.9l-34.2,17.6l-0.5,68.8l-69.1,0.5l-15.8,34.7H618c-0.5,0-16.8,0-16.8,0h-69.3l-15.8-34.7l-69.1-0.5l-0.5-68.8
		l-34.2-17.6v-18.6V275"/>
	<path class="st2" d="M443.9,270.1v-46.2V207l28.6-14.8l0.4-57.7l57.9-0.4l0.2-0.7l13-28.5h130.6l13.3,29.1l57.9,0.4l0.4,57.7
		l28.6,14.8v127.5l-28.6,14.8l-0.4,57.7l-57.9,0.4l-13.3,29.1h-58.1c-0.4,0-14.1,0-14.1,0h-58.1L531,407.3l-57.9-0.4l-0.4-57.7
		l-28.6-14.8v-15.6v-44.7"/>
	<ellipse class="st5" cx="277.8" cy="457" rx="45.7" ry="45.7"/>
	<polyline class="st6" points="300.6,481.7 278.1,458.4 277.9,431.9 	"/>
	<g>
		<path class="st7" d="M245.8,292.9c-2-1.1-3.8-2.4-5.3-3.9c-5.9-5.4-9.4-12.9-9.3-21.4c0.1-16,13.2-28.8,29-28.6
			c16,0.1,28.8,13.2,28.6,29c-0.1,10.4-5.6,19.6-13.9,24.5"/>
		<polyline class="st7" points="275.2,292.2 275.2,305.6 275.2,309.9 268.6,309.9 251.9,309.9 246,309.9 246,305.6 246,293 		"/>
		<path class="st7" d="M271,315.8c0,5.7-4.6,10.5-10.5,10.5c-5.7,0-10.5-4.6-10.5-10.5v-0.2L271,315.8L271,315.8z"/>
		<line class="st7" x1="260.1" y1="221.5" x2="260.1" y2="233.5"/>
		<line class="st7" x1="294" y1="260.1" x2="306.1" y2="260.1"/>
		<line class="st7" x1="215.2" y1="260.1" x2="227.2" y2="260.1"/>
		<line class="st7" x1="226.5" y1="232.6" x2="234.6" y2="241.4"/>
		<line class="st7" x1="291.7" y1="232.6" x2="283.6" y2="241.4"/>
	</g>
	<circle class="st8" cx="279.5" cy="78.4" r="33.6"/>
	<polyline class="st8" points="305.4,100 318.7,116 310.8,122.7 297.4,106.9 	"/>
	<polyline class="st8" points="323.6,51.5 308.5,66.5 297.1,78 288.7,86.4 273.2,70.8 241.2,102.3 	"/>
	<circle class="st9" cx="273.8" cy="71.4" r="5.2"/>
	<circle class="st9" cx="288.6" cy="85.9" r="5.2"/>
	<g>
		<path class="st10" d="M556.5,270.9c-28.4,0-51.3-17.9-51.3-40c0-16.4,12.7-30.6,30.9-36.7"/>
		<path class="st10" d="M659.4,271c-0.1,0-0.1,0-0.2,0H616"/>
		<line class="st10" x1="582.3" y1="271" x2="556.3" y2="271"/>
		<line class="st10" x1="635.3" y1="191" x2="569.6" y2="191"/>
		<polyline class="st10" points="669,191 695.2,191 711.3,191 		"/>
		<path class="st10" d="M657.9,271c28.4,0,51.3,17.9,51.3,40c0,21.3-21.3,38.6-48.2,39.9"/>
		<polyline class="st10" points="627.3,350.9 544.2,350.9 510.4,350.9 		"/>
		
			<ellipse transform="matrix(0.9545 -0.2982 0.2982 0.9545 -80.7987 172.3528)" class="st11" cx="524.5" cy="351" rx="16.9" ry="16.9"/>
		<circle class="st12" cx="644.2" cy="350.9" r="16.9"/>
		<circle class="st12" cx="599.2" cy="272.1" r="16.9"/>
		<circle class="st12" cx="552.7" cy="190.9" r="16.9"/>
		<circle class="st12" cx="652.2" cy="190.9" r="16.9"/>
		<polygon class="st13" points="720.9,191.1 695.2,206 695.2,176.3 		"/>
		<rect x="473.2" y="154.5" class="st14" width="268.2" height="232.2"/>
	</g>
	<circle class="st15" cx="446.6" cy="174.8" r="8.9"/>
	<path class="st15" d="M401.5,271.2c0,0.5,0,1.1,0,1.5c0.7,5.1,4.6,8.9,9.7,9.7c0.5,0,1.1,0.2,1.8,0.2c6.4,0,11.5-5.1,11.5-11.5
		s-5.1-11.5-11.5-11.5c-0.5,0-1.1,0-1.8,0.2C405.8,260.8,401.5,265.3,401.5,271.2z"/>
	<line class="st7" x1="246.2" y1="301.9" x2="274.6" y2="301.9"/>
	<polyline class="st16" points="260.4,291.8 260.4,278.1 248.7,263.7 	"/>
	<polyline class="st16" points="272.4,263.7 260.7,278.1 260.7,291.8 	"/>
	<line class="st7" x1="246.7" y1="293.2" x2="275.1" y2="293.2"/>
	<polyline class="st1" points="358.9,113.3 400.2,113.3 441.6,168.9 	"/>
	<polyline class="st1" points="355.4,424.3 399.6,424.3 441,368.8 	"/>
	<circle class="st15" cx="446" cy="365.1" r="8.9"/>
</g>
<line class="st17" x1="526.3" y1="574" x2="697.6" y2="574"/>
<g>
	<path class="st18" d="M472.6,523H467v8.5h-4.4v-27.4h10c6.2,0,9.3,3.1,9.3,9.2c0,3.1-0.8,5.5-2.3,7.2S475.7,523,472.6,523z
		 M467,519.2h5.6c3.2,0,4.8-1.9,4.8-5.8c0-1.9-0.4-3.2-1.2-4.1c-0.8-0.9-2-1.3-3.6-1.3H467V519.2z"/>
	<path class="st18" d="M485.7,531.5v-20h4.3v2.4c2.3-1.5,4.5-2.4,6.8-2.8v4.4c-2.3,0.5-4.3,1-5.9,1.8l-0.9,0.4v14h-4.3V531.5z"/>
	<path class="st18" d="M501.1,513.7c1.4-1.7,3.7-2.6,6.9-2.6c3.2,0,5.5,0.9,6.9,2.6s2.1,4.3,2.1,7.8s-0.7,6.1-2,7.8
		c-1.3,1.8-3.6,2.6-6.9,2.6s-5.6-0.9-6.9-2.6c-1.3-1.8-2-4.4-2-7.8C499,518,499.7,515.4,501.1,513.7z M504.3,526.7
		c0.6,1.1,1.8,1.6,3.6,1.6c1.8,0,3-0.5,3.6-1.6c0.6-1.1,0.9-2.8,0.9-5.2s-0.3-4.1-1-5.2c-0.7-1-1.8-1.5-3.5-1.5s-2.9,0.5-3.5,1.5
		c-0.7,1-1,2.7-1,5.2C503.4,523.9,503.7,525.6,504.3,526.7z"/>
	<path class="st18" d="M537.5,503.2v28.3h-4.3v-1c-1.9,1-3.7,1.5-5.4,1.5c-2.6,0-4.5-0.8-5.7-2.4c-1.2-1.6-1.8-4.2-1.8-7.9
		s0.7-6.4,2-8.1c1.3-1.7,3.4-2.5,6.3-2.5c1,0,2.5,0.2,4.6,0.5v-8.4L537.5,503.2L537.5,503.2z M532.4,527.4l0.7-0.3v-11.8
		c-1.6-0.3-3.1-0.4-4.4-0.4c-2.7,0-4,2.2-4,6.7c0,2.5,0.3,4.2,0.9,5.1c0.6,0.9,1.6,1.4,3,1.4S531.2,527.8,532.4,527.4z"/>
	<path class="st18" d="M554.9,511.5h4.3v20h-4.3v-1.2c-1.9,1.1-3.7,1.7-5.4,1.7c-2.7,0-4.6-0.7-5.5-2.2s-1.4-4.1-1.4-7.8v-10.4h4.4
		v10.5c0,2.4,0.2,4,0.6,4.8s1.3,1.2,2.8,1.2c1.4,0,2.8-0.3,4-0.8l0.6-0.2L554.9,511.5L554.9,511.5z"/>
	<path class="st18" d="M572,511.1c1.4,0,3.1,0.2,5,0.6l1,0.2l-0.2,3.4c-2.1-0.2-3.7-0.3-4.7-0.3c-2,0-3.4,0.5-4.1,1.4
		c-0.7,0.9-1,2.6-1,5.1s0.3,4.2,1,5.2s2.1,1.4,4.2,1.4l4.7-0.3l0.1,3.5c-2.7,0.5-4.7,0.7-6.1,0.7c-3,0-5.2-0.8-6.4-2.5
		c-1.2-1.6-1.9-4.3-1.9-8.1s0.7-6.4,2-8C566.9,511.9,569,511.1,572,511.1z"/>
	<path class="st18" d="M592.9,515.2h-5.5v8.8c0,1.6,0.1,2.7,0.4,3.2c0.2,0.5,0.9,0.8,1.8,0.8l3.3-0.1l0.2,3.5
		c-1.8,0.3-3.1,0.5-4.1,0.5c-2.3,0-3.8-0.5-4.7-1.6s-1.3-3-1.3-5.9v-9.3h-2.6v-3.7h2.6v-5.8h4.3v5.8h5.5L592.9,515.2L592.9,515.2z"
		/>
	<path class="st18" d="M605.8,531.5v-27.4h7.7l6.1,21.4l6.1-21.4h7.8v27.4H629V509h-0.6l-6.5,21.4h-4.6l-6.5-21.4h-0.6v22.5H605.8z"
		/>
	<path class="st18" d="M654.1,517.7v9.1c0,0.6,0.2,1,0.5,1.3s0.7,0.5,1.3,0.5l-0.1,3.3c-2.3,0-4.1-0.5-5.3-1.5
		c-2.1,1-4.3,1.5-6.4,1.5c-4,0-6-2.1-6-6.4c0-2,0.5-3.5,1.6-4.4s2.7-1.5,5-1.6l5.2-0.4v-1.4c0-1.1-0.2-1.8-0.7-2.2s-1.2-0.6-2.1-0.6
		c-1.7,0-3.8,0.1-6.4,0.3l-1.3,0.1l-0.2-3.1c2.9-0.7,5.6-1,8-1s4.2,0.5,5.3,1.6C653.5,513.7,654.1,515.4,654.1,517.7z M645.1,522.6
		c-1.8,0.2-2.8,1.2-2.8,3s0.8,2.8,2.4,2.8c1.3,0,2.7-0.2,4.2-0.6l0.7-0.2v-5.3L645.1,522.6z"/>
	<path class="st18" d="M663.9,531.5h-4.4v-20h4.3v1.2c1.9-1.1,3.8-1.7,5.5-1.7c2.7,0,4.5,0.8,5.5,2.3s1.5,4,1.5,7.5v10.7H672v-10.6
		c0-2.2-0.2-3.7-0.7-4.6c-0.5-0.9-1.4-1.4-2.9-1.4c-1.4,0-2.7,0.3-3.9,0.8l-0.6,0.2L663.9,531.5L663.9,531.5z"/>
	<path class="st18" d="M696.2,517.7v9.1c0,0.6,0.2,1,0.5,1.3s0.7,0.5,1.3,0.5l-0.1,3.3c-2.3,0-4.1-0.5-5.3-1.5
		c-2.1,1-4.3,1.5-6.4,1.5c-4,0-6-2.1-6-6.4c0-2,0.5-3.5,1.6-4.4s2.7-1.5,5-1.6l5.2-0.4v-1.4c0-1.1-0.2-1.8-0.7-2.2s-1.2-0.6-2.1-0.6
		c-1.7,0-3.8,0.1-6.4,0.3l-1.3,0.1l-0.2-3.1c2.9-0.7,5.6-1,8-1s4.2,0.5,5.3,1.6C695.7,513.7,696.2,515.4,696.2,517.7z M687.2,522.6
		c-1.8,0.2-2.8,1.2-2.8,3s0.8,2.8,2.4,2.8c1.3,0,2.7-0.2,4.2-0.6l0.7-0.2v-5.3L687.2,522.6z"/>
	<path class="st18" d="M719.2,534.2c0,4.4-3.2,6.6-9.5,6.6c-3,0-5.3-0.4-6.8-1.2s-2.2-2.3-2.2-4.5c0-1,0.2-1.8,0.7-2.5
		s1.3-1.5,2.3-2.3c-0.9-0.6-1.3-1.6-1.3-2.9c0-0.5,0.4-1.4,1.1-2.6l0.4-0.6c-1.9-1.1-2.9-3.1-2.9-6c0-2.4,0.7-4.2,2.2-5.3
		c1.4-1.1,3.4-1.7,5.8-1.7c1.2,0,2.3,0.1,3.5,0.4l0.6,0.1l6.2-0.2v3.5l-3.3-0.2c0.7,0.9,1.1,2,1.1,3.3c0,2.6-0.7,4.4-2,5.4
		s-3.4,1.5-6.2,1.5c-0.7,0-1.3-0.1-1.8-0.2c-0.4,0.9-0.6,1.6-0.6,2.1s0.2,0.8,0.7,1s1.7,0.3,3.6,0.3c3.2,0,5.3,0.5,6.5,1.3
		C718.6,530.4,719.2,531.9,719.2,534.2z M705,534.6c0,0.9,0.4,1.6,1.1,2c0.7,0.4,2,0.6,3.8,0.6c3.2,0,4.8-0.9,4.8-2.8
		c0-1-0.3-1.7-0.9-2c-0.6-0.3-1.7-0.4-3.4-0.5l-3.9-0.2c-0.6,0.5-1,0.9-1.2,1.3C705.1,533.6,705,534.1,705,534.6z M706.2,520.8
		c0.6,0.6,1.5,0.9,2.8,0.9s2.2-0.3,2.8-0.9c0.6-0.6,0.9-1.5,0.9-2.7s-0.3-2.1-0.9-2.7s-1.5-0.9-2.8-0.9c-2.5,0-3.7,1.2-3.7,3.6
		C705.3,519.3,705.6,520.2,706.2,520.8z"/>
	<path class="st18" d="M736.9,527.9l1.1-0.1l0.1,3.2c-3,0.6-5.7,0.9-8.1,0.9c-3,0-5.1-0.8-6.4-2.4c-1.3-1.6-1.9-4.2-1.9-7.8
		c0-7.1,2.9-10.6,8.7-10.6c5.6,0,8.4,3.1,8.4,9.2l-0.3,3.1h-12.4c0,1.7,0.4,2.9,1.1,3.6c0.7,0.8,2,1.2,3.9,1.2
		S734.9,528.1,736.9,527.9z M734.5,520c0-2-0.3-3.4-0.9-4.1c-0.6-0.8-1.7-1.2-3.2-1.2s-2.6,0.4-3.3,1.2s-1,2.2-1.1,4.1H734.5z"/>
	<path class="st18" d="M743,531.5v-20h4.3v2.4c2.3-1.5,4.5-2.4,6.8-2.8v4.4c-2.3,0.5-4.3,1-5.9,1.8l-0.9,0.4v14H743V531.5z"/>
</g>
<g>
	<path class="st18" d="M332.3,638.2v-24.2h2.7v24.2H332.3z"/>
	<path class="st18" d="M360.5,626v9c0.1,0.9,0.7,1.4,2,1.5l-0.1,2.1c-1.8,0-3.2-0.5-4.2-1.4c-2.1,0.9-4.2,1.4-6.3,1.4
		c-1.6,0-2.8-0.5-3.7-1.4c-0.8-0.9-1.3-2.2-1.3-3.9s0.4-3,1.3-3.8c0.9-0.8,2.2-1.3,4.1-1.5l5.5-0.5V626c0-1.2-0.3-2-0.8-2.6
		c-0.5-0.5-1.2-0.8-2.1-0.8c-1.9,0-3.8,0.1-5.8,0.3l-1.1,0.1l-0.1-2c2.6-0.5,4.8-0.8,6.8-0.8c2,0,3.4,0.5,4.3,1.4
		C360.1,622.6,360.5,624,360.5,626z M349.7,633.1c0,2.1,0.9,3.2,2.7,3.2c1.6,0,3.1-0.3,4.7-0.8l0.8-0.3v-5.8l-5.2,0.5
		c-1,0.1-1.8,0.4-2.3,0.9C350,631.4,349.7,632.1,349.7,633.1z"/>
	<path class="st18" d="M368.3,638.2h-2.6v-17.5h2.6v1.2c1.8-1,3.5-1.6,5.1-1.6c2.2,0,3.7,0.6,4.5,1.8c0.8-0.5,1.8-0.9,3-1.2
		c1.2-0.4,2.3-0.5,3.2-0.5c2.3,0,3.9,0.6,4.7,1.9c0.8,1.2,1.2,3.5,1.2,6.7v9.2h-2.6V629c0-2.4-0.2-4.1-0.7-5s-1.5-1.3-3-1.3
		c-0.8,0-1.6,0.1-2.4,0.3c-0.8,0.2-1.4,0.4-1.9,0.6l-0.7,0.3c0.3,0.8,0.5,2.5,0.5,5.1v9.1h-2.6v-9c0-2.5-0.2-4.2-0.7-5.1
		s-1.5-1.3-3-1.3c-0.7,0-1.5,0.1-2.3,0.3c-0.8,0.2-1.4,0.4-1.8,0.6l-0.6,0.3V638.2z"/>
	<path class="st18" d="M401,620.7h2.6l4.4,15.2h1.2l4.4-15.2h2.6l-7.3,25.3h-2.6l2.3-7.8H406L401,620.7z"/>
	<path class="st18" d="M418.5,629.4c0-3.2,0.6-5.5,1.7-6.9c1.1-1.4,3.1-2.1,5.8-2.1s4.6,0.7,5.8,2.1c1.1,1.4,1.7,3.7,1.7,6.9
		c0,3.2-0.5,5.5-1.6,7c-1.1,1.4-3,2.2-5.9,2.2c-2.8,0-4.8-0.7-5.9-2.2C419,634.9,418.5,632.6,418.5,629.4z M421.2,629.3
		c0,2.6,0.3,4.3,0.9,5.4c0.6,1,1.9,1.5,3.9,1.5s3.3-0.5,3.9-1.5c0.6-1,0.9-2.8,0.9-5.4c0-2.6-0.3-4.3-1-5.3c-0.7-1-1.9-1.5-3.8-1.5
		c-1.8,0-3.1,0.5-3.8,1.5C421.5,625,421.2,626.8,421.2,629.3z"/>
	<path class="st18" d="M448.6,620.7h2.6v17.5h-2.6v-1.2c-1.8,1-3.5,1.6-5.2,1.6c-2.4,0-4-0.6-4.7-1.9c-0.8-1.2-1.2-3.5-1.2-6.9v-9.1
		h2.6v9.1c0,2.5,0.2,4.2,0.7,5.1s1.4,1.3,3,1.3c0.8,0,1.6-0.1,2.3-0.3c0.8-0.2,1.4-0.4,1.8-0.6l0.6-0.3V620.7z"/>
	<path class="st18" d="M456.3,638.2v-17.5h2.6v2.4c2-1.4,4.2-2.3,6.4-2.8v2.7c-1,0.2-2,0.5-3.1,0.9c-1.1,0.4-1.9,0.7-2.4,1l-0.9,0.5
		v12.8H456.3z"/>
	<path class="st18" d="M476.1,616.7v-3h2.6v3H476.1z M476.1,638.2v-17.5h2.6v17.5H476.1z"/>
	<path class="st18" d="M486.4,638.2h-2.6v-17.5h2.6v1.2c1.9-1,3.7-1.6,5.4-1.6c2.3,0,3.9,0.6,4.7,1.9c0.8,1.3,1.2,3.5,1.2,6.7v9.2
		h-2.6V629c0-2.4-0.2-4.1-0.7-5c-0.5-0.9-1.5-1.3-3.1-1.3c-0.7,0-1.5,0.1-2.4,0.3c-0.8,0.2-1.5,0.4-1.9,0.6l-0.7,0.3V638.2z"/>
	<path class="st18" d="M508.1,622.7c-2.5,0-3.8,0.9-3.8,2.7c0,0.8,0.3,1.4,0.9,1.7c0.6,0.3,1.9,0.7,4,1c2.1,0.4,3.5,0.9,4.4,1.5
		c0.9,0.7,1.3,1.9,1.3,3.7c0,1.8-0.6,3.1-1.7,4c-1.2,0.8-2.8,1.3-5.1,1.3c-1.4,0-3.1-0.2-5.1-0.5l-1.1-0.2l0.1-2.3
		c2.7,0.4,4.7,0.6,6,0.6c1.4,0,2.4-0.2,3.1-0.6c0.7-0.4,1.1-1.2,1.1-2.2s-0.3-1.7-0.9-2.1c-0.6-0.4-1.9-0.7-4-1
		c-2.1-0.3-3.5-0.8-4.4-1.4c-0.9-0.6-1.3-1.8-1.3-3.5s0.6-3,1.8-3.8c1.2-0.8,2.7-1.2,4.5-1.2c1.4,0,3.2,0.2,5.4,0.5l1,0.2l-0.1,2.2
		C511.6,622.8,509.6,622.7,508.1,622.7z"/>
	<path class="st18" d="M518.9,616.7v-3h2.6v3H518.9z M518.9,638.2v-17.5h2.6v17.5H518.9z"/>
	<path class="st18" d="M540,613v25.1h-2.6V637c-1.8,1-3.6,1.5-5.3,1.5c-0.9,0-1.8-0.1-2.4-0.3c-0.7-0.2-1.4-0.7-2-1.3
		c-1.3-1.3-1.9-3.6-1.9-7c0-3.4,0.6-5.8,1.7-7.4s3-2.3,5.6-2.3c1.4,0,2.8,0.2,4.3,0.5V613H540z M530.9,635.9c0.4,0.2,1,0.2,1.6,0.2
		s1.4-0.1,2.2-0.3c0.8-0.2,1.5-0.4,1.9-0.6l0.7-0.3V623c-1.5-0.3-2.9-0.4-4.2-0.4c-1.8,0-3,0.6-3.7,1.7c-0.7,1.1-1.1,2.9-1.1,5.3
		c0,2.7,0.4,4.5,1.2,5.5C530,635.5,530.4,635.8,530.9,635.9z"/>
	<path class="st18" d="M556.9,636l1-0.1l0.1,2.1c-2.7,0.4-4.9,0.6-6.8,0.6c-2.5,0-4.3-0.7-5.4-2.2c-1.1-1.5-1.6-3.7-1.6-6.8
		c0-6.1,2.4-9.2,7.3-9.2c2.4,0,4.1,0.7,5.3,2c1.2,1.3,1.8,3.4,1.8,6.2l-0.1,2h-11.5c0,1.9,0.3,3.4,1,4.3c0.7,0.9,1.9,1.4,3.7,1.4
		C553.4,636.2,555.1,636.1,556.9,636z M556,628.4c0-2.1-0.3-3.7-1-4.6c-0.7-0.9-1.8-1.3-3.4-1.3c-1.6,0-2.7,0.5-3.5,1.4
		c-0.8,0.9-1.2,2.4-1.2,4.5H556z"/>
	<path class="st18" d="M573,638.2h-2.6v-17.5h2.6v1.2c1.8-1,3.5-1.6,5.1-1.6c2.2,0,3.7,0.6,4.5,1.8c0.8-0.5,1.8-0.9,3-1.2
		c1.2-0.4,2.3-0.5,3.2-0.5c2.3,0,3.9,0.6,4.7,1.9c0.8,1.2,1.2,3.5,1.2,6.7v9.2h-2.6V629c0-2.4-0.2-4.1-0.7-5s-1.5-1.3-3-1.3
		c-0.8,0-1.6,0.1-2.4,0.3c-0.8,0.2-1.4,0.4-1.9,0.6l-0.7,0.3c0.3,0.8,0.5,2.5,0.5,5.1v9.1h-2.6v-9c0-2.5-0.2-4.2-0.7-5.1
		s-1.5-1.3-3-1.3c-0.7,0-1.5,0.1-2.3,0.3c-0.8,0.2-1.4,0.4-1.8,0.6L573,624V638.2z"/>
	<path class="st18" d="M612,626v9c0.1,0.9,0.7,1.4,2,1.5l-0.1,2.1c-1.8,0-3.2-0.5-4.2-1.4c-2.1,0.9-4.2,1.4-6.3,1.4
		c-1.6,0-2.8-0.5-3.7-1.4c-0.8-0.9-1.3-2.2-1.3-3.9s0.4-3,1.3-3.8c0.9-0.8,2.2-1.3,4.1-1.5l5.5-0.5V626c0-1.2-0.3-2-0.8-2.6
		c-0.5-0.5-1.2-0.8-2.1-0.8c-1.9,0-3.8,0.1-5.8,0.3l-1.1,0.1l-0.1-2c2.6-0.5,4.8-0.8,6.8-0.8c2,0,3.4,0.5,4.3,1.4
		C611.6,622.6,612,624,612,626z M601.2,633.1c0,2.1,0.9,3.2,2.7,3.2c1.6,0,3.1-0.3,4.7-0.8l0.8-0.3v-5.8l-5.2,0.5
		c-1,0.1-1.8,0.4-2.3,0.9C601.5,631.4,601.2,632.1,601.2,633.1z"/>
	<path class="st18" d="M619.8,638.2h-2.6v-17.5h2.6v1.2c1.9-1,3.7-1.6,5.4-1.6c2.3,0,3.9,0.6,4.7,1.9c0.8,1.3,1.2,3.5,1.2,6.7v9.2
		h-2.6V629c0-2.4-0.2-4.1-0.7-5c-0.5-0.9-1.5-1.3-3.1-1.3c-0.7,0-1.5,0.1-2.4,0.3c-0.8,0.2-1.5,0.4-1.9,0.6l-0.7,0.3V638.2z"/>
	<path class="st18" d="M638.9,642.5c-2.4-5.5-3.6-10.4-3.6-14.9c0-2.2,0.3-4.7,0.9-7.3c0.6-2.6,1.2-4.7,1.8-6.2l0.9-2.2h2.5
		c-0.8,2.1-1.6,4.8-2.3,8c-0.7,3.2-1.1,5.7-1.1,7.7s0.3,4.2,0.8,6.7c0.6,2.5,1.1,4.5,1.7,6l0.8,2.2H638.9z"/>
	<path class="st18" d="M650.6,622.7c-2.5,0-3.8,0.9-3.8,2.7c0,0.8,0.3,1.4,0.9,1.7c0.6,0.3,1.9,0.7,4,1c2.1,0.4,3.5,0.9,4.4,1.5
		s1.3,1.9,1.3,3.7c0,1.8-0.6,3.1-1.7,4c-1.2,0.8-2.8,1.3-5.1,1.3c-1.4,0-3.2-0.2-5.1-0.5l-1-0.2l0.1-2.3c2.7,0.4,4.7,0.6,6,0.6
		c1.4,0,2.4-0.2,3.1-0.6s1.1-1.2,1.1-2.2s-0.3-1.7-0.9-2.1c-0.6-0.4-1.9-0.7-4-1c-2.1-0.3-3.5-0.8-4.4-1.4s-1.3-1.8-1.3-3.5
		s0.6-3,1.8-3.8c1.2-0.8,2.7-1.2,4.5-1.2c1.4,0,3.2,0.2,5.4,0.5l1,0.2l-0.1,2.2C654.1,622.8,652.1,622.7,650.6,622.7z"/>
	<path class="st18" d="M670.4,622.9h-5.6v8.4c0,2,0.1,3.3,0.4,4s1,0.9,2.1,0.9l3.1-0.2l0.2,2.2c-1.6,0.3-2.8,0.4-3.6,0.4
		c-1.8,0-3.1-0.4-3.8-1.3c-0.7-0.9-1.1-2.6-1.1-5.1v-9.2h-2.5v-2.3h2.5v-5.4h2.6v5.4h5.6V622.9z"/>
	<path class="st18" d="M673.7,638.2v-17.5h2.6v2.4c2-1.4,4.2-2.3,6.4-2.8v2.7c-1,0.2-2,0.5-3.1,0.9s-1.9,0.7-2.4,1l-0.9,0.5v12.8
		H673.7z"/>
	<path class="st18" d="M698.1,626v9c0.1,0.9,0.7,1.4,2,1.5l-0.1,2.1c-1.8,0-3.2-0.5-4.2-1.4c-2.1,0.9-4.2,1.4-6.3,1.4
		c-1.6,0-2.8-0.5-3.7-1.4c-0.8-0.9-1.3-2.2-1.3-3.9s0.4-3,1.3-3.8c0.9-0.8,2.2-1.3,4.1-1.5l5.5-0.5V626c0-1.2-0.3-2-0.8-2.6
		c-0.5-0.5-1.2-0.8-2.1-0.8c-1.9,0-3.8,0.1-5.8,0.3l-1.1,0.1l-0.1-2c2.6-0.5,4.8-0.8,6.8-0.8c2,0,3.4,0.5,4.3,1.4
		C697.7,622.6,698.1,624,698.1,626z M687.3,633.1c0,2.1,0.9,3.2,2.7,3.2c1.6,0,3.2-0.3,4.7-0.8l0.8-0.3v-5.8l-5.2,0.5
		c-1.1,0.1-1.8,0.4-2.3,0.9C687.6,631.4,687.3,632.1,687.3,633.1z"/>
	<path class="st18" d="M712.4,622.9h-5.6v8.4c0,2,0.1,3.3,0.4,4s1,0.9,2.1,0.9l3.1-0.2l0.2,2.2c-1.6,0.3-2.8,0.4-3.6,0.4
		c-1.8,0-3.1-0.4-3.8-1.3c-0.7-0.9-1.1-2.6-1.1-5.1v-9.2h-2.5v-2.3h2.5v-5.4h2.6v5.4h5.6V622.9z"/>
	<path class="st18" d="M727.5,636l1-0.1l0.1,2.1c-2.7,0.4-4.9,0.6-6.8,0.6c-2.5,0-4.3-0.7-5.4-2.2c-1-1.5-1.6-3.7-1.6-6.8
		c0-6.1,2.4-9.2,7.3-9.2c2.4,0,4.1,0.7,5.3,2s1.8,3.4,1.8,6.2l-0.1,2h-11.5c0,1.9,0.3,3.4,1,4.3c0.7,0.9,1.9,1.4,3.7,1.4
		S725.7,636.1,727.5,636z M726.5,628.4c0-2.1-0.3-3.7-1-4.6c-0.7-0.9-1.8-1.3-3.4-1.3s-2.7,0.5-3.5,1.4c-0.8,0.9-1.2,2.4-1.2,4.5
		H726.5z"/>
	<path class="st18" d="M740,646.4c-2.8,0-4.8-0.4-5.9-1.1c-1.1-0.8-1.7-2.1-1.7-4.1c0-1,0.2-1.7,0.6-2.3s1.1-1.3,2.1-2
		c-0.7-0.4-1-1.2-1-2.4c0-0.4,0.3-1.1,0.9-2.2l0.3-0.6c-1.8-0.8-2.8-2.6-2.8-5.3c0-4,2.2-6,6.5-6c1.1,0,2.2,0.1,3.1,0.3l0.5,0.1
		l5.2-0.1v2.2l-3.3-0.1c0.8,0.8,1.2,1.9,1.2,3.5c0,2.2-0.5,3.7-1.6,4.6s-2.8,1.3-5.1,1.3c-0.6,0-1.2,0-1.7-0.1c-0.4,1-0.6,1.7-0.6,2
		c0,0.7,0.2,1.2,0.7,1.3c0.4,0.2,1.8,0.3,4,0.3s3.8,0.4,4.8,1.1c1,0.7,1.5,2.1,1.5,4.1C747.8,644.5,745.2,646.4,740,646.4z
		 M735.1,640.9c0,1.2,0.3,2.1,1,2.6c0.7,0.5,2,0.7,3.8,0.7s3.2-0.3,4-0.8c0.8-0.5,1.2-1.4,1.2-2.6c0-1.2-0.3-2-0.9-2.3
		c-0.6-0.3-1.7-0.5-3.4-0.5l-3.8-0.2c-0.8,0.6-1.3,1-1.6,1.5S735.1,640.2,735.1,640.9z M735.3,626.3c0,1.4,0.3,2.4,0.9,2.9
		c0.6,0.6,1.6,0.9,3.1,0.9c1.4,0,2.4-0.3,3-0.9c0.6-0.6,0.9-1.6,0.9-3c0-1.4-0.3-2.4-0.9-3c-0.6-0.6-1.6-0.9-3-0.9
		c-1.4,0-2.4,0.3-3.1,0.9C735.6,623.9,735.3,624.9,735.3,626.3z"/>
	<path class="st18" d="M751.3,616.7v-3h2.6v3H751.3z M751.3,638.2v-17.5h2.6v17.5H751.3z"/>
	<path class="st18" d="M764.4,622.7c-2.5,0-3.8,0.9-3.8,2.7c0,0.8,0.3,1.4,0.9,1.7c0.6,0.3,1.9,0.7,4,1c2.1,0.4,3.5,0.9,4.4,1.5
		s1.3,1.9,1.3,3.7c0,1.8-0.6,3.1-1.7,4c-1.2,0.8-2.8,1.3-5.1,1.3c-1.4,0-3.2-0.2-5.1-0.5l-1-0.2l0.1-2.3c2.7,0.4,4.7,0.6,6,0.6
		c1.4,0,2.4-0.2,3.1-0.6s1.1-1.2,1.1-2.2s-0.3-1.7-0.9-2.1c-0.6-0.4-1.9-0.7-4-1c-2.1-0.3-3.5-0.8-4.4-1.4s-1.3-1.8-1.3-3.5
		s0.6-3,1.8-3.8c1.2-0.8,2.7-1.2,4.5-1.2c1.4,0,3.2,0.2,5.4,0.5l1,0.2l-0.1,2.2C767.9,622.8,765.9,622.7,764.4,622.7z"/>
	<path class="st18" d="M784.3,622.9h-5.6v8.4c0,2,0.1,3.3,0.4,4s1,0.9,2.1,0.9l3.1-0.2l0.2,2.2c-1.6,0.3-2.8,0.4-3.6,0.4
		c-1.8,0-3.1-0.4-3.8-1.3c-0.7-0.9-1.1-2.6-1.1-5.1v-9.2h-2.5v-2.3h2.5v-5.4h2.6v5.4h5.6V622.9z"/>
	<path class="st18" d="M792,623.1c0.3,1.6,0.4,3.4,0.4,5.2c0,1.8-0.3,4-0.9,6.5c-0.6,2.5-1.2,4.4-1.8,5.8l-0.9,2.1h-2.5
		c0.8-1.9,1.5-4.3,2.3-7.4c0.7-3,1.1-5.6,1.1-7.6s-0.3-4.3-0.8-6.9c-0.5-2.6-1.1-4.7-1.7-6.3l-0.8-2.5h2.5
		C790.3,615.4,791.4,619.1,792,623.1z"/>
	<path class="st18" d="M796.5,638.2v-4h2.9v4H796.5z"/>
	<path class="st18" d="M812.4,638.2v-24.2h2.7v24.2H812.4z"/>
	<path class="st18" d="M840.6,626v9c0.1,0.9,0.7,1.4,2,1.5l-0.1,2.1c-1.8,0-3.2-0.5-4.2-1.4c-2.1,0.9-4.2,1.4-6.3,1.4
		c-1.6,0-2.8-0.5-3.7-1.4c-0.8-0.9-1.3-2.2-1.3-3.9s0.4-3,1.3-3.8c0.9-0.8,2.2-1.3,4.1-1.5l5.5-0.5V626c0-1.2-0.3-2-0.8-2.6
		c-0.5-0.5-1.2-0.8-2.1-0.8c-1.9,0-3.8,0.1-5.8,0.3l-1.1,0.1l-0.1-2c2.6-0.5,4.8-0.8,6.8-0.8c2,0,3.4,0.5,4.3,1.4
		C840.2,622.6,840.6,624,840.6,626z M829.9,633.1c0,2.1,0.9,3.2,2.7,3.2c1.6,0,3.2-0.3,4.7-0.8l0.8-0.3v-5.8l-5.2,0.5
		c-1.1,0.1-1.8,0.4-2.3,0.9C830.1,631.4,829.9,632.1,829.9,633.1z"/>
	<path class="st18" d="M848.4,638.2h-2.6v-17.5h2.6v1.2c1.8-1,3.5-1.6,5.1-1.6c2.2,0,3.7,0.6,4.5,1.8c0.8-0.5,1.8-0.9,3-1.2
		c1.2-0.4,2.3-0.5,3.2-0.5c2.3,0,3.9,0.6,4.7,1.9c0.8,1.2,1.2,3.5,1.2,6.7v9.2h-2.6V629c0-2.4-0.2-4.1-0.7-5s-1.5-1.3-3-1.3
		c-0.8,0-1.6,0.1-2.4,0.3c-0.8,0.2-1.4,0.4-1.9,0.6L859,624c0.3,0.8,0.5,2.5,0.5,5.1v9.1h-2.6v-9c0-2.5-0.2-4.2-0.7-5.1
		s-1.5-1.3-3-1.3c-0.7,0-1.5,0.1-2.3,0.3c-0.8,0.2-1.4,0.4-1.8,0.6l-0.6,0.3V638.2z"/>
	<path class="st18" d="M438.9,668v9c0.1,0.9,0.7,1.4,2,1.5l-0.1,2.1c-1.8,0-3.2-0.5-4.2-1.4c-2.1,0.9-4.2,1.4-6.3,1.4
		c-1.6,0-2.8-0.5-3.7-1.4c-0.8-0.9-1.3-2.2-1.3-3.9s0.4-3,1.3-3.8c0.9-0.8,2.2-1.3,4.1-1.5l5.5-0.5V668c0-1.2-0.3-2-0.8-2.6
		c-0.5-0.5-1.2-0.8-2.1-0.8c-1.9,0-3.8,0.1-5.8,0.3l-1.1,0.1l-0.1-2c2.6-0.5,4.8-0.8,6.8-0.8c2,0,3.4,0.5,4.3,1.4
		C438.4,664.6,438.9,666,438.9,668z M428.1,675.1c0,2.1,0.9,3.2,2.7,3.2c1.6,0,3.1-0.3,4.7-0.8l0.8-0.3v-5.8l-5.2,0.5
		c-1,0.1-1.8,0.4-2.3,0.9C428.3,673.4,428.1,674.1,428.1,675.1z"/>
	<path class="st18" d="M442.6,662.7h2.6l3.5,15.2h0.6l4.2-14.9h2.7l4.2,14.9h0.6l3.5-15.2h2.6l-4.2,17.5h-4.4l-3.7-13.7l-3.7,13.7
		h-4.4L442.6,662.7z"/>
	<path class="st18" d="M482.9,668v9c0.1,0.9,0.7,1.4,2,1.5l-0.1,2.1c-1.8,0-3.2-0.5-4.2-1.4c-2.1,0.9-4.2,1.4-6.3,1.4
		c-1.6,0-2.8-0.5-3.7-1.4c-0.8-0.9-1.3-2.2-1.3-3.9s0.4-3,1.3-3.8c0.9-0.8,2.2-1.3,4.1-1.5l5.5-0.5V668c0-1.2-0.3-2-0.8-2.6
		c-0.5-0.5-1.2-0.8-2.1-0.8c-1.9,0-3.8,0.1-5.8,0.3l-1.1,0.1l-0.1-2c2.6-0.5,4.8-0.8,6.8-0.8c2,0,3.4,0.5,4.3,1.4
		C482.4,664.6,482.9,666,482.9,668z M472.1,675.1c0,2.1,0.9,3.2,2.7,3.2c1.6,0,3.1-0.3,4.7-0.8l0.8-0.3v-5.8l-5.2,0.5
		c-1,0.1-1.8,0.4-2.3,0.9C472.3,673.4,472.1,674.1,472.1,675.1z"/>
	<path class="st18" d="M488.1,680.2v-17.5h2.6v2.4c2-1.4,4.2-2.3,6.4-2.8v2.7c-1,0.2-2,0.5-3.1,0.9c-1.1,0.4-1.9,0.7-2.4,1l-0.9,0.5
		v12.8H488.1z"/>
	<path class="st18" d="M511.7,678l1-0.1l0.1,2.1c-2.7,0.4-4.9,0.6-6.8,0.6c-2.5,0-4.3-0.7-5.4-2.2c-1.1-1.5-1.6-3.7-1.6-6.8
		c0-6.1,2.4-9.2,7.3-9.2c2.4,0,4.1,0.7,5.3,2c1.2,1.3,1.8,3.4,1.8,6.2l-0.1,2h-11.5c0,1.9,0.3,3.4,1,4.3c0.7,0.9,1.9,1.4,3.7,1.4
		C508.2,678.2,509.9,678.1,511.7,678z M510.8,670.4c0-2.1-0.3-3.7-1-4.6c-0.7-0.9-1.8-1.3-3.4-1.3c-1.6,0-2.7,0.5-3.5,1.4
		c-0.8,0.9-1.2,2.4-1.2,4.5H510.8z"/>
	<path class="st18" d="M524.4,671.4c0-3.2,0.6-5.5,1.7-6.9c1.1-1.4,3.1-2.1,5.8-2.1s4.6,0.7,5.8,2.1c1.1,1.4,1.7,3.7,1.7,6.9
		c0,3.2-0.5,5.5-1.6,7c-1.1,1.4-3,2.2-5.9,2.2c-2.8,0-4.8-0.7-5.9-2.2C525,676.9,524.4,674.6,524.4,671.4z M527.1,671.3
		c0,2.6,0.3,4.3,0.9,5.4c0.6,1,1.9,1.5,3.9,1.5s3.3-0.5,3.9-1.5c0.6-1,0.9-2.8,0.9-5.4c0-2.6-0.3-4.3-1-5.3c-0.7-1-1.9-1.5-3.8-1.5
		c-1.8,0-3.1,0.5-3.8,1.5C527.5,667,527.1,668.8,527.1,671.3z"/>
	<path class="st18" d="M547,664.9v15.2h-2.6v-15.2h-2.2v-2.3h2.2v-1.6c0-2.5,0.4-4.2,1.1-5.1c0.7-0.9,1.9-1.3,3.7-1.3l3.5,0.2l0,2.2
		c-1.3,0-2.4-0.1-3.2-0.1c-0.9,0-1.5,0.3-1.8,0.8c-0.4,0.6-0.5,1.6-0.5,3.3v1.5h5.1v2.3H547z"/>
	<path class="st18" d="M572,664.9h-5.6v8.4c0,2,0.1,3.3,0.4,4c0.3,0.6,1,0.9,2.1,0.9l3.1-0.2l0.2,2.2c-1.6,0.3-2.8,0.4-3.6,0.4
		c-1.8,0-3.1-0.4-3.8-1.3c-0.7-0.9-1-2.6-1-5.1v-9.2h-2.5v-2.3h2.5v-5.4h2.6v5.4h5.6V664.9z"/>
	<path class="st18" d="M577.9,680.2h-2.6V655h2.6v8.6c1.9-0.9,3.7-1.3,5.4-1.3c2.3,0,3.9,0.6,4.7,1.9c0.8,1.3,1.2,3.5,1.2,6.7v9.2
		h-2.6V671c0-2.4-0.2-4.1-0.7-5c-0.5-0.9-1.5-1.3-3-1.3c-1.5,0-2.9,0.3-4.3,0.8l-0.7,0.2V680.2z"/>
	<path class="st18" d="M606,678l1-0.1l0.1,2.1c-2.7,0.4-4.9,0.6-6.8,0.6c-2.5,0-4.3-0.7-5.4-2.2c-1.1-1.5-1.6-3.7-1.6-6.8
		c0-6.1,2.4-9.2,7.3-9.2c2.4,0,4.1,0.7,5.3,2c1.2,1.3,1.8,3.4,1.8,6.2l-0.1,2h-11.5c0,1.9,0.3,3.4,1,4.3c0.7,0.9,1.9,1.4,3.7,1.4
		C602.4,678.2,604.2,678.1,606,678z M605,670.4c0-2.1-0.3-3.7-1-4.6c-0.7-0.9-1.8-1.3-3.4-1.3c-1.6,0-2.7,0.5-3.5,1.4
		c-0.8,0.9-1.2,2.4-1.2,4.5H605z"/>
	<path class="st18" d="M627.2,662.3c2.4,0,4,0.7,5,2c0.9,1.3,1.4,3.7,1.4,7.1c0,3.4-0.6,5.7-1.8,7.1s-3.3,2-6.5,2
		c-1,0-2.6-0.1-4.9-0.3l-1-0.1V655h2.6v8.5C623.8,662.7,625.5,662.3,627.2,662.3z M625.2,678.2c2.3,0,3.8-0.5,4.5-1.6
		c0.7-1,1.1-2.8,1.1-5.3c0-2.5-0.3-4.2-0.9-5.2c-0.6-1-1.6-1.5-3.1-1.5c-1.4,0-2.7,0.3-4.2,0.8l-0.7,0.2V678
		C623.5,678.1,624.6,678.2,625.2,678.2z"/>
	<path class="st18" d="M637.8,658.7v-3h2.6v3H637.8z M637.8,680.2v-17.5h2.6v17.5H637.8z"/>
	<path class="st18" d="M652.3,688.4c-2.8,0-4.8-0.4-5.9-1.1c-1.1-0.8-1.7-2.1-1.7-4.1c0-1,0.2-1.7,0.6-2.3s1.1-1.3,2.1-2
		c-0.7-0.4-1-1.2-1-2.4c0-0.4,0.3-1.1,0.9-2.2l0.3-0.6c-1.8-0.8-2.8-2.6-2.8-5.3c0-4,2.2-6,6.5-6c1.1,0,2.2,0.1,3.1,0.3l0.5,0.1
		l5.2-0.1v2.2l-3.3-0.1c0.8,0.8,1.2,1.9,1.2,3.5c0,2.2-0.5,3.7-1.6,4.6s-2.8,1.3-5.1,1.3c-0.6,0-1.2,0-1.7-0.1c-0.4,1-0.6,1.7-0.6,2
		c0,0.7,0.2,1.2,0.7,1.3c0.4,0.2,1.8,0.3,4,0.3s3.8,0.4,4.8,1.1c1,0.7,1.5,2.1,1.5,4.1C660,686.5,657.4,688.4,652.3,688.4z
		 M647.3,682.9c0,1.2,0.3,2.1,1,2.6c0.7,0.5,2,0.7,3.8,0.7s3.2-0.3,4-0.8c0.8-0.5,1.2-1.4,1.2-2.6c0-1.2-0.3-2-0.9-2.3
		c-0.6-0.3-1.7-0.5-3.4-0.5l-3.8-0.2c-0.8,0.6-1.3,1-1.6,1.5S647.3,682.2,647.3,682.9z M647.6,668.3c0,1.4,0.3,2.4,0.9,2.9
		c0.6,0.6,1.6,0.9,3.1,0.9c1.4,0,2.4-0.3,3-0.9c0.6-0.6,0.9-1.6,0.9-3c0-1.4-0.3-2.4-0.9-3c-0.6-0.6-1.6-0.9-3-0.9
		c-1.4,0-2.4,0.3-3.1,0.9C647.9,665.9,647.6,666.9,647.6,668.3z"/>
	<path class="st18" d="M671.2,687.9v-25.3h2.6v1.3c1.8-1.1,3.5-1.6,5.2-1.6c2.2,0,3.8,0.7,4.8,2.1c1,1.4,1.5,3.7,1.5,7
		s-0.6,5.6-1.8,7c-1.2,1.4-3.1,2.1-5.9,2.1c-1.4,0-2.7-0.1-3.9-0.4v7.8H671.2z M678.6,664.7c-0.7,0-1.5,0.1-2.3,0.3
		c-0.8,0.2-1.4,0.5-1.9,0.7l-0.7,0.3v11.8c1.7,0.3,2.9,0.4,3.8,0.4c1.9,0,3.2-0.5,4-1.6c0.8-1.1,1.1-2.8,1.1-5.2s-0.3-4.2-1-5.2
		C681,665.2,680,664.7,678.6,664.7z"/>
	<path class="st18" d="M689.6,658.7v-3h2.6v3H689.6z M689.6,680.2v-17.5h2.6v17.5H689.6z"/>
	<path class="st18" d="M703.8,662.3c0.8,0,2.1,0.1,3.9,0.4l0.8,0.1l-0.1,2.1c-1.9-0.2-3.2-0.3-4.1-0.3c-2,0-3.3,0.5-4,1.4
		c-0.7,0.9-1.1,2.7-1.1,5.2c0,2.6,0.3,4.3,1,5.3c0.7,1,2,1.5,4.1,1.5l4.1-0.3l0.1,2.2c-2.2,0.3-3.8,0.5-4.9,0.5
		c-2.7,0-4.6-0.7-5.7-2.1c-1-1.4-1.6-3.8-1.6-7.1c0-3.3,0.6-5.7,1.7-7C699.4,663,701.2,662.3,703.8,662.3z"/>
	<path class="st18" d="M721.6,664.9h-5.6v8.4c0,2,0.1,3.3,0.4,4s1,0.9,2.1,0.9l3.1-0.2l0.2,2.2c-1.6,0.3-2.8,0.4-3.6,0.4
		c-1.8,0-3.1-0.4-3.8-1.3c-0.7-0.9-1.1-2.6-1.1-5.1v-9.2H711v-2.3h2.5v-5.4h2.6v5.4h5.6V664.9z"/>
	<path class="st18" d="M735.8,662.7h2.6v17.5h-2.6v-1.2c-1.8,1-3.5,1.6-5.2,1.6c-2.4,0-4-0.6-4.7-1.9c-0.8-1.2-1.2-3.5-1.2-6.9v-9.1
		h2.6v9.1c0,2.5,0.2,4.2,0.7,5.1s1.4,1.3,3,1.3c0.8,0,1.6-0.1,2.3-0.3c0.8-0.2,1.4-0.4,1.8-0.6l0.6-0.3V662.7z"/>
	<path class="st18" d="M743.4,680.2v-17.5h2.6v2.4c2-1.4,4.2-2.3,6.4-2.8v2.7c-1,0.2-2,0.5-3.1,0.9s-1.9,0.7-2.4,1l-0.9,0.5v12.8
		H743.4z"/>
	<path class="st18" d="M767.1,678l1-0.1l0.1,2.1c-2.7,0.4-4.9,0.6-6.8,0.6c-2.5,0-4.3-0.7-5.4-2.2c-1-1.5-1.6-3.7-1.6-6.8
		c0-6.1,2.4-9.2,7.3-9.2c2.4,0,4.1,0.7,5.3,2s1.8,3.4,1.8,6.2l-0.1,2h-11.5c0,1.9,0.3,3.4,1,4.3c0.7,0.9,1.9,1.4,3.7,1.4
		S765.3,678.1,767.1,678z M766.1,670.4c0-2.1-0.3-3.7-1-4.6c-0.7-0.9-1.8-1.3-3.4-1.3s-2.7,0.5-3.5,1.4c-0.8,0.9-1.2,2.4-1.2,4.5
		H766.1z"/>
	<path class="st18" d="M772.7,680.2v-4h2.9v4H772.7z"/>
	<path class="st18" d="M317.3,722.2v-24.2h2.7v24.2H317.3z"/>
	<path class="st18" d="M338.6,706.7c-2.5,0-3.8,0.9-3.8,2.7c0,0.8,0.3,1.4,0.9,1.7c0.6,0.3,1.9,0.7,4,1c2.1,0.4,3.5,0.9,4.4,1.5
		c0.9,0.7,1.3,1.9,1.3,3.7c0,1.8-0.6,3.1-1.7,4c-1.2,0.8-2.8,1.3-5.1,1.3c-1.4,0-3.1-0.2-5.1-0.5l-1.1-0.2l0.1-2.3
		c2.7,0.4,4.7,0.6,6,0.6c1.4,0,2.4-0.2,3.1-0.6c0.7-0.4,1.1-1.2,1.1-2.2s-0.3-1.7-0.9-2.1c-0.6-0.4-1.9-0.7-4-1
		c-2.1-0.3-3.5-0.8-4.4-1.4c-0.9-0.6-1.3-1.8-1.3-3.5s0.6-3,1.8-3.8c1.2-0.8,2.7-1.2,4.5-1.2c1.4,0,3.2,0.2,5.4,0.5l1,0.2l-0.1,2.2
		C342.1,706.8,340.1,706.7,338.6,706.7z"/>
	<path class="st18" d="M361.3,720l1-0.1l0.1,2.1c-2.7,0.4-4.9,0.6-6.8,0.6c-2.5,0-4.3-0.7-5.4-2.2c-1.1-1.5-1.6-3.7-1.6-6.8
		c0-6.1,2.4-9.2,7.3-9.2c2.4,0,4.1,0.7,5.3,2c1.2,1.3,1.8,3.4,1.8,6.2l-0.1,2h-11.5c0,1.9,0.3,3.4,1,4.3c0.7,0.9,1.9,1.4,3.7,1.4
		C357.7,720.2,359.5,720.1,361.3,720z M360.3,712.4c0-2.1-0.3-3.7-1-4.6c-0.7-0.9-1.8-1.3-3.4-1.3c-1.6,0-2.7,0.5-3.5,1.4
		c-0.8,0.9-1.2,2.4-1.2,4.5H360.3z"/>
	<path class="st18" d="M376,706.9h-5.6v8.4c0,2,0.1,3.3,0.4,4c0.3,0.6,1,0.9,2.1,0.9l3.1-0.2l0.2,2.2c-1.6,0.3-2.8,0.4-3.6,0.4
		c-1.8,0-3.1-0.4-3.8-1.3c-0.7-0.9-1-2.6-1-5.1v-9.2h-2.5v-2.3h2.5v-5.4h2.6v5.4h5.6V706.9z"/>
	<path class="st18" d="M396,706.9h-5.6v8.4c0,2,0.1,3.3,0.4,4c0.3,0.6,1,0.9,2.1,0.9l3.1-0.2l0.2,2.2c-1.6,0.3-2.8,0.4-3.6,0.4
		c-1.8,0-3.1-0.4-3.8-1.3c-0.7-0.9-1-2.6-1-5.1v-9.2h-2.5v-2.3h2.5v-5.4h2.6v5.4h5.6V706.9z"/>
	<path class="st18" d="M401.9,722.2h-2.6V697h2.6v8.6c1.9-0.9,3.7-1.3,5.4-1.3c2.3,0,3.9,0.6,4.7,1.9c0.8,1.3,1.2,3.5,1.2,6.7v9.2
		h-2.6V713c0-2.4-0.2-4.1-0.7-5c-0.5-0.9-1.5-1.3-3-1.3c-1.5,0-2.9,0.3-4.3,0.8l-0.7,0.2V722.2z"/>
	<path class="st18" d="M429.9,720l1-0.1l0.1,2.1c-2.7,0.4-4.9,0.6-6.8,0.6c-2.5,0-4.3-0.7-5.4-2.2c-1.1-1.5-1.6-3.7-1.6-6.8
		c0-6.1,2.4-9.2,7.3-9.2c2.4,0,4.1,0.7,5.3,2c1.2,1.3,1.8,3.4,1.8,6.2l-0.1,2h-11.5c0,1.9,0.3,3.4,1,4.3c0.7,0.9,1.9,1.4,3.7,1.4
		C426.4,720.2,428.1,720.1,429.9,720z M429,712.4c0-2.1-0.3-3.7-1-4.6c-0.7-0.9-1.8-1.3-3.4-1.3c-1.6,0-2.7,0.5-3.5,1.4
		c-0.8,0.9-1.2,2.4-1.2,4.5H429z"/>
	<path class="st18" d="M451.1,704.3c2.4,0,4,0.7,5,2c0.9,1.3,1.4,3.7,1.4,7.1c0,3.4-0.6,5.7-1.8,7.1s-3.3,2-6.5,2
		c-1,0-2.6-0.1-4.9-0.3l-1-0.1V697h2.6v8.5C447.8,704.7,449.5,704.3,451.1,704.3z M449.2,720.2c2.3,0,3.8-0.5,4.5-1.6
		c0.7-1,1.1-2.8,1.1-5.3c0-2.5-0.3-4.2-0.9-5.2c-0.6-1-1.6-1.5-3.1-1.5c-1.4,0-2.7,0.3-4.2,0.8l-0.7,0.2V720
		C447.5,720.1,448.6,720.2,449.2,720.2z"/>
	<path class="st18" d="M473.7,720l1-0.1l0.1,2.1c-2.7,0.4-4.9,0.6-6.8,0.6c-2.5,0-4.3-0.7-5.4-2.2c-1.1-1.5-1.6-3.7-1.6-6.8
		c0-6.1,2.4-9.2,7.3-9.2c2.4,0,4.1,0.7,5.3,2c1.2,1.3,1.8,3.4,1.8,6.2l-0.1,2h-11.5c0,1.9,0.3,3.4,1,4.3c0.7,0.9,1.9,1.4,3.7,1.4
		C470.1,720.2,471.9,720.1,473.7,720z M472.8,712.4c0-2.1-0.3-3.7-1-4.6c-0.7-0.9-1.8-1.3-3.4-1.3c-1.6,0-2.7,0.5-3.5,1.4
		c-0.8,0.9-1.2,2.4-1.2,4.5H472.8z"/>
	<path class="st18" d="M485,706.7c-2.5,0-3.8,0.9-3.8,2.7c0,0.8,0.3,1.4,0.9,1.7c0.6,0.3,1.9,0.7,4,1c2.1,0.4,3.5,0.9,4.4,1.5
		c0.9,0.7,1.3,1.9,1.3,3.7c0,1.8-0.6,3.1-1.7,4c-1.2,0.8-2.8,1.3-5.1,1.3c-1.4,0-3.1-0.2-5.1-0.5l-1.1-0.2l0.1-2.3
		c2.7,0.4,4.7,0.6,6,0.6c1.4,0,2.4-0.2,3.1-0.6c0.7-0.4,1.1-1.2,1.1-2.2s-0.3-1.7-0.9-2.1c-0.6-0.4-1.9-0.7-4-1
		c-2.1-0.3-3.5-0.8-4.4-1.4c-0.9-0.6-1.3-1.8-1.3-3.5s0.6-3,1.8-3.8c1.2-0.8,2.7-1.2,4.5-1.2c1.4,0,3.2,0.2,5.4,0.5l1,0.2l-0.1,2.2
		C488.5,706.8,486.5,706.7,485,706.7z"/>
	<path class="st18" d="M504.8,706.9h-5.6v8.4c0,2,0.1,3.3,0.4,4c0.3,0.6,1,0.9,2.1,0.9l3.1-0.2l0.2,2.2c-1.6,0.3-2.8,0.4-3.6,0.4
		c-1.8,0-3.1-0.4-3.8-1.3c-0.7-0.9-1-2.6-1-5.1v-9.2h-2.5v-2.3h2.5v-5.4h2.6v5.4h5.6V706.9z"/>
	<path class="st18" d="M521.2,706.7c-2.5,0-3.8,0.9-3.8,2.7c0,0.8,0.3,1.4,0.9,1.7c0.6,0.3,1.9,0.7,4,1c2.1,0.4,3.5,0.9,4.4,1.5
		c0.9,0.7,1.3,1.9,1.3,3.7c0,1.8-0.6,3.1-1.7,4c-1.2,0.8-2.8,1.3-5.1,1.3c-1.4,0-3.1-0.2-5.1-0.5l-1.1-0.2l0.1-2.3
		c2.7,0.4,4.7,0.6,6,0.6c1.4,0,2.4-0.2,3.1-0.6c0.7-0.4,1.1-1.2,1.1-2.2s-0.3-1.7-0.9-2.1c-0.6-0.4-1.9-0.7-4-1
		c-2.1-0.3-3.5-0.8-4.4-1.4c-0.9-0.6-1.3-1.8-1.3-3.5s0.6-3,1.8-3.8c1.2-0.8,2.7-1.2,4.5-1.2c1.4,0,3.2,0.2,5.4,0.5l1,0.2l-0.1,2.2
		C524.8,706.8,522.7,706.7,521.2,706.7z"/>
	<path class="st18" d="M541.1,706.9h-5.6v8.4c0,2,0.1,3.3,0.4,4c0.3,0.6,1,0.9,2.1,0.9l3.1-0.2l0.2,2.2c-1.6,0.3-2.8,0.4-3.6,0.4
		c-1.8,0-3.1-0.4-3.8-1.3c-0.7-0.9-1-2.6-1-5.1v-9.2h-2.5v-2.3h2.5v-5.4h2.6v5.4h5.6V706.9z"/>
	<path class="st18" d="M544.3,722.2v-17.5h2.6v2.4c2-1.4,4.2-2.3,6.4-2.8v2.7c-1,0.2-2,0.5-3.1,0.9c-1.1,0.4-1.9,0.7-2.4,1l-0.9,0.5
		v12.8H544.3z"/>
	<path class="st18" d="M568.8,710v9c0.1,0.9,0.7,1.4,2,1.5l-0.1,2.1c-1.8,0-3.2-0.5-4.2-1.4c-2.1,0.9-4.2,1.4-6.3,1.4
		c-1.6,0-2.8-0.5-3.7-1.4c-0.8-0.9-1.3-2.2-1.3-3.9s0.4-3,1.3-3.8c0.9-0.8,2.2-1.3,4.1-1.5l5.5-0.5V710c0-1.2-0.3-2-0.8-2.6
		c-0.5-0.5-1.2-0.8-2.1-0.8c-1.9,0-3.8,0.1-5.8,0.3l-1.1,0.1l-0.1-2c2.6-0.5,4.8-0.8,6.8-0.8c2,0,3.4,0.5,4.3,1.4
		C568.3,706.6,568.8,708,568.8,710z M558,717.1c0,2.1,0.9,3.2,2.7,3.2c1.6,0,3.1-0.3,4.7-0.8l0.8-0.3v-5.8l-5.2,0.5
		c-1,0.1-1.8,0.4-2.3,0.9C558.2,715.4,558,716.1,558,717.1z"/>
	<path class="st18" d="M583,706.9h-5.6v8.4c0,2,0.1,3.3,0.4,4c0.3,0.6,1,0.9,2.1,0.9l3.1-0.2l0.2,2.2c-1.6,0.3-2.8,0.4-3.6,0.4
		c-1.8,0-3.1-0.4-3.8-1.3c-0.7-0.9-1-2.6-1-5.1v-9.2h-2.5v-2.3h2.5v-5.4h2.6v5.4h5.6V706.9z"/>
	<path class="st18" d="M598.1,720l1-0.1l0.1,2.1c-2.7,0.4-4.9,0.6-6.8,0.6c-2.5,0-4.3-0.7-5.4-2.2c-1.1-1.5-1.6-3.7-1.6-6.8
		c0-6.1,2.4-9.2,7.3-9.2c2.4,0,4.1,0.7,5.3,2c1.2,1.3,1.8,3.4,1.8,6.2l-0.1,2h-11.5c0,1.9,0.3,3.4,1,4.3c0.7,0.9,1.9,1.4,3.7,1.4
		C594.6,720.2,596.3,720.1,598.1,720z M597.2,712.4c0-2.1-0.3-3.7-1-4.6c-0.7-0.9-1.8-1.3-3.4-1.3c-1.6,0-2.7,0.5-3.5,1.4
		c-0.8,0.9-1.2,2.4-1.2,4.5H597.2z"/>
	<path class="st18" d="M610.7,730.4c-2.8,0-4.8-0.4-5.9-1.1c-1.1-0.8-1.7-2.1-1.7-4.1c0-1,0.2-1.7,0.6-2.3s1.1-1.3,2.1-2
		c-0.7-0.4-1-1.2-1-2.4c0-0.4,0.3-1.1,0.9-2.2l0.3-0.6c-1.8-0.8-2.8-2.6-2.8-5.3c0-4,2.2-6,6.5-6c1.1,0,2.2,0.1,3.1,0.3l0.5,0.1
		l5.2-0.1v2.2l-3.3-0.1c0.8,0.8,1.2,1.9,1.2,3.5c0,2.2-0.5,3.7-1.6,4.6s-2.8,1.3-5.1,1.3c-0.6,0-1.2,0-1.7-0.1c-0.4,1-0.6,1.7-0.6,2
		c0,0.7,0.2,1.2,0.7,1.3c0.4,0.2,1.8,0.3,4,0.3c2.2,0,3.9,0.4,4.8,1.1c1,0.7,1.5,2.1,1.5,4.1C618.4,728.5,615.8,730.4,610.7,730.4z
		 M605.7,724.9c0,1.2,0.3,2.1,1,2.6c0.7,0.5,2,0.7,3.8,0.7s3.2-0.3,4-0.8c0.8-0.5,1.2-1.4,1.2-2.6c0-1.2-0.3-2-0.9-2.3
		c-0.6-0.3-1.7-0.5-3.4-0.5l-3.8-0.2c-0.8,0.6-1.3,1-1.6,1.5C605.9,723.7,605.7,724.2,605.7,724.9z M606,710.3
		c0,1.4,0.3,2.4,0.9,2.9c0.6,0.6,1.6,0.9,3.1,0.9c1.4,0,2.4-0.3,3-0.9c0.6-0.6,0.9-1.6,0.9-3c0-1.4-0.3-2.4-0.9-3
		c-0.6-0.6-1.6-0.9-3-0.9c-1.4,0-2.4,0.3-3.1,0.9C606.3,707.9,606,708.9,606,710.3z"/>
	<path class="st18" d="M620.2,704.7h2.6l4.4,15.2h1.2l4.4-15.2h2.6l-7.3,25.3h-2.6l2.3-7.8h-2.6L620.2,704.7z"/>
	<path class="st18" d="M658.9,710v9c0.1,0.9,0.7,1.4,2,1.5l-0.1,2.1c-1.8,0-3.2-0.5-4.2-1.4c-2.1,0.9-4.2,1.4-6.3,1.4
		c-1.6,0-2.8-0.5-3.7-1.4c-0.8-0.9-1.3-2.2-1.3-3.9s0.4-3,1.3-3.8c0.9-0.8,2.2-1.3,4.1-1.5l5.5-0.5V710c0-1.2-0.3-2-0.8-2.6
		c-0.5-0.5-1.2-0.8-2.1-0.8c-1.9,0-3.8,0.1-5.8,0.3l-1.1,0.1l-0.1-2c2.6-0.5,4.8-0.8,6.8-0.8c2,0,3.4,0.5,4.3,1.4
		C658.4,706.6,658.9,708,658.9,710z M648.1,717.1c0,2.1,0.9,3.2,2.7,3.2c1.6,0,3.2-0.3,4.7-0.8l0.8-0.3v-5.8l-5.2,0.5
		c-1.1,0.1-1.8,0.4-2.3,0.9C648.3,715.4,648.1,716.1,648.1,717.1z"/>
	<path class="st18" d="M666.7,722.2H664v-17.5h2.6v1.2c1.9-1,3.7-1.6,5.4-1.6c2.3,0,3.9,0.6,4.7,1.9c0.8,1.3,1.2,3.5,1.2,6.7v9.2
		h-2.6V713c0-2.4-0.2-4.1-0.7-5c-0.5-0.9-1.5-1.3-3.1-1.3c-0.7,0-1.5,0.1-2.4,0.3c-0.8,0.2-1.5,0.4-1.9,0.6l-0.7,0.3V722.2z"/>
	<path class="st18" d="M696.3,697v25.1h-2.6V721c-1.8,1-3.6,1.5-5.3,1.5c-0.9,0-1.8-0.1-2.5-0.3c-0.7-0.2-1.4-0.7-2-1.3
		c-1.3-1.3-1.9-3.6-1.9-7c0-3.4,0.6-5.8,1.7-7.4s3-2.3,5.6-2.3c1.4,0,2.8,0.2,4.3,0.5V697H696.3z M687.2,719.9
		c0.4,0.2,1,0.2,1.6,0.2s1.4-0.1,2.2-0.3s1.5-0.4,1.9-0.6l0.7-0.3V707c-1.5-0.3-2.9-0.4-4.2-0.4c-1.8,0-3,0.6-3.7,1.7
		c-0.7,1.1-1,2.9-1,5.3c0,2.7,0.4,4.5,1.2,5.5C686.3,719.5,686.7,719.8,687.2,719.9z"/>
	<path class="st18" d="M709,722.2v-17.5h2.6v2.4c2-1.4,4.2-2.3,6.4-2.8v2.7c-1,0.2-2,0.5-3.1,0.9s-1.9,0.7-2.4,1l-0.9,0.5v12.8H709z
		"/>
	<path class="st18" d="M720,713.4c0-3.2,0.6-5.5,1.7-6.9c1.1-1.4,3.1-2.1,5.8-2.1c2.7,0,4.6,0.7,5.8,2.1c1.1,1.4,1.7,3.7,1.7,6.9
		c0,3.2-0.5,5.5-1.6,7c-1.1,1.4-3,2.2-5.9,2.2c-2.8,0-4.8-0.7-5.9-2.2C720.6,718.9,720,716.6,720,713.4z M722.7,713.3
		c0,2.6,0.3,4.3,0.9,5.4c0.6,1,1.9,1.5,3.9,1.5c2,0,3.3-0.5,3.9-1.5c0.6-1,0.9-2.8,0.9-5.4c0-2.6-0.3-4.3-1-5.3
		c-0.7-1-1.9-1.5-3.8-1.5c-1.8,0-3.1,0.5-3.8,1.5C723.1,709,722.7,710.8,722.7,713.3z"/>
	<path class="st18" d="M751.6,710v9c0.1,0.9,0.7,1.4,2,1.5l-0.1,2.1c-1.8,0-3.2-0.5-4.2-1.4c-2.1,0.9-4.2,1.4-6.3,1.4
		c-1.6,0-2.8-0.5-3.7-1.4c-0.8-0.9-1.3-2.2-1.3-3.9s0.4-3,1.3-3.8c0.9-0.8,2.2-1.3,4.1-1.5l5.5-0.5V710c0-1.2-0.3-2-0.8-2.6
		c-0.5-0.5-1.2-0.8-2.1-0.8c-1.9,0-3.8,0.1-5.8,0.3l-1.1,0.1l-0.1-2c2.6-0.5,4.8-0.8,6.8-0.8c2,0,3.4,0.5,4.3,1.4
		C751.2,706.6,751.6,708,751.6,710z M740.9,717.1c0,2.1,0.9,3.2,2.7,3.2c1.6,0,3.2-0.3,4.7-0.8l0.8-0.3v-5.8l-5.2,0.5
		c-1.1,0.1-1.8,0.4-2.3,0.9C741.1,715.4,740.9,716.1,740.9,717.1z"/>
	<path class="st18" d="M770.3,697v25.1h-2.6V721c-1.8,1-3.6,1.5-5.3,1.5c-0.9,0-1.8-0.1-2.5-0.3c-0.7-0.2-1.4-0.7-2-1.3
		c-1.3-1.3-1.9-3.6-1.9-7c0-3.4,0.6-5.8,1.7-7.4s3-2.3,5.6-2.3c1.4,0,2.8,0.2,4.3,0.5V697H770.3z M761.2,719.9
		c0.4,0.2,1,0.2,1.6,0.2s1.4-0.1,2.2-0.3s1.5-0.4,1.9-0.6l0.7-0.3V707c-1.5-0.3-2.9-0.4-4.2-0.4c-1.8,0-3,0.6-3.7,1.7
		c-0.7,1.1-1,2.9-1,5.3c0,2.7,0.4,4.5,1.2,5.5C760.3,719.5,760.7,719.8,761.2,719.9z"/>
	<path class="st18" d="M778,722.2h-2.6v-17.5h2.6v1.2c1.8-1,3.5-1.6,5.1-1.6c2.2,0,3.7,0.6,4.5,1.8c0.8-0.5,1.8-0.9,3-1.2
		c1.2-0.4,2.3-0.5,3.2-0.5c2.3,0,3.9,0.6,4.7,1.9c0.8,1.2,1.2,3.5,1.2,6.7v9.2h-2.6V713c0-2.4-0.2-4.1-0.7-5s-1.5-1.3-3-1.3
		c-0.8,0-1.6,0.1-2.4,0.3c-0.8,0.2-1.4,0.4-1.9,0.6l-0.7,0.3c0.3,0.8,0.5,2.5,0.5,5.1v9.1h-2.6v-9c0-2.5-0.2-4.2-0.7-5.1
		s-1.5-1.3-3-1.3c-0.7,0-1.5,0.1-2.3,0.3c-0.8,0.2-1.4,0.4-1.8,0.6L778,708V722.2z"/>
	<path class="st18" d="M816.9,710v9c0.1,0.9,0.7,1.4,2,1.5l-0.1,2.1c-1.8,0-3.2-0.5-4.2-1.4c-2.1,0.9-4.2,1.4-6.3,1.4
		c-1.6,0-2.8-0.5-3.7-1.4c-0.8-0.9-1.3-2.2-1.3-3.9s0.4-3,1.3-3.8c0.9-0.8,2.2-1.3,4.1-1.5l5.5-0.5V710c0-1.2-0.3-2-0.8-2.6
		c-0.5-0.5-1.2-0.8-2.1-0.8c-1.9,0-3.8,0.1-5.8,0.3l-1.1,0.1l-0.1-2c2.6-0.5,4.8-0.8,6.8-0.8c2,0,3.4,0.5,4.3,1.4
		C816.5,706.6,816.9,708,816.9,710z M806.2,717.1c0,2.1,0.9,3.2,2.7,3.2c1.6,0,3.2-0.3,4.7-0.8l0.8-0.3v-5.8l-5.2,0.5
		c-1.1,0.1-1.8,0.4-2.3,0.9C806.4,715.4,806.2,716.1,806.2,717.1z"/>
	<path class="st18" d="M822.1,729.9v-25.3h2.6v1.3c1.8-1.1,3.5-1.6,5.2-1.6c2.2,0,3.8,0.7,4.8,2.1c1,1.4,1.5,3.7,1.5,7
		s-0.6,5.6-1.8,7c-1.2,1.4-3.1,2.1-5.9,2.1c-1.4,0-2.7-0.1-3.9-0.4v7.8H822.1z M829.6,706.7c-0.7,0-1.5,0.1-2.3,0.3
		c-0.8,0.2-1.4,0.5-1.9,0.7l-0.7,0.3v11.8c1.7,0.3,2.9,0.4,3.8,0.4c1.9,0,3.2-0.5,4-1.6c0.8-1.1,1.1-2.8,1.1-5.2s-0.3-4.2-1-5.2
		C831.9,707.2,830.9,706.7,829.6,706.7z"/>
	<path class="st18" d="M851.6,706.9v15.2H849v-15.2h-2.2v-2.3h2.2v-1.6c0-2.5,0.4-4.2,1-5.1c0.7-0.9,1.9-1.3,3.7-1.3l3.5,0.2l0,2.2
		c-1.3,0-2.4-0.1-3.2-0.1s-1.5,0.3-1.8,0.8c-0.4,0.6-0.5,1.6-0.5,3.3v1.5h5.1v2.3H851.6z"/>
	<path class="st18" d="M858.8,713.4c0-3.2,0.6-5.5,1.7-6.9c1.1-1.4,3.1-2.1,5.8-2.1c2.7,0,4.6,0.7,5.8,2.1c1.1,1.4,1.7,3.7,1.7,6.9
		c0,3.2-0.5,5.5-1.6,7c-1.1,1.4-3,2.2-5.9,2.2c-2.8,0-4.8-0.7-5.9-2.2C859.3,718.9,858.8,716.6,858.8,713.4z M861.5,713.3
		c0,2.6,0.3,4.3,0.9,5.4c0.6,1,1.9,1.5,3.9,1.5c2,0,3.3-0.5,3.9-1.5c0.6-1,0.9-2.8,0.9-5.4c0-2.6-0.3-4.3-1-5.3
		c-0.7-1-1.9-1.5-3.8-1.5c-1.8,0-3.1,0.5-3.8,1.5C861.8,709,861.5,710.8,861.5,713.3z"/>
	<path class="st18" d="M878,722.2v-17.5h2.6v2.4c2-1.4,4.2-2.3,6.4-2.8v2.7c-1,0.2-2,0.5-3.1,0.9s-1.9,0.7-2.4,1l-0.9,0.5v12.8H878z
		"/>
	<path class="st18" d="M571.2,746.7h2.6l4.4,15.2h1.2l4.4-15.2h2.6l-7.3,25.3h-2.6l2.3-7.8h-2.6L571.2,746.7z"/>
	<path class="st18" d="M588.7,755.4c0-3.2,0.6-5.5,1.7-6.9c1.1-1.4,3.1-2.1,5.8-2.1s4.6,0.7,5.8,2.1c1.1,1.4,1.7,3.7,1.7,6.9
		c0,3.2-0.5,5.5-1.6,7c-1.1,1.4-3,2.2-5.9,2.2c-2.8,0-4.8-0.7-5.9-2.2C589.2,760.9,588.7,758.6,588.7,755.4z M591.4,755.3
		c0,2.6,0.3,4.3,0.9,5.4c0.6,1,1.9,1.5,3.9,1.5s3.3-0.5,3.9-1.5c0.6-1,0.9-2.8,0.9-5.4c0-2.6-0.3-4.3-1-5.3c-0.7-1-1.9-1.5-3.8-1.5
		c-1.8,0-3.1,0.5-3.8,1.5C591.7,751,591.4,752.8,591.4,755.3z"/>
	<path class="st18" d="M618.8,746.7h2.6v17.5h-2.6v-1.2c-1.8,1-3.5,1.6-5.2,1.6c-2.4,0-4-0.6-4.7-1.9c-0.8-1.2-1.2-3.5-1.2-6.9v-9.1
		h2.6v9.1c0,2.5,0.2,4.2,0.7,5.1s1.4,1.3,3,1.3c0.8,0,1.6-0.1,2.3-0.3c0.8-0.2,1.4-0.4,1.8-0.6l0.6-0.3V746.7z"/>
	<path class="st18" d="M626.3,764.2v-4h2.9v4H626.3z"/>
	<path class="st18" d="M356.2,806.2v-24.2h2.7v24.2H356.2z"/>
	<path class="st18" d="M385.5,781v25.1h-2.6V805c-1.8,1-3.6,1.5-5.3,1.5c-0.9,0-1.8-0.1-2.4-0.3c-0.7-0.2-1.4-0.7-2-1.3
		c-1.3-1.3-1.9-3.6-1.9-7c0-3.4,0.6-5.8,1.7-7.4s3-2.3,5.6-2.3c1.4,0,2.8,0.2,4.3,0.5V781H385.5z M376.4,803.9
		c0.4,0.2,1,0.2,1.6,0.2s1.4-0.1,2.2-0.3c0.8-0.2,1.5-0.4,1.9-0.6l0.7-0.3V791c-1.5-0.3-2.9-0.4-4.2-0.4c-1.8,0-3,0.6-3.7,1.7
		c-0.7,1.1-1.1,2.9-1.1,5.3c0,2.7,0.4,4.5,1.2,5.5C375.6,803.5,376,803.8,376.4,803.9z"/>
	<path class="st18" d="M402.5,804l1-0.1l0.1,2.1c-2.7,0.4-4.9,0.6-6.8,0.6c-2.5,0-4.3-0.7-5.4-2.2c-1.1-1.5-1.6-3.7-1.6-6.8
		c0-6.1,2.4-9.2,7.3-9.2c2.4,0,4.1,0.7,5.3,2c1.2,1.3,1.8,3.4,1.8,6.2l-0.1,2h-11.5c0,1.9,0.3,3.4,1,4.3c0.7,0.9,1.9,1.4,3.7,1.4
		C398.9,804.2,400.7,804.1,402.5,804z M401.5,796.4c0-2.1-0.3-3.7-1-4.6c-0.7-0.9-1.8-1.3-3.4-1.3c-1.6,0-2.7,0.5-3.5,1.4
		c-0.8,0.9-1.2,2.4-1.2,4.5H401.5z"/>
	<path class="st18" d="M411.6,790.9v15.2H409v-15.2h-2.2v-2.3h2.2v-1.6c0-2.5,0.4-4.2,1.1-5.1c0.7-0.9,1.9-1.3,3.7-1.3l3.5,0.2
		l0,2.2c-1.3,0-2.4-0.1-3.2-0.1c-0.9,0-1.5,0.3-1.8,0.8c-0.4,0.6-0.5,1.6-0.5,3.3v1.5h5.1v2.3H411.6z"/>
	<path class="st18" d="M419.8,784.7v-3h2.6v3H419.8z M419.8,806.2v-17.5h2.6v17.5H419.8z"/>
	<path class="st18" d="M430.1,806.2h-2.6v-17.5h2.6v1.2c1.9-1,3.7-1.6,5.4-1.6c2.3,0,3.9,0.6,4.7,1.9c0.8,1.3,1.2,3.5,1.2,6.7v9.2
		h-2.6V797c0-2.4-0.2-4.1-0.7-5c-0.5-0.9-1.5-1.3-3.1-1.3c-0.7,0-1.5,0.1-2.4,0.3c-0.8,0.2-1.5,0.4-1.9,0.6l-0.7,0.3V806.2z"/>
	<path class="st18" d="M458.2,804l1-0.1l0.1,2.1c-2.7,0.4-4.9,0.6-6.8,0.6c-2.5,0-4.3-0.7-5.4-2.2c-1.1-1.5-1.6-3.7-1.6-6.8
		c0-6.1,2.4-9.2,7.3-9.2c2.4,0,4.1,0.7,5.3,2c1.2,1.3,1.8,3.4,1.8,6.2l-0.1,2h-11.5c0,1.9,0.3,3.4,1,4.3c0.7,0.9,1.9,1.4,3.7,1.4
		C454.6,804.2,456.4,804.1,458.2,804z M457.2,796.4c0-2.1-0.3-3.7-1-4.6c-0.7-0.9-1.8-1.3-3.4-1.3c-1.6,0-2.7,0.5-3.5,1.4
		c-0.8,0.9-1.2,2.4-1.2,4.5H457.2z"/>
	<path class="st18" d="M480.7,790.9h-5.6v8.4c0,2,0.1,3.3,0.4,4c0.3,0.6,1,0.9,2.1,0.9l3.1-0.2l0.2,2.2c-1.6,0.3-2.8,0.4-3.6,0.4
		c-1.8,0-3.1-0.4-3.8-1.3c-0.7-0.9-1-2.6-1-5.1v-9.2h-2.5v-2.3h2.5v-5.4h2.6v5.4h5.6V790.9z"/>
	<path class="st18" d="M486.6,806.2h-2.6V781h2.6v8.6c1.9-0.9,3.7-1.3,5.4-1.3c2.3,0,3.9,0.6,4.7,1.9c0.8,1.3,1.2,3.5,1.2,6.7v9.2
		h-2.6V797c0-2.4-0.2-4.1-0.7-5c-0.5-0.9-1.5-1.3-3-1.3c-1.5,0-2.9,0.3-4.3,0.8l-0.7,0.2V806.2z"/>
	<path class="st18" d="M514.6,804l1-0.1l0.1,2.1c-2.7,0.4-4.9,0.6-6.8,0.6c-2.5,0-4.3-0.7-5.4-2.2c-1.1-1.5-1.6-3.7-1.6-6.8
		c0-6.1,2.4-9.2,7.3-9.2c2.4,0,4.1,0.7,5.3,2c1.2,1.3,1.8,3.4,1.8,6.2l-0.1,2h-11.5c0,1.9,0.3,3.4,1,4.3c0.7,0.9,1.9,1.4,3.7,1.4
		C511.1,804.2,512.8,804.1,514.6,804z M513.7,796.4c0-2.1-0.3-3.7-1-4.6c-0.7-0.9-1.8-1.3-3.4-1.3c-1.6,0-2.7,0.5-3.5,1.4
		c-0.8,0.9-1.2,2.4-1.2,4.5H513.7z"/>
	<path class="st18" d="M531.5,790.9v15.2h-2.6v-15.2h-2.2v-2.3h2.2v-1.6c0-2.5,0.4-4.2,1.1-5.1c0.7-0.9,1.9-1.3,3.7-1.3l3.5,0.2
		l0,2.2c-1.3,0-2.4-0.1-3.2-0.1c-0.9,0-1.5,0.3-1.8,0.8c-0.4,0.6-0.5,1.6-0.5,3.3v1.5h5.1v2.3H531.5z"/>
	<path class="st18" d="M551.3,804l1-0.1l0.1,2.1c-2.7,0.4-4.9,0.6-6.8,0.6c-2.5,0-4.3-0.7-5.4-2.2c-1.1-1.5-1.6-3.7-1.6-6.8
		c0-6.1,2.4-9.2,7.3-9.2c2.4,0,4.1,0.7,5.3,2c1.2,1.3,1.8,3.4,1.8,6.2l-0.1,2h-11.5c0,1.9,0.3,3.4,1,4.3c0.7,0.9,1.9,1.4,3.7,1.4
		C547.7,804.2,549.5,804.1,551.3,804z M550.3,796.4c0-2.1-0.3-3.7-1-4.6c-0.7-0.9-1.8-1.3-3.4-1.3c-1.6,0-2.7,0.5-3.5,1.4
		c-0.8,0.9-1.2,2.4-1.2,4.5H550.3z"/>
	<path class="st18" d="M569.4,794v9c0.1,0.9,0.7,1.4,2,1.5l-0.1,2.1c-1.8,0-3.2-0.5-4.2-1.4c-2.1,0.9-4.2,1.4-6.3,1.4
		c-1.6,0-2.8-0.5-3.7-1.4c-0.8-0.9-1.3-2.2-1.3-3.9s0.4-3,1.3-3.8c0.9-0.8,2.2-1.3,4.1-1.5l5.5-0.5V794c0-1.2-0.3-2-0.8-2.6
		c-0.5-0.5-1.2-0.8-2.1-0.8c-1.9,0-3.8,0.1-5.8,0.3l-1.1,0.1l-0.1-2c2.6-0.5,4.8-0.8,6.8-0.8c2,0,3.4,0.5,4.3,1.4
		C569,790.6,569.4,792,569.4,794z M558.6,801.1c0,2.1,0.9,3.2,2.7,3.2c1.6,0,3.1-0.3,4.7-0.8l0.8-0.3v-5.8l-5.2,0.5
		c-1,0.1-1.8,0.4-2.3,0.9C558.9,799.4,558.6,800.1,558.6,801.1z"/>
	<path class="st18" d="M583.7,790.9h-5.6v8.4c0,2,0.1,3.3,0.4,4c0.3,0.6,1,0.9,2.1,0.9l3.1-0.2l0.2,2.2c-1.6,0.3-2.8,0.4-3.6,0.4
		c-1.8,0-3.1-0.4-3.8-1.3c-0.7-0.9-1-2.6-1-5.1v-9.2H573v-2.3h2.5v-5.4h2.6v5.4h5.6V790.9z"/>
	<path class="st18" d="M597.8,788.7h2.6v17.5h-2.6v-1.2c-1.8,1-3.5,1.6-5.2,1.6c-2.4,0-4-0.6-4.7-1.9c-0.8-1.2-1.2-3.5-1.2-6.9v-9.1
		h2.6v9.1c0,2.5,0.2,4.2,0.7,5.1s1.4,1.3,3,1.3c0.8,0,1.6-0.1,2.3-0.3c0.8-0.2,1.4-0.4,1.8-0.6l0.6-0.3V788.7z"/>
	<path class="st18" d="M605.5,806.2v-17.5h2.6v2.4c2-1.4,4.2-2.3,6.4-2.8v2.7c-1,0.2-2,0.5-3.1,0.9c-1.1,0.4-1.9,0.7-2.4,1l-0.9,0.5
		v12.8H605.5z"/>
	<path class="st18" d="M629.1,804l1-0.1l0.1,2.1c-2.7,0.4-4.9,0.6-6.8,0.6c-2.5,0-4.3-0.7-5.4-2.2c-1.1-1.5-1.6-3.7-1.6-6.8
		c0-6.1,2.4-9.2,7.3-9.2c2.4,0,4.1,0.7,5.3,2c1.2,1.3,1.8,3.4,1.8,6.2l-0.1,2h-11.5c0,1.9,0.3,3.4,1,4.3c0.7,0.9,1.9,1.4,3.7,1.4
		C625.6,804.2,627.3,804.1,629.1,804z M628.2,796.4c0-2.1-0.3-3.7-1-4.6c-0.7-0.9-1.8-1.3-3.4-1.3c-1.6,0-2.7,0.5-3.5,1.4
		c-0.8,0.9-1.2,2.4-1.2,4.5H628.2z"/>
	<path class="st18" d="M640.4,790.7c-2.5,0-3.8,0.9-3.8,2.7c0,0.8,0.3,1.4,0.9,1.7c0.6,0.3,1.9,0.7,4,1c2.1,0.4,3.5,0.9,4.4,1.5
		s1.3,1.9,1.3,3.7c0,1.8-0.6,3.1-1.7,4c-1.2,0.8-2.8,1.3-5.1,1.3c-1.4,0-3.2-0.2-5.1-0.5l-1.1-0.2l0.1-2.3c2.7,0.4,4.7,0.6,6,0.6
		c1.4,0,2.4-0.2,3.1-0.6s1.1-1.2,1.1-2.2s-0.3-1.7-0.9-2.1c-0.6-0.4-1.9-0.7-4-1c-2.1-0.3-3.5-0.8-4.4-1.4c-0.9-0.6-1.3-1.8-1.3-3.5
		s0.6-3,1.8-3.8c1.2-0.8,2.7-1.2,4.5-1.2c1.4,0,3.2,0.2,5.4,0.5l1,0.2l-0.1,2.2C643.9,790.8,641.9,790.7,640.4,790.7z"/>
	<path class="st18" d="M667.9,790.9h-5.6v8.4c0,2,0.1,3.3,0.4,4s1,0.9,2.1,0.9l3.1-0.2l0.2,2.2c-1.6,0.3-2.8,0.4-3.6,0.4
		c-1.8,0-3.1-0.4-3.8-1.3c-0.7-0.9-1.1-2.6-1.1-5.1v-9.2h-2.5v-2.3h2.5v-5.4h2.6v5.4h5.6V790.9z"/>
	<path class="st18" d="M673.8,806.2h-2.6V781h2.6v8.6c1.9-0.9,3.7-1.3,5.4-1.3c2.3,0,3.9,0.6,4.7,1.9c0.8,1.3,1.2,3.5,1.2,6.7v9.2
		h-2.6V797c0-2.4-0.2-4.1-0.7-5s-1.5-1.3-3-1.3c-1.5,0-2.9,0.3-4.3,0.8l-0.7,0.2V806.2z"/>
	<path class="st18" d="M702.3,794v9c0.1,0.9,0.7,1.4,2,1.5l-0.1,2.1c-1.8,0-3.2-0.5-4.2-1.4c-2.1,0.9-4.2,1.4-6.3,1.4
		c-1.6,0-2.8-0.5-3.7-1.4c-0.8-0.9-1.3-2.2-1.3-3.9s0.4-3,1.3-3.8c0.9-0.8,2.2-1.3,4.1-1.5l5.5-0.5V794c0-1.2-0.3-2-0.8-2.6
		c-0.5-0.5-1.2-0.8-2.1-0.8c-1.9,0-3.8,0.1-5.8,0.3l-1.1,0.1l-0.1-2c2.6-0.5,4.8-0.8,6.8-0.8c2,0,3.4,0.5,4.3,1.4
		C701.9,790.6,702.3,792,702.3,794z M691.5,801.1c0,2.1,0.9,3.2,2.7,3.2c1.6,0,3.2-0.3,4.7-0.8l0.8-0.3v-5.8l-5.2,0.5
		c-1.1,0.1-1.8,0.4-2.3,0.9C691.8,799.4,691.5,800.1,691.5,801.1z"/>
	<path class="st18" d="M716.5,790.9H711v8.4c0,2,0.1,3.3,0.4,4s1,0.9,2.1,0.9l3.1-0.2l0.2,2.2c-1.6,0.3-2.8,0.4-3.6,0.4
		c-1.8,0-3.1-0.4-3.8-1.3c-0.7-0.9-1.1-2.6-1.1-5.1v-9.2h-2.5v-2.3h2.5v-5.4h2.6v5.4h5.6V790.9z"/>
	<path class="st18" d="M733,790.7c-2.5,0-3.8,0.9-3.8,2.7c0,0.8,0.3,1.4,0.9,1.7c0.6,0.3,1.9,0.7,4,1c2.1,0.4,3.5,0.9,4.4,1.5
		s1.3,1.9,1.3,3.7c0,1.8-0.6,3.1-1.7,4c-1.2,0.8-2.8,1.3-5.1,1.3c-1.4,0-3.2-0.2-5.1-0.5l-1-0.2l0.1-2.3c2.7,0.4,4.7,0.6,6,0.6
		c1.4,0,2.4-0.2,3.1-0.6s1.1-1.2,1.1-2.2s-0.3-1.7-0.9-2.1c-0.6-0.4-1.9-0.7-4-1c-2.1-0.3-3.5-0.8-4.4-1.4s-1.3-1.8-1.3-3.5
		s0.6-3,1.8-3.8c1.2-0.8,2.7-1.2,4.5-1.2c1.4,0,3.2,0.2,5.4,0.5l1,0.2l-0.1,2.2C736.5,790.8,734.5,790.7,733,790.7z"/>
	<path class="st18" d="M754.7,788.7h2.6v17.5h-2.6v-1.2c-1.8,1-3.5,1.6-5.2,1.6c-2.4,0-4-0.6-4.7-1.9c-0.8-1.2-1.2-3.5-1.2-6.9v-9.1
		h2.6v9.1c0,2.5,0.2,4.2,0.7,5.1s1.4,1.3,3,1.3c0.8,0,1.6-0.1,2.3-0.3c0.8-0.2,1.4-0.4,1.8-0.6l0.6-0.3V788.7z"/>
	<path class="st18" d="M762.3,784.7v-3h2.6v3H762.3z M762.3,806.2v-17.5h2.6v17.5H762.3z"/>
	<path class="st18" d="M779.1,790.9h-5.6v8.4c0,2,0.1,3.3,0.4,4s1,0.9,2.1,0.9l3.1-0.2l0.2,2.2c-1.6,0.3-2.8,0.4-3.6,0.4
		c-1.8,0-3.1-0.4-3.8-1.3c-0.7-0.9-1.1-2.6-1.1-5.1v-9.2h-2.5v-2.3h2.5v-5.4h2.6v5.4h5.6V790.9z"/>
	<path class="st18" d="M788.3,788.7h2.6l4.4,15.2h1.2l4.4-15.2h2.6l-7.3,25.3h-2.6l2.3-7.8h-2.6L788.3,788.7z"/>
	<path class="st18" d="M805.8,797.4c0-3.2,0.6-5.5,1.7-6.9c1.1-1.4,3.1-2.1,5.8-2.1c2.7,0,4.6,0.7,5.8,2.1c1.1,1.4,1.7,3.7,1.7,6.9
		c0,3.2-0.5,5.5-1.6,7c-1.1,1.4-3,2.2-5.9,2.2c-2.8,0-4.8-0.7-5.9-2.2C806.3,802.9,805.8,800.6,805.8,797.4z M808.5,797.3
		c0,2.6,0.3,4.3,0.9,5.4c0.6,1,1.9,1.5,3.9,1.5c2,0,3.3-0.5,3.9-1.5c0.6-1,0.9-2.8,0.9-5.4c0-2.6-0.3-4.3-1-5.3
		c-0.7-1-1.9-1.5-3.8-1.5c-1.8,0-3.1,0.5-3.8,1.5C808.8,793,808.5,794.8,808.5,797.3z"/>
	<path class="st18" d="M836,788.7h2.6v17.5H836v-1.2c-1.8,1-3.5,1.6-5.2,1.6c-2.4,0-4-0.6-4.7-1.9c-0.8-1.2-1.2-3.5-1.2-6.9v-9.1
		h2.6v9.1c0,2.5,0.2,4.2,0.7,5.1s1.4,1.3,3,1.3c0.8,0,1.6-0.1,2.3-0.3c0.8-0.2,1.4-0.4,1.8-0.6l0.6-0.3V788.7z"/>
	<path class="st18" d="M843.5,806.2v-4h2.9v4H843.5z"/>
	<path class="st18" d="M506.8,823.9h8.8c2.4,0,4.2,0.5,5.4,1.5c1.2,1,1.8,2.5,1.8,4.7c0,1.5-0.3,2.7-0.8,3.6c-0.5,0.9-1.3,1.5-2.3,2
		c2.6,0.9,3.9,2.8,3.9,5.7c0,2.4-0.6,4.2-1.9,5.2s-3.1,1.6-5.6,1.6h-9.2V823.9z M515.4,826.3h-6v8.4h6.2c1.5,0,2.6-0.4,3.3-1.1
		c0.7-0.7,1-1.8,1-3.2c0-1.4-0.4-2.5-1.1-3.1C518.2,826.6,517,826.3,515.4,826.3z M515.7,837h-6.3v8.8h6.4c1.6,0,2.8-0.3,3.6-1
		c0.8-0.7,1.2-1.8,1.2-3.5c0-0.9-0.2-1.6-0.5-2.2s-0.8-1-1.3-1.3C517.9,837.3,516.8,837,515.7,837z"/>
	<path class="st18" d="M539.8,846l1-0.1l0.1,2.1c-2.7,0.4-4.9,0.6-6.8,0.6c-2.5,0-4.3-0.7-5.4-2.2c-1.1-1.5-1.6-3.7-1.6-6.8
		c0-6.1,2.4-9.2,7.3-9.2c2.4,0,4.1,0.7,5.3,2c1.2,1.3,1.8,3.4,1.8,6.2l-0.1,2h-11.5c0,1.9,0.3,3.4,1,4.3c0.7,0.9,1.9,1.4,3.7,1.4
		C536.2,846.2,538,846.1,539.8,846z M538.8,838.4c0-2.1-0.3-3.7-1-4.6c-0.7-0.9-1.8-1.3-3.4-1.3c-1.6,0-2.7,0.5-3.5,1.4
		c-0.8,0.9-1.2,2.4-1.2,4.5H538.8z"/>
	<path class="st18" d="M559.8,830.3c0.8,0,2.1,0.1,3.9,0.4l0.8,0.1l-0.1,2.1c-1.9-0.2-3.2-0.3-4.1-0.3c-2,0-3.3,0.5-4,1.4
		c-0.7,0.9-1.1,2.7-1.1,5.2c0,2.6,0.3,4.3,1,5.3c0.7,1,2,1.5,4.1,1.5l4.1-0.3l0.1,2.2c-2.2,0.3-3.8,0.5-4.9,0.5
		c-2.7,0-4.6-0.7-5.7-2.1s-1.6-3.8-1.6-7.1c0-3.3,0.6-5.7,1.7-7C555.3,831,557.2,830.3,559.8,830.3z"/>
	<path class="st18" d="M567.5,839.4c0-3.2,0.6-5.5,1.7-6.9c1.1-1.4,3.1-2.1,5.8-2.1s4.6,0.7,5.8,2.1c1.1,1.4,1.7,3.7,1.7,6.9
		c0,3.2-0.5,5.5-1.6,7c-1.1,1.4-3,2.2-5.9,2.2c-2.8,0-4.8-0.7-5.9-2.2C568.1,844.9,567.5,842.6,567.5,839.4z M570.2,839.3
		c0,2.6,0.3,4.3,0.9,5.4c0.6,1,1.9,1.5,3.9,1.5s3.3-0.5,3.9-1.5c0.6-1,0.9-2.8,0.9-5.4c0-2.6-0.3-4.3-1-5.3c-0.7-1-1.9-1.5-3.8-1.5
		c-1.8,0-3.1,0.5-3.8,1.5C570.6,835,570.2,836.8,570.2,839.3z"/>
	<path class="st18" d="M589.4,848.2h-2.6v-17.5h2.6v1.2c1.9-1,3.7-1.6,5.4-1.6c2.3,0,3.9,0.6,4.7,1.9c0.8,1.3,1.2,3.5,1.2,6.7v9.2
		h-2.6V839c0-2.4-0.2-4.1-0.7-5c-0.5-0.9-1.5-1.3-3.1-1.3c-0.7,0-1.5,0.1-2.4,0.3c-0.8,0.2-1.5,0.4-1.9,0.6l-0.7,0.3V848.2z"/>
	<path class="st18" d="M608.9,832.9v15.2h-2.6v-15.2h-2.2v-2.3h2.2v-1.6c0-2.5,0.4-4.2,1.1-5.1c0.7-0.9,1.9-1.3,3.7-1.3l3.5,0.2
		l0,2.2c-1.3,0-2.4-0.1-3.2-0.1c-0.9,0-1.5,0.3-1.8,0.8c-0.4,0.6-0.5,1.6-0.5,3.3v1.5h5.1v2.3H608.9z"/>
	<path class="st18" d="M617.2,826.7v-3h2.6v3H617.2z M617.2,848.2v-17.5h2.6v17.5H617.2z"/>
	<path class="st18" d="M638.3,823v25.1h-2.6V847c-1.8,1-3.6,1.5-5.3,1.5c-0.9,0-1.8-0.1-2.4-0.3c-0.7-0.2-1.4-0.7-2-1.3
		c-1.3-1.3-1.9-3.6-1.9-7c0-3.4,0.6-5.8,1.7-7.4s3-2.3,5.6-2.3c1.4,0,2.8,0.2,4.3,0.5V823H638.3z M629.2,845.9
		c0.4,0.2,1,0.2,1.6,0.2s1.4-0.1,2.2-0.3c0.8-0.2,1.5-0.4,1.9-0.6l0.7-0.3V833c-1.5-0.3-2.9-0.4-4.2-0.4c-1.8,0-3,0.6-3.7,1.7
		c-0.7,1.1-1.1,2.9-1.1,5.3c0,2.7,0.4,4.5,1.2,5.5C628.3,845.5,628.7,845.8,629.2,845.9z"/>
	<path class="st18" d="M655.2,846l1-0.1l0.1,2.1c-2.7,0.4-4.9,0.6-6.8,0.6c-2.5,0-4.3-0.7-5.4-2.2c-1-1.5-1.6-3.7-1.6-6.8
		c0-6.1,2.4-9.2,7.3-9.2c2.4,0,4.1,0.7,5.3,2s1.8,3.4,1.8,6.2l-0.1,2h-11.5c0,1.9,0.3,3.4,1,4.3c0.7,0.9,1.9,1.4,3.7,1.4
		S653.4,846.1,655.2,846z M654.3,838.4c0-2.1-0.3-3.7-1-4.6c-0.7-0.9-1.8-1.3-3.4-1.3s-2.7,0.5-3.5,1.4c-0.8,0.9-1.2,2.4-1.2,4.5
		H654.3z"/>
	<path class="st18" d="M663.6,848.2H661v-17.5h2.6v1.2c1.9-1,3.7-1.6,5.4-1.6c2.3,0,3.9,0.6,4.7,1.9c0.8,1.3,1.2,3.5,1.2,6.7v9.2
		h-2.6V839c0-2.4-0.2-4.1-0.7-5c-0.5-0.9-1.5-1.3-3.1-1.3c-0.7,0-1.5,0.1-2.4,0.3c-0.8,0.2-1.5,0.4-1.9,0.6l-0.7,0.3V848.2z"/>
	<path class="st18" d="M688.8,832.9h-5.6v8.4c0,2,0.1,3.3,0.4,4s1,0.9,2.1,0.9l3.1-0.2l0.2,2.2c-1.6,0.3-2.8,0.4-3.6,0.4
		c-1.8,0-3.1-0.4-3.8-1.3c-0.7-0.9-1.1-2.6-1.1-5.1v-9.2h-2.5v-2.3h2.5v-5.4h2.6v5.4h5.6V832.9z"/>
	<path class="st18" d="M692.4,848.2v-3.9h2.9v3.9H692.4z M692.6,840.2l-0.2-16.2h2.8l-0.2,16.2H692.6z"/>
</g>
</svg>
