<?xml version="1.0" encoding="utf-8"?>
<!-- Generator: Adobe Illustrator 24.1.0, SVG Export Plug-In . SVG Version: 6.00 Build 0)  -->
<svg version="1.1" id="Layer_1" xmlns="http://www.w3.org/2000/svg" xmlns:xlink="http://www.w3.org/1999/xlink" x="0px" y="0px"
	 viewBox="0 0 1242 731.7" style="enable-background:new 0 0 1242 731.7;" xml:space="preserve">
<style type="text/css">
	.st0{fill:#F4F1ED;}
	.st1{fill:none;stroke:#305F89;stroke-width:3.076;stroke-miterlimit:10;}
	.st2{fill:none;stroke:#305F89;stroke-width:4.1014;stroke-linecap:round;stroke-linejoin:round;}
	.st3{fill:#FFFFFF;stroke:#698588;stroke-width:4.3111;stroke-linecap:round;stroke-linejoin:round;stroke-miterlimit:10;}
	.st4{fill:#EFB63B;stroke:#698588;stroke-width:4.3111;stroke-linecap:round;stroke-linejoin:round;}
	.st5{enable-background:new    ;}
	.st6{fill:#698588;}
	.st7{fill:none;stroke:#698588;stroke-width:2.8025;stroke-linecap:round;stroke-linejoin:round;stroke-miterlimit:10;}
	.st8{fill:none;stroke:#EFB63B;stroke-width:2.8025;stroke-miterlimit:10;}
	.st9{fill:#EFB63B;stroke:#305F89;stroke-width:2.8741;stroke-miterlimit:10;}
	.st10{fill:#EFB63B;}
	.st11{fill:none;stroke:#698588;stroke-width:3.0695;stroke-linecap:round;stroke-linejoin:round;stroke-miterlimit:10;}
	.st12{fill:none;stroke:#698588;stroke-width:2.4477;stroke-linecap:round;stroke-linejoin:round;}
	.st13{fill:#EFB63B;stroke:#698588;stroke-width:2.4477;stroke-linecap:round;stroke-linejoin:round;}
	.st14{fill:none;stroke:#305F89;stroke-width:3.2516;stroke-miterlimit:10;}
	.st15{fill:none;stroke:#C9A87E;stroke-width:4.0769;stroke-miterlimit:10;}
	.st16{fill:#303030;}
</style>
<path class="st0" d="M447.2,264.4v-46.6v-17l28.9-14.8l0.4-58.1l58.4-0.4l0.2-0.7l13.1-28.6h131.6l13.4,29.3l58.4,0.4L752,186
	l28.9,14.8v128.3L752,344l-0.4,58.1l-58.4,0.4l-13.4,29.3h-58.5c-0.4,0-14.2,0-14.2,0h-58.5l-13.5-29.2l-58.4-0.4l-0.4-58.1
	l-28.9-14.8v-15.7v-45"/>
<polygon class="st0" points="990.4,206.1 941.5,206.1 907,240.6 907,289.5 941.5,324.2 990.4,324.2 1024.9,289.5 1024.9,240.6 "/>
<polygon class="st0" points="961.8,22.6 912.8,22.6 878.3,57.1 878.3,106.1 912.8,140.8 961.8,140.8 996.2,106.1 996.2,57.1 "/>
<polygon class="st0" points="965.4,385.9 916.8,385.9 882.7,420.1 882.7,468.6 916.8,503 965.4,503 999.6,468.6 999.6,420.1 "/>
<polygon class="st1" points="973,367.8 909.5,367.8 864.5,412.6 864.5,476.1 909.5,521.1 973,521.1 1017.9,476.1 1017.9,412.6 "/>
<polygon class="st1" points="969.7,5.4 906.1,5.4 861.1,50.3 861.1,114 906.1,158.9 969.7,158.9 1014.7,114 1014.7,50.3 "/>
<polygon class="st1" points="997.8,188.4 934.1,188.4 889.2,233.3 889.2,297 934.1,341.9 997.8,341.9 1042.7,297 1042.7,233.3 "/>
<path class="st2" d="M812.9,254.6v-45.7v-20.3l-34.4-17.7l-0.5-69.3l-69.6-0.5l-0.2-0.7l-15.7-34.2H535.6l-16,34.8l-69.6,0.5
	l-0.5,69.3l-34.4,17.7v153l34.4,17.7l0.5,69.3l69.6,0.5l15.9,34.9h69.9c0.5,0,17,0,17,0h69.8l15.9-34.9l69.6-0.5l0.5-69.3l34.4-17.7
	v-18.8v-65.4"/>
<g>
	<g>
		<polygon class="st3" points="507.8,164.5 507.8,370.6 724.2,370.6 724.2,210.5 676.7,164.7 676.7,164.5 		"/>
		<polygon class="st4" points="676.7,164.7 676.7,210.7 724.5,210.7 724.2,210.5 		"/>
	</g>
	<g class="st5">
		<path class="st6" d="M527.4,245.8l6.5-23.7h5.8l6.5,23.7h-2.6l-1.7-6.1h-10.1l-1.7,6.1H527.4z M535.9,224.3l-3.6,13h9l-3.6-13
			H535.9z"/>
		<path class="st6" d="M556.2,224c-3.4,0-5.1,1.3-5.1,3.9c0,1.4,0.4,2.4,1.2,3s2.4,1.1,4.8,1.6c2.4,0.5,4.1,1.2,5.1,2.1
			c1,0.9,1.5,2.3,1.5,4.2c0,4.9-2.5,7.3-7.6,7.3c-1.7,0-3.8-0.2-6.3-0.6l-1.2-0.2l0.3-2.2c3.1,0.4,5.5,0.6,7.1,0.6
			c3.4,0,5.1-1.6,5.1-4.8c0-1.3-0.4-2.2-1.1-2.8c-0.7-0.6-2.1-1-4.2-1.4c-2.7-0.6-4.6-1.3-5.7-2.2c-1.1-0.9-1.7-2.4-1.7-4.5
			c0-4.2,2.5-6.4,7.6-6.4c1.7,0,3.7,0.2,6,0.5l1.2,0.2l-0.2,2.2C559.7,224.2,557.5,224,556.2,224z"/>
		<path class="st6" d="M573.6,245.8l6.5-23.7h5.8l6.5,23.7h-2.6l-1.7-6.1H578l-1.7,6.1H573.6z M582.1,224.3l-3.6,13h9l-3.6-13H582.1
			z"/>
		<path class="st6" d="M603,245.8v-3.9h2.8v3.9H603z"/>
		<path class="st6" d="M610.4,245.8v-3.9h2.8v3.9H610.4z"/>
		<path class="st6" d="M617.8,245.8v-3.9h2.8v3.9H617.8z"/>
	</g>
	<g class="st5">
		<path class="st6" d="M529.5,286.8v-23.7h2.6v23.7H529.5z"/>
		<path class="st6" d="M543.5,263.1h2.7l4,21.4h1l4.8-21.2h3.1l4.8,21.2h1l4-21.4h2.7l-4.8,23.7H562l-4.5-20.2l-4.5,20.2h-4.8
			L543.5,263.1z"/>
		<path class="st6" d="M572.9,286.8l6.5-23.7h5.8l6.5,23.7H589l-1.7-6.1h-10.1l-1.7,6.1H572.9z M581.4,265.3l-3.6,13h9l-3.6-13
			H581.4z"/>
		<path class="st6" d="M595.4,286.8v-23.7h4.9l9.1,21.4h0.7v-21.4h2.6v23.7h-4.8l-9.2-21.4H598v21.4H595.4z"/>
		<path class="st6" d="M616.1,265.4V263h17.1v2.4H626v21.3h-2.6v-21.3H616.1z"/>
		<path class="st6" d="M643.4,286.8v-3.9h2.8v3.9H643.4z"/>
		<path class="st6" d="M650.8,286.8v-3.9h2.8v3.9H650.8z"/>
		<path class="st6" d="M658.2,286.8v-3.9h2.8v3.9H658.2z"/>
	</g>
	<g class="st5">
		<path class="st6" d="M536,306.2c-3.4,0-5.1,1.3-5.1,3.9c0,1.4,0.4,2.4,1.2,3s2.4,1.1,4.8,1.6c2.4,0.5,4.1,1.2,5.1,2.1
			s1.5,2.3,1.5,4.2c0,4.9-2.5,7.3-7.6,7.3c-1.7,0-3.8-0.2-6.3-0.6l-1.2-0.2l0.3-2.2c3.1,0.4,5.5,0.6,7.1,0.6c3.4,0,5.1-1.6,5.1-4.8
			c0-1.3-0.4-2.2-1.1-2.8c-0.7-0.6-2.1-1-4.2-1.4c-2.7-0.6-4.6-1.3-5.7-2.2c-1.1-0.9-1.7-2.4-1.7-4.5c0-4.2,2.5-6.4,7.6-6.4
			c1.7,0,3.7,0.2,6,0.5l1.2,0.2l-0.2,2.2C539.6,306.4,537.3,306.2,536,306.2z"/>
		<path class="st6" d="M565.8,316.3c0,4.2-0.7,7.3-2,9.2c-1.3,1.9-3.8,2.8-7.3,2.8s-6-1-7.3-2.9s-2-5-2-9.2s0.7-7.3,2.1-9.3
			s3.8-3,7.3-3s5.9,1,7.3,3C565.1,309,565.8,312.1,565.8,316.3z M549.8,316.2c0,3.5,0.5,6,1.4,7.5s2.7,2.3,5.3,2.3s4.4-0.7,5.3-2.2
			c0.9-1.5,1.4-4,1.4-7.5s-0.5-6-1.4-7.6s-2.7-2.4-5.3-2.4s-4.3,0.8-5.2,2.4C550.2,310.2,549.8,312.8,549.8,316.2z"/>
		<path class="st6" d="M575.7,306.7v-2.4h17.1v2.4h-7.2V328H583v-21.3H575.7z"/>
		<path class="st6" d="M610.8,328v-10.7h-12V328h-2.6v-23.7h2.6v10.6h12v-10.6h2.6V328H610.8z"/>
		<path class="st6" d="M617.1,328l6.5-23.7h5.8l6.5,23.7h-2.6l-1.7-6.1h-10.1l-1.7,6.1H617.1z M625.6,306.6l-3.6,13h9l-3.6-13H625.6
			z"/>
		<path class="st6" d="M635.6,306.7v-2.4h17.1v2.4h-7.2V328h-2.6v-21.3H635.6z"/>
		<path class="st6" d="M662.9,328v-3.9h2.8v3.9H662.9z"/>
		<path class="st6" d="M670.3,328v-3.9h2.8v3.9H670.3z"/>
		<path class="st6" d="M677.7,328v-3.9h2.8v3.9H677.7z"/>
	</g>
</g>
<g id="XMLID_4_">
	<g>
		<path class="st7" d="M900.2,71.4c0.9-21,18.1-37.7,39.3-37.7c21.7,0,39.3,17.6,39.3,39.4c0,14.3-7.6,26.8-19,33.7"/>
		<polyline class="st7" points="959.9,106.8 959.9,128.9 916.9,128.9 916.9,115.7 		"/>
		<polyline class="st7" points="916.9,115.7 900.2,115.7 900.2,93.7 		"/>
		<polyline class="st7" points="900.2,93.7 894.3,93.7 900.2,71.4 		"/>
		<path class="st8" d="M947.1,96.6c-1.1,0.3-2.1,0.6-3.2,0.7c-12.3,1.8-24.5-5.2-28.9-17.1c-0.2-0.4-0.3-0.9-0.5-1.4
			c-4-12.6,1.7-26,13.1-32"/>
		<path class="st8" d="M932,45c14.2-4.5,29.4,3.3,33.8,17.4c4.2,13.1-2.2,27-14.4,32.6"/>
		<polyline class="st8" points="926.2,43.3 932,45 929.1,50.7 		"/>
		<polyline class="st8" points="950.7,91.9 946.9,96.6 947.1,96.6 952.5,99.5 		"/>
		<polyline class="st8" points="927.5,71 940.2,71 952.9,71 		"/>
		<polyline class="st8" points="940.2,83.4 940.2,71 940.2,58 		"/>
	</g>
</g>
<path class="st9" d="M823.4,265.4c0,0.5,0,1.1,0,1.5c-0.7,5.1-4.6,9-9.8,9.8c-0.5,0-1.1,0.2-1.8,0.2c-6.4,0-11.6-5.1-11.6-11.6
	s5.1-11.6,11.6-11.6c0.5,0,1.1,0,1.8,0.2C819.1,254.9,823.4,259.8,823.4,265.4z"/>
<g>
	<rect x="960.9" y="260.1" class="st10" width="23.3" height="20.9"/>
	<g id="XMLID_3_">
		<g>
			<polyline class="st11" points="928.6,281.2 928.6,281.2 941.5,289.9 941.7,281.2 941.7,281.2 			"/>
			<path class="st11" d="M928.6,281.2h-9.2v-40.5h65v19.7v20.9c0,0-11.9,0-23.2,0c-8.9,0-17.4,0-19.6,0"/>
			<polyline class="st11" points="990.7,292.4 990.9,300.8 1003.3,292.4 			"/>
			<polyline class="st11" points="990.7,292.4 961.2,292.4 961.2,281.2 961.2,260.3 984.4,260.3 1012.7,260.3 1012.7,292.4 
				1003.3,292.4 			"/>
		</g>
	</g>
</g>
<g>
	<polyline class="st12" points="955.6,434.8 965.5,434.8 965.5,476.8 974.7,476.8 955.9,495.6 	"/>
	<polyline class="st12" points="956,434.8 946.1,434.8 946.1,476.8 936.8,476.8 955.7,495.6 	"/>
</g>
<g>
	<polyline class="st13" points="922.8,463.1 932.7,463.1 932.7,421.2 941.9,421.2 923.1,402.3 	"/>
	<polyline class="st13" points="923.3,463.1 913.3,463.1 913.3,421.2 904,421.2 923.1,402.3 	"/>
</g>
<line class="st14" x1="890.6" y1="265.1" x2="822.2" y2="265.1"/>
<polyline class="st14" points="862.4,115.1 820.8,115.1 779,171.1 "/>
<polyline class="st14" points="865,412.4 820.4,412.4 778.6,356.4 "/>
<circle class="st9" cx="779.7" cy="169.1" r="9"/>
<circle class="st9" cx="779.8" cy="360.3" r="9"/>
<line class="st15" x1="526.3" y1="574.7" x2="697.6" y2="574.7"/>
<g>
	<path class="st16" d="M530.2,524.6c0,3.5,1.9,5.3,5.6,5.3c3.7,0,5.6-1.8,5.6-5.3V506h4.5v18.6c0,3.2-0.8,5.6-2.5,7.1
		s-4.2,2.2-7.6,2.2c-3.3,0-5.9-0.7-7.5-2.2s-2.5-3.8-2.5-7.1V506h4.5L530.2,524.6L530.2,524.6z"/>
	<path class="st16" d="M565.1,517.5c-3.1-0.4-5.4-0.6-6.8-0.6c-1.4,0-2.4,0.2-2.9,0.5s-0.8,0.9-0.8,1.6c0,0.7,0.3,1.2,0.9,1.5
		c0.6,0.3,2,0.6,4.2,1s3.8,1,4.7,1.8s1.4,2.3,1.4,4.4c0,2.1-0.7,3.7-2,4.6c-1.3,1-3.3,1.5-5.9,1.5c-1.6,0-3.7-0.2-6.2-0.7l-1.2-0.2
		l0.2-3.6c3.2,0.4,5.5,0.6,6.9,0.6s2.4-0.2,3-0.5s0.9-0.9,0.9-1.7s-0.3-1.4-0.9-1.7c-0.6-0.3-1.9-0.6-4.1-1
		c-2.2-0.4-3.8-0.9-4.8-1.7s-1.5-2.2-1.5-4.2c0-2.1,0.7-3.6,2.1-4.6c1.4-1,3.2-1.5,5.4-1.5c1.7,0,3.8,0.2,6.3,0.6l1.2,0.2
		L565.1,517.5z"/>
	<path class="st16" d="M584.3,529.8l1.1-0.1l0.1,3.2c-3,0.6-5.7,0.9-8.1,0.9c-3,0-5.1-0.8-6.4-2.4c-1.3-1.6-1.9-4.2-1.9-7.8
		c0-7.1,2.9-10.6,8.7-10.6c5.6,0,8.4,3.1,8.4,9.2l-0.3,3.1h-12.4c0,1.7,0.4,2.9,1.1,3.6c0.7,0.8,2,1.2,3.9,1.2
		C580.3,530,582.3,530,584.3,529.8z M581.9,521.9c0-2-0.3-3.4-0.9-4.1c-0.6-0.8-1.7-1.2-3.2-1.2s-2.6,0.4-3.3,1.2s-1,2.2-1.1,4.1
		H581.9z"/>
	<path class="st16" d="M590.3,533.4v-20h4.3v2.4c2.3-1.5,4.5-2.4,6.8-2.8v4.4c-2.3,0.5-4.3,1-5.9,1.8l-0.9,0.4v14h-4.3L590.3,533.4
		L590.3,533.4z"/>
	<path class="st16" d="M622.1,509.4c-3.4,0-5.1,1.2-5.1,3.6c0,1.2,0.4,2.1,1.2,2.6s2.6,1.2,5.3,1.9c2.7,0.8,4.7,1.7,5.8,2.7
		c1.1,1.1,1.7,2.7,1.7,5c0,2.9-0.8,5-2.5,6.5c-1.6,1.4-3.9,2.1-6.7,2.1c-2.3,0-4.8-0.3-7.5-0.8l-1.4-0.3l0.4-3.6
		c3.6,0.5,6.3,0.7,8.2,0.7c3.3,0,5-1.5,5-4.4c0-1.1-0.4-2-1.1-2.5c-0.7-0.5-2.4-1.1-5-1.8s-4.6-1.6-5.8-2.7c-1.3-1.1-1.9-3-1.9-5.4
		c0-2.5,0.8-4.4,2.4-5.6c1.6-1.3,3.8-1.9,6.7-1.9c2.1,0,4.5,0.2,7.3,0.7l1.4,0.2l-0.4,3.6C626.3,509.6,623.7,509.4,622.1,509.4z"/>
	<path class="st16" d="M645.8,517.1h-5.5v8.8c0,1.6,0.1,2.7,0.4,3.2c0.2,0.5,0.9,0.8,1.8,0.8l3.3-0.1l0.2,3.5
		c-1.8,0.3-3.1,0.5-4.1,0.5c-2.3,0-3.8-0.5-4.7-1.6s-1.3-3-1.3-5.9V517h-2.6v-3.7h2.6v-5.8h4.3v5.8h5.5L645.8,517.1L645.8,517.1z"/>
	<path class="st16" d="M650.4,515.6c1.4-1.7,3.7-2.6,6.9-2.6s5.5,0.9,6.9,2.6c1.4,1.7,2.1,4.3,2.1,7.8s-0.7,6.1-2,7.8
		c-1.3,1.8-3.6,2.6-6.9,2.6c-3.3,0-5.6-0.9-6.9-2.6c-1.3-1.8-2-4.4-2-7.8C648.4,519.9,649.1,517.3,650.4,515.6z M653.7,528.6
		c0.6,1.1,1.8,1.6,3.6,1.6s3-0.5,3.6-1.6s0.9-2.8,0.9-5.2s-0.3-4.1-1-5.2c-0.7-1-1.8-1.5-3.5-1.5s-2.9,0.5-3.5,1.5
		c-0.7,1-1,2.7-1,5.2C652.8,525.7,653.1,527.5,653.7,528.6z"/>
	<path class="st16" d="M670.5,533.4v-20h4.3v2.4c2.3-1.5,4.5-2.4,6.8-2.8v4.4c-2.3,0.5-4.3,1-5.9,1.8l-0.9,0.4v14h-4.3L670.5,533.4
		L670.5,533.4z"/>
	<path class="st16" d="M683.1,513.4h4.3l4.2,16.3h1.1l4.2-16.3h4.3l-7.6,28.6h-4.3l2.4-8.6h-3.4L683.1,513.4z"/>
</g>
<g>
	<path class="st16" d="M293.9,618.5v-2.4h17.5v2.4H304v21.8h-2.7v-21.8H293.9z"/>
	<path class="st16" d="M317,640.4h-2.6v-25.1h2.6v8.6c1.9-0.9,3.7-1.3,5.4-1.3c2.3,0,3.9,0.6,4.7,1.9c0.8,1.3,1.2,3.5,1.2,6.7v9.2
		h-2.6v-9.2c0-2.4-0.2-4.1-0.7-5s-1.5-1.3-3-1.3s-2.9,0.3-4.3,0.8l-0.7,0.2V640.4z"/>
	<path class="st16" d="M345.1,638.2l1-0.1l0.1,2.1c-2.7,0.4-4.9,0.6-6.8,0.6c-2.5,0-4.3-0.7-5.4-2.2s-1.6-3.7-1.6-6.8
		c0-6.1,2.4-9.2,7.3-9.2c2.4,0,4.1,0.7,5.3,2c1.2,1.3,1.8,3.4,1.8,6.2l-0.1,2h-11.5c0,1.9,0.3,3.4,1,4.3c0.7,0.9,1.9,1.4,3.7,1.4
		C341.5,638.4,343.3,638.3,345.1,638.2z M344.2,630.6c0-2.1-0.3-3.7-1-4.5c-0.7-0.9-1.8-1.3-3.4-1.3s-2.7,0.5-3.5,1.4
		s-1.2,2.4-1.2,4.5h9.1V630.6z"/>
	<path class="st16" d="M369.5,622.9h2.6v17.5h-2.6v-1.2c-1.8,1.1-3.5,1.6-5.2,1.6c-2.4,0-4-0.6-4.7-1.9c-0.8-1.2-1.2-3.5-1.2-6.9
		v-9.1h2.6v9.1c0,2.5,0.2,4.2,0.7,5.1c0.4,0.9,1.4,1.3,3,1.3c0.8,0,1.6-0.1,2.3-0.3c0.8-0.2,1.4-0.4,1.8-0.6l0.6-0.3v-14.3
		L369.5,622.9L369.5,622.9z"/>
	<path class="st16" d="M382.7,624.8c-2.5,0-3.8,0.9-3.8,2.7c0,0.8,0.3,1.4,0.9,1.7s1.9,0.7,4,1c2.1,0.4,3.5,0.9,4.4,1.5
		c0.9,0.7,1.3,1.9,1.3,3.7s-0.6,3.1-1.7,4c-1.2,0.8-2.8,1.3-5.1,1.3c-1.4,0-3.1-0.2-5.1-0.5l-1.1-0.2l0.1-2.3c2.7,0.4,4.7,0.6,6,0.6
		c1.4,0,2.4-0.2,3.1-0.6c0.7-0.4,1.1-1.2,1.1-2.2s-0.3-1.7-0.9-2.1c-0.6-0.4-1.9-0.7-4-1s-3.5-0.8-4.4-1.4c-0.9-0.6-1.3-1.8-1.3-3.5
		s0.6-3,1.8-3.8c1.2-0.8,2.7-1.2,4.5-1.2c1.4,0,3.2,0.2,5.4,0.5l1,0.2l-0.1,2.2C386.2,625,384.2,624.8,382.7,624.8z"/>
	<path class="st16" d="M405.3,638.2l1-0.1l0.1,2.1c-2.7,0.4-4.9,0.6-6.8,0.6c-2.5,0-4.3-0.7-5.4-2.2s-1.6-3.7-1.6-6.8
		c0-6.1,2.4-9.2,7.3-9.2c2.4,0,4.1,0.7,5.3,2c1.2,1.3,1.8,3.4,1.8,6.2l-0.1,2h-11.5c0,1.9,0.3,3.4,1,4.3c0.7,0.9,1.9,1.4,3.7,1.4
		C401.8,638.4,403.5,638.3,405.3,638.2z M404.4,630.6c0-2.1-0.3-3.7-1-4.5c-0.7-0.9-1.8-1.3-3.4-1.3s-2.7,0.5-3.5,1.4
		s-1.2,2.4-1.2,4.5h9.1V630.6z"/>
	<path class="st16" d="M411.1,640.4v-17.5h2.6v2.4c2-1.4,4.2-2.3,6.4-2.8v2.7c-1,0.2-2,0.5-3.1,0.9s-1.9,0.7-2.4,1.1l-0.9,0.5v12.8
		h-2.6V640.4z"/>
	<path class="st16" d="M436.4,624.8c-2.5,0-3.8,0.9-3.8,2.7c0,0.8,0.3,1.4,0.9,1.7s1.9,0.7,4,1c2.1,0.4,3.5,0.9,4.4,1.5
		c0.9,0.7,1.3,1.9,1.3,3.7s-0.6,3.1-1.7,4c-1.2,0.8-2.8,1.3-5.1,1.3c-1.4,0-3.1-0.2-5.1-0.5l-1.1-0.2l0.1-2.3c2.7,0.4,4.7,0.6,6,0.6
		c1.4,0,2.4-0.2,3.1-0.6c0.7-0.4,1.1-1.2,1.1-2.2s-0.3-1.7-0.9-2.1c-0.6-0.4-1.9-0.7-4-1s-3.5-0.8-4.4-1.4c-0.9-0.6-1.3-1.8-1.3-3.5
		s0.6-3,1.8-3.8c1.2-0.8,2.7-1.2,4.5-1.2c1.4,0,3.2,0.2,5.4,0.5l1,0.2l-0.1,2.2C440,625,437.9,624.8,436.4,624.8z"/>
	<path class="st16" d="M456.3,625.1h-5.6v8.4c0,2,0.1,3.3,0.4,4c0.3,0.6,1,0.9,2.1,0.9l3.1-0.2l0.2,2.2c-1.6,0.3-2.8,0.4-3.6,0.4
		c-1.8,0-3.1-0.4-3.8-1.3s-1-2.6-1-5.1v-9.2h-2.5v-2.3h2.5v-5.4h2.6v5.4h5.6L456.3,625.1L456.3,625.1z"/>
	<path class="st16" d="M458.7,631.6c0-3.2,0.6-5.5,1.7-6.9s3.1-2.1,5.8-2.1s4.6,0.7,5.8,2.1c1.1,1.4,1.7,3.7,1.7,6.9s-0.5,5.5-1.6,7
		c-1.1,1.4-3,2.2-5.9,2.2c-2.8,0-4.8-0.7-5.9-2.2S458.7,634.8,458.7,631.6z M461.4,631.5c0,2.6,0.3,4.3,0.9,5.4
		c0.6,1,1.9,1.5,3.9,1.5s3.3-0.5,3.9-1.5s0.9-2.8,0.9-5.4s-0.3-4.3-1-5.3s-1.9-1.5-3.8-1.5c-1.8,0-3.1,0.5-3.8,1.5
		C461.8,627.2,461.4,629,461.4,631.5z"/>
	<path class="st16" d="M478,640.4v-17.5h2.6v2.4c2-1.4,4.2-2.3,6.4-2.8v2.7c-1,0.2-2,0.5-3.1,0.9s-1.9,0.7-2.4,1.1l-0.9,0.5v12.8
		H478V640.4z"/>
	<path class="st16" d="M488.4,622.9h2.6l4.4,15.2h1.2l4.4-15.2h2.6l-7.3,25.3h-2.6l2.3-7.8h-2.6L488.4,622.9z"/>
	<path class="st16" d="M514.7,618.9v-3h2.6v3H514.7z M514.7,640.4v-17.5h2.6v17.5H514.7z"/>
	<path class="st16" d="M527.8,624.8c-2.5,0-3.8,0.9-3.8,2.7c0,0.8,0.3,1.4,0.9,1.7c0.6,0.3,1.9,0.7,4,1c2.1,0.4,3.5,0.9,4.4,1.5
		c0.9,0.7,1.3,1.9,1.3,3.7s-0.6,3.1-1.7,4c-1.2,0.8-2.8,1.3-5.1,1.3c-1.4,0-3.1-0.2-5.1-0.5l-1.1-0.2l0.1-2.3c2.7,0.4,4.7,0.6,6,0.6
		c1.4,0,2.4-0.2,3.1-0.6c0.7-0.4,1.1-1.2,1.1-2.2s-0.3-1.7-0.9-2.1c-0.6-0.4-1.9-0.7-4-1s-3.5-0.8-4.4-1.4c-0.9-0.6-1.3-1.8-1.3-3.5
		s0.6-3,1.8-3.8s2.7-1.2,4.5-1.2c1.4,0,3.2,0.2,5.4,0.5l1,0.2l-0.1,2.2C531.4,625,529.3,624.8,527.8,624.8z"/>
	<path class="st16" d="M555.4,625.1h-5.6v8.4c0,2,0.1,3.3,0.4,4c0.3,0.6,1,0.9,2.1,0.9l3.1-0.2l0.2,2.2c-1.6,0.3-2.8,0.4-3.6,0.4
		c-1.8,0-3.1-0.4-3.8-1.3s-1-2.6-1-5.1v-9.2h-2.5v-2.3h2.5v-5.4h2.6v5.4h5.6V625.1z"/>
	<path class="st16" d="M561.2,640.4h-2.6v-25.1h2.6v8.6c1.9-0.9,3.7-1.3,5.4-1.3c2.3,0,3.9,0.6,4.7,1.9c0.8,1.3,1.2,3.5,1.2,6.7v9.2
		h-2.6v-9.2c0-2.4-0.2-4.1-0.7-5s-1.5-1.3-3-1.3s-2.9,0.3-4.3,0.8l-0.7,0.2L561.2,640.4L561.2,640.4z"/>
	<path class="st16" d="M589.3,638.2l1-0.1l0.1,2.1c-2.7,0.4-4.9,0.6-6.8,0.6c-2.5,0-4.3-0.7-5.4-2.2c-1.1-1.5-1.6-3.7-1.6-6.8
		c0-6.1,2.4-9.2,7.3-9.2c2.4,0,4.1,0.7,5.3,2s1.8,3.4,1.8,6.2l-0.1,2h-11.5c0,1.9,0.3,3.4,1,4.3c0.7,0.9,1.9,1.4,3.7,1.4
		C585.7,638.4,587.5,638.3,589.3,638.2z M588.4,630.6c0-2.1-0.3-3.7-1-4.5c-0.7-0.9-1.8-1.3-3.4-1.3c-1.6,0-2.7,0.5-3.5,1.4
		s-1.2,2.4-1.2,4.5h9.1L588.4,630.6L588.4,630.6z"/>
	<path class="st16" d="M605.4,640.4h-2.6v-25.1h2.6v14.8l2.7-0.1l5-7.1h3l-5.7,8l6,9.5h-3l-5.2-8.1l-2.8,0.1V640.4z"/>
	<path class="st16" d="M631,638.2l1-0.1l0.1,2.1c-2.7,0.4-4.9,0.6-6.8,0.6c-2.5,0-4.3-0.7-5.4-2.2c-1.1-1.5-1.6-3.7-1.6-6.8
		c0-6.1,2.4-9.2,7.3-9.2c2.4,0,4.1,0.7,5.3,2s1.8,3.4,1.8,6.2l-0.1,2H621c0,1.9,0.3,3.4,1,4.3c0.7,0.9,1.9,1.4,3.7,1.4
		S629.2,638.3,631,638.2z M630,630.6c0-2.1-0.3-3.7-1-4.5c-0.7-0.9-1.8-1.3-3.4-1.3s-2.7,0.5-3.5,1.4s-1.2,2.4-1.2,4.5h9.1
		L630,630.6L630,630.6z"/>
	<path class="st16" d="M634.8,622.9h2.6l4.4,15.2h1.2l4.4-15.2h2.6l-7.3,25.3h-2.6l2.3-7.8h-2.6L634.8,622.9z"/>
	<path class="st16" d="M670.1,625.1h-5.6v8.4c0,2,0.1,3.3,0.4,4c0.3,0.6,1,0.9,2.1,0.9l3.1-0.2l0.2,2.2c-1.6,0.3-2.8,0.4-3.6,0.4
		c-1.8,0-3.1-0.4-3.8-1.3c-0.7-0.9-1.1-2.6-1.1-5.1v-9.2h-2.5v-2.3h2.5v-5.4h2.6v5.4h5.6L670.1,625.1L670.1,625.1z"/>
	<path class="st16" d="M672.6,631.6c0-3.2,0.6-5.5,1.7-6.9s3.1-2.1,5.8-2.1s4.6,0.7,5.8,2.1s1.7,3.7,1.7,6.9s-0.5,5.5-1.6,7
		s-3,2.2-5.9,2.2c-2.8,0-4.8-0.7-5.9-2.2C673.1,637.1,672.6,634.8,672.6,631.6z M675.3,631.5c0,2.6,0.3,4.3,0.9,5.4s1.9,1.5,3.9,1.5
		s3.3-0.5,3.9-1.5c0.6-1,0.9-2.8,0.9-5.4s-0.3-4.3-1-5.3s-1.9-1.5-3.8-1.5c-1.8,0-3.1,0.5-3.8,1.5
		C675.6,627.2,675.3,629,675.3,631.5z"/>
	<path class="st16" d="M710.4,622.9h2.6v17.5h-2.6v-1.2c-1.8,1.1-3.5,1.6-5.2,1.6c-2.4,0-4-0.6-4.7-1.9c-0.8-1.2-1.2-3.5-1.2-6.9
		v-9.1h2.6v9.1c0,2.5,0.2,4.2,0.7,5.1c0.4,0.9,1.4,1.3,3,1.3c0.8,0,1.6-0.1,2.3-0.3c0.8-0.2,1.4-0.4,1.8-0.6l0.6-0.3v-14.3
		L710.4,622.9L710.4,622.9z"/>
	<path class="st16" d="M720.7,640.4h-2.6v-17.5h2.6v1.2c1.9-1.1,3.7-1.6,5.4-1.6c2.3,0,3.9,0.6,4.7,1.9c0.8,1.3,1.2,3.5,1.2,6.7v9.2
		h-2.6v-9.2c0-2.4-0.2-4.1-0.7-5s-1.5-1.3-3.1-1.3c-0.7,0-1.5,0.1-2.4,0.3c-0.8,0.2-1.5,0.4-1.9,0.6l-0.7,0.3L720.7,640.4
		L720.7,640.4z"/>
	<path class="st16" d="M750.3,615.2v25.1h-2.6v-1.2c-1.8,1-3.6,1.5-5.3,1.5c-0.9,0-1.8-0.1-2.5-0.4c-0.7-0.2-1.4-0.7-2-1.3
		c-1.3-1.3-1.9-3.6-1.9-7s0.6-5.8,1.7-7.3c1.1-1.5,3-2.3,5.6-2.3c1.4,0,2.8,0.2,4.3,0.5v-7.7h2.7V615.2z M741.2,638.1
		c0.4,0.2,1,0.2,1.6,0.2s1.4-0.1,2.2-0.3s1.5-0.4,1.9-0.6l0.7-0.3v-11.9c-1.5-0.3-2.9-0.4-4.2-0.4c-1.8,0-3,0.6-3.7,1.7
		c-0.7,1.1-1,2.9-1,5.3c0,2.7,0.4,4.5,1.2,5.5C740.4,637.6,740.8,638,741.2,638.1z"/>
	<path class="st16" d="M767.3,638.2l1-0.1l0.1,2.1c-2.7,0.4-4.9,0.6-6.8,0.6c-2.5,0-4.3-0.7-5.4-2.2c-1-1.5-1.6-3.7-1.6-6.8
		c0-6.1,2.4-9.2,7.3-9.2c2.4,0,4.1,0.7,5.3,2s1.8,3.4,1.8,6.2l-0.1,2h-11.5c0,1.9,0.3,3.4,1,4.3c0.7,0.9,1.9,1.4,3.7,1.4
		S765.5,638.3,767.3,638.2z M766.4,630.6c0-2.1-0.3-3.7-1-4.5c-0.7-0.9-1.8-1.3-3.4-1.3s-2.7,0.5-3.5,1.4s-1.2,2.4-1.2,4.5h9.1
		L766.4,630.6L766.4,630.6z"/>
	<path class="st16" d="M773.1,640.4v-17.5h2.6v2.4c2-1.4,4.2-2.3,6.4-2.8v2.7c-1,0.2-2,0.5-3.1,0.9s-1.9,0.7-2.4,1.1l-0.9,0.5v12.8
		h-2.6V640.4z"/>
	<path class="st16" d="M790.7,624.8c-2.5,0-3.8,0.9-3.8,2.7c0,0.8,0.3,1.4,0.9,1.7c0.6,0.3,1.9,0.7,4,1c2.1,0.4,3.5,0.9,4.4,1.5
		c0.9,0.7,1.3,1.9,1.3,3.7s-0.6,3.1-1.7,4c-1.2,0.8-2.8,1.3-5.1,1.3c-1.4,0-3.2-0.2-5.1-0.5l-1-0.2l0.1-2.3c2.7,0.4,4.7,0.6,6,0.6
		c1.4,0,2.4-0.2,3.1-0.6c0.7-0.4,1.1-1.2,1.1-2.2s-0.3-1.7-0.9-2.1c-0.6-0.4-1.9-0.7-4-1s-3.5-0.8-4.4-1.4c-0.9-0.6-1.3-1.8-1.3-3.5
		s0.6-3,1.8-3.8s2.7-1.2,4.5-1.2c1.4,0,3.2,0.2,5.4,0.5l1,0.2l-0.1,2.2C794.2,625,792.2,624.8,790.7,624.8z"/>
	<path class="st16" d="M810.5,625.1H805v8.4c0,2,0.1,3.3,0.4,4c0.3,0.6,1,0.9,2.1,0.9l3.1-0.2l0.2,2.2c-1.6,0.3-2.8,0.4-3.6,0.4
		c-1.8,0-3.1-0.4-3.8-1.3c-0.7-0.9-1.1-2.6-1.1-5.1v-9.2h-2.5v-2.3h2.5v-5.4h2.6v5.4h5.6V625.1z"/>
	<path class="st16" d="M826.1,628.1v9c0.1,0.9,0.7,1.4,2,1.5l-0.1,2.1c-1.8,0-3.2-0.5-4.2-1.4c-2.1,0.9-4.2,1.4-6.3,1.4
		c-1.6,0-2.8-0.5-3.7-1.4c-0.8-0.9-1.3-2.2-1.3-3.9s0.4-3,1.3-3.8c0.9-0.8,2.2-1.3,4.1-1.5l5.5-0.5v-1.5c0-1.2-0.3-2-0.8-2.6
		c-0.5-0.5-1.2-0.8-2.1-0.8c-1.9,0-3.8,0.1-5.8,0.4l-1.1,0.1l-0.1-2c2.6-0.5,4.8-0.8,6.8-0.8s3.4,0.5,4.3,1.4
		C825.7,624.8,826.1,626.2,826.1,628.1z M815.3,635.3c0,2.1,0.9,3.2,2.7,3.2c1.6,0,3.2-0.3,4.7-0.8l0.8-0.3v-5.8l-5.2,0.5
		c-1.1,0.1-1.8,0.4-2.3,0.9C815.6,633.6,815.3,634.3,815.3,635.3z"/>
	<path class="st16" d="M833.9,640.4h-2.6v-17.5h2.6v1.2c1.9-1.1,3.7-1.6,5.4-1.6c2.3,0,3.9,0.6,4.7,1.9c0.8,1.3,1.2,3.5,1.2,6.7v9.2
		h-2.6v-9.2c0-2.4-0.2-4.1-0.7-5s-1.5-1.3-3.1-1.3c-0.7,0-1.5,0.1-2.4,0.3c-0.8,0.2-1.5,0.4-1.9,0.6l-0.7,0.3L833.9,640.4
		L833.9,640.4z"/>
	<path class="st16" d="M863.5,615.2v25.1h-2.6v-1.2c-1.8,1-3.6,1.5-5.3,1.5c-0.9,0-1.8-0.1-2.5-0.4c-0.7-0.2-1.4-0.7-2-1.3
		c-1.3-1.3-1.9-3.6-1.9-7s0.6-5.8,1.7-7.3c1.1-1.5,3-2.3,5.6-2.3c1.4,0,2.8,0.2,4.3,0.5v-7.7h2.7V615.2z M854.4,638.1
		c0.4,0.2,1,0.2,1.6,0.2s1.4-0.1,2.2-0.3s1.5-0.4,1.9-0.6l0.7-0.3v-11.9c-1.5-0.3-2.9-0.4-4.2-0.4c-1.8,0-3,0.6-3.7,1.7
		c-0.7,1.1-1,2.9-1,5.3c0,2.7,0.4,4.5,1.2,5.5C853.6,637.6,854,638,854.4,638.1z"/>
	<path class="st16" d="M868.6,618.9v-3h2.6v3H868.6z M868.6,640.4v-17.5h2.6v17.5H868.6z"/>
	<path class="st16" d="M878.9,640.4h-2.6v-17.5h2.6v1.2c1.9-1.1,3.7-1.6,5.4-1.6c2.3,0,3.9,0.6,4.7,1.9c0.8,1.3,1.2,3.5,1.2,6.7v9.2
		h-2.6v-9.2c0-2.4-0.2-4.1-0.7-5s-1.5-1.3-3.1-1.3c-0.7,0-1.5,0.1-2.4,0.3c-0.8,0.2-1.5,0.4-1.9,0.6l-0.7,0.3L878.9,640.4
		L878.9,640.4z"/>
	<path class="st16" d="M901.8,648.6c-2.8,0-4.8-0.4-5.9-1.1s-1.7-2.1-1.7-4.1c0-1,0.2-1.7,0.6-2.3c0.4-0.6,1.1-1.3,2.1-2
		c-0.7-0.4-1-1.2-1-2.4c0-0.4,0.3-1.1,0.9-2.2l0.3-0.6c-1.8-0.8-2.8-2.6-2.8-5.3c0-4,2.2-6,6.5-6c1.1,0,2.2,0.1,3.1,0.4l0.5,0.1
		l5.2-0.1v2.2l-3.3-0.1c0.8,0.8,1.2,1.9,1.2,3.5c0,2.2-0.5,3.7-1.6,4.6s-2.8,1.3-5.1,1.3c-0.6,0-1.2,0-1.7-0.1c-0.4,1-0.6,1.7-0.6,2
		c0,0.7,0.2,1.2,0.7,1.3c0.4,0.2,1.8,0.3,4,0.3s3.8,0.4,4.8,1c1,0.7,1.5,2.1,1.5,4.1C909.6,646.7,907,648.6,901.8,648.6z
		 M896.9,643.1c0,1.2,0.3,2.1,1,2.6s2,0.7,3.8,0.7s3.2-0.3,4-0.8s1.2-1.4,1.2-2.6c0-1.2-0.3-2-0.9-2.3s-1.7-0.5-3.4-0.5l-3.8-0.2
		c-0.8,0.6-1.3,1.1-1.6,1.5S896.9,642.4,896.9,643.1z M897.1,628.5c0,1.4,0.3,2.4,0.9,2.9c0.6,0.6,1.6,0.9,3.1,0.9
		c1.4,0,2.4-0.3,3-0.9c0.6-0.6,0.9-1.6,0.9-3s-0.3-2.4-0.9-3c-0.6-0.6-1.6-0.9-3-0.9s-2.4,0.3-3.1,0.9
		C897.4,626.1,897.1,627.1,897.1,628.5z"/>
	<path class="st16" d="M326.4,680.2l1-0.1l0.1,2.1c-2.7,0.4-4.9,0.6-6.8,0.6c-2.5,0-4.3-0.7-5.4-2.2s-1.6-3.7-1.6-6.8
		c0-6.1,2.4-9.2,7.3-9.2c2.4,0,4.1,0.7,5.3,2c1.2,1.3,1.8,3.4,1.8,6.2l-0.1,2h-11.5c0,1.9,0.3,3.4,1,4.3c0.7,0.9,1.9,1.4,3.7,1.4
		C322.9,680.4,324.6,680.3,326.4,680.2z M325.5,672.6c0-2.1-0.3-3.7-1-4.5c-0.7-0.9-1.8-1.3-3.4-1.3s-2.7,0.5-3.5,1.4
		s-1.2,2.4-1.2,4.5h9.1V672.6z"/>
	<path class="st16" d="M344.6,670.1v9c0.1,0.9,0.7,1.4,2,1.5l-0.1,2.1c-1.8,0-3.2-0.5-4.2-1.4c-2.1,0.9-4.2,1.4-6.3,1.4
		c-1.6,0-2.8-0.5-3.7-1.4c-0.8-0.9-1.3-2.2-1.3-3.9s0.4-3,1.3-3.8s2.2-1.3,4.1-1.5l5.5-0.5v-1.5c0-1.2-0.3-2-0.8-2.6
		c-0.5-0.5-1.2-0.8-2.1-0.8c-1.9,0-3.8,0.1-5.8,0.4l-1.1,0.1l-0.1-2c2.6-0.5,4.8-0.8,6.8-0.8s3.4,0.5,4.3,1.4
		C344.1,666.8,344.6,668.2,344.6,670.1z M333.8,677.3c0,2.1,0.9,3.2,2.7,3.2c1.6,0,3.1-0.3,4.7-0.8l0.8-0.3v-5.8l-5.2,0.5
		c-1,0.1-1.8,0.4-2.3,0.9C334,675.6,333.8,676.3,333.8,677.3z"/>
	<path class="st16" d="M356.3,664.5c0.8,0,2.1,0.1,3.9,0.4l0.8,0.1l-0.1,2.1c-1.9-0.2-3.2-0.3-4.1-0.3c-2,0-3.3,0.5-4,1.4
		s-1.1,2.7-1.1,5.2c0,2.6,0.3,4.3,1,5.3s2,1.5,4.1,1.5l4.1-0.3l0.1,2.2c-2.2,0.3-3.8,0.5-4.9,0.5c-2.7,0-4.6-0.7-5.7-2.1
		s-1.6-3.8-1.6-7.1s0.6-5.7,1.7-7C351.8,665.2,353.7,664.5,356.3,664.5z"/>
	<path class="st16" d="M367.6,682.4H365v-25.1h2.6v8.6c1.9-0.9,3.7-1.3,5.4-1.3c2.3,0,3.9,0.6,4.7,1.9c0.8,1.3,1.2,3.5,1.2,6.7v9.2
		h-2.6v-9.2c0-2.4-0.2-4.1-0.7-5s-1.5-1.3-3-1.3s-2.9,0.3-4.3,0.8l-0.7,0.2V682.4z"/>
	<path class="st16" d="M390.7,673.6c0-3.2,0.6-5.5,1.7-6.9s3.1-2.1,5.8-2.1s4.6,0.7,5.8,2.1c1.1,1.4,1.7,3.7,1.7,6.9s-0.5,5.5-1.6,7
		c-1.1,1.4-3,2.2-5.9,2.2c-2.8,0-4.8-0.7-5.9-2.2S390.7,676.8,390.7,673.6z M393.4,673.5c0,2.6,0.3,4.3,0.9,5.4
		c0.6,1,1.9,1.5,3.9,1.5s3.3-0.5,3.9-1.5s0.9-2.8,0.9-5.4s-0.3-4.3-1-5.3s-1.9-1.5-3.8-1.5c-1.8,0-3.1,0.5-3.8,1.5
		C393.8,669.2,393.4,671,393.4,673.5z"/>
	<path class="st16" d="M418.9,667.1h-5.6v8.4c0,2,0.1,3.3,0.4,4c0.3,0.6,1,0.9,2.1,0.9l3.1-0.2l0.2,2.2c-1.6,0.3-2.8,0.4-3.6,0.4
		c-1.8,0-3.1-0.4-3.8-1.3s-1-2.6-1-5.1v-9.2h-2.5v-2.3h2.5v-5.4h2.6v5.4h5.6L418.9,667.1L418.9,667.1z"/>
	<path class="st16" d="M424.7,682.4h-2.6v-25.1h2.6v8.6c1.9-0.9,3.7-1.3,5.4-1.3c2.3,0,3.9,0.6,4.7,1.9c0.8,1.3,1.2,3.5,1.2,6.7v9.2
		h-2.6v-9.2c0-2.4-0.2-4.1-0.7-5s-1.5-1.3-3-1.3s-2.9,0.3-4.3,0.8l-0.7,0.2V682.4z"/>
	<path class="st16" d="M452.8,680.2l1-0.1l0.1,2.1c-2.7,0.4-4.9,0.6-6.8,0.6c-2.5,0-4.3-0.7-5.4-2.2s-1.6-3.7-1.6-6.8
		c0-6.1,2.4-9.2,7.3-9.2c2.4,0,4.1,0.7,5.3,2c1.2,1.3,1.8,3.4,1.8,6.2l-0.1,2h-11.5c0,1.9,0.3,3.4,1,4.3c0.7,0.9,1.9,1.4,3.7,1.4
		C449.2,680.4,451,680.3,452.8,680.2z M451.9,672.6c0-2.1-0.3-3.7-1-4.5c-0.7-0.9-1.8-1.3-3.4-1.3s-2.7,0.5-3.5,1.4
		s-1.2,2.4-1.2,4.5h9.1V672.6z"/>
	<path class="st16" d="M458.6,682.4v-17.5h2.6v2.4c2-1.4,4.2-2.3,6.4-2.8v2.7c-1,0.2-2,0.5-3.1,0.9s-1.9,0.7-2.4,1.1l-0.9,0.5v12.8
		h-2.6V682.4z"/>
	<path class="st16" d="M490.7,670.1v9c0.1,0.9,0.7,1.4,2,1.5l-0.1,2.1c-1.8,0-3.2-0.5-4.2-1.4c-2.1,0.9-4.2,1.4-6.3,1.4
		c-1.6,0-2.8-0.5-3.7-1.4c-0.8-0.9-1.3-2.2-1.3-3.9s0.4-3,1.3-3.8s2.2-1.3,4.1-1.5l5.5-0.5v-1.5c0-1.2-0.3-2-0.8-2.6
		c-0.5-0.5-1.2-0.8-2.1-0.8c-1.9,0-3.8,0.1-5.8,0.4l-1.1,0.1l-0.1-2c2.6-0.5,4.8-0.8,6.8-0.8s3.4,0.5,4.3,1.4
		C490.3,666.8,490.7,668.2,490.7,670.1z M480,677.3c0,2.1,0.9,3.2,2.7,3.2c1.6,0,3.1-0.3,4.7-0.8l0.8-0.3v-5.8l-5.2,0.5
		c-1,0.1-1.8,0.4-2.3,0.9C480.2,675.6,480,676.3,480,677.3z"/>
	<path class="st16" d="M498.5,682.4h-2.6v-17.5h2.6v1.2c1.9-1.1,3.7-1.6,5.4-1.6c2.3,0,3.9,0.6,4.7,1.9c0.8,1.3,1.2,3.5,1.2,6.7v9.2
		h-2.6v-9.2c0-2.4-0.2-4.1-0.7-5s-1.5-1.3-3.1-1.3c-0.7,0-1.5,0.1-2.4,0.3s-1.5,0.4-1.9,0.6l-0.7,0.3v14.4L498.5,682.4L498.5,682.4z
		"/>
	<path class="st16" d="M528.2,657.2v25.1h-2.6v-1.2c-1.8,1-3.6,1.5-5.3,1.5c-0.9,0-1.8-0.1-2.4-0.4c-0.7-0.2-1.4-0.7-2-1.3
		c-1.3-1.3-1.9-3.6-1.9-7s0.6-5.8,1.7-7.3c1.1-1.5,3-2.3,5.6-2.3c1.4,0,2.8,0.2,4.3,0.5v-7.7h2.6L528.2,657.2L528.2,657.2z
		 M519.1,680.1c0.4,0.2,1,0.2,1.6,0.2s1.4-0.1,2.2-0.3s1.5-0.4,1.9-0.6l0.7-0.3v-11.9c-1.5-0.3-2.9-0.4-4.2-0.4
		c-1.8,0-3,0.6-3.7,1.7c-0.7,1.1-1.1,2.9-1.1,5.3c0,2.7,0.4,4.5,1.2,5.5C518.2,679.6,518.6,680,519.1,680.1z"/>
	<path class="st16" d="M546.4,666.8c-2.5,0-3.8,0.9-3.8,2.7c0,0.8,0.3,1.4,0.9,1.7c0.6,0.3,1.9,0.7,4,1c2.1,0.4,3.5,0.9,4.4,1.5
		c0.9,0.7,1.3,1.9,1.3,3.7s-0.6,3.1-1.7,4c-1.2,0.8-2.8,1.3-5.1,1.3c-1.4,0-3.1-0.2-5.1-0.5l-1.1-0.2l0.1-2.3c2.7,0.4,4.7,0.6,6,0.6
		c1.4,0,2.4-0.2,3.1-0.6c0.7-0.4,1.1-1.2,1.1-2.2s-0.3-1.7-0.9-2.1c-0.6-0.4-1.9-0.7-4-1s-3.5-0.8-4.4-1.4c-0.9-0.6-1.3-1.8-1.3-3.5
		s0.6-3,1.8-3.8s2.7-1.2,4.5-1.2c1.4,0,3.2,0.2,5.4,0.5l1,0.2l-0.1,2.2C550,667,547.9,666.8,546.4,666.8z"/>
	<path class="st16" d="M566.3,667.1h-5.6v8.4c0,2,0.1,3.3,0.4,4c0.3,0.6,1,0.9,2.1,0.9l3.1-0.2l0.2,2.2c-1.6,0.3-2.8,0.4-3.6,0.4
		c-1.8,0-3.1-0.4-3.8-1.3s-1-2.6-1-5.1v-9.2h-2.5v-2.3h2.5v-5.4h2.6v5.4h5.6V667.1z"/>
	<path class="st16" d="M581.8,670.1v9c0.1,0.9,0.7,1.4,2,1.5l-0.1,2.1c-1.8,0-3.2-0.5-4.2-1.4c-2.1,0.9-4.2,1.4-6.3,1.4
		c-1.6,0-2.8-0.5-3.7-1.4c-0.8-0.9-1.3-2.2-1.3-3.9s0.4-3,1.3-3.8c0.9-0.8,2.2-1.3,4.1-1.5l5.5-0.5v-1.5c0-1.2-0.3-2-0.8-2.6
		c-0.5-0.5-1.2-0.8-2.1-0.8c-1.9,0-3.8,0.1-5.8,0.4l-1.1,0.1l-0.1-2c2.6-0.5,4.8-0.8,6.8-0.8s3.4,0.5,4.3,1.4
		C581.4,666.8,581.8,668.2,581.8,670.1z M571.1,677.3c0,2.1,0.9,3.2,2.7,3.2c1.6,0,3.1-0.3,4.7-0.8l0.8-0.3v-5.8l-5.2,0.5
		c-1,0.1-1.8,0.4-2.3,0.9C571.3,675.6,571.1,676.3,571.1,677.3z"/>
	<path class="st16" d="M585.2,664.9h2.6l4.4,15.2h1.2l4.4-15.2h2.6l-7.3,25.3h-2.6l2.3-7.8h-2.6L585.2,664.9z"/>
	<path class="st16" d="M623.8,670.1v9c0.1,0.9,0.7,1.4,2,1.5l-0.1,2.1c-1.8,0-3.2-0.5-4.2-1.4c-2.1,0.9-4.2,1.4-6.3,1.4
		c-1.6,0-2.8-0.5-3.7-1.4c-0.8-0.9-1.3-2.2-1.3-3.9s0.4-3,1.3-3.8c0.9-0.8,2.2-1.3,4.1-1.5l5.5-0.5v-1.5c0-1.2-0.3-2-0.8-2.6
		c-0.5-0.5-1.2-0.8-2.1-0.8c-1.9,0-3.8,0.1-5.8,0.4l-1.1,0.1l-0.1-2c2.6-0.5,4.8-0.8,6.8-0.8s3.4,0.5,4.3,1.4
		C623.4,666.8,623.8,668.2,623.8,670.1z M613,677.3c0,2.1,0.9,3.2,2.7,3.2c1.6,0,3.1-0.3,4.7-0.8l0.8-0.3v-5.8l-5.2,0.5
		c-1,0.1-1.8,0.4-2.3,0.9C613.3,675.6,613,676.3,613,677.3z"/>
	<path class="st16" d="M638.1,667.1h-5.6v8.4c0,2,0.1,3.3,0.4,4c0.3,0.6,1,0.9,2.1,0.9l3.1-0.2l0.2,2.2c-1.6,0.3-2.8,0.4-3.6,0.4
		c-1.8,0-3.1-0.4-3.8-1.3c-0.7-0.9-1.1-2.6-1.1-5.1v-9.2h-2.5v-2.3h2.5v-5.4h2.6v5.4h5.6L638.1,667.1L638.1,667.1z"/>
	<path class="st16" d="M658,667.1h-5.6v8.4c0,2,0.1,3.3,0.4,4c0.3,0.6,1,0.9,2.1,0.9l3.1-0.2l0.2,2.2c-1.6,0.3-2.8,0.4-3.6,0.4
		c-1.8,0-3.1-0.4-3.8-1.3c-0.7-0.9-1.1-2.6-1.1-5.1v-9.2h-2.5v-2.3h2.5v-5.4h2.6v5.4h5.6L658,667.1L658,667.1z"/>
	<path class="st16" d="M663.9,682.4h-2.6v-25.1h2.6v8.6c1.9-0.9,3.7-1.3,5.4-1.3c2.3,0,3.9,0.6,4.7,1.9c0.8,1.3,1.2,3.5,1.2,6.7v9.2
		h-2.6v-9.2c0-2.4-0.2-4.1-0.7-5s-1.5-1.3-3-1.3s-2.9,0.3-4.3,0.8l-0.7,0.2L663.9,682.4L663.9,682.4z"/>
	<path class="st16" d="M692,680.2l1-0.1l0.1,2.1c-2.7,0.4-4.9,0.6-6.8,0.6c-2.5,0-4.3-0.7-5.4-2.2c-1-1.5-1.6-3.7-1.6-6.8
		c0-6.1,2.4-9.2,7.3-9.2c2.4,0,4.1,0.7,5.3,2s1.8,3.4,1.8,6.2l-0.1,2h-11.5c0,1.9,0.3,3.4,1,4.3c0.7,0.9,1.9,1.4,3.7,1.4
		S690.2,680.3,692,680.2z M691,672.6c0-2.1-0.3-3.7-1-4.5c-0.7-0.9-1.8-1.3-3.4-1.3s-2.7,0.5-3.5,1.4s-1.2,2.4-1.2,4.5h9.1
		L691,672.6L691,672.6z"/>
	<path class="st16" d="M710.9,666.8c-2.5,0-3.8,0.9-3.8,2.7c0,0.8,0.3,1.4,0.9,1.7c0.6,0.3,1.9,0.7,4,1c2.1,0.4,3.5,0.9,4.4,1.5
		c0.9,0.7,1.3,1.9,1.3,3.7s-0.6,3.1-1.7,4c-1.2,0.8-2.8,1.3-5.1,1.3c-1.4,0-3.2-0.2-5.1-0.5l-1-0.2l0.1-2.3c2.7,0.4,4.7,0.6,6,0.6
		c1.4,0,2.4-0.2,3.1-0.6c0.7-0.4,1.1-1.2,1.1-2.2s-0.3-1.7-0.9-2.1c-0.6-0.4-1.9-0.7-4-1s-3.5-0.8-4.4-1.4c-0.9-0.6-1.3-1.8-1.3-3.5
		s0.6-3,1.8-3.8s2.7-1.2,4.5-1.2c1.4,0,3.2,0.2,5.4,0.5l1,0.2l-0.1,2.2C714.5,667,712.4,666.8,710.9,666.8z"/>
	<path class="st16" d="M734.1,670.1v9c0.1,0.9,0.7,1.4,2,1.5l-0.1,2.1c-1.8,0-3.2-0.5-4.2-1.4c-2.1,0.9-4.2,1.4-6.3,1.4
		c-1.6,0-2.8-0.5-3.7-1.4c-0.8-0.9-1.3-2.2-1.3-3.9s0.4-3,1.3-3.8c0.9-0.8,2.2-1.3,4.1-1.5l5.5-0.5v-1.5c0-1.2-0.3-2-0.8-2.6
		c-0.5-0.5-1.2-0.8-2.1-0.8c-1.9,0-3.8,0.1-5.8,0.4l-1.1,0.1l-0.1-2c2.6-0.5,4.8-0.8,6.8-0.8s3.4,0.5,4.3,1.4
		C733.6,666.8,734.1,668.2,734.1,670.1z M723.3,677.3c0,2.1,0.9,3.2,2.7,3.2c1.6,0,3.2-0.3,4.7-0.8l0.8-0.3v-5.8l-5.2,0.5
		c-1.1,0.1-1.8,0.4-2.3,0.9C723.5,675.6,723.3,676.3,723.3,677.3z"/>
	<path class="st16" d="M741.9,682.4h-2.6v-17.5h2.6v1.2c1.8-1.1,3.5-1.6,5.1-1.6c2.2,0,3.7,0.6,4.5,1.8c0.8-0.5,1.8-0.9,3-1.2
		c1.2-0.4,2.3-0.5,3.2-0.5c2.3,0,3.9,0.6,4.7,1.9c0.8,1.2,1.2,3.5,1.2,6.7v9.2H761v-9.2c0-2.4-0.2-4.1-0.7-5s-1.5-1.3-3-1.3
		c-0.8,0-1.6,0.1-2.4,0.3c-0.8,0.2-1.4,0.4-1.9,0.6l-0.7,0.3c0.3,0.8,0.5,2.5,0.5,5.1v9.1h-2.6v-9c0-2.5-0.2-4.2-0.7-5.1
		c-0.5-0.9-1.5-1.3-3-1.3c-0.7,0-1.5,0.1-2.3,0.3s-1.4,0.4-1.8,0.6l-0.6,0.3v14.3L741.9,682.4L741.9,682.4z"/>
	<path class="st16" d="M780.4,680.2l1-0.1l0.1,2.1c-2.7,0.4-4.9,0.6-6.8,0.6c-2.5,0-4.3-0.7-5.4-2.2c-1-1.5-1.6-3.7-1.6-6.8
		c0-6.1,2.4-9.2,7.3-9.2c2.4,0,4.1,0.7,5.3,2s1.8,3.4,1.8,6.2l-0.1,2h-11.5c0,1.9,0.3,3.4,1,4.3c0.7,0.9,1.9,1.4,3.7,1.4
		S778.6,680.3,780.4,680.2z M779.5,672.6c0-2.1-0.3-3.7-1-4.5c-0.7-0.9-1.8-1.3-3.4-1.3s-2.7,0.5-3.5,1.4s-1.2,2.4-1.2,4.5h9.1
		L779.5,672.6L779.5,672.6z"/>
	<path class="st16" d="M796.5,682.4h-2.6v-25.1h2.6v8.6c1.9-0.9,3.7-1.3,5.4-1.3c2.3,0,3.9,0.6,4.7,1.9c0.8,1.3,1.2,3.5,1.2,6.7v9.2
		h-2.6v-9.2c0-2.4-0.2-4.1-0.7-5s-1.5-1.3-3-1.3s-2.9,0.3-4.3,0.8l-0.7,0.2L796.5,682.4L796.5,682.4z"/>
	<path class="st16" d="M824.6,680.2l1-0.1l0.1,2.1c-2.7,0.4-4.9,0.6-6.8,0.6c-2.5,0-4.3-0.7-5.4-2.2c-1-1.5-1.6-3.7-1.6-6.8
		c0-6.1,2.4-9.2,7.3-9.2c2.4,0,4.1,0.7,5.3,2s1.8,3.4,1.8,6.2l-0.1,2h-11.5c0,1.9,0.3,3.4,1,4.3c0.7,0.9,1.9,1.4,3.7,1.4
		S822.8,680.3,824.6,680.2z M823.6,672.6c0-2.1-0.3-3.7-1-4.5c-0.7-0.9-1.8-1.3-3.4-1.3s-2.7,0.5-3.5,1.4s-1.2,2.4-1.2,4.5h9.1
		L823.6,672.6L823.6,672.6z"/>
	<path class="st16" d="M830.3,660.9v-3h2.6v3H830.3z M830.3,682.4v-17.5h2.6v17.5H830.3z"/>
	<path class="st16" d="M844.8,690.6c-2.8,0-4.8-0.4-5.9-1.1s-1.7-2.1-1.7-4.1c0-1,0.2-1.7,0.6-2.3c0.4-0.6,1.1-1.3,2.1-2
		c-0.7-0.4-1-1.2-1-2.4c0-0.4,0.3-1.1,0.9-2.2l0.3-0.6c-1.8-0.8-2.8-2.6-2.8-5.3c0-4,2.2-6,6.5-6c1.1,0,2.2,0.1,3.1,0.4l0.5,0.1
		l5.2-0.1v2.2l-3.3-0.1c0.8,0.8,1.2,1.9,1.2,3.5c0,2.2-0.5,3.7-1.6,4.6s-2.8,1.3-5.1,1.3c-0.6,0-1.2,0-1.7-0.1c-0.4,1-0.6,1.7-0.6,2
		c0,0.7,0.2,1.2,0.7,1.3c0.4,0.2,1.8,0.3,4,0.3s3.8,0.4,4.8,1c1,0.7,1.5,2.1,1.5,4.1C852.5,688.7,849.9,690.6,844.8,690.6z
		 M839.8,685.1c0,1.2,0.3,2.1,1,2.6s2,0.7,3.8,0.7s3.2-0.3,4-0.8s1.2-1.4,1.2-2.6c0-1.2-0.3-2-0.9-2.3s-1.7-0.5-3.4-0.5l-3.8-0.2
		c-0.8,0.6-1.3,1.1-1.6,1.5S839.8,684.4,839.8,685.1z M840.1,670.5c0,1.4,0.3,2.4,0.9,2.9c0.6,0.6,1.6,0.9,3.1,0.9
		c1.4,0,2.4-0.3,3-0.9c0.6-0.6,0.9-1.6,0.9-3s-0.3-2.4-0.9-3c-0.6-0.6-1.6-0.9-3-0.9s-2.4,0.3-3.1,0.9
		C840.4,668.1,840.1,669.1,840.1,670.5z"/>
	<path class="st16" d="M858.6,682.4H856v-25.1h2.6v8.6c1.9-0.9,3.7-1.3,5.4-1.3c2.3,0,3.9,0.6,4.7,1.9c0.8,1.3,1.2,3.5,1.2,6.7v9.2
		h-2.6v-9.2c0-2.4-0.2-4.1-0.7-5s-1.5-1.3-3-1.3s-2.9,0.3-4.3,0.8l-0.7,0.2L858.6,682.4L858.6,682.4z"/>
	<path class="st16" d="M883.8,667.1h-5.6v8.4c0,2,0.1,3.3,0.4,4c0.3,0.6,1,0.9,2.1,0.9l3.1-0.2l0.2,2.2c-1.6,0.3-2.8,0.4-3.6,0.4
		c-1.8,0-3.1-0.4-3.8-1.3c-0.7-0.9-1.1-2.6-1.1-5.1v-9.2H873v-2.3h2.5v-5.4h2.6v5.4h5.6L883.8,667.1L883.8,667.1z"/>
	<path class="st16" d="M886.8,682.4v-4h2.9v4H886.8z"/>
</g>
</svg>
