<?xml version="1.0" encoding="utf-8"?>
<!-- Generator: Adobe Illustrator 24.1.0, SVG Export Plug-In . SVG Version: 6.00 Build 0)  -->
<svg version="1.1" id="Layer_1" xmlns="http://www.w3.org/2000/svg" xmlns:xlink="http://www.w3.org/1999/xlink" x="0px" y="0px"
	 viewBox="0 0 573.5 566.1" style="enable-background:new 0 0 573.5 566.1;" xml:space="preserve">
<style type="text/css">
	.st0{display:none;}
	.st1{display:inline;fill:#0E181F;stroke:#000000;stroke-miterlimit:10;}
	.st2{opacity:0.9;fill:none;stroke:#CAA97E;stroke-width:0.3194;stroke-miterlimit:10;enable-background:new    ;}
	.st3{fill:#132431;}
	.st4{fill:#0E1A24;}
	.st5{opacity:0.5;}
	.st6{fill:url(#SVGID_1_);}
	.st7{opacity:0.75;}
	.st8{fill:#808080;}
	.st9{fill:url(#SVGID_2_);}
	.st10{fill:#142A3A;}
	.st11{opacity:0.1;fill:url(#SVGID_3_);enable-background:new    ;}
	.st12{fill:none;stroke:#CAA97E;stroke-width:0.7986;stroke-miterlimit:10;}
	.st13{fill:#CAA97E;}
	.st14{fill:url(#SVGID_4_);}
	.st15{fill:url(#SVGID_5_);}
	.st16{fill:url(#SVGID_6_);}
	.st17{fill:url(#SVGID_7_);}
	.st18{fill:url(#SVGID_8_);}
	.st19{fill:url(#SVGID_9_);}
	.st20{fill:url(#SVGID_10_);}
	.st21{fill:url(#SVGID_11_);}
	.st22{fill:url(#SVGID_12_);}
	.st23{fill:url(#SVGID_13_);}
	.st24{fill:url(#SVGID_14_);}
	.st25{fill:url(#SVGID_15_);}
	.st26{fill:url(#SVGID_16_);}
	.st27{fill:url(#SVGID_17_);}
	.st28{fill:url(#SVGID_18_);}
	.st29{fill:url(#SVGID_19_);}
	.st30{fill:url(#SVGID_20_);}
	.st31{fill:url(#SVGID_21_);}
	.st32{fill:url(#SVGID_22_);}
	.st33{fill:url(#SVGID_23_);}
	.st34{fill:url(#SVGID_24_);}
	.st35{fill:url(#SVGID_25_);}
	.st36{fill:url(#SVGID_26_);}
	.st37{fill:url(#SVGID_27_);}
	.st38{fill:url(#SVGID_28_);}
	.st39{fill:url(#SVGID_29_);}
	.st40{fill:url(#SVGID_30_);}
	.st41{fill:url(#SVGID_31_);}
	.st42{fill:url(#SVGID_32_);}
	.st43{fill:url(#SVGID_33_);}
	.st44{fill:url(#SVGID_34_);}
</style>
<g id="back" class="st0">
	<rect x="-131.7" y="-4.7" class="st1" width="857.7" height="605.2"/>
</g>
<g id="lines_1_">
	<path class="st2" d="M79.4,55.1"/>
	<path class="st2" d="M38.6,351.1l23.6-62.8L38.6,351.1z"/>
	<path class="st2" d="M165.8,204.2"/>
	<polygon class="st2" points="62.2,288.2 37.7,213.2 101.3,150.5 	"/>
	<path class="st2" d="M134,237.7"/>
	<polyline class="st2" points="106.2,98.2 101.3,150.5 207.4,54.2 199.3,130.9 101.3,150.5 	"/>
	<polygon class="st2" points="207.4,54.2 315,99 357.5,40.4 	"/>
	<polyline class="st2" points="357.5,40.4 427.6,117.8 484.6,199.3 	"/>
	<path class="st2" d="M431.7,241"/>
	<path class="st2" d="M485.5,126.8"/>
	<polyline class="st2" points="315,99 199.3,130.9 271.8,201.8 315,99 427.6,117.8 485.5,126.8 497.3,218.1 	"/>
	<polyline class="st2" points="315,99 395,197.7 427.6,117.8 	"/>
	<polyline class="st2" points="101.3,150.5 151.9,232 62.2,288.2 138.9,346.2 151.9,232 	"/>
	<path class="st2" d="M179.4,369"/>
	<polyline class="st2" points="62.2,288.2 102.7,420.4 39.9,358.4 	"/>
	<polyline class="st2" points="116.5,409.7 138.9,346.2 234.8,317.6 151.9,232 	"/>
	<polygon class="st2" points="234.8,317.6 271.8,201.8 339.2,287.4 	"/>
	<polyline class="st2" points="138.9,346.2 213.6,429.3 234.8,317.6 333.5,392.7 424.9,440 486,440 	"/>
	<polyline class="st2" points="112.5,476.7 102.7,420.4 213.6,429.3 211.2,515 102.7,420.4 	"/>
	<polyline class="st2" points="213.6,429.3 311.5,481.5 333.5,392.7 213.6,429.3 211.2,515 311.5,481.5 	"/>
	<polyline class="st2" points="424.9,440 505.6,350.2 485.3,435.9 	"/>
	<polyline class="st2" points="199.3,130.9 151.9,232 271.8,201.8 395,197.7 495.3,220.5 505.6,350.2 435.4,318.5 424.9,440 
		311.5,481.5 356.7,522.7 211.2,515 	"/>
	<path class="st2" d="M395,197.7"/>
	<path class="st2" d="M506.8,477.5"/>
	<line class="st2" x1="536.9" y1="283.1" x2="505.6" y2="350.2"/>
	<polygon class="st2" points="333.5,392.7 339.2,287.4 435.4,318.5 	"/>
	<polyline class="st2" points="339.2,287.4 395,197.7 435.4,318.5 496.3,223.2 	"/>
</g>
<g id="Layer_5">
	<polygon class="st3" points="312.8,263 465,414.1 246.8,478.8 69,366.3 	"/>
</g>
<g id="Layer_5_copy">
	<polygon class="st3" points="312.8,263 465,414.1 246.8,478.8 69,366.3 	"/>
</g>
<g id="shape">
	<polyline class="st4" points="313.5,264.4 68.8,366.1 116.3,163.7 314.8,55 	"/>
	<path class="st4" d="M343.2,137.8"/>
</g>
<g id="shape_copy">
	<g class="st5">
		<g>
			
				<linearGradient id="SVGID_1_" gradientUnits="userSpaceOnUse" x1="68.8265" y1="-350.4813" x2="314.7911" y2="-350.4813" gradientTransform="matrix(1 0 0 1 0 561)">
				<stop  offset="0" style="stop-color:#2484C6"/>
				<stop  offset="1" style="stop-color:#2484C6;stop-opacity:0"/>
			</linearGradient>
			<polyline class="st6" points="313.5,264.4 68.8,366.1 116.3,163.7 314.8,55 			"/>
		</g>
	</g>
	<g class="st5">
		<g class="st7">
			<path class="st8" d="M345.4,139.9"/>
		</g>
		<g>
			
				<linearGradient id="SVGID_2_" gradientUnits="userSpaceOnUse" x1="343.2208" y1="-423.2059" x2="343.2208" y2="-423.2059" gradientTransform="matrix(1 0 0 1 0 561)">
				<stop  offset="0" style="stop-color:#2484C6"/>
				<stop  offset="1" style="stop-color:#2484C6;stop-opacity:0"/>
			</linearGradient>
			<path class="st9" d="M343.2,137.8"/>
		</g>
	</g>
</g>
<g id="Layer_4">
	<polygon class="st10" points="312.8,263 465,414.1 440.5,211.9 314,55.6 	"/>
</g>
<g id="Layer_4_copy">
	
		<linearGradient id="SVGID_3_" gradientUnits="userSpaceOnUse" x1="312.768" y1="-326.151" x2="465.0319" y2="-326.151" gradientTransform="matrix(1 0 0 1 0 561)">
		<stop  offset="0" style="stop-color:#2484C6"/>
		<stop  offset="1" style="stop-color:#2484C6;stop-opacity:0"/>
	</linearGradient>
	<polygon class="st11" points="312.8,263 465,414.1 440.5,211.9 314,55.6 	"/>
</g>
<g id="lines">
	<polygon class="st12" points="358,227.6 375.8,76.6 202.6,117.4 	"/>
	<path class="st12" d="M472.2,359.3"/>
	<path class="st12" d="M484.4,198.9"/>
	<polyline class="st12" points="184.7,282.3 296.4,419.7 355.6,230.5 	"/>
	<polygon class="st12" points="296.4,419.7 470.2,363.3 424.1,438.7 391.1,493 	"/>
	<polyline class="st12" points="484.4,197.4 485.6,124.9 538.8,281.4 	"/>
	<polyline class="st12" points="472.1,361.4 538.8,281.4 484.4,197.4 375.5,73.9 357.7,44.5 485.6,124.9 375.5,73.9 	"/>
	<polyline class="st12" points="353.9,41.1 244.6,34.2 203.4,112.1 	"/>
	<polyline class="st12" points="375.8,76.6 244.6,34.2 108.3,96.1 202.6,117.4 184.7,282.3 358,227.6 484.4,198.9 472.2,359.3 
		358,227.6 	"/>
	<path class="st12" d="M108.3,96.1"/>
	<polyline class="st12" points="36.9,211.4 108.3,96.1 63.4,235.4 184.7,282.3 	"/>
	<polyline class="st12" points="202.6,117.4 63.4,235.4 37.3,215.4 35.7,350.6 63.4,235.4 115,408.6 35.7,350.6 	"/>
	<polyline class="st12" points="36.4,356 114.7,477.5 115,408.6 239.2,526.9 114.7,477.5 	"/>
	<polyline class="st12" points="391.1,493 357.3,525.5 484.1,439.4 391.1,493 239.2,526.9 296.4,419.7 117.4,413.4 	"/>
	<line class="st12" x1="357.3" y1="525.5" x2="239.2" y2="526.9"/>
	<path class="st12" d="M472.2,359.3"/>
	<path class="st12" d="M538.8,281.4"/>
	<polyline class="st12" points="472.2,359.3 484.1,439.4 538.8,281.4 	"/>
	<line class="st12" x1="182.2" y1="286.5" x2="119.4" y2="409.2"/>
</g>
<g id="dots">
	<circle class="st13" cx="245.4" cy="34.6" r="6.3"/>
	<circle class="st13" cx="356.3" cy="41.4" r="7.1"/>
	<circle class="st13" cx="377.3" cy="74.9" r="7.1"/>
	<circle class="st13" cx="497.1" cy="222" r="5.5"/>
	<circle class="st13" cx="357.3" cy="225.6" r="8.6"/>
	<circle class="st13" cx="427.2" cy="116.1" r="6.3"/>
	<circle class="st13" cx="484.1" cy="125.4" r="6.6"/>
	<circle class="st13" cx="36.9" cy="354.1" r="7"/>
	<circle class="st13" cx="62.4" cy="286.7" r="6.1"/>
	<circle class="st13" cx="184" cy="281.5" r="9.2"/>
	<circle class="st13" cx="114.2" cy="475.6" r="6.5"/>
	<circle class="st13" cx="239.1" cy="524.2" r="6.9"/>
	<circle class="st13" cx="211.6" cy="513.6" r="5.3"/>
	<circle class="st13" cx="116.4" cy="410.5" r="7.8"/>
	<circle class="st13" cx="102.8" cy="421.8" r="5.6"/>
	<circle class="st13" cx="296.7" cy="418.4" r="9.3"/>
	<circle class="st13" cx="311" cy="483.1" r="5.4"/>
	<circle class="st13" cx="425" cy="438.9" r="5.6"/>
	<circle class="st13" cx="485.5" cy="438.1" r="6.7"/>
	<circle class="st13" cx="389.6" cy="491.5" r="6.2"/>
	<circle class="st13" cx="357.6" cy="523.6" r="7"/>
	<circle class="st13" cx="36.2" cy="213.2" r="7.6"/>
	<circle class="st13" cx="64" cy="234.6" r="7.9"/>
	
		<ellipse transform="matrix(0.3162 -0.9487 0.9487 0.3162 -72.0293 197.7983)" class="st13" cx="101.2" cy="148.9" rx="6.3" ry="6.3"/>
	<circle class="st13" cx="107.6" cy="97.4" r="6.4"/>
	<circle class="st13" cx="538.4" cy="282" r="6.7"/>
	<circle class="st13" cx="504.5" cy="349" r="5.7"/>
	<circle class="st13" cx="472.2" cy="361.4" r="8"/>
	<circle class="st13" cx="486.4" cy="196.9" r="7.3"/>
	<circle class="st13" cx="208.1" cy="55.9" r="5.7"/>
	<circle class="st13" cx="201.7" cy="115.8" r="7.6"/>
</g>
<g id="dots_1_" class="st5">
	
		<radialGradient id="SVGID_4_" cx="245.3674" cy="560.3833" r="6.2822" gradientTransform="matrix(1 0 0 -1 0 595)" gradientUnits="userSpaceOnUse">
		<stop  offset="0" style="stop-color:#FFFFFF"/>
		<stop  offset="1" style="stop-color:#CAA97E"/>
	</radialGradient>
	<circle class="st14" cx="245.4" cy="34.6" r="6.3"/>
	
		<radialGradient id="SVGID_5_" cx="356.3176" cy="553.5687" r="7.134" gradientTransform="matrix(1 0 0 -1 0 595)" gradientUnits="userSpaceOnUse">
		<stop  offset="0" style="stop-color:#FFFFFF"/>
		<stop  offset="1" style="stop-color:#CAA97E"/>
	</radialGradient>
	<circle class="st15" cx="356.3" cy="41.4" r="7.1"/>
	
		<radialGradient id="SVGID_6_" cx="377.2939" cy="520.1345" r="7.134" gradientTransform="matrix(1 0 0 -1 0 595)" gradientUnits="userSpaceOnUse">
		<stop  offset="0" style="stop-color:#FFFFFF"/>
		<stop  offset="1" style="stop-color:#CAA97E"/>
	</radialGradient>
	<circle class="st16" cx="377.3" cy="74.9" r="7.1"/>
	
		<radialGradient id="SVGID_7_" cx="497.0818" cy="372.9817" r="5.5369" gradientTransform="matrix(1 0 0 -1 0 595)" gradientUnits="userSpaceOnUse">
		<stop  offset="0" style="stop-color:#FFFFFF"/>
		<stop  offset="1" style="stop-color:#CAA97E"/>
	</radialGradient>
	<circle class="st17" cx="497.1" cy="222" r="5.5"/>
	
		<radialGradient id="SVGID_8_" cx="357.276" cy="369.3614" r="8.6247" gradientTransform="matrix(1 0 0 -1 0 595)" gradientUnits="userSpaceOnUse">
		<stop  offset="0" style="stop-color:#FFFFFF"/>
		<stop  offset="1" style="stop-color:#CAA97E"/>
	</radialGradient>
	<circle class="st18" cx="357.3" cy="225.6" r="8.6"/>
	
		<radialGradient id="SVGID_9_" cx="427.2321" cy="478.9275" r="6.2822" gradientTransform="matrix(1 0 0 -1 0 595)" gradientUnits="userSpaceOnUse">
		<stop  offset="0" style="stop-color:#FFFFFF"/>
		<stop  offset="1" style="stop-color:#CAA97E"/>
	</radialGradient>
	<circle class="st19" cx="427.2" cy="116.1" r="6.3"/>
	
		<radialGradient id="SVGID_10_" cx="484.0915" cy="469.5574" r="6.6017" gradientTransform="matrix(1 0 0 -1 0 595)" gradientUnits="userSpaceOnUse">
		<stop  offset="0" style="stop-color:#FFFFFF"/>
		<stop  offset="1" style="stop-color:#CAA97E"/>
	</radialGradient>
	<circle class="st20" cx="484.1" cy="125.4" r="6.6"/>
	
		<radialGradient id="SVGID_11_" cx="36.883" cy="240.9487" r="7.0276" gradientTransform="matrix(1 0 0 -1 0 595)" gradientUnits="userSpaceOnUse">
		<stop  offset="0" style="stop-color:#FFFFFF"/>
		<stop  offset="1" style="stop-color:#CAA97E"/>
	</radialGradient>
	<circle class="st21" cx="36.9" cy="354.1" r="7"/>
	
		<radialGradient id="SVGID_12_" cx="62.4378" cy="308.3494" r="6.0693" gradientTransform="matrix(1 0 0 -1 0 595)" gradientUnits="userSpaceOnUse">
		<stop  offset="0" style="stop-color:#FFFFFF"/>
		<stop  offset="1" style="stop-color:#CAA97E"/>
	</radialGradient>
	<circle class="st22" cx="62.4" cy="286.7" r="6.1"/>
	
		<radialGradient id="SVGID_13_" cx="184.0359" cy="313.4604" r="9.1571" gradientTransform="matrix(1 0 0 -1 0 595)" gradientUnits="userSpaceOnUse">
		<stop  offset="0" style="stop-color:#FFFFFF"/>
		<stop  offset="1" style="stop-color:#CAA97E"/>
	</radialGradient>
	<circle class="st23" cx="184" cy="281.5" r="9.2"/>
	
		<radialGradient id="SVGID_14_" cx="114.1862" cy="119.3506" r="6.4952" gradientTransform="matrix(1 0 0 -1 0 595)" gradientUnits="userSpaceOnUse">
		<stop  offset="0" style="stop-color:#FFFFFF"/>
		<stop  offset="1" style="stop-color:#CAA97E"/>
	</radialGradient>
	<circle class="st24" cx="114.2" cy="475.6" r="6.5"/>
	
		<radialGradient id="SVGID_15_" cx="239.0851" cy="70.7965" r="6.9211" gradientTransform="matrix(1 0 0 -1 0 595)" gradientUnits="userSpaceOnUse">
		<stop  offset="0" style="stop-color:#FFFFFF"/>
		<stop  offset="1" style="stop-color:#CAA97E"/>
	</radialGradient>
	<circle class="st25" cx="239.1" cy="524.2" r="6.9"/>
	
		<radialGradient id="SVGID_16_" cx="211.6138" cy="81.4443" r="5.3239" gradientTransform="matrix(1 0 0 -1 0 595)" gradientUnits="userSpaceOnUse">
		<stop  offset="0" style="stop-color:#FFFFFF"/>
		<stop  offset="1" style="stop-color:#CAA97E"/>
	</radialGradient>
	<circle class="st26" cx="211.6" cy="513.6" r="5.3"/>
	
		<radialGradient id="SVGID_17_" cx="116.4222" cy="184.5152" r="7.7729" gradientTransform="matrix(1 0 0 -1 0 595)" gradientUnits="userSpaceOnUse">
		<stop  offset="0" style="stop-color:#FFFFFF"/>
		<stop  offset="1" style="stop-color:#CAA97E"/>
	</radialGradient>
	<circle class="st27" cx="116.4" cy="410.5" r="7.8"/>
	
		<radialGradient id="SVGID_18_" cx="102.793" cy="173.2286" r="5.6433" gradientTransform="matrix(1 0 0 -1 0 595)" gradientUnits="userSpaceOnUse">
		<stop  offset="0" style="stop-color:#FFFFFF"/>
		<stop  offset="1" style="stop-color:#CAA97E"/>
	</radialGradient>
	<circle class="st28" cx="102.8" cy="421.8" r="5.6"/>
	
		<radialGradient id="SVGID_19_" cx="296.6898" cy="176.6358" r="9.2636" gradientTransform="matrix(1 0 0 -1 0 595)" gradientUnits="userSpaceOnUse">
		<stop  offset="0" style="stop-color:#FFFFFF"/>
		<stop  offset="1" style="stop-color:#CAA97E"/>
	</radialGradient>
	<circle class="st29" cx="296.7" cy="418.4" r="9.3"/>
	
		<radialGradient id="SVGID_20_" cx="310.9579" cy="111.8971" r="5.4304" gradientTransform="matrix(1 0 0 -1 0 595)" gradientUnits="userSpaceOnUse">
		<stop  offset="0" style="stop-color:#FFFFFF"/>
		<stop  offset="1" style="stop-color:#CAA97E"/>
	</radialGradient>
	<circle class="st30" cx="311" cy="483.1" r="5.4"/>
	
		<radialGradient id="SVGID_21_" cx="424.9961" cy="156.0856" r="5.6433" gradientTransform="matrix(1 0 0 -1 0 595)" gradientUnits="userSpaceOnUse">
		<stop  offset="0" style="stop-color:#FFFFFF"/>
		<stop  offset="1" style="stop-color:#CAA97E"/>
	</radialGradient>
	<circle class="st31" cx="425" cy="438.9" r="5.6"/>
	
		<radialGradient id="SVGID_22_" cx="485.4757" cy="156.9374" r="6.7081" gradientTransform="matrix(1 0 0 -1 0 595)" gradientUnits="userSpaceOnUse">
		<stop  offset="0" style="stop-color:#FFFFFF"/>
		<stop  offset="1" style="stop-color:#CAA97E"/>
	</radialGradient>
	<circle class="st32" cx="485.5" cy="438.1" r="6.7"/>
	
		<radialGradient id="SVGID_23_" cx="389.6453" cy="103.4853" r="6.1757" gradientTransform="matrix(1 0 0 -1 0 595)" gradientUnits="userSpaceOnUse">
		<stop  offset="0" style="stop-color:#FFFFFF"/>
		<stop  offset="1" style="stop-color:#CAA97E"/>
	</radialGradient>
	<circle class="st33" cx="389.6" cy="491.5" r="6.2"/>
	
		<radialGradient id="SVGID_24_" cx="357.5954" cy="71.4354" r="7.0276" gradientTransform="matrix(1 0 0 -1 0 595)" gradientUnits="userSpaceOnUse">
		<stop  offset="0" style="stop-color:#FFFFFF"/>
		<stop  offset="1" style="stop-color:#CAA97E"/>
	</radialGradient>
	<circle class="st34" cx="357.6" cy="523.6" r="7"/>
	
		<radialGradient id="SVGID_25_" cx="36.2442" cy="381.8194" r="7.56" gradientTransform="matrix(1 0 0 -1 0 595)" gradientUnits="userSpaceOnUse">
		<stop  offset="0" style="stop-color:#FFFFFF"/>
		<stop  offset="1" style="stop-color:#CAA97E"/>
	</radialGradient>
	<circle class="st35" cx="36.2" cy="213.2" r="7.6"/>
	
		<radialGradient id="SVGID_26_" cx="64.035" cy="360.4172" r="7.8794" gradientTransform="matrix(1 0 0 -1 0 595)" gradientUnits="userSpaceOnUse">
		<stop  offset="0" style="stop-color:#FFFFFF"/>
		<stop  offset="1" style="stop-color:#CAA97E"/>
	</radialGradient>
	<circle class="st36" cx="64" cy="234.6" r="7.9"/>
	
		<radialGradient id="SVGID_27_" cx="101.1959" cy="446.1322" r="6.2822" gradientTransform="matrix(1 0 0 -1 0 595)" gradientUnits="userSpaceOnUse">
		<stop  offset="0" style="stop-color:#FFFFFF"/>
		<stop  offset="1" style="stop-color:#CAA97E"/>
	</radialGradient>
	<circle class="st37" cx="101.2" cy="148.9" r="6.3"/>
	
		<radialGradient id="SVGID_28_" cx="107.5846" cy="497.5612" r="6.3887" gradientTransform="matrix(1 0 0 -1 0 595)" gradientUnits="userSpaceOnUse">
		<stop  offset="0" style="stop-color:#FFFFFF"/>
		<stop  offset="1" style="stop-color:#CAA97E"/>
	</radialGradient>
	<circle class="st38" cx="107.6" cy="97.4" r="6.4"/>
	
		<radialGradient id="SVGID_29_" cx="538.3954" cy="313.0345" r="6.7081" gradientTransform="matrix(1 0 0 -1 0 595)" gradientUnits="userSpaceOnUse">
		<stop  offset="0" style="stop-color:#FFFFFF"/>
		<stop  offset="1" style="stop-color:#CAA97E"/>
	</radialGradient>
	<circle class="st39" cx="538.4" cy="282" r="6.7"/>
	
		<radialGradient id="SVGID_30_" cx="504.5353" cy="245.9532" r="5.7498" gradientTransform="matrix(1 0 0 -1 0 595)" gradientUnits="userSpaceOnUse">
		<stop  offset="0" style="stop-color:#FFFFFF"/>
		<stop  offset="1" style="stop-color:#CAA97E"/>
	</radialGradient>
	<circle class="st40" cx="504.5" cy="349" r="5.7"/>
	
		<radialGradient id="SVGID_31_" cx="472.1659" cy="233.6017" r="7.9859" gradientTransform="matrix(1 0 0 -1 0 595)" gradientUnits="userSpaceOnUse">
		<stop  offset="0" style="stop-color:#FFFFFF"/>
		<stop  offset="1" style="stop-color:#CAA97E"/>
	</radialGradient>
	<circle class="st41" cx="472.2" cy="361.4" r="8"/>
	
		<radialGradient id="SVGID_32_" cx="486.434" cy="398.1105" r="7.347" gradientTransform="matrix(1 0 0 -1 0 595)" gradientUnits="userSpaceOnUse">
		<stop  offset="0" style="stop-color:#FFFFFF"/>
		<stop  offset="1" style="stop-color:#CAA97E"/>
	</radialGradient>
	<circle class="st42" cx="486.4" cy="196.9" r="7.3"/>
	
		<radialGradient id="SVGID_33_" cx="208.1" cy="539.0876" r="5.7498" gradientTransform="matrix(1 0 0 -1 0 595)" gradientUnits="userSpaceOnUse">
		<stop  offset="0" style="stop-color:#FFFFFF"/>
		<stop  offset="1" style="stop-color:#CAA97E"/>
	</radialGradient>
	<circle class="st43" cx="208.1" cy="55.9" r="5.7"/>
	
		<radialGradient id="SVGID_34_" cx="201.7113" cy="479.2469" r="7.56" gradientTransform="matrix(1 0 0 -1 0 595)" gradientUnits="userSpaceOnUse">
		<stop  offset="0" style="stop-color:#FFFFFF"/>
		<stop  offset="1" style="stop-color:#CAA97E"/>
	</radialGradient>
	<circle class="st44" cx="201.7" cy="115.8" r="7.6"/>
</g>
</svg>
