<?xml version="1.0" encoding="utf-8"?>
<!-- Generator: Adobe Illustrator 24.1.0, SVG Export Plug-In . SVG Version: 6.00 Build 0)  -->
<svg version="1.1" id="Layer_1" xmlns="http://www.w3.org/2000/svg" xmlns:xlink="http://www.w3.org/1999/xlink" x="0px" y="0px"
	 viewBox="0 0 512 512" style="enable-background:new 0 0 512 512;" xml:space="preserve">
<style type="text/css">
	.st0{fill:#1F404F;}
	.st1{fill:#FFFFFF;}
</style>
<circle class="st0" cx="256.3" cy="255.7" r="252.5"/>
<path class="st1" d="M327,101.7H185.7c-46,0-83.4,37.4-83.4,83.4v141.3c0,46,37.4,83.4,83.4,83.4H327c46,0,83.4-37.4,83.4-83.4V185
	C410.3,139.1,372.9,101.7,327,101.7z M392.3,326.3c0,36-29.3,65.3-65.3,65.3H185.7c-36,0-65.3-29.3-65.3-65.3V185
	c0-36,29.3-65.3,65.3-65.3H327c36,0,65.3,29.3,65.3,65.3V326.3z"/>
<path class="st1" d="M256.3,171.5c-46.4,0-84.2,37.8-84.2,84.2s37.8,84.2,84.2,84.2s84.2-37.8,84.2-84.2S302.8,171.5,256.3,171.5z
	 M256.3,321.8c-36.5,0-66.2-29.7-66.2-66.2c0-36.5,29.7-66.2,66.2-66.2c36.5,0,66.2,29.7,66.2,66.2
	C322.5,292.1,292.8,321.8,256.3,321.8z"/>
<path class="st1" d="M338.2,141.9c-13.7,0-24.9,11.2-24.9,24.9c0,13.7,11.2,24.9,24.9,24.9s24.9-11.2,24.9-24.9
	S352,141.9,338.2,141.9z M338.2,173.6c-3.8,0-6.8-3.1-6.8-6.8c0-3.8,3.1-6.8,6.8-6.8c3.8,0,6.8,3.1,6.8,6.8
	C345.1,170.5,342,173.6,338.2,173.6z"/>
</svg>
