<?xml version="1.0" encoding="utf-8"?>
<!-- Generator: Adobe Illustrator 24.1.0, SVG Export Plug-In . SVG Version: 6.00 Build 0)  -->
<svg version="1.1" id="Layer_1" xmlns="http://www.w3.org/2000/svg" xmlns:xlink="http://www.w3.org/1999/xlink" x="0px" y="0px"
	 viewBox="0 0 515.8 517.5" style="enable-background:new 0 0 515.8 517.5;" xml:space="preserve">
<style type="text/css">
	.st0{fill:#1F404F;}
	.st1{fill:#FFFFFF;}
</style>
<circle class="st0" cx="257.5" cy="257.8" r="252.5"/>
<g>
	<path class="st1" d="M134.4,215.6h54.2v162.9h-54.2V215.6z"/>
	<path class="st1" d="M161.1,193.3h0.4c18.9,0,30.6-12.5,30.6-28.2c-0.4-16-11.7-28.2-30.3-28.2c-18.5,0-30.7,12.2-30.7,28.2
		C131.2,180.8,142.9,193.3,161.1,193.3z"/>
	<path class="st1" d="M272.7,378.5v-91c0-4.9,0.4-9.7,1.8-13.2c3.9-9.7,12.8-19.8,27.8-19.8c19.6,0,27.4,14.9,27.4,36.8v87.2h54.2
		v-93.4c0-50-26.7-73.3-62.4-73.3c-28.8,0-41.6,15.8-48.8,26.9v0.5h-0.4c0.1-0.2,0.2-0.4,0.4-0.5v-23.1h-54.2
		c0.7,15.3,0,162.9,0,162.9L272.7,378.5L272.7,378.5z"/>
</g>
</svg>
