<?xml version="1.0" encoding="utf-8"?>
<!-- Generator: Adobe Illustrator 24.1.0, SVG Export Plug-In . SVG Version: 6.00 Build 0)  -->
<svg version="1.1" id="Layer_1" xmlns="http://www.w3.org/2000/svg" xmlns:xlink="http://www.w3.org/1999/xlink" x="0px" y="0px"
	 viewBox="0 0 686 144.8" style="enable-background:new 0 0 686 144.8;" xml:space="preserve">
<style type="text/css">
	.st0{enable-background:new    ;}
</style>
<g>
	<path d="M97.2,112.6l-15.2,26L3.9,3.6H34C55,39.9,76.1,76.3,97.2,112.6z"/>
	<path d="M123.9,138.6L45.3,3.6c10.1,0,20.1,0,30.2,0c21,36.3,42.1,72.7,63.2,109L123.9,138.6z"/>
	<path d="M123.9,138.6L202,3.6c-10.1,0-20.2,0-30.3,0c-20.9,36.3-41.7,72.7-62.6,109L123.9,138.6z"/>
	<polygon points="119.1,65.7 156,3.6 126,3.6 104.4,39.7 	"/>
	<rect x="128.6" y="3.6" width="57.7" height="26.1"/>
</g>
<g class="st0">
	<path d="M221.9,53.7h12.2l9,46.4h2.3l10.8-45.2H269l10.8,45.2h2.3l8.9-46.4h12.3l-12.1,57h-19.7l-8.9-39.1l-8.9,39.1H234
		L221.9,53.7z"/>
	<path d="M309,44.1V31h12.4v13.1H309z M309,110.7v-57h12.4v57H309z"/>
	<path d="M371,65.5c-9-1.2-15.5-1.8-19.5-1.8c-4,0-6.8,0.5-8.4,1.4c-1.6,1-2.3,2.4-2.3,4.5c0,2,0.9,3.5,2.6,4.3
		c1.7,0.8,5.7,1.8,12.1,2.9c6.3,1.1,10.8,2.8,13.5,5.2c2.7,2.4,4,6.5,4,12.5c0,6-1.9,10.4-5.8,13.2c-3.8,2.8-9.4,4.2-16.8,4.2
		c-4.6,0-10.5-0.6-17.5-1.9l-3.5-0.6l0.5-10.4c9.1,1.2,15.7,1.8,19.7,1.8c4,0,6.9-0.5,8.6-1.5c1.7-1,2.6-2.6,2.6-4.9
		s-0.8-3.9-2.4-4.7c-1.6-0.9-5.5-1.8-11.7-2.8c-6.2-1-10.7-2.6-13.6-4.8c-2.9-2.2-4.3-6.2-4.3-12.1c0-5.8,2-10.2,6-13.1
		c4-2.9,9.1-4.3,15.3-4.3c4.9,0,10.8,0.6,17.9,1.8l3.5,0.7L371,65.5z"/>
	<path d="M392.4,110.7H380V30.1h12.4v26.7c5.6-2.8,10.8-4.2,15.6-4.2c7.6,0,12.8,2.1,15.5,6.4c2.8,4.3,4.2,11.4,4.2,21.2v30.5h-12.4
		V80.5c0-6.2-0.6-10.5-1.9-13.1c-1.3-2.6-4-3.9-8.2-3.9c-3.6,0-7.3,0.6-10.9,1.8l-1.8,0.7V110.7z"/>
	<path d="M453,53.7h12.2l9,46.4h2.3l10.8-45.2h12.8l10.8,45.2h2.3l8.9-46.4h12.3l-12.1,57h-19.7l-8.9-39.1l-8.9,39.1h-19.7L453,53.7
		z"/>
	<path d="M543.2,59.9c3.9-4.9,10.4-7.4,19.5-7.4s15.6,2.5,19.5,7.4c3.9,4.9,5.9,12.3,5.9,22.2c0,9.9-1.9,17.3-5.7,22.3
		c-3.8,5-10.4,7.5-19.7,7.5c-9.3,0-15.9-2.5-19.7-7.5c-3.8-5-5.7-12.5-5.7-22.3C537.3,72.2,539.3,64.8,543.2,59.9z M552.5,96.9
		c1.7,3,5.2,4.6,10.3,4.6c5.1,0,8.5-1.5,10.3-4.6c1.7-3,2.6-8,2.6-14.9c0-6.9-0.9-11.8-2.8-14.7c-1.9-2.9-5.2-4.3-10.1-4.3
		c-4.9,0-8.2,1.4-10.1,4.3c-1.9,2.9-2.8,7.8-2.8,14.7C549.9,88.9,550.7,93.9,552.5,96.9z"/>
	<path d="M595.5,110.7v-57h12.3v6.8c6.5-4.2,12.9-6.9,19.4-8.1v12.4c-6.5,1.3-12.1,3-16.7,5l-2.5,1v39.8H595.5z"/>
	<path d="M644.2,110.7h-12.4V30.1h12.4v46.6l7.1-0.7l13.4-22.2h13.9l-16.4,26.7l17.3,30.3h-14l-13.9-24l-7.4,0.8V110.7z"/>
</g>
</svg>
