<?xml version="1.0" encoding="utf-8"?>
<!-- Generator: Adobe Illustrator 24.1.0, SVG Export Plug-In . SVG Version: 6.00 Build 0)  -->
<svg version="1.1" id="Layer_1" xmlns="http://www.w3.org/2000/svg" xmlns:xlink="http://www.w3.org/1999/xlink" x="0px" y="0px"
	 viewBox="0 0 400 400" style="enable-background:new 0 0 400 400;" xml:space="preserve">
<style type="text/css">
	.st0{clip-path:url(#SVGID_2_);}
	.st1{fill:none;stroke:#000000;stroke-width:0.25;stroke-miterlimit:10;}
	.st2{opacity:0.4;}
	.st3{clip-path:url(#SVGID_4_);}
	.st4{clip-path:url(#SVGID_6_);}
	.st5{clip-path:url(#SVGID_8_);}
	.st6{clip-path:url(#SVGID_10_);}
	.st7{clip-path:url(#SVGID_12_);}
	.st8{fill:#DB4437;fill-opacity:0.4;}
	.st9{display:none;}
	.st10{display:inline;opacity:0.15;}
	.st11{clip-path:url(#SVGID_14_);}
	.st12{clip-path:url(#SVGID_16_);}
	.st13{display:inline;opacity:0.3;}
	.st14{clip-path:url(#SVGID_20_);}
	.st15{clip-path:url(#SVGID_22_);}
	.st16{display:inline;}
	.st17{clip-path:url(#SVGID_26_);}
	.st18{clip-path:url(#SVGID_28_);}
	.st19{fill:none;stroke:#000000;stroke-width:1.0914;stroke-linecap:round;stroke-linejoin:round;stroke-miterlimit:10;}
	.st20{fill:#183042;}
	.st21{fill:none;stroke:#C9A87E;stroke-width:3;stroke-linejoin:round;stroke-miterlimit:10;}
	.st22{fill:none;stroke:#C9A87E;stroke-width:5;stroke-linejoin:round;stroke-miterlimit:10;}
	.st23{fill:none;stroke:#C9A87E;stroke-width:3;stroke-linecap:round;stroke-linejoin:round;stroke-miterlimit:10;}
	.st24{display:inline;fill:#C9A87E;}
	.st25{fill:#C9A87E;}
</style>
<symbol  id="material_x5F_product_x5F_icon_x5F_grid" viewBox="-96 -96 192 192">
	<g>
		<g>
			<g>
				<g>
					<defs>
						<rect id="SVGID_1_" x="-96" y="-96" width="192" height="192"/>
					</defs>
					<clipPath id="SVGID_2_">
						<use xlink:href="#SVGID_1_"  style="overflow:visible;"/>
					</clipPath>
					<g class="st0">
						<g>
							<line class="st1" x1="-92" y1="-96" x2="-92" y2="96"/>
							<line class="st1" x1="-88" y1="-96" x2="-88" y2="96"/>
							<line class="st1" x1="-84" y1="-96" x2="-84" y2="96"/>
							<line class="st1" x1="-80" y1="-96" x2="-80" y2="96"/>
							<line class="st1" x1="-76" y1="-96" x2="-76" y2="96"/>
							<line class="st1" x1="-72" y1="-96" x2="-72" y2="96"/>
							<line class="st1" x1="-68" y1="-96" x2="-68" y2="96"/>
							<line class="st1" x1="-64" y1="-96" x2="-64" y2="96"/>
							<line class="st1" x1="-60" y1="-96" x2="-60" y2="96"/>
							<line class="st1" x1="-56" y1="-96" x2="-56" y2="96"/>
							<line class="st1" x1="-52" y1="-96" x2="-52" y2="96"/>
							<line class="st1" x1="-48" y1="-96" x2="-48" y2="96"/>
							<line class="st1" x1="-44" y1="-96" x2="-44" y2="96"/>
							<line class="st1" x1="-40" y1="-96" x2="-40" y2="96"/>
							<line class="st1" x1="-36" y1="-96" x2="-36" y2="96"/>
							<line class="st1" x1="-32" y1="-96" x2="-32" y2="96"/>
							<line class="st1" x1="-28" y1="-96" x2="-28" y2="96"/>
							<line class="st1" x1="-24" y1="-96" x2="-24" y2="96"/>
							<line class="st1" x1="-20" y1="-96" x2="-20" y2="96"/>
							<line class="st1" x1="-16" y1="-96" x2="-16" y2="96"/>
							<line class="st1" x1="-12" y1="-96" x2="-12" y2="96"/>
							<line class="st1" x1="-8" y1="-96" x2="-8" y2="96"/>
							<line class="st1" x1="-4" y1="-96" x2="-4" y2="96"/>
							<line class="st1" x1="0" y1="-96" x2="0" y2="96"/>
							<line class="st1" x1="4" y1="-96" x2="4" y2="96"/>
							<line class="st1" x1="8" y1="-96" x2="8" y2="96"/>
							<line class="st1" x1="12" y1="-96" x2="12" y2="96"/>
							<line class="st1" x1="16" y1="-96" x2="16" y2="96"/>
							<line class="st1" x1="20" y1="-96" x2="20" y2="96"/>
							<line class="st1" x1="24" y1="-96" x2="24" y2="96"/>
							<line class="st1" x1="28" y1="-96" x2="28" y2="96"/>
							<line class="st1" x1="32" y1="-96" x2="32" y2="96"/>
							<line class="st1" x1="36" y1="-96" x2="36" y2="96"/>
							<line class="st1" x1="40" y1="-96" x2="40" y2="96"/>
							<line class="st1" x1="44" y1="-96" x2="44" y2="96"/>
							<line class="st1" x1="48" y1="-96" x2="48" y2="96"/>
							<line class="st1" x1="52" y1="-96" x2="52" y2="96"/>
							<line class="st1" x1="56" y1="-96" x2="56" y2="96"/>
							<line class="st1" x1="60" y1="-96" x2="60" y2="96"/>
							<line class="st1" x1="64" y1="-96" x2="64" y2="96"/>
							<line class="st1" x1="68" y1="-96" x2="68" y2="96"/>
							<line class="st1" x1="72" y1="-96" x2="72" y2="96"/>
							<line class="st1" x1="76" y1="-96" x2="76" y2="96"/>
							<line class="st1" x1="80" y1="-96" x2="80" y2="96"/>
							<line class="st1" x1="84" y1="-96" x2="84" y2="96"/>
							<line class="st1" x1="88" y1="-96" x2="88" y2="96"/>
							<line class="st1" x1="92" y1="-96" x2="92" y2="96"/>
						</g>
						<g>
							<line class="st1" x1="-96" y1="92" x2="96" y2="92"/>
							<line class="st1" x1="-96" y1="88" x2="96" y2="88"/>
							<line class="st1" x1="-96" y1="84" x2="96" y2="84"/>
							<line class="st1" x1="-96" y1="80" x2="96" y2="80"/>
							<line class="st1" x1="-96" y1="76" x2="96" y2="76"/>
							<line class="st1" x1="-96" y1="72" x2="96" y2="72"/>
							<line class="st1" x1="-96" y1="68" x2="96" y2="68"/>
							<line class="st1" x1="-96" y1="64" x2="96" y2="64"/>
							<line class="st1" x1="-96" y1="60" x2="96" y2="60"/>
							<line class="st1" x1="-96" y1="56" x2="96" y2="56"/>
							<line class="st1" x1="-96" y1="52" x2="96" y2="52"/>
							<line class="st1" x1="-96" y1="48" x2="96" y2="48"/>
							<line class="st1" x1="-96" y1="44" x2="96" y2="44"/>
							<line class="st1" x1="-96" y1="40" x2="96" y2="40"/>
							<line class="st1" x1="-96" y1="36" x2="96" y2="36"/>
							<line class="st1" x1="-96" y1="32" x2="96" y2="32"/>
							<line class="st1" x1="-96" y1="28" x2="96" y2="28"/>
							<line class="st1" x1="-96" y1="24" x2="96" y2="24"/>
							<line class="st1" x1="-96" y1="20" x2="96" y2="20"/>
							<line class="st1" x1="-96" y1="16" x2="96" y2="16"/>
							<line class="st1" x1="-96" y1="12" x2="96" y2="12"/>
							<line class="st1" x1="-96" y1="8" x2="96" y2="8"/>
							<line class="st1" x1="-96" y1="4" x2="96" y2="4"/>
							<line class="st1" x1="-96" y1="0" x2="96" y2="0"/>
							<line class="st1" x1="-96" y1="-4" x2="96" y2="-4"/>
							<line class="st1" x1="-96" y1="-8" x2="96" y2="-8"/>
							<line class="st1" x1="-96" y1="-12" x2="96" y2="-12"/>
							<line class="st1" x1="-96" y1="-16" x2="96" y2="-16"/>
							<line class="st1" x1="-96" y1="-20" x2="96" y2="-20"/>
							<line class="st1" x1="-96" y1="-24" x2="96" y2="-24"/>
							<line class="st1" x1="-96" y1="-28" x2="96" y2="-28"/>
							<line class="st1" x1="-96" y1="-32" x2="96" y2="-32"/>
							<line class="st1" x1="-96" y1="-36" x2="96" y2="-36"/>
							<line class="st1" x1="-96" y1="-40" x2="96" y2="-40"/>
							<line class="st1" x1="-96" y1="-44" x2="96" y2="-44"/>
							<line class="st1" x1="-96" y1="-48" x2="96" y2="-48"/>
							<line class="st1" x1="-96" y1="-52" x2="96" y2="-52"/>
							<line class="st1" x1="-96" y1="-56" x2="96" y2="-56"/>
							<line class="st1" x1="-96" y1="-60" x2="96" y2="-60"/>
							<line class="st1" x1="-96" y1="-64" x2="96" y2="-64"/>
							<line class="st1" x1="-96" y1="-68" x2="96" y2="-68"/>
							<line class="st1" x1="-96" y1="-72" x2="96" y2="-72"/>
							<line class="st1" x1="-96" y1="-76" x2="96" y2="-76"/>
							<line class="st1" x1="-96" y1="-80" x2="96" y2="-80"/>
							<line class="st1" x1="-96" y1="-84" x2="96" y2="-84"/>
							<line class="st1" x1="-96" y1="-88" x2="96" y2="-88"/>
							<line class="st1" x1="-96" y1="-92" x2="96" y2="-92"/>
						</g>
						<g>
							<path d="M95.8,95.8V-95.8H-95.8V95.8H95.8 M96,96H-96V-96H96V96L96,96z"/>
						</g>
					</g>
				</g>
			</g>
		</g>
	</g>
</symbol>
<symbol  id="material_x5F_product_x5F_icon_x5F_keylines" viewBox="-96 -96 192 192">
	<g class="st2">
		<g>
			<g>
				<g>
					<defs>
						<rect id="SVGID_3_" x="-96" y="-96" width="192" height="192"/>
					</defs>
					<clipPath id="SVGID_4_">
						<use xlink:href="#SVGID_3_"  style="overflow:visible;"/>
					</clipPath>
					<g class="st3">
						<line class="st1" x1="-95.8" y1="95.8" x2="95.8" y2="-95.8"/>
						<g>
							<path d="M95.8,95.8V-95.8H-95.8V95.8H95.8 M96,96H-96V-96H96V96L96,96z"/>
						</g>
						<line class="st1" x1="95.8" y1="95.8" x2="-95.8" y2="-95.8"/>
						<line class="st1" x1="28" y1="96" x2="28" y2="-96"/>
						<line class="st1" x1="-28" y1="96" x2="-28" y2="-96"/>
						<line class="st1" x1="96" y1="-28" x2="-96" y2="-28"/>
						<line class="st1" x1="96" y1="28" x2="-96" y2="28"/>
						<circle class="st1" cx="0" cy="0" r="40"/>
						<line class="st1" x1="-96" y1="0" x2="96" y2="0"/>
						<line class="st1" x1="0" y1="96" x2="0" y2="-96"/>
					</g>
				</g>
			</g>
		</g>
		<g>
			<g>
				<g>
					<defs>
						<rect id="SVGID_5_" x="-96" y="-96" width="192" height="192"/>
					</defs>
					<clipPath id="SVGID_6_">
						<use xlink:href="#SVGID_5_"  style="overflow:visible;"/>
					</clipPath>
					<g class="st4">
						<g>
							<path d="M0,87.8c48.4,0,87.8-39.4,87.8-87.8S48.4-87.8,0-87.8S-87.8-48.4-87.8,0S-48.4,87.8,0,87.8 M0,88
								c-48.6,0-88-39.4-88-88s39.4-88,88-88S88-48.6,88,0S48.6,88,0,88L0,88z"/>
						</g>
					</g>
				</g>
			</g>
		</g>
		<g>
			<g>
				<g>
					<defs>
						<rect id="SVGID_7_" x="-96" y="-96" width="192" height="192"/>
					</defs>
					<clipPath id="SVGID_8_">
						<use xlink:href="#SVGID_7_"  style="overflow:visible;"/>
					</clipPath>
					<g class="st5">
						<g>
							<path d="M64,75.8c6.5,0,11.8-5.3,11.8-11.8V-64c0-6.5-5.3-11.8-11.8-11.8H-64c-6.5,0-11.8,5.3-11.8,11.8V64
								c0,6.5,5.3,11.8,11.8,11.8H64 M64,76H-64c-6.6,0-12-5.4-12-12V-64c0-6.6,5.4-12,12-12H64c6.6,0,12,5.4,12,12V64
								C76,70.6,70.6,76,64,76L64,76z"/>
						</g>
					</g>
				</g>
			</g>
		</g>
		<g>
			<g>
				<g>
					<defs>
						<rect id="SVGID_9_" x="-96" y="-96" width="192" height="192"/>
					</defs>
					<clipPath id="SVGID_10_">
						<use xlink:href="#SVGID_9_"  style="overflow:visible;"/>
					</clipPath>
					<g class="st6">
						<g>
							<path d="M52,87.8c6.5,0,11.8-5.3,11.8-11.8V-76c0-6.5-5.3-11.8-11.8-11.8H-52c-6.5,0-11.8,5.3-11.8,11.8V76
								c0,6.5,5.3,11.8,11.8,11.8H52 M52,88H-52c-6.6,0-12-5.4-12-12V-76c0-6.6,5.4-12,12-12H52c6.6,0,12,5.4,12,12V76
								C64,82.6,58.6,88,52,88L52,88z"/>
						</g>
					</g>
				</g>
			</g>
		</g>
		<g>
			<g>
				<g>
					<defs>
						<rect id="SVGID_11_" x="-96" y="-96" width="192" height="192"/>
					</defs>
					<clipPath id="SVGID_12_">
						<use xlink:href="#SVGID_11_"  style="overflow:visible;"/>
					</clipPath>
					<g class="st7">
						<g>
							<path d="M76,63.8c6.5,0,11.8-5.3,11.8-11.8V-52c0-6.5-5.3-11.8-11.8-11.8H-76c-6.5,0-11.8,5.3-11.8,11.8V52
								c0,6.5,5.3,11.8,11.8,11.8H76 M76,64H-76c-6.6,0-12-5.4-12-12V-52c0-6.6,5.4-12,12-12H76c6.6,0,12,5.4,12,12V52
								C88,58.6,82.6,64,76,64L76,64z"/>
						</g>
					</g>
				</g>
			</g>
		</g>
	</g>
</symbol>
<symbol  id="material_x5F_product_x5F_icon_x5F_trim" viewBox="-96 -96 192 192">
	<path class="st8" d="M-96,96V-96H96V96H-96z M92-92H-92V92H92V-92z"/>
</symbol>
<g id="Grid" class="st9">
	<g id="grid" class="st10">
		<g>
			<g>
				<g>
					<defs>
						<rect id="SVGID_13_" width="400" height="400"/>
					</defs>
					<clipPath id="SVGID_14_">
						<use xlink:href="#SVGID_13_"  style="overflow:visible;"/>
					</clipPath>
					<g class="st11">
						<g>
							<g>
								<defs>
									<rect id="SVGID_15_" width="400" height="400"/>
								</defs>
								<clipPath id="SVGID_16_">
									<use xlink:href="#SVGID_15_"  style="overflow:visible;"/>
								</clipPath>
								<g class="st12">
									<g>
										<defs>
											<rect id="SVGID_17_" x="0" y="0" width="400" height="400"/>
										</defs>
										<clipPath id="SVGID_18_">
											<use xlink:href="#SVGID_17_"  style="overflow:visible;"/>
										</clipPath>
										<g style="clip-path:url(#SVGID_18_);">
											
												<use xlink:href="#material_x5F_product_x5F_icon_x5F_grid"  width="192" height="192" id="XMLID_1_" x="-96" y="-96" transform="matrix(2.0833 0 0 -2.0833 199.9971 199.9972)" style="overflow:visible;"/>
										</g>
									</g>
								</g>
							</g>
						</g>
					</g>
				</g>
			</g>
		</g>
	</g>
	<g id="keylines" class="st13">
		<g>
			<g>
				<g>
					<defs>
						<rect id="SVGID_19_" width="400" height="400"/>
					</defs>
					<clipPath id="SVGID_20_">
						<use xlink:href="#SVGID_19_"  style="overflow:visible;"/>
					</clipPath>
					<g class="st14">
						<g>
							<g>
								<defs>
									<rect id="SVGID_21_" width="400" height="400"/>
								</defs>
								<clipPath id="SVGID_22_">
									<use xlink:href="#SVGID_21_"  style="overflow:visible;"/>
								</clipPath>
								<g class="st15">
									<g>
										<defs>
											<rect id="SVGID_23_" x="0" y="0" width="400" height="400"/>
										</defs>
										<clipPath id="SVGID_24_">
											<use xlink:href="#SVGID_23_"  style="overflow:visible;"/>
										</clipPath>
										<g style="clip-path:url(#SVGID_24_);">
											
												<use xlink:href="#material_x5F_product_x5F_icon_x5F_keylines"  width="192" height="192" x="-96" y="-96" transform="matrix(2.0833 0 0 -2.0833 199.9971 199.9972)" style="overflow:visible;"/>
										</g>
									</g>
								</g>
							</g>
						</g>
					</g>
				</g>
			</g>
		</g>
	</g>
	<g id="trim_area" class="st16">
		<g>
			<g>
				<g>
					<defs>
						<rect id="SVGID_25_" width="400" height="400"/>
					</defs>
					<clipPath id="SVGID_26_">
						<use xlink:href="#SVGID_25_"  style="overflow:visible;"/>
					</clipPath>
					<g class="st17">
						<g>
							<g>
								<defs>
									<rect id="SVGID_27_" width="400" height="400"/>
								</defs>
								<clipPath id="SVGID_28_">
									<use xlink:href="#SVGID_27_"  style="overflow:visible;"/>
								</clipPath>
								<g class="st18">
									<g>
										<defs>
											<rect id="SVGID_29_" x="0" y="0" width="400" height="400"/>
										</defs>
										<clipPath id="SVGID_30_">
											<use xlink:href="#SVGID_29_"  style="overflow:visible;"/>
										</clipPath>
										<g style="clip-path:url(#SVGID_30_);">
											
												<use xlink:href="#material_x5F_product_x5F_icon_x5F_trim"  width="192" height="192" id="XMLID_2_" x="-96" y="-96" transform="matrix(2.0833 0 0 -2.0833 199.9971 199.9972)" style="overflow:visible;"/>
										</g>
									</g>
								</g>
							</g>
						</g>
					</g>
				</g>
			</g>
		</g>
	</g>
</g>
<g id="Layer_8" class="st9">
	<g class="st16">
		<rect x="17.6" y="342" class="st19" width="41.5" height="41.5"/>
		<polyline class="st19" points="17.6,342 44.7,312.7 17.6,282.9 59.1,282.9 88,312.7 59.1,342 		"/>
		<polyline class="st19" points="59.1,383.5 88,354.8 88,270 59.1,240.5 59.1,282.9 		"/>
		<polyline class="st19" points="17.6,282.9 17.6,240.5 59.1,240.5 88,211.4 116.4,240.5 88,270 		"/>
		<polyline class="st19" points="88,354.8 116.4,383.5 116.4,342 88,312.7 116.4,282.9 144.4,312.7 116.4,342 157,342 157,383.5 
			116.4,383.5 		"/>
		<polyline class="st19" points="157,342 185.8,312.7 144.4,312.7 		"/>
		<polyline class="st19" points="185.8,354.8 214.6,383.5 214.6,342 185.6,313 227.4,312.7 254.4,342 282.9,312.7 254.4,282.9 
			227.4,312.7 		"/>
		<polyline class="st19" points="214.6,383.5 254.4,383.5 254.4,342 214.6,342 		"/>
		<polygon class="st19" points="185.6,313 185.8,270 214.6,240.5 214.6,282.9 		"/>
		<polyline class="st19" points="282.9,354.8 322.9,354.8 322.9,312.7 282.9,312.7 282.9,354.8 254.4,383.5 295.8,383.5 
			322.9,354.8 		"/>
		<path class="st19" d="M322.9,354.8"/>
		<path class="st19" d="M282.9,312.7"/>
		<path class="st19" d="M270.8,270"/>
		<polyline class="st19" points="282.9,312.7 282.9,270 254.4,240.5 295.8,240.5 322.9,270 282.9,270 		"/>
		<polyline class="st19" points="322.9,354.8 351.6,383.5 351.6,342 322.9,312.7 322.9,270 351.4,240.5 351.6,283.1 391.8,282.9 
			391.8,240.5 351.4,240.5 379,211.4 420.7,211.4 		"/>
		<path class="st19" d="M391.8,282.9"/>
		<polyline class="st19" points="322.9,312.7 351.6,283.1 379,312.7 351.6,342 391.8,342 391.8,383.5 351.6,383.5 		"/>
		<polyline class="st19" points="391.8,342 420.7,312.7 379,312.7 		"/>
		<polyline class="st19" points="391.8,282.9 420.7,312.7 420.7,270 391.8,240.5 420.7,211.4 		"/>
		<path class="st19" d="M407.9,344.2"/>
		<polyline class="st19" points="420.7,354.8 449.7,383.5 449.7,342 420.7,312.7 420.7,354.8 391.8,383.5 		"/>
		<polyline class="st19" points="449.7,342 490,342 462.5,312.7 420.7,312.7 449.7,282.9 490,282.9 462.5,312.7 		"/>
		<polyline class="st19" points="449.7,282.9 449.7,240.5 420.7,270 		"/>
		<polyline class="st19" points="351.4,240.5 322.9,211.4 295.8,240.5 		"/>
		<path class="st19" d="M88,270"/>
		<polyline class="st19" points="116.4,240.5 144.4,211.4 185.8,211.4 157,240.5 185.8,270 157,240.5 157,282.9 157,240.5 
			116.4,240.5 116.4,282.9 157,282.9 185.8,312.7 185.8,354.8 157,383.5 		"/>
		<polygon class="st19" points="44.7,211.4 17.6,181.7 17.6,140.6 44.7,169.3 		"/>
		<polyline class="st19" points="44.7,169.3 88,169.3 88,211.4 88,169.3 59.1,140.6 17.6,140.6 		"/>
		<polyline class="st19" points="88,169.3 116.4,140.6 116.4,181.7 88,211.4 44.7,211.4 17.6,240.5 		"/>
		<polyline class="st19" points="116.4,140.6 157,140.6 157,181.7 		"/>
		<polyline class="st19" points="157,140.6 185.8,169.3 185.8,211.4 157,181.7 116.4,181.7 144.4,211.4 		"/>
		<polyline class="st19" points="254.4,181.7 282.9,211.4 282.9,169.3 254.4,140.6 254.4,181.7 227.4,211.4 227.4,169.3 
			185.8,169.3 214.6,140.6 254.4,140.6 227.4,169.3 		"/>
		<path class="st19" d="M287.6,156.5"/>
		<polyline class="st19" points="282.9,169.3 322.9,169.3 295.8,140.6 254.4,140.6 		"/>
		<polyline class="st19" points="214.6,282.9 254.4,282.9 254.4,240.5 214.6,240.5 185.8,211.4 227.4,211.4 254.4,240.5 
			282.9,211.4 322.9,211.4 322.9,169.3 351.4,140.6 351.4,181.7 		"/>
		<polyline class="st19" points="379,169.3 420.7,169.3 420.7,211.4 		"/>
		<polyline class="st19" points="490,140.6 449.7,140.6 420.7,169.3 462.5,169.3 462.5,211.4 420.7,211.4 449.7,240.5 490,240.5 
			462.5,211.4 490,181.7 490,140.6 462.5,169.3 		"/>
		<polyline class="st19" points="420.7,169.3 391.8,140.6 351.4,140.6 379,169.3 379,211.4 351.4,181.7 322.9,211.4 		"/>
	</g>
</g>
<g id="projects">
	<g id="Layer_11">
	</g>
	<g>
		<g id="XMLID_3_">
			<g>
				<polygon class="st20" points="195.7,78.7 195.7,134.4 140.4,134.4 140.4,134.4 195.6,78.8 				"/>
				<polygon class="st20" points="140.4,134.4 140.4,134.4 140.3,134.4 140.3,161.8 140.3,162.2 78.8,162.2 78.8,269.5 51.8,255.7 
					51.8,201.4 51.8,201.4 51.8,147 78.9,133.1 79.3,78.9 134,78.5 146.5,51.2 201.2,51.2 201.4,51.2 256.1,51.2 268.6,78.4 
					196,78.4 195.7,78.7 195.6,78.8 				"/>
				<polygon class="st20" points="268.6,324.3 256.1,351.6 201.4,351.6 201.2,351.6 146.5,351.6 134,324.3 				"/>
				<polygon class="st20" points="350.8,201.4 350.8,201.4 350.8,255.7 323.7,269.6 323.5,296.2 323.5,106.5 323.7,133.1 350.8,147 
									"/>
				<polygon class="st20" points="323.4,304.6 323.3,323.8 290.2,324.1 290.2,304.6 290.6,304.6 				"/>
			</g>
			<g>
				<polyline class="st21" points="51.8,201.4 51.8,147 78.9,133.1 79.3,78.9 134,78.5 146.5,51.2 201.2,51.2 				"/>
				<path class="st22" d="M209.4,29.8h0.7h1.1H269l13.6,29.9l59.4,0.5l0.5,59.3l29.5,15.2V194c0,0,0,11.4,0,11.9v59.4l-29.5,15.2
					l-0.5,59.3l-59.4,0.5L269.1,370h-59.7c0,0-14,0-14.6,0h-59.7l-13.6-29.9l-59.4-0.5l-0.4-59.3l-29.5-15.2v-59.4V194v-59.4
					l29.5-15.2l0.4-59.3l59.4-0.5l13.6-29.9h59.7L209.4,29.8L209.4,29.8z"/>
				<polyline class="st21" points="350.8,201.4 350.8,147 323.7,133.1 323.5,106.5 323.3,78.9 268.6,78.5 268.6,78.4 256.1,51.2 
					201.4,51.2 201.2,51.2 				"/>
				<polyline class="st21" points="51.8,201.4 51.8,255.7 78.8,269.5 78.9,269.6 79.3,323.8 134,324.2 134,324.3 146.5,351.6 
					201.2,351.6 				"/>
				<polyline class="st21" points="350.8,201.4 350.8,255.7 323.7,269.6 323.5,296.2 323.4,304.6 323.3,323.8 290.2,324.1 
					268.6,324.2 268.6,324.3 256.1,351.6 201.4,351.6 201.2,351.6 				"/>
				<polygon class="st23" points="140.3,162.2 211.9,162.2 215.4,174 220.2,190.4 223.4,201.4 290.2,201.7 290.2,304.6 290.2,324.1 
					290.2,324.3 268.6,324.3 134,324.3 78.8,324.3 78.8,269.5 78.8,162.2 				"/>
				<polyline class="st23" points="268.7,78.4 268.6,78.4 196,78.4 				"/>
				<polyline class="st23" points="323.5,85.4 323.5,106.5 323.5,296.2 323.5,304.6 323.4,304.6 290.6,304.6 				"/>
				<polyline class="st23" points="140.3,134.3 140.3,134.4 140.3,134.4 140.3,161.8 				"/>
				<polygon class="st23" points="195.7,78.7 195.7,134.4 140.4,134.4 140.4,134.4 195.6,78.8 				"/>
				<line class="st21" x1="307.3" y1="112.6" x2="212.3" y2="112.9"/>
				<line class="st21" x1="307.3" y1="129.3" x2="212.3" y2="129.5"/>
				<line class="st21" x1="307.4" y1="146" x2="212.3" y2="146.3"/>
				<line class="st21" x1="307.1" y1="162.9" x2="245.9" y2="163.1"/>
				<line class="st21" x1="307" y1="179.5" x2="246" y2="179.7"/>
			</g>
		</g>
	</g>
</g>
<g id="Layer_12" class="st9">
	<circle class="st24" cx="58.4" cy="153.7" r="4"/>
	<circle class="st24" cx="132.3" cy="90.2" r="3"/>
	<circle class="st24" cx="83" cy="141.1" r="3"/>
	<circle class="st24" cx="91" cy="147.8" r="3"/>
	<circle class="st24" cx="66.9" cy="160.1" r="3"/>
	<circle class="st24" cx="139.9" cy="98.3" r="3"/>
	<circle class="st24" cx="151.2" cy="74.9" r="3"/>
	<g class="st16">
		<circle class="st25" cx="325.4" cy="83.2" r="4"/>
	</g>
	<circle class="st24" cx="351.9" cy="149.4" r="4"/>
	<g class="st16">
		<circle class="st25" cx="260.8" cy="56.2" r="4"/>
	</g>
	<circle class="st24" cx="248.8" cy="74.8" r="3"/>
	<circle class="st24" cx="307.2" cy="99.8" r="3"/>
	<circle class="st24" cx="325.6" cy="135.7" r="3"/>
	<circle class="st24" cx="308.3" cy="147.8" r="3"/>
	<circle class="st24" cx="82.8" cy="324.4" r="4"/>
	<circle class="st24" cx="57.8" cy="262.3" r="4"/>
	<circle class="st24" cx="143.9" cy="349.7" r="4"/>
	<circle class="st24" cx="131.7" cy="325.8" r="3"/>
	<circle class="st24" cx="91.6" cy="316.2" r="3"/>
	<circle class="st24" cx="82.5" cy="274.9" r="3"/>
	<circle class="st24" cx="90.5" cy="268.2" r="3"/>
	<circle class="st24" cx="150.6" cy="341.1" r="3"/>
	<g class="st16">
		<circle class="st25" cx="315.4" cy="324.4" r="4"/>
	</g>
	<circle class="st24" cx="340.4" cy="262.3" r="4"/>
	<g class="st16">
		<circle class="st25" cx="254.4" cy="349.7" r="4"/>
	</g>
	<circle class="st24" cx="266.5" cy="325.8" r="3"/>
	<circle class="st24" cx="306.6" cy="316.2" r="3"/>
	<circle class="st24" cx="315.8" cy="274.9" r="3"/>
	<circle class="st24" cx="331.9" cy="255.9" r="3"/>
	<circle class="st24" cx="247.6" cy="341.1" r="3"/>
</g>
</svg>
