<?xml version="1.0" encoding="utf-8"?>
<!-- Generator: Adobe Illustrator 23.1.0, SVG Export Plug-In . SVG Version: 6.00 Build 0)  -->
<svg version="1.1" id="signature" xmlns="http://www.w3.org/2000/svg" xmlns:xlink="http://www.w3.org/1999/xlink" x="0px" y="0px"
	 viewBox="0 0 400 400" style="enable-background:new 0 0 400 400;" xml:space="preserve">
<style type="text/css">
	.st0{fill:#183042;}
	.st1{fill:none;stroke:#C9A87E;stroke-width:4.0186;stroke-linecap:round;stroke-linejoin:round;}
	.st2{fill:none;stroke:#C9A87E;stroke-width:2;stroke-linecap:round;stroke-linejoin:round;}
	.st3{fill:none;stroke:#C9A87E;stroke-width:4;stroke-linecap:round;stroke-linejoin:round;}
	.st4{fill:none;stroke:#C9A87E;stroke-width:6;stroke-linecap:round;stroke-linejoin:round;stroke-miterlimit:10;}
	.st5{fill:none;stroke:#C9A87E;stroke-width:6.0193;stroke-linejoin:round;stroke-miterlimit:10;}
</style>
<g id="XMLID_9_">
	<g>
		<path class="st0" d="M351.3,203.8v53l-26.1,13.5l-0.4,52.9l-52.6,0.4l-12,26.6h-52.9c0,0-12.4,0-12.9,0h-52.9l-12-26.6l-52.6-0.4
			l-0.4-52.9l-26.1-13.5V140.1l26.1-13.5l0.4-52.9l52.6-0.4l12-26.7h118.7l12,26.7l52.6,0.4l0.4,52.9l26.1,13.5v53
			C351.3,193.2,351.3,203.3,351.3,203.8z M311.4,199.1c0-61.8-50.1-111.8-111.8-111.8S87.8,137.3,87.8,199.1
			c0,61.8,50.1,111.8,111.8,111.8S311.4,260.8,311.4,199.1z"/>
	</g>
	<g>
		<path class="st1" d="M344.8,116.7l-0.5-61l-61.1-0.5l-14-30.7H131.4l-14,30.7l-61.1,0.5l-0.5,61l-30.3,15.6v134.5l30.3,15.6
			l0.5,60.9l61.1,0.5l14,30.7h61.4c0.6,0,15,0,15,0h61.4l14-30.7l61.1-0.5l0.5-60.9l30.3-15.6v-61.1c0-0.6,0-12.3,0-12.3v-61.1
			L344.8,116.7z"/>
		<path class="st2" d="M325.2,126.6l-0.4-52.9l-52.6-0.4l-12-26.7H141.4l-12,26.7l-52.6,0.4l-0.4,52.9l-26.1,13.5v116.7l26.1,13.5
			l0.4,52.9l52.6,0.4l12,26.6h52.9c0.5,0,12.9,0,12.9,0h52.9l12-26.6l52.6-0.4l0.4-52.9l26.1-13.5v-53c0-0.5,0-10.6,0-10.6v-53
			L325.2,126.6z"/>
		<path class="st3" d="M311.4,199.1c0,61.8-50.1,111.8-111.8,111.8S87.8,260.8,87.8,199.1c0-61.8,50.1-111.8,111.8-111.8
			S311.4,137.3,311.4,199.1z"/>
	</g>
</g>
<image style="display:none;overflow:visible;opacity:0.5;" width="512" height="512" xlink:href="bil bil/112542.png"  transform="matrix(0.3167 -1.217036e-03 1.217036e-03 0.3167 108.2103 110.6313)">
</image>
<polygon class="st4" points="261.4,260.7 170.3,232.1 154.9,191.4 193.2,153.5 233.7,169.3 "/>
<line class="st4" x1="212.9" y1="211.7" x2="259.6" y2="258.9"/>
<line class="st5" x1="261.4" y1="260.7" x2="150.5" y2="260.7"/>
<polyline class="st4" points="154.9,191.4 138.8,175.4 176.6,137.5 192.9,153.8 "/>
<circle class="st4" cx="205.3" cy="204.1" r="10.7"/>
</svg>
