<?xml version="1.0" encoding="utf-8"?>
<!-- Generator: Adobe Illustrator 23.1.0, SVG Export Plug-In . SVG Version: 6.00 Build 0)  -->
<svg version="1.1" xmlns="http://www.w3.org/2000/svg" xmlns:xlink="http://www.w3.org/1999/xlink" x="0px" y="0px"
	 viewBox="0 0 400 400" style="enable-background:new 0 0 400 400;" xml:space="preserve">
<style type="text/css">
	.st0{clip-path:url(#SVGID_2_);}
	.st1{fill:none;stroke:#000000;stroke-width:0.25;stroke-miterlimit:10;}
	.st2{opacity:0.4;}
	.st3{clip-path:url(#SVGID_4_);}
	.st4{clip-path:url(#SVGID_6_);}
	.st5{clip-path:url(#SVGID_8_);}
	.st6{clip-path:url(#SVGID_10_);}
	.st7{clip-path:url(#SVGID_12_);}
	.st8{fill:#DB4437;fill-opacity:0.4;}
	.st9{display:none;}
	.st10{display:inline;opacity:0.15;}
	.st11{clip-path:url(#SVGID_14_);}
	.st12{display:inline;opacity:0.3;}
	.st13{clip-path:url(#SVGID_18_);}
	.st14{display:inline;}
	.st15{clip-path:url(#SVGID_22_);}
	.st16{stroke:#000000;stroke-width:9;stroke-miterlimit:10;}
	.st17{fill:none;stroke:#000000;stroke-width:13;stroke-miterlimit:10;}
	.st18{fill:#FFFFFF;stroke:#000000;stroke-miterlimit:10;}
	.st19{fill:none;stroke:#000000;stroke-width:9.4284;stroke-miterlimit:10;}
	.st20{fill:none;}
	.st21{fill:none;stroke:#000000;stroke-width:1.0914;stroke-linecap:round;stroke-linejoin:round;stroke-miterlimit:10;}
	.st22{fill:none;stroke:#000000;stroke-linecap:round;stroke-linejoin:round;stroke-miterlimit:10;}
	.st23{fill:#183042;}
	.st24{fill:none;stroke:#C9A87E;stroke-width:1.639;stroke-linejoin:round;stroke-miterlimit:10;}
	.st25{fill:none;stroke:#C9A87E;stroke-width:4;stroke-linejoin:round;stroke-miterlimit:10;}
	.st26{fill:none;stroke:#C9A87E;stroke-width:1.639;stroke-linecap:round;stroke-linejoin:round;stroke-miterlimit:10;}
	.st27{fill:none;stroke:#C9A87E;stroke-width:4;stroke-linecap:round;stroke-linejoin:round;}
	.st28{fill:#183042;stroke:#C9A87E;stroke-width:2;stroke-linecap:round;stroke-linejoin:round;stroke-miterlimit:10;}
	.st29{fill:none;stroke:#C9A87E;stroke-width:3;stroke-linecap:round;stroke-linejoin:round;stroke-miterlimit:10;}
	.st30{fill:#183042;stroke:#C9A87E;stroke-width:1.6931;stroke-linecap:round;stroke-linejoin:round;stroke-miterlimit:10;}
	.st31{fill:#C9A87E;stroke:#C9A87E;stroke-width:2;stroke-miterlimit:10;}
	.st32{fill:#C9A87E;}
	.st33{fill:none;stroke:#C9A87E;stroke-width:2.1076;stroke-linecap:round;stroke-linejoin:round;}
	.st34{fill:none;stroke:#C9A87E;stroke-width:2;stroke-linecap:round;stroke-linejoin:round;}
	.st35{fill:none;stroke:#C9A87E;stroke-width:2;stroke-linecap:round;stroke-linejoin:round;stroke-miterlimit:10;}
	.st36{fill:none;stroke:#C9A87E;stroke-width:3.9958;stroke-linecap:round;stroke-linejoin:round;}
</style>
<symbol  id="material_x5F_product_x5F_icon_x5F_grid" viewBox="-96 -96 192 192">
	<g>
		<g>
			<g>
				<defs>
					<rect id="SVGID_1_" x="-96" y="-96" width="192" height="192"/>
				</defs>
				<clipPath id="SVGID_2_">
					<use xlink:href="#SVGID_1_"  style="overflow:visible;"/>
				</clipPath>
				<g class="st0">
					<g>
						<line class="st1" x1="-92" y1="-96" x2="-92" y2="96"/>
						<line class="st1" x1="-88" y1="-96" x2="-88" y2="96"/>
						<line class="st1" x1="-84" y1="-96" x2="-84" y2="96"/>
						<line class="st1" x1="-80" y1="-96" x2="-80" y2="96"/>
						<line class="st1" x1="-76" y1="-96" x2="-76" y2="96"/>
						<line class="st1" x1="-72" y1="-96" x2="-72" y2="96"/>
						<line class="st1" x1="-68" y1="-96" x2="-68" y2="96"/>
						<line class="st1" x1="-64" y1="-96" x2="-64" y2="96"/>
						<line class="st1" x1="-60" y1="-96" x2="-60" y2="96"/>
						<line class="st1" x1="-56" y1="-96" x2="-56" y2="96"/>
						<line class="st1" x1="-52" y1="-96" x2="-52" y2="96"/>
						<line class="st1" x1="-48" y1="-96" x2="-48" y2="96"/>
						<line class="st1" x1="-44" y1="-96" x2="-44" y2="96"/>
						<line class="st1" x1="-40" y1="-96" x2="-40" y2="96"/>
						<line class="st1" x1="-36" y1="-96" x2="-36" y2="96"/>
						<line class="st1" x1="-32" y1="-96" x2="-32" y2="96"/>
						<line class="st1" x1="-28" y1="-96" x2="-28" y2="96"/>
						<line class="st1" x1="-24" y1="-96" x2="-24" y2="96"/>
						<line class="st1" x1="-20" y1="-96" x2="-20" y2="96"/>
						<line class="st1" x1="-16" y1="-96" x2="-16" y2="96"/>
						<line class="st1" x1="-12" y1="-96" x2="-12" y2="96"/>
						<line class="st1" x1="-8" y1="-96" x2="-8" y2="96"/>
						<line class="st1" x1="-4" y1="-96" x2="-4" y2="96"/>
						<line class="st1" x1="0" y1="-96" x2="0" y2="96"/>
						<line class="st1" x1="4" y1="-96" x2="4" y2="96"/>
						<line class="st1" x1="8" y1="-96" x2="8" y2="96"/>
						<line class="st1" x1="12" y1="-96" x2="12" y2="96"/>
						<line class="st1" x1="16" y1="-96" x2="16" y2="96"/>
						<line class="st1" x1="20" y1="-96" x2="20" y2="96"/>
						<line class="st1" x1="24" y1="-96" x2="24" y2="96"/>
						<line class="st1" x1="28" y1="-96" x2="28" y2="96"/>
						<line class="st1" x1="32" y1="-96" x2="32" y2="96"/>
						<line class="st1" x1="36" y1="-96" x2="36" y2="96"/>
						<line class="st1" x1="40" y1="-96" x2="40" y2="96"/>
						<line class="st1" x1="44" y1="-96" x2="44" y2="96"/>
						<line class="st1" x1="48" y1="-96" x2="48" y2="96"/>
						<line class="st1" x1="52" y1="-96" x2="52" y2="96"/>
						<line class="st1" x1="56" y1="-96" x2="56" y2="96"/>
						<line class="st1" x1="60" y1="-96" x2="60" y2="96"/>
						<line class="st1" x1="64" y1="-96" x2="64" y2="96"/>
						<line class="st1" x1="68" y1="-96" x2="68" y2="96"/>
						<line class="st1" x1="72" y1="-96" x2="72" y2="96"/>
						<line class="st1" x1="76" y1="-96" x2="76" y2="96"/>
						<line class="st1" x1="80" y1="-96" x2="80" y2="96"/>
						<line class="st1" x1="84" y1="-96" x2="84" y2="96"/>
						<line class="st1" x1="88" y1="-96" x2="88" y2="96"/>
						<line class="st1" x1="92" y1="-96" x2="92" y2="96"/>
					</g>
					<g>
						<line class="st1" x1="-96" y1="92" x2="96" y2="92"/>
						<line class="st1" x1="-96" y1="88" x2="96" y2="88"/>
						<line class="st1" x1="-96" y1="84" x2="96" y2="84"/>
						<line class="st1" x1="-96" y1="80" x2="96" y2="80"/>
						<line class="st1" x1="-96" y1="76" x2="96" y2="76"/>
						<line class="st1" x1="-96" y1="72" x2="96" y2="72"/>
						<line class="st1" x1="-96" y1="68" x2="96" y2="68"/>
						<line class="st1" x1="-96" y1="64" x2="96" y2="64"/>
						<line class="st1" x1="-96" y1="60" x2="96" y2="60"/>
						<line class="st1" x1="-96" y1="56" x2="96" y2="56"/>
						<line class="st1" x1="-96" y1="52" x2="96" y2="52"/>
						<line class="st1" x1="-96" y1="48" x2="96" y2="48"/>
						<line class="st1" x1="-96" y1="44" x2="96" y2="44"/>
						<line class="st1" x1="-96" y1="40" x2="96" y2="40"/>
						<line class="st1" x1="-96" y1="36" x2="96" y2="36"/>
						<line class="st1" x1="-96" y1="32" x2="96" y2="32"/>
						<line class="st1" x1="-96" y1="28" x2="96" y2="28"/>
						<line class="st1" x1="-96" y1="24" x2="96" y2="24"/>
						<line class="st1" x1="-96" y1="20" x2="96" y2="20"/>
						<line class="st1" x1="-96" y1="16" x2="96" y2="16"/>
						<line class="st1" x1="-96" y1="12" x2="96" y2="12"/>
						<line class="st1" x1="-96" y1="8" x2="96" y2="8"/>
						<line class="st1" x1="-96" y1="4" x2="96" y2="4"/>
						<line class="st1" x1="-96" y1="0" x2="96" y2="0"/>
						<line class="st1" x1="-96" y1="-4" x2="96" y2="-4"/>
						<line class="st1" x1="-96" y1="-8" x2="96" y2="-8"/>
						<line class="st1" x1="-96" y1="-12" x2="96" y2="-12"/>
						<line class="st1" x1="-96" y1="-16" x2="96" y2="-16"/>
						<line class="st1" x1="-96" y1="-20" x2="96" y2="-20"/>
						<line class="st1" x1="-96" y1="-24" x2="96" y2="-24"/>
						<line class="st1" x1="-96" y1="-28" x2="96" y2="-28"/>
						<line class="st1" x1="-96" y1="-32" x2="96" y2="-32"/>
						<line class="st1" x1="-96" y1="-36" x2="96" y2="-36"/>
						<line class="st1" x1="-96" y1="-40" x2="96" y2="-40"/>
						<line class="st1" x1="-96" y1="-44" x2="96" y2="-44"/>
						<line class="st1" x1="-96" y1="-48" x2="96" y2="-48"/>
						<line class="st1" x1="-96" y1="-52" x2="96" y2="-52"/>
						<line class="st1" x1="-96" y1="-56" x2="96" y2="-56"/>
						<line class="st1" x1="-96" y1="-60" x2="96" y2="-60"/>
						<line class="st1" x1="-96" y1="-64" x2="96" y2="-64"/>
						<line class="st1" x1="-96" y1="-68" x2="96" y2="-68"/>
						<line class="st1" x1="-96" y1="-72" x2="96" y2="-72"/>
						<line class="st1" x1="-96" y1="-76" x2="96" y2="-76"/>
						<line class="st1" x1="-96" y1="-80" x2="96" y2="-80"/>
						<line class="st1" x1="-96" y1="-84" x2="96" y2="-84"/>
						<line class="st1" x1="-96" y1="-88" x2="96" y2="-88"/>
						<line class="st1" x1="-96" y1="-92" x2="96" y2="-92"/>
					</g>
					<g>
						<path d="M95.8,95.8V-95.8H-95.8V95.8H95.8 M96,96H-96V-96H96V96L96,96z"/>
					</g>
				</g>
			</g>
		</g>
	</g>
</symbol>
<symbol  id="material_x5F_product_x5F_icon_x5F_keylines" viewBox="-96 -96 192 192">
	<g class="st2">
		<g>
			<g>
				<defs>
					<rect id="SVGID_3_" x="-96" y="-96" width="192" height="192"/>
				</defs>
				<clipPath id="SVGID_4_">
					<use xlink:href="#SVGID_3_"  style="overflow:visible;"/>
				</clipPath>
				<g class="st3">
					<line class="st1" x1="-95.8" y1="95.8" x2="95.8" y2="-95.8"/>
					<g>
						<path d="M95.8,95.8V-95.8H-95.8V95.8H95.8 M96,96H-96V-96H96V96L96,96z"/>
					</g>
					<line class="st1" x1="95.8" y1="95.8" x2="-95.8" y2="-95.8"/>
					<line class="st1" x1="28" y1="96" x2="28" y2="-96"/>
					<line class="st1" x1="-28" y1="96" x2="-28" y2="-96"/>
					<line class="st1" x1="96" y1="-28" x2="-96" y2="-28"/>
					<line class="st1" x1="96" y1="28" x2="-96" y2="28"/>
					<circle class="st1" cx="0" cy="0" r="40"/>
					<line class="st1" x1="-96" y1="0" x2="96" y2="0"/>
					<line class="st1" x1="0" y1="96" x2="0" y2="-96"/>
				</g>
			</g>
		</g>
		<g>
			<g>
				<defs>
					<rect id="SVGID_5_" x="-96" y="-96" width="192" height="192"/>
				</defs>
				<clipPath id="SVGID_6_">
					<use xlink:href="#SVGID_5_"  style="overflow:visible;"/>
				</clipPath>
				<g class="st4">
					<g>
						<path d="M0,87.8c48.4,0,87.8-39.4,87.8-87.8S48.4-87.8,0-87.8S-87.8-48.4-87.8,0S-48.4,87.8,0,87.8 M0,88
							c-48.6,0-88-39.4-88-88s39.4-88,88-88S88-48.6,88,0S48.6,88,0,88L0,88z"/>
					</g>
				</g>
			</g>
		</g>
		<g>
			<g>
				<defs>
					<rect id="SVGID_7_" x="-96" y="-96" width="192" height="192"/>
				</defs>
				<clipPath id="SVGID_8_">
					<use xlink:href="#SVGID_7_"  style="overflow:visible;"/>
				</clipPath>
				<g class="st5">
					<g>
						<path d="M64,75.8c6.5,0,11.8-5.3,11.8-11.8V-64c0-6.5-5.3-11.8-11.8-11.8H-64c-6.5,0-11.8,5.3-11.8,11.8V64
							c0,6.5,5.3,11.8,11.8,11.8H64 M64,76H-64c-6.6,0-12-5.4-12-12V-64c0-6.6,5.4-12,12-12H64c6.6,0,12,5.4,12,12V64
							C76,70.6,70.6,76,64,76L64,76z"/>
					</g>
				</g>
			</g>
		</g>
		<g>
			<g>
				<defs>
					<rect id="SVGID_9_" x="-96" y="-96" width="192" height="192"/>
				</defs>
				<clipPath id="SVGID_10_">
					<use xlink:href="#SVGID_9_"  style="overflow:visible;"/>
				</clipPath>
				<g class="st6">
					<g>
						<path d="M52,87.8c6.5,0,11.8-5.3,11.8-11.8V-76c0-6.5-5.3-11.8-11.8-11.8H-52c-6.5,0-11.8,5.3-11.8,11.8V76
							c0,6.5,5.3,11.8,11.8,11.8H52 M52,88H-52c-6.6,0-12-5.4-12-12V-76c0-6.6,5.4-12,12-12H52c6.6,0,12,5.4,12,12V76
							C64,82.6,58.6,88,52,88L52,88z"/>
					</g>
				</g>
			</g>
		</g>
		<g>
			<g>
				<defs>
					<rect id="SVGID_11_" x="-96" y="-96" width="192" height="192"/>
				</defs>
				<clipPath id="SVGID_12_">
					<use xlink:href="#SVGID_11_"  style="overflow:visible;"/>
				</clipPath>
				<g class="st7">
					<g>
						<path d="M76,63.8c6.5,0,11.8-5.3,11.8-11.8V-52c0-6.5-5.3-11.8-11.8-11.8H-76c-6.5,0-11.8,5.3-11.8,11.8V52
							c0,6.5,5.3,11.8,11.8,11.8H76 M76,64H-76c-6.6,0-12-5.4-12-12V-52c0-6.6,5.4-12,12-12H76c6.6,0,12,5.4,12,12V52
							C88,58.6,82.6,64,76,64L76,64z"/>
					</g>
				</g>
			</g>
		</g>
	</g>
</symbol>
<symbol  id="material_x5F_product_x5F_icon_x5F_trim" viewBox="-96 -96 192 192">
	<path class="st8" d="M-96,96V-96H96V96H-96z M92-92H-92V92H92V-92z"/>
</symbol>
<g id="Grid" class="st9">
	<g id="grid" class="st10">
		<g>
			<g>
				<defs>
					<rect id="SVGID_13_" width="400" height="400"/>
				</defs>
				<clipPath id="SVGID_14_">
					<use xlink:href="#SVGID_13_"  style="overflow:visible;"/>
				</clipPath>
				<g class="st11">
					<g>
						<defs>
							<rect id="SVGID_15_" x="0" y="0" width="400" height="400"/>
						</defs>
						<clipPath id="SVGID_16_">
							<use xlink:href="#SVGID_15_"  style="overflow:visible;"/>
						</clipPath>
						<g style="clip-path:url(#SVGID_16_);">
							
								<use xlink:href="#material_x5F_product_x5F_icon_x5F_grid"  width="192" height="192" id="XMLID_1_" x="-96" y="-96" transform="matrix(2.0833 0 0 -2.0833 199.9971 199.9972)" style="overflow:visible;"/>
						</g>
					</g>
				</g>
			</g>
		</g>
	</g>
	<g id="keylines" class="st12">
		<g>
			<g>
				<defs>
					<rect id="SVGID_17_" width="400" height="400"/>
				</defs>
				<clipPath id="SVGID_18_">
					<use xlink:href="#SVGID_17_"  style="overflow:visible;"/>
				</clipPath>
				<g class="st13">
					<g>
						<defs>
							<rect id="SVGID_19_" x="0" y="0" width="400" height="400"/>
						</defs>
						<clipPath id="SVGID_20_">
							<use xlink:href="#SVGID_19_"  style="overflow:visible;"/>
						</clipPath>
						<g style="clip-path:url(#SVGID_20_);">
							
								<use xlink:href="#material_x5F_product_x5F_icon_x5F_keylines"  width="192" height="192" x="-96" y="-96" transform="matrix(2.0833 0 0 -2.0833 199.9971 199.9972)" style="overflow:visible;"/>
						</g>
					</g>
				</g>
			</g>
		</g>
	</g>
	<g id="trim_area" class="st14">
		<g>
			<g>
				<defs>
					<rect id="SVGID_21_" width="400" height="400"/>
				</defs>
				<clipPath id="SVGID_22_">
					<use xlink:href="#SVGID_21_"  style="overflow:visible;"/>
				</clipPath>
				<g class="st15">
					<g>
						<defs>
							<rect id="SVGID_23_" x="0" y="0" width="400" height="400"/>
						</defs>
						<clipPath id="SVGID_24_">
							<use xlink:href="#SVGID_23_"  style="overflow:visible;"/>
						</clipPath>
						<g style="clip-path:url(#SVGID_24_);">
							
								<use xlink:href="#material_x5F_product_x5F_icon_x5F_trim"  width="192" height="192" id="XMLID_2_" x="-96" y="-96" transform="matrix(2.0833 0 0 -2.0833 199.9971 199.9972)" style="overflow:visible;"/>
						</g>
					</g>
				</g>
			</g>
		</g>
	</g>
</g>
<g id="Edit">
	<polygon class="st16" points="-73.2,103.7 -120.1,150.3 -197.6,71.9 -150.7,25.3 	"/>
	<polygon class="st16" points="-220.2,94.4 -142.2,172.4 -362.4,391.4 -439.8,391.4 -439.8,313.1 	"/>
	<line class="st16" x1="-142.2" y1="172.4" x2="-220.2" y2="94.4"/>
	<line class="st16" x1="-120.1" y1="150.3" x2="-197.6" y2="71.9"/>
</g>
<g id="Search">
	<circle class="st17" cx="1035.9" cy="154.2" r="150"/>
	<path class="st18" d="M1177.6,262.5"/>
	<path class="st18" d="M1177.6,262.5"/>
	<polygon points="1179.9,254.9 1134.9,298.2 1215.8,379.2 1260.8,334.2 	"/>
</g>
<g id="Back_and_forward">
	<g id="Back">
		<path class="st17" d="M1489-10.9"/>
		<path class="st17" d="M1247.4,172.4"/>
		<polyline class="st17" points="1489,-10.9 1330.7,172.4 1497.4,355.7 		"/>
	</g>
	<g id="Back_2_">
		<path class="st17" d="M1567.4-8.3"/>
		<path class="st17" d="M1809,175"/>
		<polyline class="st17" points="1559,358.3 1725.7,175 1567.4,-8.3 		"/>
	</g>
</g>
<g id="Home">
	<g id="home_2_">
		<g id="home">
			<polygon class="st19" points="808.8,141.7 808.8,383.3 667.2,383.3 667.2,291.7 583.8,291.7 583.8,383.3 442.2,383.3 
				442.2,141.7 625.5,16.7 			"/>
			<line class="st19" x1="625.5" y1="16.7" x2="442.2" y2="141.7"/>
			<line class="st19" x1="808.8" y1="141.7" x2="625.5" y2="16.7"/>
		</g>
		<g id="home_copy">
			<polygon points="808.8,141.7 808.8,383.3 667.2,383.3 667.2,291.7 583.8,291.7 583.8,383.3 442.2,383.3 442.2,141.7 625.5,16.7 
							"/>
			<line class="st20" x1="625.5" y1="16.7" x2="442.2" y2="141.7"/>
			<line class="st20" x1="808.8" y1="141.7" x2="625.5" y2="16.7"/>
		</g>
	</g>
</g>
<g id="Layer_8" class="st9">
	<g class="st14">
		<rect x="17.6" y="342" class="st21" width="41.5" height="41.5"/>
		<polyline class="st21" points="17.6,342 44.7,312.7 17.6,282.9 59.1,282.9 88,312.7 59.1,342 		"/>
		<polyline class="st21" points="59.1,383.5 88,354.8 88,270 59.1,240.5 59.1,282.9 		"/>
		<polyline class="st21" points="17.6,282.9 17.6,240.5 59.1,240.5 88,211.4 116.4,240.5 88,270 		"/>
		<polyline class="st21" points="88,354.8 116.4,383.5 116.4,342 88,312.7 116.4,282.9 144.4,312.7 116.4,342 157,342 157,383.5 
			116.4,383.5 		"/>
		<polyline class="st21" points="157,342 185.8,312.7 144.4,312.7 		"/>
		<polyline class="st21" points="185.8,354.8 214.6,383.5 214.6,342 185.6,313 227.4,312.7 254.4,342 282.9,312.7 254.4,282.9 
			227.4,312.7 		"/>
		<polyline class="st21" points="214.6,383.5 254.4,383.5 254.4,342 214.6,342 		"/>
		<polygon class="st21" points="185.6,313 185.8,270 214.6,240.5 214.6,282.9 		"/>
		<polyline class="st21" points="282.9,354.8 322.9,354.8 322.9,312.7 282.9,312.7 282.9,354.8 254.4,383.5 295.8,383.5 
			322.9,354.8 		"/>
		<path class="st21" d="M322.9,354.8"/>
		<path class="st21" d="M282.9,312.7"/>
		<path class="st21" d="M270.8,270"/>
		<polyline class="st21" points="282.9,312.7 282.9,270 254.4,240.5 295.8,240.5 322.9,270 282.9,270 		"/>
		<polyline class="st21" points="322.9,354.8 351.6,383.5 351.6,342 322.9,312.7 322.9,270 351.4,240.5 351.6,283.1 391.8,282.9 
			391.8,240.5 351.4,240.5 379,211.4 420.7,211.4 		"/>
		<path class="st21" d="M391.8,282.9"/>
		<polyline class="st21" points="322.9,312.7 351.6,283.1 379,312.7 351.6,342 391.8,342 391.8,383.5 351.6,383.5 		"/>
		<polyline class="st21" points="391.8,342 420.7,312.7 379,312.7 		"/>
		<polyline class="st21" points="391.8,282.9 420.7,312.7 420.7,270 391.8,240.5 420.7,211.4 		"/>
		<path class="st21" d="M407.9,344.2"/>
		<polyline class="st21" points="420.7,354.8 449.7,383.5 449.7,342 420.7,312.7 420.7,354.8 391.8,383.5 		"/>
		<polyline class="st21" points="449.7,342 490,342 462.5,312.7 420.7,312.7 449.7,282.9 490,282.9 462.5,312.7 		"/>
		<polyline class="st21" points="449.7,282.9 449.7,240.5 420.7,270 		"/>
		<polyline class="st21" points="351.4,240.5 322.9,211.4 295.8,240.5 		"/>
		<path class="st21" d="M88,270"/>
		<polyline class="st21" points="116.4,240.5 144.4,211.4 185.8,211.4 157,240.5 185.8,270 157,240.5 157,282.9 157,240.5 
			116.4,240.5 116.4,282.9 157,282.9 185.8,312.7 185.8,354.8 157,383.5 		"/>
		<polygon class="st21" points="44.7,211.4 17.6,181.7 17.6,140.6 44.7,169.3 		"/>
		<polyline class="st21" points="44.7,169.3 88,169.3 88,211.4 88,169.3 59.1,140.6 17.6,140.6 		"/>
		<polyline class="st21" points="88,169.3 116.4,140.6 116.4,181.7 88,211.4 44.7,211.4 17.6,240.5 		"/>
		<polyline class="st21" points="116.4,140.6 157,140.6 157,181.7 		"/>
		<polyline class="st21" points="157,140.6 185.8,169.3 185.8,211.4 157,181.7 116.4,181.7 144.4,211.4 		"/>
		<polyline class="st21" points="254.4,181.7 282.9,211.4 282.9,169.3 254.4,140.6 254.4,181.7 227.4,211.4 227.4,169.3 
			185.8,169.3 214.6,140.6 254.4,140.6 227.4,169.3 		"/>
		<path class="st21" d="M287.6,156.5"/>
		<polyline class="st21" points="282.9,169.3 322.9,169.3 295.8,140.6 254.4,140.6 		"/>
		<polyline class="st21" points="214.6,282.9 254.4,282.9 254.4,240.5 214.6,240.5 185.8,211.4 227.4,211.4 254.4,240.5 
			282.9,211.4 322.9,211.4 322.9,169.3 351.4,140.6 351.4,181.7 		"/>
		<polyline class="st21" points="379,169.3 420.7,169.3 420.7,211.4 		"/>
		<polyline class="st21" points="490,140.6 449.7,140.6 420.7,169.3 462.5,169.3 462.5,211.4 420.7,211.4 449.7,240.5 490,240.5 
			462.5,211.4 490,181.7 490,140.6 462.5,169.3 		"/>
		<polyline class="st21" points="420.7,169.3 391.8,140.6 351.4,140.6 379,169.3 379,211.4 351.4,181.7 322.9,211.4 		"/>
	</g>
</g>
<g id="Layer_8_copy">
	<g>
		<rect x="-909.4" y="362.4" class="st22" width="41.5" height="41.5"/>
		<polyline class="st22" points="-909.4,362.4 -882.3,333.2 -909.4,303.3 -867.9,303.3 -838.9,333.2 -867.9,362.4 		"/>
		<polyline class="st22" points="-867.9,403.9 -838.9,375.2 -838.9,290.4 -867.9,260.9 -867.9,303.3 		"/>
		<polyline class="st22" points="-909.4,303.3 -909.4,260.9 -867.9,260.9 -838.9,231.8 -810.6,260.9 -838.9,290.4 		"/>
		<polyline class="st22" points="-838.9,375.2 -810.6,403.9 -810.6,362.4 -838.9,333.2 -810.6,303.3 -782.6,333.2 -810.6,362.4 
			-770,362.4 -770,403.9 -810.6,403.9 		"/>
		<polyline class="st22" points="-770,362.4 -741.1,333.2 -782.6,333.2 		"/>
		<polyline class="st22" points="-741.1,375.2 -712.3,403.9 -712.3,362.4 -741.1,333.6 -741.4,333.4 -741.1,333.4 -699.6,333.2 
			-672.6,362.4 -644,333.2 		"/>
		<line class="st22" x1="-672.6" y1="303.3" x2="-699.6" y2="333.2"/>
		<polyline class="st22" points="-712.3,403.9 -672.6,403.9 -672.6,362.4 -712.3,362.4 		"/>
		<polyline class="st22" points="-741.1,290.4 -741.4,332.9 -741.4,333.2 -741.4,333.4 -741.2,333.2 -741.1,333.2 -712.3,303.3 		
			"/>
		<polyline class="st22" points="-604,375.2 -604,375.2 -631.2,403.9 -672.6,403.9 -644,375.2 		"/>
		<polyline class="st22" points="-644,333.2 -644,375.2 -604,375.2 -604,375.2 		"/>
		<path class="st22" d="M-604,375.2"/>
		<path class="st22" d="M-644,333.2"/>
		<path class="st22" d="M-656.1,290.4"/>
		<line class="st22" x1="-604" y1="375.2" x2="-604" y2="375.2"/>
		<path class="st22" d="M-535.1,303.3"/>
		<path class="st22" d="M-519,364.6"/>
		<path class="st22" d="M-838.9,290.4"/>
		<polyline class="st22" points="-770,403.9 -741.1,375.2 -741.1,333.6 -741.1,333.4 -741.1,333.2 -741.4,332.9 -770,303.3 		"/>
		<polyline class="st22" points="-810.6,303.3 -770,303.3 -770,260.9 -810.6,260.9 -810.6,303.3 		"/>
		<polyline class="st22" points="-810.6,260.9 -782.6,231.8 -741.1,231.8 -770,260.9 -741.1,290.4 		"/>
		<polygon class="st22" points="-882.3,189.8 -882.3,231.8 -909.4,202.2 -909.4,161.1 		"/>
		<polyline class="st22" points="-882.3,189.8 -839,189.8 -839,231.8 		"/>
		<polyline class="st22" points="-810.6,202.2 -839,231.8 -882.3,231.8 -909.4,260.9 		"/>
		<line class="st22" x1="-782.6" y1="231.8" x2="-810.6" y2="202.2"/>
		<path class="st22" d="M-639.3,177"/>
		<line class="st22" x1="-672.6" y1="303.3" x2="-712.3" y2="303.3"/>
	</g>
</g>
<g id="projects">
	<g id="Layer_11">
	</g>
	<g id="XMLID_3_">
		<g>
			<polygon class="st23" points="349.7,-136.4 322.6,-122.6 322.4,-96 322.4,-285.6 322.6,-259 349.7,-245.2 349.8,-190.8 
				349.8,-190.8 			"/>
			<polygon class="st23" points="139.4,-257.8 139.4,-257.7 139.3,-257.7 139.3,-230.3 139.3,-229.9 77.7,-229.9 77.7,-122.6 
				50.7,-136.4 50.7,-190.8 50.7,-190.8 50.7,-245.2 77.8,-259 78.3,-313.3 132.9,-313.7 145.4,-341 200.1,-341 200.4,-341 
				255,-341 267.5,-313.7 195,-313.7 194.6,-313.5 194.5,-313.3 			"/>
			<polygon class="st23" points="322.4,-87.6 322.2,-68.4 289.2,-68.1 289.2,-87.6 289.5,-87.6 			"/>
			<polygon class="st23" points="267.5,-67.9 255,-40.6 200.4,-40.6 200.1,-40.6 145.4,-40.6 132.9,-67.9 			"/>
		</g>
		<g>
			<polyline class="st24" points="50.7,-190.8 50.7,-245.2 77.8,-259 78.3,-313.3 132.9,-313.7 145.4,-341 200.1,-341 			"/>
			<path class="st25" d="M208.3-362.3h0.7h1.1h57.8l13.6,29.9l59.4,0.5l0.5,59.3l29.5,15.2v59.4c0,0,0,11.4,0,11.9v59.4l-29.5,15.2
				l-0.5,59.3L281.7-52l-13.6,29.9h-59.7c0,0-14,0-14.6,0h-59.7L120.5-52L61-52.5l-0.4-59.3l-29.5-15.2v-59.4v-11.9v-59.4l29.5-15.2
				L61-332l59.4-0.5l13.6-29.9h59.7H208.3z"/>
			<polyline class="st24" points="349.8,-190.8 349.7,-245.2 322.6,-259 322.4,-285.6 322.2,-313.3 267.6,-313.7 267.5,-313.7 
				255,-341 200.4,-341 200.1,-341 			"/>
			<polyline class="st24" points="50.7,-190.8 50.7,-136.4 77.7,-122.6 77.8,-122.6 78.3,-68.4 132.9,-67.9 132.9,-67.9 
				145.4,-40.6 200.1,-40.6 			"/>
			<polyline class="st24" points="349.8,-190.8 349.7,-136.4 322.6,-122.6 322.4,-96 322.4,-87.6 322.2,-68.4 289.2,-68.1 
				267.6,-67.9 267.5,-67.9 255,-40.6 200.4,-40.6 200.1,-40.6 			"/>
			<polygon class="st26" points="139.3,-229.9 210.9,-229.9 214.3,-218.2 219.1,-201.7 222.3,-190.8 289.2,-190.5 289.2,-87.6 
				289.2,-68.1 289.2,-67.9 267.5,-67.9 132.9,-67.9 77.7,-67.9 77.7,-122.6 77.7,-229.9 			"/>
			<polyline class="st26" points="267.6,-313.7 267.5,-313.7 195,-313.7 			"/>
			<polyline class="st26" points="322.4,-306.7 322.4,-285.6 322.4,-96 322.4,-87.6 322.4,-87.6 289.5,-87.6 			"/>
			<polyline class="st26" points="139.3,-257.8 139.3,-257.8 139.3,-257.7 139.3,-230.3 			"/>
			<polygon class="st26" points="194.6,-313.5 194.6,-257.7 139.4,-257.7 139.4,-257.8 194.5,-313.3 			"/>
			<line class="st24" x1="306.3" y1="-279.5" x2="211.3" y2="-279.3"/>
			<line class="st24" x1="306.3" y1="-262.9" x2="211.3" y2="-262.6"/>
			<line class="st24" x1="306.3" y1="-246.1" x2="211.3" y2="-245.9"/>
			<line class="st24" x1="306" y1="-229.3" x2="244.8" y2="-229.1"/>
			<line class="st24" x1="306" y1="-212.6" x2="245" y2="-212.5"/>
		</g>
	</g>
</g>
<g id="calender">
	<path class="st27" d="M607-367.6h0.8l1.2,0l59.3,0l13.9,30.6l60.9,0.5l0.5,60.7l30.2,15.5l0,60.9c0,0,0,11.7,0,12.2l0,60.9
		l-30.2,15.5L743-49.9l-60.9,0.5l-13.9,30.6l-61.2,0c0,0-14.3,0-14.9,0l-61.2,0l-13.9-30.6L456-49.9l-0.5-60.7l-30.2-15.5l0-60.9
		v-12.2l0-60.9l30.2-15.5l0.5-60.7l60.9-0.5l13.9-30.6l61.2,0H607z"/>
	<path class="st28" d="M748.9-251.1v52.4c0,0,0,10,0,10.5v52.4l-26,13.4v-142L748.9-251.1z"/>
	<path class="st28" d="M722.5-70.2l-52.4,0.4l-12,26.3h-52.7c0,0-12.4,0-12.8,0H540l-11.8-25.9l-0.2-0.4l-1.1,0l-18.8-0.2l-1.4,0
		l-31.1-0.2H722.5z"/>
	<polygon class="st28" points="722.5,-316.7 475.6,-316.7 515.7,-317 528,-317.1 532.3,-326.6 540,-343.5 658.1,-343.5 
		670.1,-317.1 	"/>
	<polygon class="st28" points="475.2,-264.5 475.2,-122.4 449.2,-135.8 449.2,-251.1 	"/>
	<rect x="475.2" y="-317" class="st29" width="247.8" height="246.8"/>
	<circle class="st30" cx="530.5" cy="-289.7" r="17.7"/>
	<circle class="st30" cx="668.8" cy="-289.7" r="17.7"/>
	<rect x="475.2" y="-262.4" class="st31" width="248.1" height="10.5"/>
	<rect x="498.5" y="-227.6" class="st28" width="42.2" height="27.6"/>
	<rect x="552" y="-227.6" class="st28" width="42.2" height="27.6"/>
	<rect x="604.8" y="-227.6" class="st28" width="42.2" height="27.6"/>
	<rect x="658.3" y="-227.6" class="st28" width="42.2" height="27.6"/>
	<rect x="498.5" y="-190.1" class="st28" width="42.2" height="27.6"/>
	<rect x="552" y="-190.1" class="st28" width="42.2" height="27.6"/>
	<rect x="604.8" y="-190.1" class="st28" width="42.2" height="27.6"/>
	<rect x="658.3" y="-190.1" class="st28" width="42.2" height="27.6"/>
	<rect x="498.5" y="-151.8" class="st28" width="42.2" height="27.6"/>
	<rect x="552" y="-151.8" class="st28" width="42.2" height="27.6"/>
</g>
<g id="skills">
	<g id="XMLID_4_">
		<g>
			<path class="st23" d="M199.6,85.5c6.1,0,11.1-5,11.1-11.1c0-6.1-5-11.1-11.1-11.1c-6.1,0-11.1,5-11.1,11.1
				C188.5,80.6,193.4,85.5,199.6,85.5L199.6,85.5z M284,115.3c2,1.9,4.7,3.1,7.7,3.1c6.1,0,11.1-5,11.1-11.1c0-6.1-5-11.1-11.1-11.1
				c-6.1,0-11.1,5-11.1,11.1C280.6,110.4,281.9,113.2,284,115.3z M115.1,114.8c1.8-2,2.9-4.6,2.9-7.5c0-6.1-5-11.1-11.1-11.1
				c-6.1,0-11.1,5-11.1,11.1c0,6.1,5,11.1,11.1,11.1C110.1,118.4,113.1,117,115.1,114.8z M85.8,199.5c0-0.1,0-0.3,0-0.4
				c0-6.1-5-11.1-11.1-11.1s-11.1,5-11.1,11.1c0,6.1,5,11.1,11.1,11.1C80.7,210.3,85.6,205.5,85.8,199.5z M314.3,199.5
				c0.2,6,5.1,10.7,11.1,10.7c6.1,0,11.1-5,11.1-11.1c0-6.1-5-11.1-11.1-11.1c-6.1,0-11.1,5-11.1,11.1
				C314.3,199.3,314.3,199.4,314.3,199.5z M349.7,206v52.4l-26,13.4l-0.4,52.3l-51.1,0.4l0-1.3v-35.6V273h-39.3h-65.8h-38.9v14.6
				V323l0,1.5l-51.9-0.4l-0.4-52.3l-26-13.4V143.1l26-13.4l0.4-52.3l52.4-0.4l12-26.3l52.7,0h14.5l51,0l12,26.3l52.4,0.4l0.4,52.3
				l26,13.4v52.4C349.7,195.5,349.7,205.6,349.7,206z M257.9,206.4c0-0.2,0-0.3,0-0.5c-0.3-31.8-26.1-57.4-57.9-57.4
				s-57.7,25.7-58,57.4c0,0.2,0,0.3,0,0.5c0,32,25.9,58,58,58S257.9,238.4,257.9,206.4z"/>
			<path class="st32" d="M314.3,199.5c0-0.1,0-0.3,0-0.4c0-6.1,5-11.1,11.1-11.1c6.1,0,11.1,5,11.1,11.1c0,6.1-5,11.1-11.1,11.1
				C319.4,210.3,314.5,205.5,314.3,199.5z"/>
			<path class="st32" d="M284,115.3c-2.1-2-3.4-4.8-3.4-8c0-6.1,5-11.1,11.1-11.1c6.1,0,11.1,5,11.1,11.1c0,6.1-5,11.1-11.1,11.1
				C288.7,118.4,286,117.2,284,115.3z"/>
			<path class="st32" d="M199.6,85.5L199.6,85.5c-6.2,0-11.1-5-11.1-11.1c0-6.1,5-11.1,11.1-11.1c6.1,0,11.1,5,11.1,11.1
				C210.7,80.6,205.7,85.5,199.6,85.5z"/>
			<path class="st32" d="M115.1,114.8c-2,2.2-5,3.6-8.2,3.6c-6.1,0-11.1-5-11.1-11.1c0-6.1,5-11.1,11.1-11.1c6.1,0,11.1,5,11.1,11.1
				C118,110.2,116.9,112.8,115.1,114.8z"/>
			<path class="st32" d="M85.8,199.5c-0.2,6-5.1,10.7-11.1,10.7c-6.1,0-11.1-5-11.1-11.1c0-6.1,5-11.1,11.1-11.1s11.1,5,11.1,11.1
				C85.8,199.3,85.8,199.4,85.8,199.5z"/>
		</g>
		<g>
			<polyline class="st33" points="128.2,323 128.2,287.6 128.2,273 167.1,273 232.9,273 272.2,273 272.2,287.6 272.2,323.3 			"/>
			<path class="st34" d="M124.9,199.5c2.2-19.6,11.5-37,25.3-49.4c13.2-11.9,30.5-19.2,49.5-19.3c0,0,0.1,0,0.1,0
				c19.1-0.1,36.6,7,50,18.9c14,12.4,23.5,29.9,25.8,49.8"/>
			<line class="st35" x1="68.9" y1="199.5" x2="67.4" y2="199.5"/>
			<polyline class="st35" points="124.9,199.5 86.6,199.5 85.8,199.5 68.9,199.5 			"/>
			<polyline class="st35" points="275.5,199.5 313.5,199.5 314.3,199.5 331.9,199.5 			"/>
			<polyline class="st35" points="108.8,108.4 115.1,114.8 150.2,150.1 			"/>
			<polyline class="st35" points="249.8,149.7 284,115.3 290.8,108.4 			"/>
			<polyline class="st35" points="199.8,130.8 199.6,85.5 199.6,76.4 			"/>
			<path class="st36" d="M344,117.4l-0.5-60.7l-60.8-0.5l-13.9-30.6H131.5l-13.9,30.6l-60.8,0.5l-0.5,60.7l-30.2,15.5v133.9
				l30.2,15.5l0.5,60.7l60.8,0.5l13.9,30.6h61.1c0.6,0,14.9,0,14.9,0h61.1l13.9-30.6l60.8-0.5l0.5-60.7l30.2-15.5V206
				c0-0.6,0-12.2,0-12.2v-60.8L344,117.4z"/>
			<path class="st34" d="M128.2,324.5l-51.9-0.4l-0.4-52.3l-26-13.4V143.1l26-13.4l0.4-52.3l52.4-0.4l12-26.3l52.7,0h14.5l51,0
				l12,26.3l52.4,0.4l0.4,52.3l26,13.4v52.4c0,0,0,10,0,10.5v52.4l-26,13.4l-0.4,52.3l-51.1,0.4l-1.3,0l-12,26.3h-52.7
				c0,0-12.4,0-12.9,0h-52.7l-12-26.3H128.2z"/>
			<path class="st34" d="M85.8,199.1c0,0.1,0,0.3,0,0.4c-0.2,6-5.1,10.7-11.1,10.7c-6.1,0-11.1-5-11.1-11.1c0-6.1,5-11.1,11.1-11.1
				S85.8,193,85.8,199.1z"/>
			<path class="st34" d="M118,107.3c0,2.9-1.1,5.5-2.9,7.5c-2,2.2-5,3.6-8.2,3.6c-6.1,0-11.1-5-11.1-11.1c0-6.1,5-11.1,11.1-11.1
				C113,96.2,118,101.1,118,107.3z"/>
			<path class="st34" d="M210.7,74.4c0,6.1-4.9,11.1-11.1,11.1h0c-6.1,0-11.1-5-11.1-11.1c0-6.1,5-11.1,11.1-11.1
				C205.7,63.3,210.7,68.3,210.7,74.4z"/>
			<path class="st34" d="M257.9,206.4c0,32-25.9,58-57.9,58s-58-25.9-58-58c0-0.2,0-0.3,0-0.5c0.3-31.8,26.1-57.4,58-57.4
				s57.7,25.7,57.9,57.4C257.9,206,257.9,206.2,257.9,206.4z"/>
			<path class="st34" d="M302.8,107.3c0,6.1-5,11.1-11.1,11.1c-3,0-5.7-1.2-7.7-3.1c-2.1-2-3.4-4.8-3.4-8c0-6.1,5-11.1,11.1-11.1
				C297.9,96.2,302.8,101.1,302.8,107.3z"/>
			<path class="st34" d="M336.5,199.1c0,6.1-5,11.1-11.1,11.1c-6,0-10.9-4.8-11.1-10.7c0-0.1,0-0.3,0-0.4c0-6.1,5-11.1,11.1-11.1
				C331.6,188,336.5,193,336.5,199.1z"/>
		</g>
	</g>
</g>
</svg>
