<?xml version="1.0" encoding="utf-8"?>
<!-- Generator: Adobe Illustrator 24.1.0, SVG Export Plug-In . SVG Version: 6.00 Build 0)  -->
<svg version="1.1" id="time_1_" xmlns="http://www.w3.org/2000/svg" xmlns:xlink="http://www.w3.org/1999/xlink" x="0px" y="0px"
	 viewBox="0 0 400 400" style="enable-background:new 0 0 400 400;" xml:space="preserve">
<style type="text/css">
	.st0{fill:#F4F1ED;}
	.st1{fill:#FFFFFF;}
	.st2{fill:none;stroke:#305F89;stroke-width:4;stroke-linecap:round;stroke-linejoin:round;}
	.st3{fill:none;stroke:#698588;stroke-width:4;stroke-linejoin:round;}
	.st4{fill:none;stroke:#EFB63B;stroke-width:3;stroke-miterlimit:10;}
</style>
<g id="XMLID_7_">
	<g>
		<path class="st0" d="M351.8,204.9v53l-26.1,13.5l-0.4,52.9l-52.6,0.4l-12,26.6h-52.9c0,0-5.1,0-8.9,0V312c0.4,0,0.8,0,1.3,0
			C262,312,312,261.9,312,200.2c0-0.6,0-1.2,0-1.8h39.9C351.8,201.3,351.8,204.6,351.8,204.9z"/>
		<path class="st0" d="M351.8,194.3c0,0,0,1.9,0,4.1H312c-0.9-60.9-50.6-110-111.8-110c-0.4,0-0.9,0-1.3,0V47.7h61.8l12,26.7
			l52.6,0.4l0.4,52.9l26.1,13.5V194.3z"/>
		<path class="st1" d="M199.2,198.4H312c0,0.6,0,1.2,0,1.8C312,262,261.9,312,200.2,312c-0.4,0-0.9,0-1.3,0V198.4H199.2z"/>
		<path class="st1" d="M199.2,198.4h-0.3v-110c0.4,0,0.8,0,1.3,0c61.2,0,110.9,49.1,111.8,110H199.2z"/>
		<path class="st0" d="M198.9,312v39.5c-2.1,0-3.8,0-4,0H142l-12-26.6l-52.6-0.4L77,271.6L50.8,258v-59.6h37.5c0,0.6,0,1.2,0,1.8
			C88.3,261.5,137.7,311.3,198.9,312z"/>
		<path class="st1" d="M198.9,198.4V312c-61.2-0.7-110.6-50.5-110.6-111.8c0-0.6,0-1.2,0-1.8H198.9z"/>
		<path class="st1" d="M198.9,88.4v110H88.4C89.3,137.9,138.3,89,198.9,88.4z"/>
		<path class="st0" d="M198.9,47.7v40.6c-60.6,0.7-109.6,49.5-110.5,110H50.8v-57.1l26.1-13.5l0.4-52.9l52.6-0.4l12-26.7
			C141.9,47.7,198.9,47.7,198.9,47.7z"/>
	</g>
	<g>
		<path class="st2" d="M375.7,198.4c0-2.2,0-3.9,0-3.9v-61.1l-30.3-15.6l-0.5-61l-61.1-0.5l-14-30.7h-70.9h-67l-14,30.7l-61.1,0.5
			l-0.5,61L26,133.4v65v69.5l30.3,15.6l0.5,60.9l61.1,0.5l14,30.7h61.4c0.2,0,2.7,0,5.5,0c4.3,0,9.4,0,9.4,0h61.4l14-30.7l61.1-0.5
			l0.5-60.9l30.3-15.6v-61.1C375.7,206.4,375.7,201.8,375.7,198.4z"/>
		<polyline class="st3" points="222.9,147.6 199.2,198.4 199,198.9 219.1,254.4 		"/>
	</g>
</g>
<line class="st4" x1="200.7" y1="99.9" x2="200.7" y2="117.5"/>
<line class="st4" x1="200.7" y1="285.2" x2="200.7" y2="302.8"/>
<line class="st4" x1="100.6" y1="202.9" x2="118.2" y2="202.9"/>
<line class="st4" x1="283.9" y1="202.9" x2="301.5" y2="202.9"/>
</svg>
