<?xml version="1.0" encoding="utf-8"?>
<!-- Generator: Adobe Illustrator 23.1.0, SVG Export Plug-In . SVG Version: 6.00 Build 0)  -->
<svg version="1.1" xmlns="http://www.w3.org/2000/svg" xmlns:xlink="http://www.w3.org/1999/xlink" x="0px" y="0px"
	 viewBox="0 0 400 400" style="enable-background:new 0 0 400 400;" xml:space="preserve">
<style type="text/css">
	.st0{clip-path:url(#SVGID_2_);}
	.st1{fill:none;stroke:#000000;stroke-width:0.25;stroke-miterlimit:10;}
	.st2{opacity:0.4;}
	.st3{clip-path:url(#SVGID_4_);}
	.st4{clip-path:url(#SVGID_6_);}
	.st5{clip-path:url(#SVGID_8_);}
	.st6{clip-path:url(#SVGID_10_);}
	.st7{clip-path:url(#SVGID_12_);}
	.st8{fill:#DB4437;fill-opacity:0.4;}
	.st9{display:none;}
	.st10{display:inline;opacity:0.15;}
	.st11{clip-path:url(#SVGID_14_);}
	.st12{display:inline;opacity:0.3;}
	.st13{clip-path:url(#SVGID_18_);}
	.st14{display:inline;}
	.st15{clip-path:url(#SVGID_22_);}
	.st16{fill:#183042;}
	.st17{fill:none;stroke:#C9A87E;stroke-width:4.0186;stroke-linecap:round;stroke-linejoin:round;}
	.st18{fill:none;stroke:#C9A87E;stroke-width:2;stroke-linecap:round;stroke-linejoin:round;}
	.st19{fill:none;stroke:#C9A87E;stroke-width:4;stroke-linecap:round;stroke-linejoin:round;}
	.st20{fill:none;stroke:#C9A87E;stroke-width:6;stroke-linecap:round;stroke-linejoin:round;}
</style>
<symbol  id="material_x5F_product_x5F_icon_x5F_grid" viewBox="-96 -96 192 192">
	<g>
		<g>
			<g>
				<defs>
					<rect id="SVGID_1_" x="-96" y="-96" width="192" height="192"/>
				</defs>
				<clipPath id="SVGID_2_">
					<use xlink:href="#SVGID_1_"  style="overflow:visible;"/>
				</clipPath>
				<g class="st0">
					<g>
						<line class="st1" x1="-92" y1="-96" x2="-92" y2="96"/>
						<line class="st1" x1="-88" y1="-96" x2="-88" y2="96"/>
						<line class="st1" x1="-84" y1="-96" x2="-84" y2="96"/>
						<line class="st1" x1="-80" y1="-96" x2="-80" y2="96"/>
						<line class="st1" x1="-76" y1="-96" x2="-76" y2="96"/>
						<line class="st1" x1="-72" y1="-96" x2="-72" y2="96"/>
						<line class="st1" x1="-68" y1="-96" x2="-68" y2="96"/>
						<line class="st1" x1="-64" y1="-96" x2="-64" y2="96"/>
						<line class="st1" x1="-60" y1="-96" x2="-60" y2="96"/>
						<line class="st1" x1="-56" y1="-96" x2="-56" y2="96"/>
						<line class="st1" x1="-52" y1="-96" x2="-52" y2="96"/>
						<line class="st1" x1="-48" y1="-96" x2="-48" y2="96"/>
						<line class="st1" x1="-44" y1="-96" x2="-44" y2="96"/>
						<line class="st1" x1="-40" y1="-96" x2="-40" y2="96"/>
						<line class="st1" x1="-36" y1="-96" x2="-36" y2="96"/>
						<line class="st1" x1="-32" y1="-96" x2="-32" y2="96"/>
						<line class="st1" x1="-28" y1="-96" x2="-28" y2="96"/>
						<line class="st1" x1="-24" y1="-96" x2="-24" y2="96"/>
						<line class="st1" x1="-20" y1="-96" x2="-20" y2="96"/>
						<line class="st1" x1="-16" y1="-96" x2="-16" y2="96"/>
						<line class="st1" x1="-12" y1="-96" x2="-12" y2="96"/>
						<line class="st1" x1="-8" y1="-96" x2="-8" y2="96"/>
						<line class="st1" x1="-4" y1="-96" x2="-4" y2="96"/>
						<line class="st1" x1="0" y1="-96" x2="0" y2="96"/>
						<line class="st1" x1="4" y1="-96" x2="4" y2="96"/>
						<line class="st1" x1="8" y1="-96" x2="8" y2="96"/>
						<line class="st1" x1="12" y1="-96" x2="12" y2="96"/>
						<line class="st1" x1="16" y1="-96" x2="16" y2="96"/>
						<line class="st1" x1="20" y1="-96" x2="20" y2="96"/>
						<line class="st1" x1="24" y1="-96" x2="24" y2="96"/>
						<line class="st1" x1="28" y1="-96" x2="28" y2="96"/>
						<line class="st1" x1="32" y1="-96" x2="32" y2="96"/>
						<line class="st1" x1="36" y1="-96" x2="36" y2="96"/>
						<line class="st1" x1="40" y1="-96" x2="40" y2="96"/>
						<line class="st1" x1="44" y1="-96" x2="44" y2="96"/>
						<line class="st1" x1="48" y1="-96" x2="48" y2="96"/>
						<line class="st1" x1="52" y1="-96" x2="52" y2="96"/>
						<line class="st1" x1="56" y1="-96" x2="56" y2="96"/>
						<line class="st1" x1="60" y1="-96" x2="60" y2="96"/>
						<line class="st1" x1="64" y1="-96" x2="64" y2="96"/>
						<line class="st1" x1="68" y1="-96" x2="68" y2="96"/>
						<line class="st1" x1="72" y1="-96" x2="72" y2="96"/>
						<line class="st1" x1="76" y1="-96" x2="76" y2="96"/>
						<line class="st1" x1="80" y1="-96" x2="80" y2="96"/>
						<line class="st1" x1="84" y1="-96" x2="84" y2="96"/>
						<line class="st1" x1="88" y1="-96" x2="88" y2="96"/>
						<line class="st1" x1="92" y1="-96" x2="92" y2="96"/>
					</g>
					<g>
						<line class="st1" x1="-96" y1="92" x2="96" y2="92"/>
						<line class="st1" x1="-96" y1="88" x2="96" y2="88"/>
						<line class="st1" x1="-96" y1="84" x2="96" y2="84"/>
						<line class="st1" x1="-96" y1="80" x2="96" y2="80"/>
						<line class="st1" x1="-96" y1="76" x2="96" y2="76"/>
						<line class="st1" x1="-96" y1="72" x2="96" y2="72"/>
						<line class="st1" x1="-96" y1="68" x2="96" y2="68"/>
						<line class="st1" x1="-96" y1="64" x2="96" y2="64"/>
						<line class="st1" x1="-96" y1="60" x2="96" y2="60"/>
						<line class="st1" x1="-96" y1="56" x2="96" y2="56"/>
						<line class="st1" x1="-96" y1="52" x2="96" y2="52"/>
						<line class="st1" x1="-96" y1="48" x2="96" y2="48"/>
						<line class="st1" x1="-96" y1="44" x2="96" y2="44"/>
						<line class="st1" x1="-96" y1="40" x2="96" y2="40"/>
						<line class="st1" x1="-96" y1="36" x2="96" y2="36"/>
						<line class="st1" x1="-96" y1="32" x2="96" y2="32"/>
						<line class="st1" x1="-96" y1="28" x2="96" y2="28"/>
						<line class="st1" x1="-96" y1="24" x2="96" y2="24"/>
						<line class="st1" x1="-96" y1="20" x2="96" y2="20"/>
						<line class="st1" x1="-96" y1="16" x2="96" y2="16"/>
						<line class="st1" x1="-96" y1="12" x2="96" y2="12"/>
						<line class="st1" x1="-96" y1="8" x2="96" y2="8"/>
						<line class="st1" x1="-96" y1="4" x2="96" y2="4"/>
						<line class="st1" x1="-96" y1="0" x2="96" y2="0"/>
						<line class="st1" x1="-96" y1="-4" x2="96" y2="-4"/>
						<line class="st1" x1="-96" y1="-8" x2="96" y2="-8"/>
						<line class="st1" x1="-96" y1="-12" x2="96" y2="-12"/>
						<line class="st1" x1="-96" y1="-16" x2="96" y2="-16"/>
						<line class="st1" x1="-96" y1="-20" x2="96" y2="-20"/>
						<line class="st1" x1="-96" y1="-24" x2="96" y2="-24"/>
						<line class="st1" x1="-96" y1="-28" x2="96" y2="-28"/>
						<line class="st1" x1="-96" y1="-32" x2="96" y2="-32"/>
						<line class="st1" x1="-96" y1="-36" x2="96" y2="-36"/>
						<line class="st1" x1="-96" y1="-40" x2="96" y2="-40"/>
						<line class="st1" x1="-96" y1="-44" x2="96" y2="-44"/>
						<line class="st1" x1="-96" y1="-48" x2="96" y2="-48"/>
						<line class="st1" x1="-96" y1="-52" x2="96" y2="-52"/>
						<line class="st1" x1="-96" y1="-56" x2="96" y2="-56"/>
						<line class="st1" x1="-96" y1="-60" x2="96" y2="-60"/>
						<line class="st1" x1="-96" y1="-64" x2="96" y2="-64"/>
						<line class="st1" x1="-96" y1="-68" x2="96" y2="-68"/>
						<line class="st1" x1="-96" y1="-72" x2="96" y2="-72"/>
						<line class="st1" x1="-96" y1="-76" x2="96" y2="-76"/>
						<line class="st1" x1="-96" y1="-80" x2="96" y2="-80"/>
						<line class="st1" x1="-96" y1="-84" x2="96" y2="-84"/>
						<line class="st1" x1="-96" y1="-88" x2="96" y2="-88"/>
						<line class="st1" x1="-96" y1="-92" x2="96" y2="-92"/>
					</g>
					<g>
						<path d="M95.8,95.8V-95.8H-95.8V95.8H95.8 M96,96H-96V-96H96V96L96,96z"/>
					</g>
				</g>
			</g>
		</g>
	</g>
</symbol>
<symbol  id="material_x5F_product_x5F_icon_x5F_keylines" viewBox="-96 -96 192 192">
	<g class="st2">
		<g>
			<g>
				<defs>
					<rect id="SVGID_3_" x="-96" y="-96" width="192" height="192"/>
				</defs>
				<clipPath id="SVGID_4_">
					<use xlink:href="#SVGID_3_"  style="overflow:visible;"/>
				</clipPath>
				<g class="st3">
					<line class="st1" x1="-95.8" y1="95.8" x2="95.8" y2="-95.8"/>
					<g>
						<path d="M95.8,95.8V-95.8H-95.8V95.8H95.8 M96,96H-96V-96H96V96L96,96z"/>
					</g>
					<line class="st1" x1="95.8" y1="95.8" x2="-95.8" y2="-95.8"/>
					<line class="st1" x1="28" y1="96" x2="28" y2="-96"/>
					<line class="st1" x1="-28" y1="96" x2="-28" y2="-96"/>
					<line class="st1" x1="96" y1="-28" x2="-96" y2="-28"/>
					<line class="st1" x1="96" y1="28" x2="-96" y2="28"/>
					<circle class="st1" cx="0" cy="0" r="40"/>
					<line class="st1" x1="-96" y1="0" x2="96" y2="0"/>
					<line class="st1" x1="0" y1="96" x2="0" y2="-96"/>
				</g>
			</g>
		</g>
		<g>
			<g>
				<defs>
					<rect id="SVGID_5_" x="-96" y="-96" width="192" height="192"/>
				</defs>
				<clipPath id="SVGID_6_">
					<use xlink:href="#SVGID_5_"  style="overflow:visible;"/>
				</clipPath>
				<g class="st4">
					<g>
						<path d="M0,87.8c48.4,0,87.8-39.4,87.8-87.8S48.4-87.8,0-87.8S-87.8-48.4-87.8,0S-48.4,87.8,0,87.8 M0,88
							c-48.6,0-88-39.4-88-88s39.4-88,88-88S88-48.6,88,0S48.6,88,0,88L0,88z"/>
					</g>
				</g>
			</g>
		</g>
		<g>
			<g>
				<defs>
					<rect id="SVGID_7_" x="-96" y="-96" width="192" height="192"/>
				</defs>
				<clipPath id="SVGID_8_">
					<use xlink:href="#SVGID_7_"  style="overflow:visible;"/>
				</clipPath>
				<g class="st5">
					<g>
						<path d="M64,75.8c6.5,0,11.8-5.3,11.8-11.8V-64c0-6.5-5.3-11.8-11.8-11.8H-64c-6.5,0-11.8,5.3-11.8,11.8V64
							c0,6.5,5.3,11.8,11.8,11.8H64 M64,76H-64c-6.6,0-12-5.4-12-12V-64c0-6.6,5.4-12,12-12H64c6.6,0,12,5.4,12,12V64
							C76,70.6,70.6,76,64,76L64,76z"/>
					</g>
				</g>
			</g>
		</g>
		<g>
			<g>
				<defs>
					<rect id="SVGID_9_" x="-96" y="-96" width="192" height="192"/>
				</defs>
				<clipPath id="SVGID_10_">
					<use xlink:href="#SVGID_9_"  style="overflow:visible;"/>
				</clipPath>
				<g class="st6">
					<g>
						<path d="M52,87.8c6.5,0,11.8-5.3,11.8-11.8V-76c0-6.5-5.3-11.8-11.8-11.8H-52c-6.5,0-11.8,5.3-11.8,11.8V76
							c0,6.5,5.3,11.8,11.8,11.8H52 M52,88H-52c-6.6,0-12-5.4-12-12V-76c0-6.6,5.4-12,12-12H52c6.6,0,12,5.4,12,12V76
							C64,82.6,58.6,88,52,88L52,88z"/>
					</g>
				</g>
			</g>
		</g>
		<g>
			<g>
				<defs>
					<rect id="SVGID_11_" x="-96" y="-96" width="192" height="192"/>
				</defs>
				<clipPath id="SVGID_12_">
					<use xlink:href="#SVGID_11_"  style="overflow:visible;"/>
				</clipPath>
				<g class="st7">
					<g>
						<path d="M76,63.8c6.5,0,11.8-5.3,11.8-11.8V-52c0-6.5-5.3-11.8-11.8-11.8H-76c-6.5,0-11.8,5.3-11.8,11.8V52
							c0,6.5,5.3,11.8,11.8,11.8H76 M76,64H-76c-6.6,0-12-5.4-12-12V-52c0-6.6,5.4-12,12-12H76c6.6,0,12,5.4,12,12V52
							C88,58.6,82.6,64,76,64L76,64z"/>
					</g>
				</g>
			</g>
		</g>
	</g>
</symbol>
<symbol  id="material_x5F_product_x5F_icon_x5F_trim" viewBox="-96 -96 192 192">
	<path class="st8" d="M-96,96V-96H96V96H-96z M92-92H-92V92H92V-92z"/>
</symbol>
<g id="Grid" class="st9">
	<g id="grid" class="st10">
		<g>
			<g>
				<defs>
					<rect id="SVGID_13_" width="400" height="400"/>
				</defs>
				<clipPath id="SVGID_14_">
					<use xlink:href="#SVGID_13_"  style="overflow:visible;"/>
				</clipPath>
				<g class="st11">
					<g>
						<defs>
							<rect id="SVGID_15_" x="0" y="0" width="400" height="400"/>
						</defs>
						<clipPath id="SVGID_16_">
							<use xlink:href="#SVGID_15_"  style="overflow:visible;"/>
						</clipPath>
						<g style="clip-path:url(#SVGID_16_);">
							
								<use xlink:href="#material_x5F_product_x5F_icon_x5F_grid"  width="192" height="192" id="XMLID_1_" x="-96" y="-96" transform="matrix(2.0833 0 0 -2.0833 199.9971 199.9972)" style="overflow:visible;"/>
						</g>
					</g>
				</g>
			</g>
		</g>
	</g>
	<g id="keylines" class="st12">
		<g>
			<g>
				<defs>
					<rect id="SVGID_17_" width="400" height="400"/>
				</defs>
				<clipPath id="SVGID_18_">
					<use xlink:href="#SVGID_17_"  style="overflow:visible;"/>
				</clipPath>
				<g class="st13">
					<g>
						<defs>
							<rect id="SVGID_19_" x="0" y="0" width="400" height="400"/>
						</defs>
						<clipPath id="SVGID_20_">
							<use xlink:href="#SVGID_19_"  style="overflow:visible;"/>
						</clipPath>
						<g style="clip-path:url(#SVGID_20_);">
							
								<use xlink:href="#material_x5F_product_x5F_icon_x5F_keylines"  width="192" height="192" x="-96" y="-96" transform="matrix(2.0833 0 0 -2.0833 199.9971 199.9972)" style="overflow:visible;"/>
						</g>
					</g>
				</g>
			</g>
		</g>
	</g>
	<g id="trim_area" class="st14">
		<g>
			<g>
				<defs>
					<rect id="SVGID_21_" width="400" height="400"/>
				</defs>
				<clipPath id="SVGID_22_">
					<use xlink:href="#SVGID_21_"  style="overflow:visible;"/>
				</clipPath>
				<g class="st15">
					<g>
						<defs>
							<rect id="SVGID_23_" x="0" y="0" width="400" height="400"/>
						</defs>
						<clipPath id="SVGID_24_">
							<use xlink:href="#SVGID_23_"  style="overflow:visible;"/>
						</clipPath>
						<g style="clip-path:url(#SVGID_24_);">
							
								<use xlink:href="#material_x5F_product_x5F_icon_x5F_trim"  width="192" height="192" id="XMLID_2_" x="-96" y="-96" transform="matrix(2.0833 0 0 -2.0833 199.9971 199.9972)" style="overflow:visible;"/>
						</g>
					</g>
				</g>
			</g>
		</g>
	</g>
</g>
<g id="time_1_">
	<g id="XMLID_7_">
		<g>
			<path class="st16" d="M354.7,205.9v53l-26.1,13.5l-0.4,52.9l-52.6,0.4l-12.1,26.6h-52.9c0,0-12.4,0-12.9,0h-52.9l-12.1-26.6
				l-52.6-0.4l-0.4-52.9L53.6,259V142.3l26.1-13.5l0.4-52.9l52.6-0.4l12.1-26.7h118.7l12.1,26.7l52.6,0.4l0.4,52.9l26.1,13.5v53
				C354.7,195.3,354.7,205.5,354.7,205.9z M314.8,201.2c0-61.8-50.1-111.8-111.8-111.8S91.2,139.4,91.2,201.2
				C91.2,263,141.2,313,203,313S314.8,263,314.8,201.2z"/>
		</g>
		<g>
			<path class="st17" d="M348.2,118.8l-0.5-61l-61.1-0.5l-14-30.7H134.7l-14,30.7l-61.1,0.5l-0.5,61l-30.3,15.6v134.5l30.3,15.6
				l0.5,60.9l61.1,0.5l14,30.7h61.4c0.6,0,15,0,15,0h61.4l14-30.7l61.1-0.5l0.5-60.9l30.3-15.6v-61.1c0-0.6,0-12.3,0-12.3v-61.1
				L348.2,118.8z"/>
			<path class="st18" d="M328.5,128.7l-0.4-52.9l-52.6-0.4l-12.1-26.7H144.8l-12.1,26.7l-52.6,0.4l-0.4,52.9l-26.1,13.5V259
				l26.1,13.5l0.4,52.9l52.6,0.4l12.1,26.6h52.9c0.5,0,12.9,0,12.9,0h52.9l12.1-26.6l52.6-0.4l0.4-52.9l26.1-13.5v-53
				c0-0.5,0-10.7,0-10.7v-53L328.5,128.7z"/>
			<path class="st19" d="M314.8,201.2C314.8,263,264.8,313,203,313S91.2,263,91.2,201.2c0-61.8,50.1-111.8,111.8-111.8
				S314.8,139.4,314.8,201.2z"/>
			<polyline class="st20" points="204.3,126 204.4,200.8 246.1,242.5 			"/>
		</g>
	</g>
</g>
</svg>
