<?xml version="1.0" encoding="utf-8"?>
<!-- Generator: Adobe Illustrator 24.1.0, SVG Export Plug-In . SVG Version: 6.00 Build 0)  -->
<svg version="1.1" id="Capa_1" xmlns="http://www.w3.org/2000/svg" xmlns:xlink="http://www.w3.org/1999/xlink" x="0px" y="0px"
	 viewBox="0 0 512 512" style="enable-background:new 0 0 512 512;" xml:space="preserve">
<style type="text/css">
	.st0{fill:#1F404F;}
	.st1{fill:#FFFFFF;}
</style>
<circle class="st0" cx="256.5" cy="256.5" r="252.5"/>
<g>
	<g>
		<path class="st1" d="M408.4,162.3c-11.3,5-23.3,8.2-35.9,9.8c12.9-7.7,22.8-19.8,27.4-34.4c-12,7.2-25.3,12.2-39.5,15.1
			c-11.4-12.2-27.7-19.7-45.5-19.7c-34.5,0-62.3,28-62.3,62.3c0,4.9,0.4,9.7,1.4,14.2c-51.8-2.5-97.6-27.3-128.4-65.2
			c-5.4,9.3-8.5,20-8.5,31.5c0,21.6,11.1,40.7,27.7,51.8c-10-0.2-19.8-3.1-28.1-7.7c0,0.2,0,0.4,0,0.7c0,30.3,21.6,55.4,49.9,61.2
			c-5.1,1.4-10.6,2.1-16.3,2.1c-4,0-8-0.2-11.8-1.1c8.1,24.7,31,42.8,58.2,43.4c-21.2,16.6-48.1,26.6-77.2,26.6
			c-5.1,0-10-0.2-14.9-0.9c27.6,17.8,60.3,28,95.6,28c114.6,0,177.3-95,177.3-177.3c0-2.8-0.1-5.4-0.2-8.1
			C389.6,185.9,400,174.9,408.4,162.3z"/>
	</g>
</g>
</svg>
