<?xml version="1.0" encoding="utf-8"?>
<!-- Generator: Adobe Illustrator 24.1.0, SVG Export Plug-In . SVG Version: 6.00 Build 0)  -->
<svg version="1.1" id="Layer_1" xmlns="http://www.w3.org/2000/svg" xmlns:xlink="http://www.w3.org/1999/xlink" x="0px" y="0px"
	 viewBox="0 0 1435.2 354.5" style="enable-background:new 0 0 1435.2 354.5;" xml:space="preserve">
<style type="text/css">
	.st0{fill:none;stroke:#305F89;stroke-width:2;stroke-miterlimit:10;}
	.st1{fill:#F4F1ED;}
	.st2{fill:none;stroke:#305F89;stroke-width:2.5;stroke-linecap:round;stroke-linejoin:round;}
	.st3{fill:none;stroke:#305F89;stroke-width:2;stroke-linecap:round;stroke-linejoin:round;}
	.st4{fill:none;stroke:#698588;stroke-width:3.0904;stroke-miterlimit:10;}
	.st5{fill:none;stroke:#305F89;stroke-width:2.0749;stroke-miterlimit:10;}
	.st6{fill:none;stroke:#698588;stroke-width:2;stroke-linecap:round;stroke-linejoin:round;stroke-miterlimit:10;}
	.st7{fill:none;stroke:#EFB63B;stroke-width:2;stroke-linecap:round;stroke-miterlimit:10;}
	.st8{display:none;}
	
		.st9{display:inline;fill:none;stroke:#C9A87E;stroke-width:1.0743;stroke-linecap:round;stroke-linejoin:round;stroke-miterlimit:10;}
	.st10{display:inline;fill:none;stroke:#C9A87E;stroke-width:1.3653;stroke-miterlimit:10;}
	.st11{display:inline;fill:#C9A87E;}
	
		.st12{display:inline;fill:none;stroke:#C9A87E;stroke-width:1.5;stroke-linecap:round;stroke-linejoin:round;stroke-miterlimit:10;}
	.st13{display:inline;}
	.st14{fill:none;stroke:#C9A87E;stroke-width:1.5;stroke-linecap:round;stroke-linejoin:round;stroke-miterlimit:10;}
	.st15{fill:none;stroke:#698588;stroke-width:2;stroke-miterlimit:10;}
	.st16{fill:#EFB63B;stroke:#698588;stroke-width:2;stroke-miterlimit:10;}
	.st17{fill:#EFB63B;stroke:#305F89;stroke-width:2.2341;stroke-miterlimit:10;}
	.st18{fill:none;stroke:#698588;stroke-width:2.5;stroke-linecap:round;stroke-linejoin:round;}
	.st19{fill:#EFB63B;stroke:#698588;stroke-width:2.5;stroke-linecap:round;stroke-linejoin:round;}
	.st20{fill:#FFFFFF;stroke:#698588;stroke-width:2.5;stroke-linecap:round;stroke-linejoin:round;}
	.st21{display:none;fill:none;stroke:#305F89;stroke-width:2.5;stroke-linecap:round;stroke-linejoin:round;}
	.st22{fill:#EFB63B;stroke:#305F89;stroke-width:1.5452;stroke-miterlimit:10;}
	.st23{fill:#EFB63B;stroke:#305F89;stroke-width:1.5;stroke-miterlimit:10;}
	.st24{fill:#303030;}
</style>
<polygon class="st0" points="977.6,264.8 942.5,264.8 917.9,289.6 917.9,324.7 942.5,349.4 977.6,349.4 1002.4,324.7 1002.4,289.6 
	"/>
<polygon class="st1" points="974.2,273.7 946.8,273.7 927.4,293.1 927.4,320.6 946.8,340.1 974.2,340.1 993.6,320.6 993.6,293.1 "/>
<polygon class="st0" points="1050.1,160.7 1013.3,160.7 987.3,186.7 987.3,223.5 1013.3,249.5 1050.1,249.5 1076.1,223.5 
	1076.1,186.7 "/>
<path class="st2" d="M694.2,200.7v-29.9v-10.9l18.5-9.5l0.3-37.3l37.3-0.3l0.1-0.4l8.4-18.4h84.4l8.6,18.8l37.3,0.3l0.3,37.2
	l18.5,9.5v82.3l-18.5,9.5l-0.3,37.2l-37.3,0.3l-8.6,18.8h-37.5c-0.3,0-9.1,0-9.1,0h-37.5l-8.6-18.8l-37.3-0.3l-0.3-37.2l-18.5-9.5
	v-10v-29"/>
<path class="st1" d="M711.5,200.7v-25v-9.1l15.5-8l0.3-31.3l31.4-0.3l0.1-0.4l7.1-15.4h70.7l7.2,15.8l31.4,0.3l0.3,31.3l15.5,8v69
	l-15.5,8l-0.3,31.3l-31.4,0.3l-7.2,15.8H805c-0.3,0-7.6,0-7.6,0h-31.5l-7.2-15.8l-31.4-0.3l-0.1-31.3l-15.5-8v-8.5v-24.2"/>
<polyline class="st0" points="873.8,71.3 845.7,91.1 842.2,93.6 837.8,96.8 "/>
<line class="st3" x1="690.7" y1="202.5" x2="92" y2="202.5"/>
<polygon class="st0" points="920.8,3.8 887.2,3.8 863.4,27.6 863.4,61.2 887.2,85.2 920.8,85.2 944.6,61.2 944.6,27.6 "/>
<polygon class="st1" points="917.2,12.8 890.8,12.8 872.2,31.3 872.2,57.6 890.8,76.3 917.2,76.3 935.7,57.6 935.7,31.3 "/>
<polygon class="st1" points="1045.7,170.4 1016.7,170.4 996,191 996,220 1016.7,240.8 1045.7,240.8 1066.3,220 1066.3,191 "/>
<path class="st4" d="M906.7,159"/>
<polyline class="st0" points="906.7,159 990.5,159 1002.5,171.1 "/>
<polyline class="st5" points="888.1,269.7 904.1,289.2 917.9,289.2 "/>
<circle class="st6" cx="959.7" cy="307" r="24.9"/>
<polyline class="st7" points="972.1,320.7 959.8,308 959.7,293.5 "/>
<g class="st8">
	<path class="st9" d="M794.4,178.6c5.5,8,8.7,17.6,8.7,28c0,27.2-22.1,49.3-49.3,49.3s-49.3-22.1-49.3-49.3s22.1-49.3,49.3-49.3
		c11,0,21.1,3.6,29.3,9.7"/>
	<path class="st9" d="M791.4,206.7c0,20.7-16.8,37.5-37.5,37.5s-37.5-16.8-37.5-37.5s16.8-37.5,37.5-37.5c10.5,0,20.1,4.4,26.9,11.4
		C787.3,187.3,791.4,196.5,791.4,206.7z"/>
	<circle class="st9" cx="753.9" cy="206.7" r="26.4"/>
	<circle class="st10" cx="753.9" cy="206.7" r="15.8"/>
	<circle class="st11" cx="753.9" cy="206.7" r="6.9"/>
	<polyline class="st12" points="798.2,163.2 789,171.9 782.6,178 780.5,180 754.5,204.9 	"/>
	<polyline class="st12" points="782.8,166.6 782.9,166.6 790.1,159.6 790.7,159 798.4,151.6 	"/>
	<line class="st12" x1="782.8" y1="166.6" x2="782.6" y2="178"/>
	<line class="st12" x1="790.5" y1="170.4" x2="790.7" y2="159"/>
	<line class="st12" x1="798.2" y1="163" x2="798.4" y2="151.6"/>
	<g class="st13">
		<polyline class="st14" points="794.1,178.2 801.4,171.2 809.7,163.2 		"/>
		<line class="st14" x1="794.1" y1="178.2" x2="782.8" y2="178"/>
		<line class="st14" x1="802" y1="170.6" x2="790.6" y2="170.4"/>
		<line class="st14" x1="809.7" y1="163.2" x2="798.3" y2="163"/>
	</g>
</g>
<g>
	<path class="st6" d="M1023,216.8c-1.1-0.6-2.1-1.4-3-2.2c-3.3-3-5.4-7.5-5.4-12.3c0-9.3,7.6-16.6,16.7-16.5
		c9.3,0,16.6,7.6,16.5,16.7c0,5.9-3.3,11.2-8,14.1"/>
	<polyline class="st6" points="1039.9,216.4 1039.9,224.2 1039.9,226.5 1036.2,226.5 1026.5,226.5 1023.2,226.5 1023.2,224.2 
		1023.2,216.8 	"/>
	<path class="st6" d="M1037.4,230c0,3.3-2.6,6.1-6.1,6.1c-3.3,0-6.1-2.6-6.1-6.1v-0.1L1037.4,230L1037.4,230z"/>
	<line class="st6" x1="1031.2" y1="175.6" x2="1031.2" y2="182.7"/>
	<line class="st6" x1="1050.8" y1="197.9" x2="1057.7" y2="197.9"/>
	<line class="st6" x1="1005.3" y1="197.9" x2="1012.2" y2="197.9"/>
	<line class="st6" x1="1012" y1="182" x2="1016.5" y2="187.1"/>
	<line class="st6" x1="1049.4" y1="182" x2="1044.7" y2="187.1"/>
</g>
<circle class="st15" cx="901.4" cy="42.3" r="20.6"/>
<polyline class="st15" points="917.3,55.4 925.5,65.2 920.5,69.4 912.4,59.7 "/>
<polyline class="st15" points="928.4,25.8 919.3,34.9 912.2,42 907.1,47.1 897.6,37.6 877.9,56.9 "/>
<circle class="st16" cx="898" cy="38" r="3.2"/>
<circle class="st16" cx="907" cy="46.8" r="3.2"/>
<polygon class="st16" points="929.2,25.1 927.6,31.6 922.9,26.9 "/>
<circle class="st17" cx="83.3" cy="200.1" r="13.8"/>
<g>
	<path class="st18" d="M772.4,201.2c-15.4,0-27.8-9.7-27.8-21.7c0-8.9,6.9-16.6,16.7-19.9"/>
	<path class="st18" d="M828.1,201.2L828.1,201.2h-23.5"/>
	<line class="st18" x1="786.3" y1="201.2" x2="772.2" y2="201.2"/>
	<line class="st18" x1="815.1" y1="157.9" x2="779.6" y2="157.9"/>
	<polyline class="st18" points="833.4,157.9 847.5,157.9 856.3,157.9 	"/>
	<path class="st18" d="M827.3,201.2c15.4,0,27.8,9.7,27.8,21.7c0,11.5-11.5,20.9-26.1,21.6"/>
	<polyline class="st18" points="810.8,244.5 765.7,244.5 747.5,244.5 	"/>
	<circle class="st19" cx="755.1" cy="244.5" r="9.1"/>
	<circle class="st20" cx="820" cy="244.5" r="9.1"/>
	<circle class="st20" cx="795.5" cy="201.8" r="9.1"/>
	<circle class="st20" cx="770.3" cy="157.8" r="9.1"/>
	<circle class="st20" cx="824.2" cy="157.8" r="9.1"/>
	<polygon class="st19" points="861.5,157.9 847.5,165.9 847.5,149.9 	"/>
	<rect x="727.3" y="138.1" class="st21" width="145.2" height="125.7"/>
</g>
<circle class="st22" cx="841.8" cy="94.1" r="4.8"/>
<circle class="st22" cx="906.7" cy="159.4" r="4.8"/>
<circle class="st23" cx="889.4" cy="270.2" r="4.8"/>
<path class="st22" d="M686.7,201.3c0,0.3,0,0.6,0,0.8c0.4,2.8,2.5,4.8,5.3,5.3c0.3,0,0.6,0.1,1,0.1c3.5,0,6.2-2.8,6.2-6.2
	c0-3.5-2.8-6.2-6.2-6.2c-0.3,0-0.6,0-1,0.1C689.1,195.7,686.7,198.2,686.7,201.3z"/>
<line class="st6" x1="1023.2" y1="222" x2="1039.6" y2="222"/>
<polyline class="st7" points="1031.5,216.1 1031.5,208.3 1024.7,200 "/>
<polyline class="st7" points="1038.4,200 1031.6,208.3 1031.6,216.1 "/>
<line class="st6" x1="1023.4" y1="217" x2="1039.9" y2="217"/>
<g>
	<path class="st24" d="M108,244.1v-12.5h1.4v12.5H108z"/>
	<path class="st24" d="M122.5,237.8v4.6c0,0.4,0.4,0.7,1,0.8l-0.1,1.1c-0.9,0-1.7-0.2-2.1-0.7c-1.1,0.5-2.2,0.7-3.2,0.7
		c-0.8,0-1.5-0.2-1.9-0.7s-0.6-1.1-0.6-2s0.2-1.5,0.7-1.9c0.4-0.4,1.1-0.7,2.1-0.8l2.8-0.3v-0.8c0-0.6-0.1-1-0.4-1.3
		s-0.6-0.4-1.1-0.4c-1,0-2,0.1-3,0.2l-0.6,0.1l-0.1-1c1.3-0.3,2.5-0.4,3.5-0.4s1.8,0.2,2.2,0.7C122.3,236.1,122.5,236.8,122.5,237.8
		z M117,241.5c0,1.1,0.5,1.7,1.4,1.7c0.8,0,1.6-0.1,2.4-0.4l0.4-0.1v-3l-2.7,0.3c-0.5,0-0.9,0.2-1.2,0.5S117,240.9,117,241.5z"/>
	<path class="st24" d="M126.5,244.1h-1.4v-9h1.3v0.6c0.9-0.5,1.8-0.8,2.6-0.8c1.1,0,1.9,0.3,2.3,0.9c0.4-0.2,0.9-0.5,1.5-0.6
		c0.6-0.2,1.2-0.3,1.7-0.3c1.2,0,2,0.3,2.4,1c0.4,0.6,0.6,1.8,0.6,3.5v4.8h-1.3v-4.7c0-1.2-0.1-2.1-0.4-2.6
		c-0.2-0.5-0.8-0.7-1.5-0.7c-0.4,0-0.8,0.1-1.2,0.2c-0.4,0.1-0.7,0.2-1,0.3l-0.3,0.2c0.2,0.4,0.2,1.3,0.2,2.6v4.7h-1.3v-4.6
		c0-1.3-0.1-2.2-0.4-2.6c-0.2-0.5-0.7-0.7-1.5-0.7c-0.4,0-0.8,0.1-1.2,0.2c-0.4,0.1-0.7,0.2-0.9,0.3l-0.3,0.2L126.5,244.1
		L126.5,244.1z"/>
	<path class="st24" d="M143.4,235.1h1.3l2.2,7.8h0.6l2.3-7.8h1.4l-3.7,13h-1.4l1.2-4H146L143.4,235.1z"/>
	<path class="st24" d="M152.3,239.5c0-1.6,0.3-2.8,0.9-3.6c0.6-0.7,1.6-1.1,3-1.1s2.4,0.4,3,1.1s0.9,1.9,0.9,3.6
		c0,1.6-0.3,2.8-0.8,3.6s-1.6,1.1-3,1.1c-1.5,0-2.5-0.4-3-1.1C152.6,242.4,152.3,241.2,152.3,239.5z M153.7,239.5
		c0,1.3,0.2,2.2,0.5,2.8c0.3,0.5,1,0.8,2,0.8s1.7-0.3,2-0.8s0.5-1.4,0.5-2.8c0-1.3-0.2-2.2-0.5-2.7s-1-0.7-1.9-0.7s-1.6,0.2-1.9,0.7
		S153.7,238.2,153.7,239.5z"/>
	<path class="st24" d="M167.9,235.1h1.4v9h-1.4v-0.6c-0.9,0.5-1.8,0.8-2.7,0.8c-1.2,0-2-0.3-2.4-1c-0.4-0.6-0.6-1.8-0.6-3.5v-4.7
		h1.4v4.7c0,1.3,0.1,2.2,0.3,2.6c0.2,0.4,0.7,0.7,1.5,0.7c0.4,0,0.8-0.1,1.2-0.2c0.4-0.1,0.7-0.2,0.9-0.3l0.3-0.2v-7.3H167.9z"/>
	<path class="st24" d="M171.8,244.1v-9h1.3v1.2c1-0.7,2.1-1.2,3.3-1.4v1.4c-0.5,0.1-1,0.2-1.6,0.5c-0.5,0.2-1,0.4-1.3,0.5l-0.5,0.2
		v6.6H171.8z"/>
	<path class="st24" d="M182,233v-1.6h1.4v1.6H182z M182,244.1v-9h1.4v9H182z"/>
	<path class="st24" d="M187.3,244.1h-1.4v-9h1.3v0.6c1-0.5,1.9-0.8,2.8-0.8c1.2,0,2,0.3,2.4,1s0.6,1.8,0.6,3.5v4.8h-1.3v-4.7
		c0-1.2-0.1-2.1-0.4-2.6c-0.2-0.5-0.8-0.7-1.6-0.7c-0.4,0-0.8,0.1-1.2,0.2c-0.4,0.1-0.8,0.2-1,0.3l-0.3,0.2L187.3,244.1L187.3,244.1
		z"/>
	<path class="st24" d="M198.4,236.1c-1.3,0-2,0.5-2,1.4c0,0.4,0.1,0.7,0.4,0.9s1,0.4,2.1,0.5c1.1,0.2,1.8,0.4,2.3,0.8
		c0.4,0.3,0.7,1,0.7,1.9s-0.3,1.6-0.9,2c-0.6,0.4-1.5,0.6-2.6,0.6c-0.7,0-1.6-0.1-2.6-0.3l-0.5-0.1l0.1-1.2c1.4,0.2,2.4,0.3,3.1,0.3
		c0.7,0,1.2-0.1,1.6-0.3c0.4-0.2,0.5-0.6,0.5-1.1s-0.2-0.9-0.5-1.1c-0.3-0.2-1-0.4-2.1-0.5c-1.1-0.2-1.8-0.4-2.2-0.7
		s-0.7-0.9-0.7-1.8c0-0.9,0.3-1.5,0.9-1.9s1.4-0.6,2.3-0.6c0.7,0,1.6,0.1,2.8,0.3l0.5,0.1v1.2C200.2,236.2,199.2,236.1,198.4,236.1z
		"/>
	<path class="st24" d="M204,233v-1.6h1.4v1.6H204z M204,244.1v-9h1.4v9H204z"/>
	<path class="st24" d="M214.8,231.1v13h-1.3v-0.6c-0.9,0.5-1.8,0.8-2.7,0.8c-0.5,0-0.9-0.1-1.3-0.2c-0.4-0.1-0.7-0.3-1-0.6
		c-0.6-0.6-1-1.8-1-3.6s0.3-3,0.9-3.8c0.6-0.8,1.5-1.2,2.9-1.2c0.7,0,1.4,0.1,2.2,0.2v-4L214.8,231.1L214.8,231.1z M210.1,242.9
		c0.2,0.1,0.5,0.1,0.8,0.1s0.7-0.1,1.2-0.2c0.4-0.1,0.8-0.2,1-0.3l0.4-0.2v-6.1c-0.8-0.1-1.5-0.2-2.1-0.2c-0.9,0-1.5,0.3-1.9,0.9
		c-0.4,0.6-0.5,1.5-0.5,2.7c0,1.4,0.2,2.3,0.6,2.8C209.7,242.7,209.9,242.8,210.1,242.9z"/>
	<path class="st24" d="M223.5,242.9l0.5-0.1v1.1c-1.4,0.2-2.5,0.3-3.5,0.3c-1.3,0-2.2-0.4-2.8-1.1c-0.5-0.7-0.8-1.9-0.8-3.5
		c0-3.2,1.3-4.7,3.8-4.7c1.2,0,2.1,0.3,2.7,1s0.9,1.7,0.9,3.2l-0.1,1h-5.9c0,1,0.2,1.7,0.5,2.2c0.4,0.5,1,0.7,1.9,0.7
		S222.6,243,223.5,242.9z M223.1,239c0-1.1-0.2-1.9-0.5-2.3c-0.4-0.5-0.9-0.7-1.7-0.7s-1.4,0.2-1.8,0.7c-0.4,0.5-0.6,1.2-0.6,2.3
		H223.1z"/>
	<path class="st24" d="M231.8,244.1h-1.4v-9h1.3v0.6c0.9-0.5,1.8-0.8,2.6-0.8c1.1,0,1.9,0.3,2.3,0.9c0.4-0.2,0.9-0.5,1.5-0.6
		c0.6-0.2,1.2-0.3,1.7-0.3c1.2,0,2,0.3,2.4,1c0.4,0.6,0.6,1.8,0.6,3.5v4.8h-1.3v-4.7c0-1.2-0.1-2.1-0.4-2.6
		c-0.2-0.5-0.8-0.7-1.5-0.7c-0.4,0-0.8,0.1-1.2,0.2c-0.4,0.1-0.7,0.2-1,0.3l-0.3,0.2c0.2,0.4,0.2,1.3,0.2,2.6v4.7H236v-4.6
		c0-1.3-0.1-2.2-0.4-2.6c-0.2-0.5-0.7-0.7-1.5-0.7c-0.4,0-0.8,0.1-1.2,0.2c-0.4,0.1-0.7,0.2-0.9,0.3l-0.3,0.2L231.8,244.1
		L231.8,244.1z"/>
	<path class="st24" d="M251.9,237.8v4.6c0,0.4,0.4,0.7,1,0.8l-0.1,1.1c-0.9,0-1.7-0.2-2.1-0.7c-1.1,0.5-2.2,0.7-3.2,0.7
		c-0.8,0-1.5-0.2-1.9-0.7s-0.6-1.1-0.6-2s0.2-1.5,0.7-1.9c0.4-0.4,1.1-0.7,2.1-0.8l2.8-0.3v-0.8c0-0.6-0.1-1-0.4-1.3
		c-0.3-0.3-0.6-0.4-1.1-0.4c-1,0-2,0.1-3,0.2l-0.6,0.1l-0.1-1c1.3-0.3,2.5-0.4,3.5-0.4s1.8,0.2,2.2,0.7
		C251.6,236.1,251.9,236.8,251.9,237.8z M246.3,241.5c0,1.1,0.5,1.7,1.4,1.7c0.8,0,1.6-0.1,2.4-0.4l0.4-0.1v-3l-2.7,0.3
		c-0.5,0-0.9,0.2-1.2,0.5S246.3,240.9,246.3,241.5z"/>
	<path class="st24" d="M255.9,244.1h-1.4v-9h1.3v0.6c1-0.5,1.9-0.8,2.8-0.8c1.2,0,2,0.3,2.4,1s0.6,1.8,0.6,3.5v4.8h-1.3v-4.7
		c0-1.2-0.1-2.1-0.4-2.6c-0.2-0.5-0.8-0.7-1.6-0.7c-0.4,0-0.8,0.1-1.2,0.2c-0.4,0.1-0.8,0.2-1,0.3l-0.3,0.2L255.9,244.1L255.9,244.1
		z"/>
	<path class="st24" d="M269.7,246.3c-1.2-2.8-1.9-5.4-1.9-7.7c0-1.2,0.2-2.4,0.5-3.8c0.3-1.3,0.6-2.4,0.9-3.2l0.5-1.2h1.3
		c-0.4,1.1-0.8,2.5-1.2,4.1c-0.4,1.6-0.5,3-0.5,4s0.1,2.2,0.4,3.5s0.6,2.3,0.9,3.1l0.4,1.2L269.7,246.3L269.7,246.3z"/>
	<path class="st24" d="M275.7,236.1c-1.3,0-2,0.5-2,1.4c0,0.4,0.1,0.7,0.4,0.9s1,0.4,2.1,0.5c1.1,0.2,1.8,0.4,2.3,0.8
		c0.4,0.3,0.7,1,0.7,1.9s-0.3,1.6-0.9,2s-1.5,0.6-2.6,0.6c-0.7,0-1.6-0.1-2.6-0.3l-0.5-0.1l0.1-1.2c1.4,0.2,2.4,0.3,3.1,0.3
		s1.2-0.1,1.6-0.3s0.5-0.6,0.5-1.1s-0.2-0.9-0.5-1.1c-0.3-0.2-1-0.4-2.1-0.5c-1.1-0.2-1.8-0.4-2.2-0.7c-0.4-0.3-0.7-0.9-0.7-1.8
		c0-0.9,0.3-1.5,0.9-1.9s1.4-0.6,2.3-0.6c0.7,0,1.6,0.1,2.8,0.3l0.5,0.1v1.2C277.5,236.2,276.4,236.1,275.7,236.1z"/>
	<path class="st24" d="M285.9,236.2H283v4.3c0,1,0.1,1.7,0.2,2s0.5,0.5,1.1,0.5l1.6-0.1l0.1,1.1c-0.8,0.1-1.4,0.2-1.8,0.2
		c-0.9,0-1.6-0.2-1.9-0.7c-0.4-0.5-0.5-1.3-0.5-2.6v-4.7h-1.3v-1.1h1.3v-2.8h1.3v2.8h2.9v1.1H285.9z"/>
	<path class="st24" d="M287.5,244.1v-9h1.3v1.2c1-0.7,2.1-1.2,3.3-1.4v1.4c-0.5,0.1-1,0.2-1.6,0.5c-0.5,0.2-1,0.4-1.3,0.5l-0.5,0.2
		v6.6H287.5z"/>
	<path class="st24" d="M300.1,237.8v4.6c0,0.4,0.4,0.7,1,0.8l-0.1,1.1c-0.9,0-1.7-0.2-2.1-0.7c-1.1,0.5-2.2,0.7-3.2,0.7
		c-0.8,0-1.5-0.2-1.9-0.7s-0.6-1.1-0.6-2s0.2-1.5,0.7-1.9c0.4-0.4,1.1-0.7,2.1-0.8l2.8-0.3v-0.8c0-0.6-0.1-1-0.4-1.3
		s-0.6-0.4-1.1-0.4c-1,0-2,0.1-3,0.2l-0.6,0.1l-0.1-1c1.3-0.3,2.5-0.4,3.5-0.4s1.8,0.2,2.2,0.7C299.9,236.1,300.1,236.8,300.1,237.8
		z M294.6,241.5c0,1.1,0.5,1.7,1.4,1.7c0.8,0,1.6-0.1,2.4-0.4l0.4-0.1v-3l-2.7,0.3c-0.5,0-0.9,0.2-1.2,0.5S294.6,240.9,294.6,241.5z
		"/>
	<path class="st24" d="M307.4,236.2h-2.9v4.3c0,1,0.1,1.7,0.2,2s0.5,0.5,1.1,0.5l1.6-0.1l0.1,1.1c-0.8,0.1-1.4,0.2-1.8,0.2
		c-0.9,0-1.6-0.2-1.9-0.7c-0.4-0.5-0.5-1.3-0.5-2.6v-4.7H302v-1.1h1.3v-2.8h1.3v2.8h2.9L307.4,236.2L307.4,236.2z"/>
	<path class="st24" d="M315.2,242.9l0.5-0.1v1.1c-1.4,0.2-2.5,0.3-3.5,0.3c-1.3,0-2.2-0.4-2.8-1.1c-0.5-0.7-0.8-1.9-0.8-3.5
		c0-3.2,1.3-4.7,3.8-4.7c1.2,0,2.1,0.3,2.7,1s0.9,1.7,0.9,3.2l-0.1,1H310c0,1,0.2,1.7,0.5,2.2c0.4,0.5,1,0.7,1.9,0.7
		S314.3,243,315.2,242.9z M314.7,239c0-1.1-0.2-1.9-0.5-2.3c-0.4-0.5-0.9-0.7-1.7-0.7s-1.4,0.2-1.8,0.7s-0.6,1.2-0.6,2.3H314.7z"/>
	<path class="st24" d="M321.7,248.3c-1.4,0-2.4-0.2-3-0.6c-0.6-0.4-0.9-1.1-0.9-2.1c0-0.5,0.1-0.9,0.3-1.2c0.2-0.3,0.6-0.7,1.1-1
		c-0.3-0.2-0.5-0.6-0.5-1.2c0-0.2,0.1-0.6,0.5-1.1l0.2-0.3c-0.9-0.4-1.4-1.3-1.4-2.7c0-2.1,1.1-3.1,3.4-3.1c0.6,0,1.1,0.1,1.6,0.2
		l0.3,0.1l2.7-0.1v1.2h-1.7c0.4,0.4,0.6,1,0.6,1.8c0,1.1-0.3,1.9-0.8,2.4c-0.6,0.5-1.4,0.7-2.6,0.7c-0.3,0-0.6,0-0.9-0.1
		c-0.2,0.5-0.3,0.9-0.3,1c0,0.4,0.1,0.6,0.3,0.7c0.2,0.1,0.9,0.1,2.1,0.1s2,0.2,2.5,0.5c0.5,0.4,0.8,1.1,0.8,2.1
		C325.7,247.3,324.3,248.3,321.7,248.3z M319.1,245.5c0,0.6,0.2,1.1,0.5,1.3c0.4,0.2,1,0.4,2,0.4s1.6-0.1,2.1-0.4
		c0.4-0.3,0.6-0.7,0.6-1.3s-0.1-1-0.4-1.2s-0.9-0.3-1.8-0.3l-1.9-0.1c-0.4,0.3-0.7,0.5-0.8,0.8C319.2,244.9,319.1,245.1,319.1,245.5
		z M319.2,238c0,0.7,0.2,1.2,0.5,1.5s0.8,0.5,1.6,0.5c0.7,0,1.3-0.2,1.6-0.5c0.3-0.3,0.5-0.8,0.5-1.5s-0.2-1.2-0.5-1.5
		s-0.8-0.5-1.6-0.5c-0.7,0-1.3,0.2-1.6,0.5S319.2,237.3,319.2,238z"/>
	<path class="st24" d="M327.4,233v-1.6h1.4v1.6H327.4z M327.4,244.1v-9h1.4v9H327.4z"/>
	<path class="st24" d="M334.2,236.1c-1.3,0-2,0.5-2,1.4c0,0.4,0.1,0.7,0.4,0.9s1,0.4,2.1,0.5c1.1,0.2,1.8,0.4,2.3,0.8
		c0.4,0.3,0.7,1,0.7,1.9s-0.3,1.6-0.9,2s-1.5,0.6-2.6,0.6c-0.7,0-1.6-0.1-2.6-0.3l-0.5-0.1l0.1-1.2c1.4,0.2,2.4,0.3,3.1,0.3
		s1.2-0.1,1.6-0.3s0.5-0.6,0.5-1.1s-0.2-0.9-0.5-1.1c-0.3-0.2-1-0.4-2.1-0.5c-1.1-0.2-1.8-0.4-2.2-0.7c-0.4-0.3-0.7-0.9-0.7-1.8
		c0-0.9,0.3-1.5,0.9-1.9s1.4-0.6,2.3-0.6c0.7,0,1.6,0.1,2.8,0.3l0.5,0.1v1.2C336,236.2,335,236.1,334.2,236.1z"/>
	<path class="st24" d="M344.4,236.2h-2.9v4.3c0,1,0.1,1.7,0.2,2s0.5,0.5,1.1,0.5l1.6-0.1l0.1,1.1c-0.8,0.1-1.4,0.2-1.8,0.2
		c-0.9,0-1.6-0.2-1.9-0.7c-0.4-0.5-0.5-1.3-0.5-2.6v-4.7H339v-1.1h1.3v-2.8h1.3v2.8h2.9L344.4,236.2L344.4,236.2z"/>
	<path class="st24" d="M348.4,236.3c0.1,0.8,0.2,1.7,0.2,2.7c0,0.9-0.2,2-0.5,3.3s-0.6,2.3-0.9,3l-0.5,1.1h-1.3
		c0.4-1,0.8-2.2,1.2-3.8c0.4-1.6,0.5-2.9,0.5-3.9s-0.1-2.2-0.4-3.6c-0.3-1.3-0.6-2.4-0.9-3.3l-0.4-1.3h1.3
		C347.5,232.4,348.1,234.3,348.4,236.3z"/>
	<path class="st24" d="M350.7,244.1V242h1.5v2.1H350.7z"/>
	<path class="st24" d="M358.9,244.1v-12.5h1.4v12.5H358.9z"/>
	<path class="st24" d="M373.4,237.8v4.6c0,0.4,0.4,0.7,1,0.8l-0.1,1.1c-0.9,0-1.7-0.2-2.1-0.7c-1.1,0.5-2.2,0.7-3.2,0.7
		c-0.8,0-1.5-0.2-1.9-0.7s-0.6-1.1-0.6-2s0.2-1.5,0.7-1.9c0.4-0.4,1.1-0.7,2.1-0.8l2.8-0.3v-0.8c0-0.6-0.1-1-0.4-1.3
		s-0.6-0.4-1.1-0.4c-1,0-2,0.1-3,0.2l-0.6,0.1l-0.1-1c1.3-0.3,2.5-0.4,3.5-0.4s1.8,0.2,2.2,0.7C373.2,236.1,373.4,236.8,373.4,237.8
		z M367.9,241.5c0,1.1,0.5,1.7,1.4,1.7c0.8,0,1.6-0.1,2.4-0.4l0.4-0.1v-3l-2.7,0.3c-0.5,0-0.9,0.2-1.2,0.5S367.9,240.9,367.9,241.5z
		"/>
	<path class="st24" d="M377.4,244.1H376v-9h1.3v0.6c0.9-0.5,1.8-0.8,2.6-0.8c1.1,0,1.9,0.3,2.3,0.9c0.4-0.2,0.9-0.5,1.5-0.6
		c0.6-0.2,1.2-0.3,1.7-0.3c1.2,0,2,0.3,2.4,1c0.4,0.6,0.6,1.8,0.6,3.5v4.8h-1.3v-4.7c0-1.2-0.1-2.1-0.4-2.6
		c-0.2-0.5-0.8-0.7-1.5-0.7c-0.4,0-0.8,0.1-1.2,0.2c-0.4,0.1-0.7,0.2-1,0.3l-0.3,0.2c0.2,0.4,0.2,1.3,0.2,2.6v4.7h-1.3v-4.6
		c0-1.3-0.1-2.2-0.4-2.6c-0.2-0.5-0.7-0.7-1.5-0.7c-0.4,0-0.8,0.1-1.2,0.2c-0.4,0.1-0.7,0.2-0.9,0.3l-0.3,0.2L377.4,244.1
		L377.4,244.1z"/>
	<path class="st24" d="M401.4,237.8v4.6c0,0.4,0.4,0.7,1,0.8l-0.1,1.1c-0.9,0-1.7-0.2-2.1-0.7c-1.1,0.5-2.2,0.7-3.2,0.7
		c-0.8,0-1.5-0.2-1.9-0.7s-0.6-1.1-0.6-2s0.2-1.5,0.7-1.9c0.4-0.4,1.1-0.7,2.1-0.8l2.8-0.3v-0.8c0-0.6-0.1-1-0.4-1.3
		s-0.6-0.4-1.1-0.4c-1,0-2,0.1-3,0.2l-0.6,0.1l-0.1-1c1.3-0.3,2.5-0.4,3.5-0.4s1.8,0.2,2.2,0.7C401.2,236.1,401.4,236.8,401.4,237.8
		z M395.9,241.5c0,1.1,0.5,1.7,1.4,1.7c0.8,0,1.6-0.1,2.4-0.4l0.4-0.1v-3l-2.7,0.3c-0.5,0-0.9,0.2-1.2,0.5S395.9,240.9,395.9,241.5z
		"/>
	<path class="st24" d="M403.4,235.1h1.4l1.8,7.8h0.3l2.1-7.6h1.4l2.1,7.6h0.3l1.8-7.8h1.4l-2.1,9h-2.2l-1.9-7l-1.9,7h-2.2
		L403.4,235.1z"/>
	<path class="st24" d="M424.1,237.8v4.6c0,0.4,0.4,0.7,1,0.8l-0.1,1.1c-0.9,0-1.7-0.2-2.1-0.7c-1.1,0.5-2.2,0.7-3.2,0.7
		c-0.8,0-1.5-0.2-1.9-0.7s-0.6-1.1-0.6-2s0.2-1.5,0.7-1.9c0.4-0.4,1.1-0.7,2.1-0.8l2.8-0.3v-0.8c0-0.6-0.1-1-0.4-1.3
		s-0.6-0.4-1.1-0.4c-1,0-2,0.1-3,0.2l-0.6,0.1l-0.1-1c1.3-0.3,2.5-0.4,3.5-0.4s1.8,0.2,2.2,0.7C423.8,236.1,424.1,236.8,424.1,237.8
		z M418.5,241.5c0,1.1,0.5,1.7,1.4,1.7c0.8,0,1.6-0.1,2.4-0.4l0.4-0.1v-3L420,240c-0.5,0-0.9,0.2-1.2,0.5S418.5,240.9,418.5,241.5z"
		/>
	<path class="st24" d="M426.7,244.1v-9h1.3v1.2c1-0.7,2.1-1.2,3.3-1.4v1.4c-0.5,0.1-1,0.2-1.6,0.5c-0.5,0.2-1,0.4-1.3,0.5l-0.5,0.2
		v6.6H426.7z"/>
	<path class="st24" d="M438.9,242.9l0.5-0.1v1.1c-1.4,0.2-2.5,0.3-3.5,0.3c-1.3,0-2.2-0.4-2.8-1.1c-0.5-0.7-0.8-1.9-0.8-3.5
		c0-3.2,1.3-4.7,3.8-4.7c1.2,0,2.1,0.3,2.7,1s0.9,1.7,0.9,3.2l-0.1,1h-5.9c0,1,0.2,1.7,0.5,2.2c0.4,0.5,1,0.7,1.9,0.7
		S438,243,438.9,242.9z M438.4,239c0-1.1-0.2-1.9-0.5-2.3c-0.4-0.5-0.9-0.7-1.7-0.7s-1.4,0.2-1.8,0.7s-0.6,1.2-0.6,2.3H438.4z"/>
	<path class="st24" d="M445.4,239.5c0-1.6,0.3-2.8,0.9-3.6c0.6-0.7,1.6-1.1,3-1.1s2.4,0.4,3,1.1s0.9,1.9,0.9,3.6
		c0,1.6-0.3,2.8-0.8,3.6s-1.6,1.1-3,1.1c-1.5,0-2.5-0.4-3-1.1C445.7,242.4,445.4,241.2,445.4,239.5z M446.8,239.5
		c0,1.3,0.2,2.2,0.5,2.8c0.3,0.5,1,0.8,2,0.8s1.7-0.3,2-0.8s0.5-1.4,0.5-2.8c0-1.3-0.2-2.2-0.5-2.7s-1-0.7-1.9-0.7s-1.6,0.2-1.9,0.7
		S446.8,238.2,446.8,239.5z"/>
	<path class="st24" d="M457.1,236.2v7.8h-1.4v-7.8h-1.1v-1.1h1.1v-0.8c0-1.3,0.2-2.1,0.5-2.6c0.4-0.5,1-0.7,1.9-0.7l1.8,0.1v1.1
		c-0.7,0-1.2,0-1.7,0s-0.8,0.1-0.9,0.4c-0.2,0.3-0.3,0.8-0.3,1.7v0.8h2.6v1.2L457.1,236.2L457.1,236.2z"/>
	<path class="st24" d="M469.9,236.2H467v4.3c0,1,0.1,1.7,0.2,2s0.5,0.5,1.1,0.5l1.6-0.1l0.1,1.1c-0.8,0.1-1.4,0.2-1.8,0.2
		c-0.9,0-1.6-0.2-1.9-0.7c-0.4-0.5-0.5-1.3-0.5-2.6v-4.7h-1.3v-1.1h1.3v-2.8h1.3v2.8h2.9v1.1H469.9z"/>
	<path class="st24" d="M472.9,244.1h-1.4v-13h1.4v4.4c1-0.5,1.9-0.7,2.8-0.7c1.2,0,2,0.3,2.4,1s0.6,1.8,0.6,3.5v4.8h-1.4v-4.7
		c0-1.2-0.1-2.1-0.4-2.6c-0.2-0.5-0.8-0.7-1.6-0.7c-0.8,0-1.5,0.1-2.2,0.4l-0.3,0.1v7.5H472.9z"/>
	<path class="st24" d="M487.4,242.9l0.5-0.1v1.1c-1.4,0.2-2.5,0.3-3.5,0.3c-1.3,0-2.2-0.4-2.8-1.1c-0.5-0.7-0.8-1.9-0.8-3.5
		c0-3.2,1.3-4.7,3.8-4.7c1.2,0,2.1,0.3,2.7,1s0.9,1.7,0.9,3.2l-0.1,1h-5.9c0,1,0.2,1.7,0.5,2.2c0.4,0.5,1,0.7,1.9,0.7
		S486.4,243,487.4,242.9z M486.9,239c0-1.1-0.2-1.9-0.5-2.3c-0.4-0.5-0.9-0.7-1.7-0.7s-1.4,0.2-1.8,0.7s-0.6,1.2-0.6,2.3H486.9z"/>
	<path class="st24" d="M498.3,234.9c1.2,0,2.1,0.3,2.5,1c0.5,0.7,0.7,1.9,0.7,3.6c0,1.7-0.3,2.9-0.9,3.6c-0.6,0.7-1.7,1.1-3.3,1.1
		c-0.5,0-1.3,0-2.5-0.1l-0.5-0.1v-12.9h1.3v4.4C496.5,235.1,497.4,234.9,498.3,234.9z M497.3,243c1.2,0,2-0.3,2.3-0.8
		c0.4-0.5,0.6-1.4,0.6-2.7s-0.2-2.2-0.5-2.7s-0.8-0.8-1.6-0.8c-0.7,0-1.4,0.1-2.1,0.4l-0.4,0.1v6.3C496.4,243,497,243,497.3,243z"/>
	<path class="st24" d="M503.8,233v-1.6h1.4v1.6H503.8z M503.8,244.1v-9h1.4v9H503.8z"/>
	<path class="st24" d="M511.2,248.3c-1.4,0-2.4-0.2-3-0.6c-0.6-0.4-0.9-1.1-0.9-2.1c0-0.5,0.1-0.9,0.3-1.2c0.2-0.3,0.6-0.7,1.1-1
		c-0.3-0.2-0.5-0.6-0.5-1.2c0-0.2,0.1-0.6,0.5-1.1l0.2-0.3c-0.9-0.4-1.4-1.3-1.4-2.7c0-2.1,1.1-3.1,3.4-3.1c0.6,0,1.1,0.1,1.6,0.2
		l0.3,0.1l2.7-0.1v1.2h-1.7c0.4,0.4,0.6,1,0.6,1.8c0,1.1-0.3,1.9-0.8,2.4c-0.6,0.5-1.4,0.7-2.6,0.7c-0.3,0-0.6,0-0.9-0.1
		c-0.2,0.5-0.3,0.9-0.3,1c0,0.4,0.1,0.6,0.3,0.7c0.2,0.1,0.9,0.1,2.1,0.1c1.2,0,2,0.2,2.5,0.5c0.5,0.4,0.8,1.1,0.8,2.1
		C515.2,247.3,513.8,248.3,511.2,248.3z M508.6,245.5c0,0.6,0.2,1.1,0.5,1.3c0.4,0.2,1,0.4,2,0.4c1,0,1.6-0.1,2.1-0.4
		c0.4-0.3,0.6-0.7,0.6-1.3s-0.1-1-0.4-1.2c-0.3-0.2-0.9-0.3-1.8-0.3l-1.9-0.1c-0.4,0.3-0.7,0.5-0.8,0.8
		C508.7,244.9,508.6,245.1,508.6,245.5z M508.8,238c0,0.7,0.2,1.2,0.5,1.5s0.8,0.5,1.6,0.5c0.7,0,1.3-0.2,1.6-0.5s0.5-0.8,0.5-1.5
		s-0.2-1.2-0.5-1.5s-0.8-0.5-1.6-0.5c-0.7,0-1.3,0.2-1.6,0.5S508.8,237.3,508.8,238z"/>
	<path class="st24" d="M520.9,248.1v-13h1.3v0.6c0.9-0.6,1.8-0.8,2.7-0.8c1.1,0,2,0.4,2.5,1.1c0.5,0.7,0.8,1.9,0.8,3.6
		s-0.3,2.9-0.9,3.6c-0.6,0.7-1.6,1.1-3,1.1c-0.7,0-1.4-0.1-2-0.2v4L520.9,248.1L520.9,248.1z M524.8,236.1c-0.4,0-0.7,0.1-1.2,0.2
		c-0.4,0.1-0.7,0.2-1,0.4l-0.3,0.2v6.1c0.9,0.1,1.5,0.2,1.9,0.2c1,0,1.7-0.3,2-0.8c0.4-0.6,0.6-1.5,0.6-2.7s-0.2-2.1-0.5-2.7
		S525.4,236.1,524.8,236.1z"/>
	<path class="st24" d="M530.4,233v-1.6h1.4v1.6H530.4z M530.4,244.1v-9h1.4v9H530.4z"/>
	<path class="st24" d="M537.7,234.9c0.4,0,1.1,0.1,2,0.2l0.4,0.1l-0.1,1.1c-1-0.1-1.7-0.2-2.1-0.2c-1,0-1.7,0.2-2.1,0.7
		c-0.4,0.5-0.5,1.4-0.5,2.7s0.2,2.2,0.5,2.7s1.1,0.8,2.1,0.8l2.1-0.2l0.1,1.1c-1.1,0.2-2,0.3-2.5,0.3c-1.4,0-2.4-0.4-2.9-1.1
		c-0.5-0.7-0.8-1.9-0.8-3.6s0.3-2.9,0.9-3.6C535.4,235.2,536.4,234.9,537.7,234.9z"/>
	<path class="st24" d="M546.9,236.2H544v4.3c0,1,0.1,1.7,0.2,2s0.5,0.5,1.1,0.5l1.6-0.1l0.1,1.1c-0.8,0.1-1.4,0.2-1.8,0.2
		c-0.9,0-1.6-0.2-1.9-0.7c-0.4-0.5-0.5-1.3-0.5-2.6v-4.7h-1.3v-1.1h1.3v-2.8h1.3v2.8h2.9L546.9,236.2L546.9,236.2z"/>
	<path class="st24" d="M554.1,235.1h1.4v9h-1.4v-0.6c-0.9,0.5-1.8,0.8-2.7,0.8c-1.2,0-2-0.3-2.4-1c-0.4-0.6-0.6-1.8-0.6-3.5v-4.7
		h1.4v4.7c0,1.3,0.1,2.2,0.3,2.6c0.2,0.4,0.7,0.7,1.5,0.7c0.4,0,0.8-0.1,1.2-0.2c0.4-0.1,0.7-0.2,0.9-0.3l0.3-0.2L554.1,235.1
		L554.1,235.1z"/>
	<path class="st24" d="M558.1,244.1v-9h1.3v1.2c1-0.7,2.1-1.2,3.3-1.4v1.4c-0.5,0.1-1,0.2-1.6,0.5c-0.5,0.2-1,0.4-1.3,0.5l-0.5,0.2
		v6.6H558.1z"/>
	<path class="st24" d="M570.2,242.9l0.5-0.1v1.1c-1.4,0.2-2.5,0.3-3.5,0.3c-1.3,0-2.2-0.4-2.8-1.1c-0.5-0.7-0.8-1.9-0.8-3.5
		c0-3.2,1.3-4.7,3.8-4.7c1.2,0,2.1,0.3,2.7,1s0.9,1.7,0.9,3.2l-0.1,1H565c0,1,0.2,1.7,0.5,2.2c0.4,0.5,1,0.7,1.9,0.7
		S569.3,243,570.2,242.9z M569.8,239c0-1.1-0.2-1.9-0.5-2.3c-0.4-0.5-0.9-0.7-1.7-0.7s-1.4,0.2-1.8,0.7c-0.4,0.5-0.6,1.2-0.6,2.3
		H569.8z"/>
	<path class="st24" d="M573.1,244.1V242h1.5v2.1H573.1z"/>
	<path class="st24" d="M581.3,244.1v-12.5h1.4v12.5H581.3z"/>
	<path class="st24" d="M592.3,236.1c-1.3,0-2,0.5-2,1.4c0,0.4,0.1,0.7,0.4,0.9s1,0.4,2.1,0.5c1.1,0.2,1.8,0.4,2.3,0.8
		c0.4,0.3,0.7,1,0.7,1.9s-0.3,1.6-0.9,2c-0.6,0.4-1.5,0.6-2.6,0.6c-0.7,0-1.6-0.1-2.6-0.3l-0.5-0.1l0.1-1.2c1.4,0.2,2.4,0.3,3.1,0.3
		c0.7,0,1.2-0.1,1.6-0.3c0.4-0.2,0.5-0.6,0.5-1.1s-0.2-0.9-0.5-1.1c-0.3-0.2-1-0.4-2.1-0.5c-1.1-0.2-1.8-0.4-2.2-0.7
		s-0.7-0.9-0.7-1.8c0-0.9,0.3-1.5,0.9-1.9s1.4-0.6,2.3-0.6c0.7,0,1.6,0.1,2.8,0.3l0.5,0.1v1.2C594.1,236.2,593,236.1,592.3,236.1z"
		/>
	<path class="st24" d="M603.9,242.9l0.5-0.1v1.1c-1.4,0.2-2.5,0.3-3.5,0.3c-1.3,0-2.2-0.4-2.8-1.1c-0.5-0.7-0.8-1.9-0.8-3.5
		c0-3.2,1.3-4.7,3.8-4.7c1.2,0,2.1,0.3,2.7,1s0.9,1.7,0.9,3.2l-0.1,1h-5.9c0,1,0.2,1.7,0.5,2.2c0.4,0.5,1,0.7,1.9,0.7
		S603,243,603.9,242.9z M603.4,239c0-1.1-0.2-1.9-0.5-2.3c-0.4-0.5-0.9-0.7-1.7-0.7s-1.4,0.2-1.8,0.7c-0.4,0.5-0.6,1.2-0.6,2.3
		H603.4z"/>
	<path class="st24" d="M611.5,236.2h-2.9v4.3c0,1,0.1,1.7,0.2,2s0.5,0.5,1.1,0.5l1.6-0.1l0.1,1.1c-0.8,0.1-1.4,0.2-1.8,0.2
		c-0.9,0-1.6-0.2-1.9-0.7c-0.4-0.5-0.5-1.3-0.5-2.6v-4.7H606v-1.1h1.3v-2.8h1.3v2.8h2.9V236.2z"/>
	<path class="st24" d="M621.8,236.2h-2.9v4.3c0,1,0.1,1.7,0.2,2s0.5,0.5,1.1,0.5l1.6-0.1l0.1,1.1c-0.8,0.1-1.4,0.2-1.8,0.2
		c-0.9,0-1.6-0.2-1.9-0.7c-0.4-0.5-0.5-1.3-0.5-2.6v-4.7h-1.3v-1.1h1.3v-2.8h1.3v2.8h2.9L621.8,236.2L621.8,236.2z"/>
	<path class="st24" d="M624.8,244.1h-1.4v-13h1.4v4.4c1-0.5,1.9-0.7,2.8-0.7c1.2,0,2,0.3,2.4,1s0.6,1.8,0.6,3.5v4.8h-1.4v-4.7
		c0-1.2-0.1-2.1-0.4-2.6c-0.2-0.5-0.8-0.7-1.6-0.7s-1.5,0.1-2.2,0.4l-0.3,0.1v7.5H624.8z"/>
	<path class="st24" d="M639.2,242.9l0.5-0.1v1.1c-1.4,0.2-2.5,0.3-3.5,0.3c-1.3,0-2.2-0.4-2.8-1.1c-0.5-0.7-0.8-1.9-0.8-3.5
		c0-3.2,1.3-4.7,3.8-4.7c1.2,0,2.1,0.3,2.7,1s0.9,1.7,0.9,3.2l-0.1,1H634c0,1,0.2,1.7,0.5,2.2c0.4,0.5,1,0.7,1.9,0.7
		S638.3,243,639.2,242.9z M638.7,239c0-1.1-0.2-1.9-0.5-2.3c-0.4-0.5-0.9-0.7-1.7-0.7s-1.4,0.2-1.8,0.7c-0.4,0.5-0.6,1.2-0.6,2.3
		H638.7z"/>
	<path class="st24" d="M111.8,256.5c1.2,0,2.1,0.3,2.5,1c0.5,0.7,0.7,1.9,0.7,3.6s-0.3,2.9-0.9,3.6s-1.7,1.1-3.3,1.1
		c-0.5,0-1.3,0-2.5-0.1l-0.5-0.1v-12.9h1.3v4.4C110,256.7,110.9,256.5,111.8,256.5z M110.8,264.6c1.2,0,2-0.3,2.3-0.8
		c0.4-0.5,0.6-1.4,0.6-2.7s-0.2-2.2-0.5-2.7s-0.8-0.8-1.6-0.8c-0.7,0-1.4,0.1-2.1,0.4l-0.4,0.1v6.3
		C109.9,264.6,110.5,264.6,110.8,264.6z"/>
	<path class="st24" d="M123.4,264.5l0.5-0.1v1.1c-1.4,0.2-2.5,0.3-3.5,0.3c-1.3,0-2.2-0.4-2.8-1.1c-0.5-0.7-0.8-1.9-0.8-3.5
		c0-3.2,1.3-4.7,3.8-4.7c1.2,0,2.1,0.3,2.7,1s0.9,1.7,0.9,3.2l-0.1,1h-5.9c0,1,0.2,1.7,0.5,2.2c0.4,0.5,1,0.7,1.9,0.7
		S122.5,264.6,123.4,264.5z M122.9,260.6c0-1.1-0.2-1.9-0.5-2.3s-0.9-0.7-1.7-0.7s-1.4,0.2-1.8,0.7s-0.6,1.2-0.6,2.3H122.9z"/>
	<path class="st24" d="M129.2,257.7c-1.3,0-2,0.5-2,1.4c0,0.4,0.1,0.7,0.4,0.9s1,0.4,2.1,0.5c1.1,0.2,1.8,0.4,2.3,0.8
		c0.4,0.3,0.7,1,0.7,1.9s-0.3,1.6-0.9,2c-0.6,0.4-1.5,0.6-2.6,0.6c-0.7,0-1.6-0.1-2.6-0.3l-0.5-0.1l0.1-1.2c1.4,0.2,2.4,0.3,3.1,0.3
		c0.7,0,1.2-0.1,1.6-0.3c0.4-0.2,0.5-0.6,0.5-1.1s-0.2-0.9-0.5-1.1s-1-0.4-2.1-0.5c-1.1-0.2-1.8-0.4-2.2-0.7
		c-0.4-0.3-0.7-0.9-0.7-1.8s0.3-1.5,0.9-1.9s1.4-0.6,2.3-0.6c0.7,0,1.6,0.1,2.8,0.3l0.5,0.1v1.2C131,257.8,129.9,257.7,129.2,257.7z
		"/>
	<path class="st24" d="M139.4,257.8h-2.9v4.3c0,1,0.1,1.7,0.2,2s0.5,0.5,1.1,0.5l1.6-0.1l0.1,1.1c-0.8,0.1-1.4,0.2-1.8,0.2
		c-0.9,0-1.6-0.2-1.9-0.7c-0.4-0.5-0.5-1.3-0.5-2.6v-4.7H134v-1.2h1.3v-2.8h1.3v2.8h2.9v1.2L139.4,257.8L139.4,257.8z"/>
	<path class="st24" d="M147.8,257.7c-1.3,0-2,0.5-2,1.4c0,0.4,0.1,0.7,0.4,0.9s1,0.4,2.1,0.5c1.1,0.2,1.8,0.4,2.3,0.8
		c0.4,0.3,0.7,1,0.7,1.9s-0.3,1.6-0.9,2c-0.6,0.4-1.5,0.6-2.6,0.6c-0.7,0-1.6-0.1-2.6-0.3l-0.5-0.1l0.1-1.2c1.4,0.2,2.4,0.3,3.1,0.3
		c0.7,0,1.2-0.1,1.6-0.3c0.4-0.2,0.5-0.6,0.5-1.1s-0.2-0.9-0.5-1.1s-1-0.4-2.1-0.5c-1.1-0.2-1.8-0.4-2.2-0.7s-0.7-0.9-0.7-1.8
		s0.3-1.5,0.9-1.9s1.4-0.6,2.3-0.6c0.7,0,1.6,0.1,2.8,0.3l0.5,0.1v1.2C149.6,257.8,148.6,257.7,147.8,257.7z"/>
	<path class="st24" d="M158,257.8h-2.9v4.3c0,1,0.1,1.7,0.2,2s0.5,0.5,1.1,0.5l1.6-0.1l0.1,1.1c-0.8,0.1-1.4,0.2-1.8,0.2
		c-0.9,0-1.6-0.2-1.9-0.7c-0.4-0.5-0.5-1.3-0.5-2.6v-4.7h-1.3v-1.2h1.3v-2.8h1.3v2.8h2.9v1.2L158,257.8L158,257.8z"/>
	<path class="st24" d="M159.7,265.7v-9h1.3v1.2c1-0.7,2.1-1.2,3.3-1.4v1.4c-0.5,0.1-1,0.2-1.6,0.5c-0.5,0.2-1,0.4-1.3,0.5l-0.4,0.2
		v6.6L159.7,265.7L159.7,265.7z"/>
	<path class="st24" d="M172.3,259.4v4.6c0,0.4,0.4,0.7,1,0.8l-0.1,1.1c-0.9,0-1.7-0.2-2.1-0.7c-1.1,0.5-2.2,0.7-3.2,0.7
		c-0.8,0-1.5-0.2-1.9-0.7s-0.6-1.1-0.6-2s0.2-1.5,0.7-1.9c0.4-0.4,1.1-0.7,2.1-0.8l2.8-0.3v-0.8c0-0.6-0.1-1-0.4-1.3
		c-0.3-0.3-0.6-0.4-1.1-0.4c-1,0-2,0.1-3,0.2l-0.6,0.1l-0.1-1c1.3-0.3,2.5-0.4,3.5-0.4s1.8,0.2,2.2,0.7
		C172,257.7,172.3,258.4,172.3,259.4z M166.7,263.1c0,1.1,0.5,1.7,1.4,1.7c0.8,0,1.6-0.1,2.4-0.4l0.4-0.1v-3l-2.7,0.3
		c-0.5,0-0.9,0.2-1.2,0.5S166.7,262.5,166.7,263.1z"/>
	<path class="st24" d="M179.6,257.8h-2.9v4.3c0,1,0.1,1.7,0.2,2s0.5,0.5,1.1,0.5l1.6-0.1l0.1,1.1c-0.8,0.1-1.4,0.2-1.8,0.2
		c-0.9,0-1.6-0.2-1.9-0.7c-0.4-0.5-0.5-1.3-0.5-2.6v-4.7h-1.3v-1.2h1.3v-2.8h1.3v2.8h2.9v1.2L179.6,257.8L179.6,257.8z"/>
	<path class="st24" d="M187.4,264.5l0.5-0.1v1.1c-1.4,0.2-2.5,0.3-3.5,0.3c-1.3,0-2.2-0.4-2.8-1.1c-0.5-0.7-0.8-1.9-0.8-3.5
		c0-3.2,1.3-4.7,3.8-4.7c1.2,0,2.1,0.3,2.7,1s0.9,1.7,0.9,3.2l-0.1,1h-5.9c0,1,0.2,1.7,0.5,2.2c0.4,0.5,1,0.7,1.9,0.7
		S186.4,264.6,187.4,264.5z M186.9,260.6c0-1.1-0.2-1.9-0.5-2.3s-0.9-0.7-1.7-0.7s-1.4,0.2-1.8,0.7c-0.4,0.5-0.6,1.2-0.6,2.3H186.9z
		"/>
	<path class="st24" d="M193.8,269.9c-1.4,0-2.4-0.2-3-0.6s-0.9-1.1-0.9-2.1c0-0.5,0.1-0.9,0.3-1.2s0.6-0.7,1.1-1
		c-0.3-0.2-0.5-0.6-0.5-1.2c0-0.2,0.1-0.6,0.5-1.1l0.2-0.3c-0.9-0.4-1.4-1.3-1.4-2.7c0-2.1,1.1-3.1,3.4-3.1c0.6,0,1.1,0.1,1.6,0.2
		l0.3,0.1l2.7-0.1v1.2h-1.7c0.4,0.4,0.6,1,0.6,1.8c0,1.1-0.3,1.9-0.8,2.4c-0.6,0.5-1.4,0.7-2.6,0.7c-0.3,0-0.6,0-0.9-0.1
		c-0.2,0.5-0.3,0.9-0.3,1c0,0.4,0.1,0.6,0.3,0.7s0.9,0.1,2.1,0.1c1.2,0,2,0.2,2.5,0.5c0.5,0.4,0.8,1.1,0.8,2.1
		C197.8,268.9,196.5,269.9,193.8,269.9z M191.3,267.1c0,0.6,0.2,1.1,0.5,1.3c0.4,0.2,1,0.4,2,0.4s1.6-0.1,2.1-0.4
		c0.4-0.3,0.6-0.7,0.6-1.3s-0.1-1-0.4-1.2c-0.3-0.2-0.9-0.3-1.8-0.3l-1.9-0.1c-0.4,0.3-0.7,0.5-0.8,0.8
		C191.3,266.5,191.3,266.7,191.3,267.1z M191.4,259.6c0,0.7,0.2,1.2,0.5,1.5s0.8,0.5,1.6,0.5c0.7,0,1.3-0.2,1.6-0.5s0.5-0.8,0.5-1.5
		s-0.2-1.2-0.5-1.5s-0.8-0.5-1.6-0.5c-0.7,0-1.3,0.2-1.6,0.5S191.4,258.9,191.4,259.6z"/>
	<path class="st24" d="M198.7,256.7h1.3l2.2,7.8h0.6l2.3-7.8h1.4l-3.7,13h-1.4l1.2-4h-1.3L198.7,256.7z"/>
	<path class="st24" d="M218.6,259.4v4.6c0,0.4,0.4,0.7,1,0.8l-0.1,1.1c-0.9,0-1.7-0.2-2.1-0.7c-1.1,0.5-2.2,0.7-3.2,0.7
		c-0.8,0-1.5-0.2-1.9-0.7s-0.6-1.1-0.6-2s0.2-1.5,0.7-1.9c0.4-0.4,1.1-0.7,2.1-0.8l2.8-0.3v-0.8c0-0.6-0.1-1-0.4-1.3
		c-0.3-0.3-0.6-0.4-1.1-0.4c-1,0-2,0.1-3,0.2l-0.6,0.1l-0.1-1c1.3-0.3,2.5-0.4,3.5-0.4s1.8,0.2,2.2,0.7
		C218.4,257.7,218.6,258.4,218.6,259.4z M213.1,263.1c0,1.1,0.5,1.7,1.4,1.7c0.8,0,1.6-0.1,2.4-0.4l0.4-0.1v-3l-2.7,0.3
		c-0.5,0-0.9,0.2-1.2,0.5S213.1,262.5,213.1,263.1z"/>
	<path class="st24" d="M222.6,265.7h-1.4v-9h1.3v0.6c1-0.5,1.9-0.8,2.8-0.8c1.2,0,2,0.3,2.4,1s0.6,1.8,0.6,3.5v4.8H227v-4.7
		c0-1.2-0.1-2.1-0.4-2.6s-0.8-0.7-1.6-0.7c-0.4,0-0.8,0.1-1.2,0.2s-0.8,0.2-1,0.3l-0.3,0.2L222.6,265.7L222.6,265.7z"/>
	<path class="st24" d="M237.8,252.7v12.9h-1.3v-0.5c-0.9,0.5-1.8,0.8-2.7,0.8c-0.5,0-0.9-0.1-1.3-0.2c-0.4-0.1-0.7-0.3-1-0.6
		c-0.6-0.6-1-1.8-1-3.6s0.3-3,0.9-3.8c0.6-0.8,1.5-1.2,2.9-1.2c0.7,0,1.4,0.1,2.2,0.2v-4L237.8,252.7L237.8,252.7z M233.2,264.5
		c0.2,0.1,0.5,0.1,0.8,0.1s0.7-0.1,1.2-0.2c0.4-0.1,0.8-0.2,1-0.3l0.4-0.2v-6.1c-0.8-0.1-1.5-0.2-2.1-0.2c-0.9,0-1.5,0.3-1.9,0.9
		s-0.5,1.5-0.5,2.7c0,1.4,0.2,2.3,0.6,2.8C232.7,264.3,232.9,264.4,233.2,264.5z"/>
	<path class="st24" d="M244.4,265.7v-9h1.3v1.2c1-0.7,2.1-1.2,3.3-1.4v1.4c-0.5,0.1-1,0.2-1.6,0.5c-0.5,0.2-1,0.4-1.3,0.5l-0.5,0.2
		v6.6L244.4,265.7L244.4,265.7z"/>
	<path class="st24" d="M250.1,261.1c0-1.6,0.3-2.8,0.9-3.6c0.6-0.7,1.6-1.1,3-1.1s2.4,0.4,3,1.1s0.9,1.9,0.9,3.6
		c0,1.6-0.3,2.8-0.8,3.6s-1.6,1.1-3,1.1c-1.5,0-2.5-0.4-3-1.1C250.3,264,250.1,262.8,250.1,261.1z M251.4,261.1
		c0,1.3,0.2,2.2,0.5,2.8c0.3,0.5,1,0.8,2,0.8s1.7-0.3,2-0.8c0.3-0.5,0.5-1.4,0.5-2.8c0-1.3-0.2-2.2-0.5-2.7s-1-0.7-1.9-0.7
		s-1.6,0.2-1.9,0.7S251.4,259.8,251.4,261.1z"/>
	<path class="st24" d="M266.3,259.4v4.6c0,0.4,0.4,0.7,1,0.8l-0.1,1.1c-0.9,0-1.7-0.2-2.1-0.7c-1.1,0.5-2.2,0.7-3.2,0.7
		c-0.8,0-1.5-0.2-1.9-0.7s-0.6-1.1-0.6-2s0.2-1.5,0.7-1.9c0.4-0.4,1.1-0.7,2.1-0.8l2.8-0.3v-0.8c0-0.6-0.1-1-0.4-1.3
		s-0.6-0.4-1.1-0.4c-1,0-2,0.1-3,0.2l-0.6,0.1l-0.1-1c1.3-0.3,2.5-0.4,3.5-0.4s1.8,0.2,2.2,0.7C266.1,257.7,266.3,258.4,266.3,259.4
		z M260.8,263.1c0,1.1,0.5,1.7,1.4,1.7c0.8,0,1.6-0.1,2.4-0.4l0.4-0.1v-3l-2.7,0.3c-0.5,0-0.9,0.2-1.2,0.5S260.8,262.5,260.8,263.1z
		"/>
	<path class="st24" d="M275.9,252.7v12.9h-1.3v-0.5c-0.9,0.5-1.8,0.8-2.7,0.8c-0.5,0-0.9-0.1-1.3-0.2s-0.7-0.3-1-0.6
		c-0.6-0.6-1-1.8-1-3.6s0.3-3,0.9-3.8s1.5-1.2,2.9-1.2c0.7,0,1.4,0.1,2.2,0.2v-4L275.9,252.7L275.9,252.7z M271.2,264.5
		c0.2,0.1,0.5,0.1,0.8,0.1s0.7-0.1,1.2-0.2c0.4-0.1,0.8-0.2,1-0.3l0.4-0.2v-6.1c-0.8-0.1-1.5-0.2-2.1-0.2c-0.9,0-1.5,0.3-1.9,0.9
		s-0.5,1.5-0.5,2.7c0,1.4,0.2,2.3,0.6,2.8C270.8,264.3,271,264.4,271.2,264.5z"/>
	<path class="st24" d="M279.8,265.7h-1.4v-9h1.3v0.6c0.9-0.5,1.8-0.8,2.6-0.8c1.1,0,1.9,0.3,2.3,0.9c0.4-0.2,0.9-0.5,1.5-0.6
		c0.6-0.2,1.2-0.3,1.7-0.3c1.2,0,2,0.3,2.4,1c0.4,0.6,0.6,1.8,0.6,3.5v4.8h-1.3v-4.7c0-1.2-0.1-2.1-0.4-2.6s-0.8-0.7-1.5-0.7
		c-0.4,0-0.8,0.1-1.2,0.2s-0.7,0.2-1,0.3l-0.3,0.2c0.2,0.4,0.2,1.3,0.2,2.6v4.7H284v-4.6c0-1.3-0.1-2.2-0.4-2.6
		c-0.2-0.5-0.7-0.7-1.5-0.7c-0.4,0-0.8,0.1-1.2,0.2s-0.7,0.2-0.9,0.3l-0.3,0.2L279.8,265.7L279.8,265.7z"/>
	<path class="st24" d="M299.9,259.4v4.6c0,0.4,0.4,0.7,1,0.8l-0.1,1.1c-0.9,0-1.7-0.2-2.1-0.7c-1.1,0.5-2.2,0.7-3.2,0.7
		c-0.8,0-1.5-0.2-1.9-0.7s-0.6-1.1-0.6-2s0.2-1.5,0.7-1.9c0.4-0.4,1.1-0.7,2.1-0.8l2.8-0.3v-0.8c0-0.6-0.1-1-0.4-1.3
		s-0.6-0.4-1.1-0.4c-1,0-2,0.1-3,0.2l-0.6,0.1l-0.1-1c1.3-0.3,2.5-0.4,3.5-0.4s1.8,0.2,2.2,0.7C299.7,257.7,299.9,258.4,299.9,259.4
		z M294.4,263.1c0,1.1,0.5,1.7,1.4,1.7c0.8,0,1.6-0.1,2.4-0.4l0.4-0.1v-3l-2.7,0.3c-0.5,0-0.9,0.2-1.2,0.5S294.4,262.5,294.4,263.1z
		"/>
	<path class="st24" d="M302.6,269.7v-13h1.3v0.6c0.9-0.6,1.8-0.8,2.7-0.8c1.1,0,2,0.4,2.5,1.1s0.8,1.9,0.8,3.6s-0.3,2.9-0.9,3.6
		s-1.6,1.1-3,1.1c-0.7,0-1.4-0.1-2-0.2v4L302.6,269.7L302.6,269.7z M306.4,257.7c-0.4,0-0.7,0.1-1.2,0.2c-0.4,0.1-0.7,0.2-1,0.4
		l-0.3,0.2v6.1c0.9,0.1,1.5,0.2,1.9,0.2c1,0,1.7-0.3,2-0.8c0.4-0.6,0.6-1.5,0.6-2.7s-0.2-2.1-0.5-2.7S307.1,257.7,306.4,257.7z"/>
	<path class="st24" d="M317.7,257.8v7.8h-1.4v-7.8h-1.1v-1.2h1.1v-0.8c0-1.3,0.2-2.1,0.5-2.6c0.4-0.5,1-0.7,1.9-0.7l1.8,0.1v1.1
		c-0.7,0-1.2,0-1.7,0s-0.8,0.1-0.9,0.4c-0.2,0.3-0.3,0.8-0.3,1.7v0.8h2.6v1.2H317.7z"/>
	<path class="st24" d="M321.4,261.1c0-1.6,0.3-2.8,0.9-3.6c0.6-0.7,1.6-1.1,3-1.1s2.4,0.4,3,1.1s0.9,1.9,0.9,3.6
		c0,1.6-0.3,2.8-0.8,3.6s-1.6,1.1-3,1.1c-1.5,0-2.5-0.4-3-1.1C321.7,264,321.4,262.8,321.4,261.1z M322.8,261.1
		c0,1.3,0.2,2.2,0.5,2.8c0.3,0.5,1,0.8,2,0.8s1.7-0.3,2-0.8s0.5-1.4,0.5-2.8c0-1.3-0.2-2.2-0.5-2.7s-1-0.7-1.9-0.7s-1.6,0.2-1.9,0.7
		S322.8,259.8,322.8,261.1z"/>
	<path class="st24" d="M331.3,265.7v-9h1.3v1.2c1-0.7,2.1-1.2,3.3-1.4v1.4c-0.5,0.1-1,0.2-1.6,0.5c-0.5,0.2-1,0.4-1.3,0.5l-0.5,0.2
		v6.6L331.3,265.7L331.3,265.7z"/>
	<path class="st24" d="M340.7,256.7h1.3l2.2,7.8h0.6l2.3-7.8h1.4l-3.7,13h-1.4l1.2-4h-1.3L340.7,256.7z"/>
	<path class="st24" d="M349.6,261.1c0-1.6,0.3-2.8,0.9-3.6c0.6-0.7,1.6-1.1,3-1.1s2.4,0.4,3,1.1s0.9,1.9,0.9,3.6
		c0,1.6-0.3,2.8-0.8,3.6s-1.6,1.1-3,1.1c-1.5,0-2.5-0.4-3-1.1C349.9,264,349.6,262.8,349.6,261.1z M351,261.1c0,1.3,0.2,2.2,0.5,2.8
		c0.3,0.5,1,0.8,2,0.8s1.7-0.3,2-0.8s0.5-1.4,0.5-2.8c0-1.3-0.2-2.2-0.5-2.7s-1-0.7-1.9-0.7s-1.6,0.2-1.9,0.7S351,259.8,351,261.1z"
		/>
	<path class="st24" d="M365.1,256.7h1.4v9h-1.4v-0.6c-0.9,0.5-1.8,0.8-2.7,0.8c-1.2,0-2-0.3-2.4-1c-0.4-0.6-0.6-1.8-0.6-3.5v-4.7
		h1.4v4.7c0,1.3,0.1,2.2,0.3,2.6c0.2,0.4,0.7,0.7,1.5,0.7c0.4,0,0.8-0.1,1.2-0.2c0.4-0.1,0.7-0.2,0.9-0.3l0.3-0.2v-7.3H365.1z"/>
	<path class="st24" d="M369,265.7v-2.1h1.5v2.1H369z"/>
	<path class="st24" d="M377.2,265.7v-12.5h1.4v12.5H377.2z"/>
	<path class="st24" d="M392.2,252.7v12.9h-1.3v-0.5c-0.9,0.5-1.8,0.8-2.7,0.8c-0.5,0-0.9-0.1-1.3-0.2s-0.7-0.3-1-0.6
		c-0.6-0.6-1-1.8-1-3.6s0.3-3,0.9-3.8s1.5-1.2,2.9-1.2c0.7,0,1.4,0.1,2.2,0.2v-4L392.2,252.7L392.2,252.7z M387.6,264.5
		c0.2,0.1,0.5,0.1,0.8,0.1s0.7-0.1,1.2-0.2c0.4-0.1,0.8-0.2,1-0.3l0.4-0.2v-6.1c-0.8-0.1-1.5-0.2-2.1-0.2c-0.9,0-1.5,0.3-1.9,0.9
		s-0.5,1.5-0.5,2.7c0,1.4,0.2,2.3,0.6,2.8C387.1,264.3,387.3,264.4,387.6,264.5z"/>
	<path class="st24" d="M401,264.5l0.5-0.1v1.1c-1.4,0.2-2.5,0.3-3.5,0.3c-1.3,0-2.2-0.4-2.8-1.1c-0.5-0.7-0.8-1.9-0.8-3.5
		c0-3.2,1.3-4.7,3.8-4.7c1.2,0,2.1,0.3,2.7,1s0.9,1.7,0.9,3.2l-0.1,1h-5.9c0,1,0.2,1.7,0.5,2.2c0.4,0.5,1,0.7,1.9,0.7
		S400,264.6,401,264.5z M400.5,260.6c0-1.1-0.2-1.9-0.5-2.3s-0.9-0.7-1.7-0.7s-1.4,0.2-1.8,0.7s-0.6,1.2-0.6,2.3H400.5z"/>
	<path class="st24" d="M405.7,257.8v7.8h-1.4v-7.8h-1.1v-1.2h1.1v-0.8c0-1.3,0.2-2.1,0.5-2.6c0.4-0.5,1-0.7,1.9-0.7l1.8,0.1v1.1
		c-0.7,0-1.2,0-1.7,0s-0.8,0.1-0.9,0.4c-0.2,0.3-0.3,0.8-0.3,1.7v0.8h2.6v1.2H405.7z"/>
	<path class="st24" d="M409.9,254.6v-1.5h1.4v1.6L409.9,254.6L409.9,254.6z M409.9,265.7v-9h1.4v9H409.9z"/>
	<path class="st24" d="M415.2,265.7h-1.4v-9h1.3v0.6c1-0.5,1.9-0.8,2.8-0.8c1.2,0,2,0.3,2.4,1s0.6,1.8,0.6,3.5v4.8h-1.3v-4.7
		c0-1.2-0.1-2.1-0.4-2.6s-0.8-0.7-1.6-0.7c-0.4,0-0.8,0.1-1.2,0.2c-0.4,0.1-0.8,0.2-1,0.3l-0.3,0.2v7.2H415.2L415.2,265.7z"/>
	<path class="st24" d="M429.6,264.5l0.5-0.1v1.1c-1.4,0.2-2.5,0.3-3.5,0.3c-1.3,0-2.2-0.4-2.8-1.1c-0.5-0.7-0.8-1.9-0.8-3.5
		c0-3.2,1.3-4.7,3.8-4.7c1.2,0,2.1,0.3,2.7,1s0.9,1.7,0.9,3.2l-0.1,1h-5.9c0,1,0.2,1.7,0.5,2.2c0.4,0.5,1,0.7,1.9,0.7
		S428.7,264.6,429.6,264.5z M429.1,260.6c0-1.1-0.2-1.9-0.5-2.3s-0.9-0.7-1.7-0.7s-1.4,0.2-1.8,0.7s-0.6,1.2-0.6,2.3H429.1z"/>
	<path class="st24" d="M441.2,257.8h-2.9v4.3c0,1,0.1,1.7,0.2,2s0.5,0.5,1.1,0.5l1.6-0.1l0.1,1.1c-0.8,0.1-1.4,0.2-1.8,0.2
		c-0.9,0-1.6-0.2-1.9-0.7c-0.4-0.5-0.5-1.3-0.5-2.6v-4.7h-1.3v-1.2h1.3v-2.8h1.3v2.8h2.9v1.2L441.2,257.8L441.2,257.8z"/>
	<path class="st24" d="M444.2,265.7h-1.4v-12.9h1.4v4.4c1-0.5,1.9-0.7,2.8-0.7c1.2,0,2,0.3,2.4,1s0.6,1.8,0.6,3.5v4.8h-1.4v-4.7
		c0-1.2-0.1-2.1-0.4-2.6c-0.2-0.5-0.8-0.7-1.6-0.7c-0.8,0-1.5,0.1-2.2,0.4l-0.3,0.1v7.4L444.2,265.7L444.2,265.7z"/>
	<path class="st24" d="M458.7,264.5l0.5-0.1v1.1c-1.4,0.2-2.5,0.3-3.5,0.3c-1.3,0-2.2-0.4-2.8-1.1c-0.5-0.7-0.8-1.9-0.8-3.5
		c0-3.2,1.3-4.7,3.8-4.7c1.2,0,2.1,0.3,2.7,1s0.9,1.7,0.9,3.2l-0.1,1h-5.9c0,1,0.2,1.7,0.5,2.2c0.4,0.5,1,0.7,1.9,0.7
		S457.7,264.6,458.7,264.5z M458.2,260.6c0-1.1-0.2-1.9-0.5-2.3s-0.9-0.7-1.7-0.7s-1.4,0.2-1.8,0.7s-0.6,1.2-0.6,2.3H458.2z"/>
	<path class="st24" d="M467.3,257.8v7.8H466v-7.8h-1.1v-1.2h1.1v-0.8c0-1.3,0.2-2.1,0.5-2.6c0.4-0.5,1-0.7,1.9-0.7l1.8,0.1v1.1
		c-0.7,0-1.2,0-1.7,0s-0.8,0.1-0.9,0.4c-0.2,0.3-0.3,0.8-0.3,1.7v0.8h2.6v1.2H467.3z"/>
	<path class="st24" d="M477.5,264.5l0.5-0.1v1.1c-1.4,0.2-2.5,0.3-3.5,0.3c-1.3,0-2.2-0.4-2.8-1.1c-0.5-0.7-0.8-1.9-0.8-3.5
		c0-3.2,1.3-4.7,3.8-4.7c1.2,0,2.1,0.3,2.7,1s0.9,1.7,0.9,3.2l-0.1,1h-5.9c0,1,0.2,1.7,0.5,2.2c0.4,0.5,1,0.7,1.9,0.7
		S476.6,264.6,477.5,264.5z M477,260.6c0-1.1-0.2-1.9-0.5-2.3s-0.9-0.7-1.7-0.7s-1.4,0.2-1.8,0.7s-0.6,1.2-0.6,2.3H477z"/>
	<path class="st24" d="M486.8,259.4v4.6c0,0.4,0.4,0.7,1,0.8l-0.1,1.1c-0.9,0-1.7-0.2-2.1-0.7c-1.1,0.5-2.2,0.7-3.2,0.7
		c-0.8,0-1.5-0.2-1.9-0.7s-0.6-1.1-0.6-2s0.2-1.5,0.7-1.9c0.4-0.4,1.1-0.7,2.1-0.8l2.8-0.3v-0.8c0-0.6-0.1-1-0.4-1.3
		s-0.6-0.4-1.1-0.4c-1,0-2,0.1-3,0.2l-0.6,0.1l-0.1-1c1.3-0.3,2.5-0.4,3.5-0.4s1.8,0.2,2.2,0.7C486.6,257.7,486.8,258.4,486.8,259.4
		z M481.3,263.1c0,1.1,0.5,1.7,1.4,1.7c0.8,0,1.6-0.1,2.4-0.4l0.4-0.1v-3l-2.7,0.3c-0.5,0-0.9,0.2-1.2,0.5S481.3,262.5,481.3,263.1z
		"/>
	<path class="st24" d="M494.2,257.8h-2.9v4.3c0,1,0.1,1.7,0.2,2s0.5,0.5,1.1,0.5l1.6-0.1l0.1,1.1c-0.8,0.1-1.4,0.2-1.8,0.2
		c-0.9,0-1.6-0.2-1.9-0.7c-0.4-0.5-0.5-1.3-0.5-2.6v-4.7h-1.3v-1.2h1.3v-2.8h1.3v2.8h2.9v1.2L494.2,257.8L494.2,257.8z"/>
	<path class="st24" d="M501.4,256.7h1.4v9h-1.4v-0.6c-0.9,0.5-1.8,0.8-2.7,0.8c-1.2,0-2-0.3-2.4-1c-0.4-0.6-0.6-1.8-0.6-3.5v-4.7
		h1.4v4.7c0,1.3,0.1,2.2,0.3,2.6c0.2,0.4,0.7,0.7,1.5,0.7c0.4,0,0.8-0.1,1.2-0.2c0.4-0.1,0.7-0.2,0.9-0.3l0.3-0.2v-7.3H501.4z"/>
	<path class="st24" d="M505.4,265.7v-9h1.3v1.2c1-0.7,2.1-1.2,3.3-1.4v1.4c-0.5,0.1-1,0.2-1.6,0.5c-0.5,0.2-1,0.4-1.3,0.5l-0.5,0.2
		v6.6L505.4,265.7L505.4,265.7z"/>
	<path class="st24" d="M517.5,264.5l0.5-0.1v1.1c-1.4,0.2-2.5,0.3-3.5,0.3c-1.3,0-2.2-0.4-2.8-1.1c-0.5-0.7-0.8-1.9-0.8-3.5
		c0-3.2,1.3-4.7,3.8-4.7c1.2,0,2.1,0.3,2.7,1s0.9,1.7,0.9,3.2l-0.1,1h-5.9c0,1,0.2,1.7,0.5,2.2c0.4,0.5,1,0.7,1.9,0.7
		S516.6,264.6,517.5,264.5z M517,260.6c0-1.1-0.2-1.9-0.5-2.3s-0.9-0.7-1.7-0.7s-1.4,0.2-1.8,0.7c-0.4,0.5-0.6,1.2-0.6,2.3H517z"/>
	<path class="st24" d="M523.3,257.7c-1.3,0-2,0.5-2,1.4c0,0.4,0.1,0.7,0.4,0.9s1,0.4,2.1,0.5c1.1,0.2,1.8,0.4,2.3,0.8
		c0.4,0.3,0.7,1,0.7,1.9s-0.3,1.6-0.9,2c-0.6,0.4-1.5,0.6-2.6,0.6c-0.7,0-1.6-0.1-2.6-0.3l-0.5-0.1l0.1-1.2c1.4,0.2,2.4,0.3,3.1,0.3
		c0.7,0,1.2-0.1,1.6-0.3c0.4-0.2,0.5-0.6,0.5-1.1s-0.2-0.9-0.5-1.1s-1-0.4-2.1-0.5c-1.1-0.2-1.8-0.4-2.2-0.7s-0.7-0.9-0.7-1.8
		s0.3-1.5,0.9-1.9s1.4-0.6,2.3-0.6c0.7,0,1.6,0.1,2.8,0.3l0.5,0.1v1.2C525.1,257.8,524.1,257.7,523.3,257.7z"/>
	<path class="st24" d="M537.5,257.8h-2.9v4.3c0,1,0.1,1.7,0.2,2s0.5,0.5,1.1,0.5l1.6-0.1l0.1,1.1c-0.8,0.1-1.4,0.2-1.8,0.2
		c-0.9,0-1.6-0.2-1.9-0.7c-0.4-0.5-0.5-1.3-0.5-2.6v-4.7H532v-1.2h1.3v-2.8h1.3v2.8h2.9V257.8z"/>
	<path class="st24" d="M540.5,265.7h-1.4v-12.9h1.4v4.4c1-0.5,1.9-0.7,2.8-0.7c1.2,0,2,0.3,2.4,1s0.6,1.8,0.6,3.5v4.8H545v-4.7
		c0-1.2-0.1-2.1-0.4-2.6c-0.2-0.5-0.8-0.7-1.6-0.7s-1.5,0.1-2.2,0.4l-0.3,0.1V265.7z"/>
	<path class="st24" d="M555.2,259.4v4.6c0,0.4,0.4,0.7,1,0.8l-0.1,1.1c-0.9,0-1.7-0.2-2.1-0.7c-1.1,0.5-2.2,0.7-3.2,0.7
		c-0.8,0-1.5-0.2-1.9-0.7s-0.6-1.1-0.6-2s0.2-1.5,0.7-1.9c0.4-0.4,1.1-0.7,2.1-0.8l2.8-0.3v-0.8c0-0.6-0.1-1-0.4-1.3
		c-0.3-0.3-0.6-0.4-1.1-0.4c-1,0-2,0.1-3,0.2l-0.6,0.1l-0.1-1c1.3-0.3,2.5-0.4,3.5-0.4s1.8,0.2,2.2,0.7
		C554.9,257.7,555.2,258.4,555.2,259.4z M549.6,263.1c0,1.1,0.5,1.7,1.4,1.7c0.8,0,1.6-0.1,2.4-0.4l0.4-0.1v-3l-2.7,0.3
		c-0.5,0-0.9,0.2-1.2,0.5S549.6,262.5,549.6,263.1z"/>
	<path class="st24" d="M562.5,257.8h-2.9v4.3c0,1,0.1,1.7,0.2,2s0.5,0.5,1.1,0.5l1.6-0.1l0.1,1.1c-0.8,0.1-1.4,0.2-1.8,0.2
		c-0.9,0-1.6-0.2-1.9-0.7c-0.4-0.5-0.5-1.3-0.5-2.6v-4.7H557v-1.2h1.3v-2.8h1.3v2.8h2.9V257.8z"/>
	<path class="st24" d="M570.9,257.7c-1.3,0-2,0.5-2,1.4c0,0.4,0.1,0.7,0.4,0.9s1,0.4,2.1,0.5c1.1,0.2,1.8,0.4,2.3,0.8
		c0.4,0.3,0.7,1,0.7,1.9s-0.3,1.6-0.9,2c-0.6,0.4-1.5,0.6-2.6,0.6c-0.7,0-1.6-0.1-2.6-0.3l-0.5-0.1l0.1-1.2c1.4,0.2,2.4,0.3,3.1,0.3
		c0.7,0,1.2-0.1,1.6-0.3c0.4-0.2,0.5-0.6,0.5-1.1s-0.2-0.9-0.5-1.1s-1-0.4-2.1-0.5c-1.1-0.2-1.8-0.4-2.2-0.7s-0.7-0.9-0.7-1.8
		s0.3-1.5,0.9-1.9s1.4-0.6,2.3-0.6c0.7,0,1.6,0.1,2.8,0.3l0.5,0.1v1.2C572.8,257.8,571.7,257.7,570.9,257.7z"/>
	<path class="st24" d="M582.1,256.7h1.4v9h-1.4v-0.6c-0.9,0.5-1.8,0.8-2.7,0.8c-1.2,0-2-0.3-2.4-1c-0.4-0.6-0.6-1.8-0.6-3.5v-4.7
		h1.4v4.7c0,1.3,0.1,2.2,0.3,2.6s0.7,0.7,1.5,0.7c0.4,0,0.8-0.1,1.2-0.2s0.7-0.2,0.9-0.3l0.3-0.2L582.1,256.7L582.1,256.7z"/>
	<path class="st24" d="M586,254.6v-1.5h1.4v1.6L586,254.6L586,254.6z M586,265.7v-9h1.4v9H586z"/>
	<path class="st24" d="M594.6,257.8h-2.9v4.3c0,1,0.1,1.7,0.2,2s0.5,0.5,1.1,0.5l1.6-0.1l0.1,1.1c-0.8,0.1-1.4,0.2-1.8,0.2
		c-0.9,0-1.6-0.2-1.9-0.7c-0.4-0.5-0.5-1.3-0.5-2.6v-4.7h-1.3v-1.2h1.3v-2.8h1.3v2.8h2.9L594.6,257.8L594.6,257.8z"/>
	<path class="st24" d="M599.4,256.7h1.3l2.2,7.8h0.6l2.3-7.8h1.4l-3.7,13h-1.4l1.2-4H602L599.4,256.7z"/>
	<path class="st24" d="M608.4,261.1c0-1.6,0.3-2.8,0.9-3.6c0.6-0.7,1.6-1.1,3-1.1s2.4,0.4,3,1.1s0.9,1.9,0.9,3.6
		c0,1.6-0.3,2.8-0.8,3.6s-1.6,1.1-3,1.1c-1.5,0-2.5-0.4-3-1.1C608.7,264,608.4,262.8,608.4,261.1z M609.8,261.1
		c0,1.3,0.2,2.2,0.5,2.8c0.3,0.5,1,0.8,2,0.8s1.7-0.3,2-0.8s0.5-1.4,0.5-2.8c0-1.3-0.2-2.2-0.5-2.7s-1-0.7-1.9-0.7s-1.6,0.2-1.9,0.7
		S609.8,259.8,609.8,261.1z"/>
	<path class="st24" d="M623.9,256.7h1.4v9h-1.4v-0.6c-0.9,0.5-1.8,0.8-2.7,0.8c-1.2,0-2-0.3-2.4-1c-0.4-0.6-0.6-1.8-0.6-3.5v-4.7
		h1.4v4.7c0,1.3,0.1,2.2,0.3,2.6s0.7,0.7,1.5,0.7c0.4,0,0.8-0.1,1.2-0.2s0.7-0.2,0.9-0.3l0.3-0.2L623.9,256.7L623.9,256.7z"/>
	<path class="st24" d="M627.8,265.7v-2.1h1.5v2.1H627.8z"/>
	<path class="st24" d="M108,274.8h4.5c1.2,0,2.2,0.3,2.8,0.8c0.6,0.5,0.9,1.3,0.9,2.4c0,0.8-0.1,1.4-0.4,1.8s-0.7,0.8-1.2,1
		c1.3,0.5,2,1.4,2,2.9c0,1.2-0.3,2.1-1,2.7c-0.7,0.5-1.6,0.8-2.9,0.8H108V274.8z M112.5,276h-3.1v4.3h3.2c0.8,0,1.3-0.2,1.7-0.5
		c0.4-0.4,0.5-0.9,0.5-1.7c0-0.7-0.2-1.3-0.6-1.6S113.3,276,112.5,276z M112.6,281.5h-3.2v4.5h3.3c0.8,0,1.4-0.2,1.9-0.5
		c0.4-0.3,0.6-0.9,0.6-1.8c0-0.5-0.1-0.8-0.3-1.2c-0.2-0.3-0.4-0.5-0.7-0.7C113.7,281.7,113.2,281.5,112.6,281.5z"/>
	<path class="st24" d="M125,286.1l0.5-0.1v1.1c-1.4,0.2-2.5,0.3-3.5,0.3c-1.3,0-2.2-0.4-2.8-1.1c-0.5-0.7-0.8-1.9-0.8-3.5
		c0-3.2,1.3-4.7,3.8-4.7c1.2,0,2.1,0.3,2.7,1s0.9,1.7,0.9,3.2l-0.1,1h-5.9c0,1,0.2,1.7,0.5,2.2c0.4,0.5,1,0.7,1.9,0.7
		S124.1,286.2,125,286.1z M124.5,282.2c0-1.1-0.2-1.9-0.5-2.3s-0.9-0.7-1.7-0.7s-1.4,0.2-1.8,0.7s-0.6,1.2-0.6,2.3H124.5z"/>
	<path class="st24" d="M135.3,278.1c0.4,0,1.1,0.1,2,0.2l0.4,0.1l-0.1,1.1c-1-0.1-1.7-0.2-2.1-0.2c-1,0-1.7,0.2-2.1,0.7
		c-0.4,0.5-0.5,1.4-0.5,2.7s0.2,2.2,0.5,2.7s1.1,0.8,2.1,0.8l2.1-0.2l0.1,1.1c-1.1,0.2-2,0.3-2.5,0.3c-1.4,0-2.4-0.4-2.9-1.1
		s-0.8-1.9-0.8-3.6s0.3-2.9,0.9-3.6C133,278.4,133.9,278.1,135.3,278.1z"/>
	<path class="st24" d="M139.3,282.7c0-1.6,0.3-2.8,0.9-3.6c0.6-0.7,1.6-1.1,3-1.1s2.4,0.4,3,1.1s0.9,1.9,0.9,3.6
		c0,1.6-0.3,2.8-0.8,3.6s-1.6,1.1-3,1.1c-1.5,0-2.5-0.4-3-1.1C139.5,285.6,139.3,284.4,139.3,282.7z M140.7,282.7
		c0,1.3,0.2,2.2,0.5,2.8c0.3,0.5,1,0.8,2,0.8s1.7-0.3,2-0.8s0.5-1.4,0.5-2.8c0-1.3-0.2-2.2-0.5-2.7s-1-0.7-1.9-0.7s-1.6,0.2-1.9,0.7
		S140.7,281.4,140.7,282.7z"/>
	<path class="st24" d="M150.5,287.3h-1.4v-9h1.3v0.6c1-0.5,1.9-0.8,2.8-0.8c1.2,0,2,0.3,2.4,1s0.6,1.8,0.6,3.5v4.8H155v-4.7
		c0-1.2-0.1-2.1-0.4-2.6s-0.8-0.7-1.6-0.7c-0.4,0-0.8,0.1-1.2,0.2s-0.8,0.2-1,0.3l-0.3,0.2V287.3z"/>
	<path class="st24" d="M160.6,279.4v7.8h-1.4v-7.8h-1.1v-1.2h1.1v-0.8c0-1.3,0.2-2.1,0.5-2.6c0.4-0.5,1-0.7,1.9-0.7l1.8,0.1v1.1
		c-0.7,0-1.2,0-1.7,0s-0.8,0.1-0.9,0.4c-0.2,0.3-0.3,0.8-0.3,1.7v0.8h2.6v1.2H160.6z"/>
	<path class="st24" d="M164.8,276.2v-1.6h1.4v1.6H164.8z M164.8,287.3v-9h1.4v9H164.8z"/>
	<path class="st24" d="M175.6,274.3v12.9h-1.3v-0.6c-0.9,0.5-1.8,0.8-2.7,0.8c-0.5,0-0.9-0.1-1.3-0.2c-0.4-0.1-0.7-0.3-1-0.6
		c-0.6-0.6-1-1.8-1-3.6s0.3-3,0.9-3.8c0.6-0.8,1.5-1.2,2.9-1.2c0.7,0,1.4,0.1,2.2,0.2v-4L175.6,274.3L175.6,274.3z M171,286.1
		c0.2,0.1,0.5,0.1,0.8,0.1s0.7-0.1,1.2-0.2c0.4-0.1,0.8-0.2,1-0.3l0.4-0.2v-6.1c-0.8-0.1-1.5-0.2-2.1-0.2c-0.9,0-1.5,0.3-1.9,0.9
		s-0.5,1.5-0.5,2.7c0,1.4,0.2,2.3,0.6,2.8C170.5,285.9,170.8,286,171,286.1z"/>
	<path class="st24" d="M184.4,286.1l0.5-0.1v1.1c-1.4,0.2-2.5,0.3-3.5,0.3c-1.3,0-2.2-0.4-2.8-1.1c-0.5-0.7-0.8-1.9-0.8-3.5
		c0-3.2,1.3-4.7,3.8-4.7c1.2,0,2.1,0.3,2.7,1s0.9,1.7,0.9,3.2l-0.1,1h-5.9c0,1,0.2,1.7,0.5,2.2c0.4,0.5,1,0.7,1.9,0.7
		S183.5,286.2,184.4,286.1z M183.9,282.2c0-1.1-0.2-1.9-0.5-2.3s-0.9-0.7-1.7-0.7s-1.4,0.2-1.8,0.7c-0.4,0.5-0.6,1.2-0.6,2.3H183.9z
		"/>
	<path class="st24" d="M188.7,287.3h-1.4v-9h1.3v0.6c1-0.5,1.9-0.8,2.8-0.8c1.2,0,2,0.3,2.4,1s0.6,1.8,0.6,3.5v4.8h-1.3v-4.7
		c0-1.2-0.1-2.1-0.4-2.6s-0.8-0.7-1.6-0.7c-0.4,0-0.8,0.1-1.2,0.2s-0.8,0.2-1,0.3l-0.3,0.2L188.7,287.3L188.7,287.3z"/>
	<path class="st24" d="M201.6,279.4h-2.9v4.3c0,1,0.1,1.7,0.2,2s0.5,0.5,1.1,0.5l1.6-0.1l0.1,1.1c-0.8,0.1-1.4,0.2-1.8,0.2
		c-0.9,0-1.6-0.2-1.9-0.7c-0.4-0.5-0.5-1.3-0.5-2.6v-4.7h-1.3v-1.2h1.3v-2.8h1.3v2.8h2.9v1.2H201.6z"/>
	<path class="st24" d="M203.5,287.3v-2h1.5v2H203.5z M203.6,283.2l-0.1-8.4h1.4l-0.1,8.4H203.6z"/>
</g>
<g>
	<path class="st24" d="M114.8,179.2h-3.2v4.9H109v-15.8h5.8c3.6,0,5.4,1.8,5.4,5.3c0,1.8-0.4,3.2-1.3,4.1
		C117.9,178.8,116.5,179.2,114.8,179.2z M111.6,177h3.2c1.8,0,2.8-1.1,2.8-3.4c0-1.1-0.2-1.9-0.7-2.3c-0.4-0.5-1.1-0.7-2.1-0.7h-3.2
		C111.6,170.6,111.6,177,111.6,177z"/>
	<path class="st24" d="M122.3,184.1v-11.5h2.5v1.4c1.3-0.8,2.6-1.4,3.9-1.6v2.5c-1.3,0.3-2.4,0.6-3.4,1l-0.5,0.2v8L122.3,184.1
		L122.3,184.1z"/>
	<path class="st24" d="M131.1,173.9c0.8-1,2.1-1.5,3.9-1.5c1.8,0,3.2,0.5,3.9,1.5c0.8,1,1.2,2.5,1.2,4.5s-0.4,3.5-1.1,4.5
		c-0.8,1-2.1,1.5-4,1.5s-3.2-0.5-4-1.5s-1.2-2.5-1.2-4.5C129.9,176.4,130.3,174.9,131.1,173.9z M133,181.4c0.4,0.6,1,0.9,2.1,0.9
		c1,0,1.7-0.3,2.1-0.9c0.4-0.6,0.5-1.6,0.5-3s-0.2-2.4-0.6-3c-0.4-0.6-1.1-0.9-2-0.9c-1,0-1.7,0.3-2,0.9c-0.4,0.6-0.6,1.6-0.6,3
		S132.7,180.7,133,181.4z"/>
	<path class="st24" d="M152.1,167.8v16.3h-2.5v-0.6c-1.1,0.6-2.1,0.9-3.1,0.9c-1.5,0-2.6-0.5-3.3-1.4s-1-2.4-1-4.6
		c0-2.1,0.4-3.7,1.2-4.6s2-1.4,3.6-1.4c0.6,0,1.4,0.1,2.6,0.3v-4.8L152.1,167.8L152.1,167.8z M149.2,181.7l0.4-0.2v-6.8
		c-0.9-0.2-1.8-0.2-2.6-0.2c-1.5,0-2.3,1.3-2.3,3.9c0,1.4,0.2,2.4,0.5,2.9c0.4,0.5,0.9,0.8,1.7,0.8
		C147.7,182.2,148.5,182,149.2,181.7z"/>
	<path class="st24" d="M162.1,172.6h2.5v11.5h-2.5v-0.7c-1.1,0.6-2.2,1-3.1,1c-1.6,0-2.6-0.4-3.2-1.3c-0.5-0.9-0.8-2.3-0.8-4.5v-6
		h2.5v6c0,1.4,0.1,2.3,0.3,2.8s0.8,0.7,1.6,0.7s1.6-0.2,2.3-0.5l0.3-0.1L162.1,172.6L162.1,172.6z"/>
	<path class="st24" d="M171.9,172.4c0.8,0,1.8,0.1,2.9,0.3l0.6,0.1l-0.1,2c-1.2-0.1-2.1-0.2-2.7-0.2c-1.2,0-1.9,0.3-2.3,0.8
		c-0.4,0.5-0.6,1.5-0.6,2.9s0.2,2.4,0.6,3c0.4,0.6,1.2,0.8,2.4,0.8l2.7-0.2l0.1,2c-1.5,0.3-2.7,0.4-3.5,0.4c-1.7,0-3-0.5-3.7-1.4
		s-1.1-2.5-1.1-4.6s0.4-3.7,1.1-4.6S170.2,172.4,171.9,172.4z"/>
	<path class="st24" d="M184,174.8h-3.2v5.1c0,0.9,0.1,1.6,0.2,1.9c0.1,0.3,0.5,0.5,1.1,0.5l1.9-0.1l0.1,2c-1,0.2-1.8,0.3-2.3,0.3
		c-1.3,0-2.2-0.3-2.7-0.9c-0.5-0.6-0.7-1.7-0.7-3.4v-5.3h-1.5v-2.1h1.5v-3.3h2.5v3.3h3.2v2H184z"/>
	<path class="st24" d="M191.4,184.1v-15.8h4.4l3.5,12.3l3.5-12.3h4.5v15.8h-2.6v-12.9h-0.3l-3.7,12.3H198l-3.7-12.3H194v12.9H191.4z
		"/>
	<path class="st24" d="M219.1,176.2v5.2c0,0.3,0.1,0.6,0.3,0.7s0.4,0.3,0.7,0.3l-0.1,1.9c-1.3,0-2.3-0.3-3.1-0.9
		c-1.2,0.6-2.5,0.9-3.7,0.9c-2.3,0-3.4-1.2-3.4-3.7c0-1.2,0.3-2,0.9-2.5s1.6-0.8,2.9-0.9l3-0.3v-0.8c0-0.6-0.1-1-0.4-1.3
		c-0.3-0.2-0.7-0.4-1.2-0.4c-1,0-2.2,0.1-3.7,0.2h-0.7l-0.1-1.8c1.7-0.4,3.2-0.6,4.6-0.6s2.4,0.3,3,0.9
		C218.8,173.9,219.1,174.9,219.1,176.2z M214,179c-1.1,0.1-1.6,0.7-1.6,1.7c0,1.1,0.5,1.6,1.4,1.6c0.8,0,1.6-0.1,2.4-0.4l0.4-0.1
		v-3.1L214,179z"/>
	<path class="st24" d="M224.8,184.1h-2.5v-11.5h2.5v0.7c1.1-0.6,2.2-1,3.2-1c1.5,0,2.6,0.4,3.1,1.3c0.6,0.9,0.8,2.3,0.8,4.3v6.2
		h-2.5V178c0-1.2-0.1-2.1-0.4-2.6c-0.3-0.5-0.8-0.8-1.6-0.8s-1.5,0.2-2.3,0.5l-0.3,0.1V184.1z"/>
	<path class="st24" d="M243.3,176.2v5.2c0,0.3,0.1,0.6,0.3,0.7s0.4,0.3,0.7,0.3l-0.1,1.9c-1.3,0-2.3-0.3-3.1-0.9
		c-1.2,0.6-2.5,0.9-3.7,0.9c-2.3,0-3.4-1.2-3.4-3.7c0-1.2,0.3-2,0.9-2.5s1.6-0.8,2.9-0.9l3-0.3v-0.8c0-0.6-0.1-1-0.4-1.3
		c-0.3-0.2-0.7-0.4-1.2-0.4c-1,0-2.2,0.1-3.7,0.2h-0.7l-0.1-1.8c1.7-0.4,3.2-0.6,4.6-0.6s2.4,0.3,3,0.9
		C243,173.9,243.3,174.9,243.3,176.2z M238.2,179c-1.1,0.1-1.6,0.7-1.6,1.7c0,1.1,0.5,1.6,1.4,1.6c0.8,0,1.6-0.1,2.4-0.4l0.4-0.1
		v-3.1L238.2,179z"/>
	<path class="st24" d="M256.5,185.7c0,2.5-1.8,3.8-5.5,3.8c-1.7,0-3-0.2-3.9-0.7c-0.8-0.5-1.3-1.3-1.3-2.6c0-0.6,0.1-1.1,0.4-1.5
		s0.7-0.8,1.3-1.3c-0.5-0.3-0.8-0.9-0.8-1.7c0-0.3,0.2-0.8,0.6-1.5l0.2-0.3c-1.1-0.7-1.7-1.8-1.7-3.4c0-1.4,0.4-2.4,1.2-3
		s1.9-1,3.4-1c0.7,0,1.3,0.1,2,0.2l0.3,0.1l3.6-0.1v2l-1.9-0.1c0.4,0.5,0.6,1.2,0.6,1.9c0,1.5-0.4,2.5-1.1,3.1
		c-0.8,0.6-1.9,0.9-3.6,0.9c-0.4,0-0.7,0-1-0.1c-0.2,0.5-0.3,0.9-0.3,1.2s0.1,0.5,0.4,0.6s1,0.2,2.1,0.2c1.8,0,3.1,0.3,3.7,0.7
		C256.2,183.5,256.5,184.4,256.5,185.7z M248.4,185.9c0,0.5,0.2,0.9,0.6,1.2c0.4,0.2,1.2,0.3,2.2,0.3c1.9,0,2.8-0.5,2.8-1.6
		c0-0.6-0.2-1-0.5-1.1s-1-0.2-2-0.3l-2.3-0.1c-0.3,0.3-0.6,0.5-0.7,0.8C248.5,185.3,248.4,185.6,248.4,185.9z M249.1,178
		c0.3,0.3,0.9,0.5,1.6,0.5c0.8,0,1.3-0.2,1.6-0.5s0.5-0.8,0.5-1.6s-0.2-1.2-0.5-1.6s-0.9-0.5-1.6-0.5c-1.4,0-2.1,0.7-2.1,2
		C248.6,177.1,248.8,177.6,249.1,178z"/>
	<path class="st24" d="M266.8,182.1l0.6-0.1v1.9c-1.7,0.4-3.3,0.5-4.6,0.5c-1.7,0-2.9-0.5-3.7-1.4c-0.7-0.9-1.1-2.4-1.1-4.5
		c0-4.1,1.7-6.1,5-6.1c3.2,0,4.8,1.8,4.8,5.3l-0.2,1.8h-7.1c0,1,0.2,1.6,0.6,2.1c0.4,0.4,1.1,0.7,2.2,0.7
		C264.5,182.2,265.6,182.2,266.8,182.1z M265.4,177.5c0-1.1-0.2-1.9-0.5-2.4c-0.4-0.5-1-0.7-1.8-0.7c-0.9,0-1.5,0.2-1.9,0.7
		s-0.6,1.3-0.6,2.3L265.4,177.5L265.4,177.5z"/>
	<path class="st24" d="M270.2,184.1v-11.5h2.5v1.4c1.3-0.8,2.6-1.4,3.9-1.6v2.5c-1.3,0.3-2.4,0.6-3.4,1l-0.5,0.2v8L270.2,184.1
		L270.2,184.1z"/>
</g>
</svg>
