<?xml version="1.0" encoding="utf-8"?>
<!-- Generator: Adobe Illustrator 24.1.0, SVG Export Plug-In . SVG Version: 6.00 Build 0)  -->
<svg version="1.1" id="Layer_1" xmlns="http://www.w3.org/2000/svg" xmlns:xlink="http://www.w3.org/1999/xlink" x="0px" y="0px"
	 viewBox="0 0 1435.2 329.6" style="enable-background:new 0 0 1435.2 329.6;" xml:space="preserve">
<style type="text/css">
	.st0{fill:#F4F1ED;}
	.st1{fill:none;stroke:#698588;stroke-width:2;stroke-miterlimit:10;}
	.st2{fill:#EFB63B;stroke:#698588;stroke-width:2;stroke-linecap:round;stroke-linejoin:round;}
	.st3{fill:none;stroke:#305F89;stroke-width:2.5;stroke-linecap:round;stroke-linejoin:round;}
	.st4{fill:none;stroke:#305F89;stroke-width:2;stroke-linecap:round;stroke-linejoin:round;}
	.st5{fill:none;stroke:#305F89;stroke-width:2;stroke-miterlimit:10;}
	.st6{display:none;}
	
		.st7{display:inline;fill:none;stroke:#C9A87E;stroke-width:1.0743;stroke-linecap:round;stroke-linejoin:round;stroke-miterlimit:10;}
	.st8{display:inline;fill:none;stroke:#C9A87E;stroke-width:1.3653;stroke-miterlimit:10;}
	.st9{display:inline;fill:#C9A87E;}
	
		.st10{display:inline;fill:none;stroke:#C9A87E;stroke-width:1.5;stroke-linecap:round;stroke-linejoin:round;stroke-miterlimit:10;}
	.st11{display:inline;}
	.st12{fill:none;stroke:#C9A87E;stroke-width:1.5;stroke-linecap:round;stroke-linejoin:round;stroke-miterlimit:10;}
	.st13{fill:#EFB63B;stroke:#305F89;stroke-width:2.2341;stroke-miterlimit:10;}
	.st14{fill:none;stroke:#EFB63B;stroke-width:2;stroke-miterlimit:10;}
	.st15{fill:#EFB63B;stroke:#305F89;stroke-width:1.5016;stroke-miterlimit:10;}
	.st16{fill:none;stroke:#698588;stroke-width:2.5;stroke-linecap:round;stroke-linejoin:round;}
	.st17{fill:#FFFFFF;stroke:#698588;stroke-width:2.5;stroke-linecap:round;stroke-linejoin:round;}
	.st18{fill:none;stroke:#EFB63B;stroke-width:2.5;stroke-linecap:round;stroke-linejoin:round;}
	.st19{fill:#EFB63B;}
	.st20{fill:none;stroke:#EFB63B;stroke-width:2;stroke-linecap:round;stroke-linejoin:round;}
	.st21{fill:#698588;}
	.st22{fill:none;stroke:#698588;stroke-width:2;stroke-linecap:round;stroke-linejoin:round;}
	.st23{fill:#303030;}
</style>
<polygon class="st0" points="702.4,252.2 675.7,252.2 656.9,271 656.9,297.6 675.7,316.5 702.4,316.5 721.1,297.6 721.1,271 "/>
<g id="XMLID_1_">
	<g>
		<path class="st1" d="M699.9,303.8c-3.5,2.3-7.7,3.6-12.2,3.6c-12,0-21.6-9.7-21.6-21.6c0-12,9.7-21.6,21.6-21.6h0.3v21.5
			L699.9,303.8z"/>
		<path class="st2" d="M712.1,285.8c0,6.7-3.1,12.8-7.9,16.8L692,285.7l0,0L712.1,285.8L712.1,285.8L712.1,285.8z"/>
		<path class="st1" d="M712.5,281.9h-21v-20.6C702.6,262.5,711.3,271.2,712.5,281.9z"/>
	</g>
</g>
<path class="st3" d="M737.6,85.9h-5h-0.9v-6.7V68.6l-18-9.3l-0.3-36.2l-36.3-0.3l-0.1-0.4l-8.2-17.9h-82l-8.3,18.3l-36.3,0.3
	l-0.3,36.2l-18,9.3v80l18,9.3l0.3,36.2l36.3,0.3l8.3,18.3h36.6c0.3,0,8.9,0,8.9,0h36.4l8.3-18.3l36.3-0.3l0.3-36.2l18-9.3v-9.8V86"
	/>
<path class="st0" d="M716.8,134.4v8.3l-15.5,7.9l-0.3,31.1l-31.2,0.3l-7.1,15.6h-31.3c0,0-7.4,0-7.7,0h-31.3l-7.1-15.6l-31.2-0.3
	l-0.3-31.1l-15.5-7.9V74.1l15.5-7.9l0.3-31.1l31.2-0.3l7.1-15.6h70.2l7,15.3l0.1,0.4l31.2,0.3l0.3,31.1l15.5,7.9v9V89L716.8,134.4
	L716.8,134.4z"/>
<line class="st4" x1="734.9" y1="84.6" x2="1336.7" y2="84.6"/>
<polygon class="st5" points="826.9,127.7 792.8,127.7 768.7,151.8 768.7,185.9 792.8,209.9 826.9,209.9 850.8,185.9 850.8,151.8 "/>
<polygon class="st0" points="822.6,136.6 796,136.6 777.2,155.4 777.2,182 796,200.9 822.6,200.9 841.4,182 841.4,155.4 "/>
<polygon class="st0" points="462.8,126.2 436.1,126.2 417.3,145.1 417.3,171.7 436.1,190.5 462.8,190.5 481.6,171.7 481.6,145.1 "/>
<polygon class="st5" points="466,118.2 432.1,118.2 407.9,142.2 407.9,176.3 432.1,200.4 466,200.4 490.2,176.3 490.2,142.2 "/>
<polygon class="st5" points="706.3,242.8 672.2,242.8 648.3,266.9 648.3,300.9 672.2,325.1 706.3,325.1 730.4,300.9 730.4,266.9 "/>
<polyline class="st5" points="524.6,109.3 480,109.3 466,118.7 "/>
<polyline class="st5" points="648.3,213.1 648.3,248.6 657.8,257.6 "/>
<line class="st5" x1="714.4" y1="176.3" x2="768.8" y2="176.3"/>
<g class="st6">
	<path class="st7" d="M794.4-248.5c5.5,8,8.7,17.6,8.7,28c0,27.2-22.1,49.3-49.3,49.3s-49.3-22.1-49.3-49.3s22.1-49.3,49.3-49.3
		c11,0,21.1,3.6,29.3,9.7"/>
	<path class="st7" d="M791.4-220.4c0,20.7-16.8,37.5-37.5,37.5s-37.5-16.8-37.5-37.5s16.8-37.5,37.5-37.5c10.5,0,20.1,4.4,26.9,11.4
		C787.3-239.8,791.4-230.6,791.4-220.4z"/>
	<circle class="st7" cx="753.9" cy="-220.4" r="26.4"/>
	<circle class="st8" cx="753.9" cy="-220.4" r="15.8"/>
	<circle class="st9" cx="753.9" cy="-220.4" r="6.9"/>
	<polyline class="st10" points="798.2,-263.9 789,-255.2 782.6,-249.1 780.5,-247.1 754.5,-222.2 	"/>
	<polyline class="st10" points="782.8,-260.5 782.9,-260.5 790.1,-267.5 790.7,-268.1 798.4,-275.5 	"/>
	<line class="st10" x1="782.8" y1="-260.5" x2="782.6" y2="-249.1"/>
	<line class="st10" x1="790.5" y1="-256.7" x2="790.7" y2="-268.1"/>
	<line class="st10" x1="798.2" y1="-264.1" x2="798.4" y2="-275.5"/>
	<g class="st11">
		<polyline class="st12" points="794.1,-248.9 801.4,-255.9 809.7,-263.9 		"/>
		<line class="st12" x1="794.1" y1="-248.9" x2="782.8" y2="-249.1"/>
		<line class="st12" x1="802" y1="-256.5" x2="790.6" y2="-256.7"/>
		<line class="st12" x1="809.7" y1="-263.9" x2="798.3" y2="-264.1"/>
	</g>
</g>
<circle class="st13" cx="1350.8" cy="83.9" r="13.8"/>
<g>
	<g>
		<polyline class="st1" points="813.2,147.4 804.2,147.4 803.8,150.4 799.9,152.1 796.9,150.4 790.5,156.8 792.2,159.4 790.5,163.6 
			787.5,164.2 787.5,173.6 790.5,174 792.2,177.9 790.5,180.8 796.9,187.3 799.5,185.5 803.8,187.3 804.2,190.2 813.2,190.2 		"/>
		<polyline class="st1" points="804.7,147.4 813.6,147.4 814,150.4 817.9,152.1 821,150.4 827.3,156.8 825.7,159.4 827.3,163.6 
			830.3,164.2 830.3,173.6 827.3,174 825.7,177.9 827.3,180.8 821,187.3 818.4,185.5 814,187.3 813.6,190.2 804.7,190.2 		"/>
	</g>
	<circle class="st1" cx="808.9" cy="168.9" r="12.9"/>
	<circle class="st14" cx="808.9" cy="168.9" r="15.5"/>
</g>
<path class="st15" d="M738.3,84.3c0,0.3,0,0.5,0,0.8c-0.4,2.7-2.4,4.7-5.1,5.1c-0.3,0-0.5,0.1-0.9,0.1c-3.4,0-6-2.7-6-6s2.7-6,6-6
	c0.3,0,0.5,0,0.9,0.1C736,78.8,738.3,81.4,738.3,84.3z"/>
<circle class="st15" cx="524.7" cy="109.7" r="4.7"/>
<circle class="st15" cx="648.1" cy="212.3" r="4.7"/>
<circle class="st15" cx="714.7" cy="176.9" r="4.7"/>
<g>
	<polyline class="st16" points="590.7,125.7 582,155.8 595.4,152.5 606.6,170.3 613.2,149.6 	"/>
	<polyline class="st16" points="645,150.8 651.6,171.5 662.8,153.7 676.2,157 667.5,127.1 	"/>
	<path class="st17" d="M629.2,50.3c-0.1,0.1-0.3,0.3-0.3,0.3c-4.6,3.2-12,7.7-21.9,10.4c-11,3-20.4,2.6-26.1,1.9
		c-2.3,25,0.5,46.2,9.9,62.8c5.4,9.5,12.8,17.5,22.4,23.9c4.7,3.1,9.9,5.8,15.7,8.1c0.1,0.1,0.3,0.1,0.3,0.1"/>
	<g>
		<path class="st17" d="M629.3,157.7c38.7-15.3,53.2-48.8,48.9-95c-5.6,0.7-15.1,1.1-26.1-1.9c-9.9-2.7-18.3-7.1-22.9-10.4"/>
	</g>
	<path class="st18" d="M629.3,59.4c-0.1,0.1-0.1,0.1-0.3,0.1c-3.8,2.7-9.9,6.5-18.3,8.7c-9.3,2.6-17.1,2.2-21.9,1.6
		c-2,21,0.4,38.7,8.3,52.6c4.4,7.9,10.6,14.7,18.8,20c3.9,2.6,8.3,4.8,13.2,6.7c0.1,0.1,0.1,0.1,0.3,0.1"/>
	<g>
		<path class="st18" d="M629.4,149.2c32.4-12.8,44.5-40.9,40.9-79.6c-4.7,0.5-12.6,0.9-21.9-1.6c-8.3-2.3-15.3-5.9-19.1-8.7"/>
	</g>
	<polyline class="st18" points="610.3,107.7 622.8,120.2 650.1,92.9 	"/>
</g>
<g>
	<g id="XMLID_2_">
		<g>
			<polygon class="st19" points="459.9,147.9 457.9,158 453.9,153.9 			"/>
			<polygon class="st19" points="459.9,147.9 453.9,153.9 449.6,149.6 			"/>
		</g>
		<g>
			<polyline class="st20" points="449.6,149.6 459.9,147.9 453.9,153.9 439.5,168.2 428.9,157.6 423,163.5 			"/>
			<polyline class="st20" points="449.6,149.6 453.9,153.9 457.9,158 459.9,147.9 			"/>
		</g>
	</g>
	<g id="XMLID_5_">
		<g>
			<polygon class="st21" points="475.4,144.4 473.2,156 468.5,151.4 			"/>
			<polygon class="st21" points="475.4,144.4 468.5,151.4 463.7,146.5 			"/>
		</g>
		<g>
			<polyline class="st22" points="463.7,146.5 475.4,144.4 468.5,151.4 452.1,167.6 440,155.6 422.6,173 			"/>
			<polyline class="st22" points="463.7,146.5 468.5,151.4 473.2,156 475.4,144.4 			"/>
		</g>
	</g>
</g>
<g>
	<path class="st23" d="M1160.5,72c-2.4,0-4.1-0.6-5-1.9s-1.4-3.3-1.4-6.1s0.5-4.8,1.4-6.2c1-1.3,2.6-2,5-2s4,0.7,5,2
		s1.4,3.4,1.4,6.2c0,1.8-0.2,3.3-0.6,4.5c-0.4,1.1-1,2-1.9,2.6l1.9,3.1l-2.4,1.1l-2-3.4C1161.6,72,1161.2,72,1160.5,72z
		 M1157.5,68.4c0.5,0.9,1.5,1.3,3,1.3s2.5-0.4,3-1.3s0.8-2.4,0.8-4.5s-0.3-3.6-0.8-4.6s-1.5-1.4-3-1.4c-1.4,0-2.4,0.5-3,1.4
		c-0.5,1-0.8,2.5-0.8,4.6S1157,67.5,1157.5,68.4z"/>
	<path class="st23" d="M1176.6,60.2h2.5v11.5h-2.5V71c-1.1,0.6-2.2,1-3.1,1c-1.6,0-2.6-0.4-3.2-1.3c-0.5-0.9-0.8-2.3-0.8-4.5v-6h2.5
		v6c0,1.4,0.1,2.3,0.3,2.8c0.2,0.5,0.8,0.7,1.6,0.7c0.8,0,1.6-0.2,2.3-0.5l0.3-0.1L1176.6,60.2L1176.6,60.2z"/>
	<path class="st23" d="M1190.6,63.8V69c0,0.3,0.1,0.6,0.3,0.7c0.2,0.2,0.4,0.3,0.7,0.3l-0.1,1.9c-1.3,0-2.3-0.3-3.1-0.9
		c-1.2,0.6-2.5,0.9-3.7,0.9c-2.3,0-3.4-1.2-3.4-3.7c0-1.2,0.3-2,0.9-2.5s1.6-0.8,2.9-0.9l3-0.3v-0.8c0-0.6-0.1-1-0.4-1.3
		c-0.3-0.2-0.7-0.4-1.2-0.4c-1,0-2.2,0.1-3.7,0.2h-0.7l-0.1-1.8c1.7-0.4,3.2-0.6,4.6-0.6s2.4,0.3,3,0.9
		C1190.3,61.5,1190.6,62.5,1190.6,63.8z M1185.4,66.6c-1.1,0.1-1.6,0.7-1.6,1.7c0,1.1,0.5,1.6,1.4,1.6c0.8,0,1.6-0.1,2.4-0.4
		l0.4-0.1v-3.1L1185.4,66.6z"/>
	<path class="st23" d="M1193.9,71.7V55.4h2.5v16.3H1193.9z"/>
	<path class="st23" d="M1199.6,58.3v-2.6h2.5v2.6H1199.6z M1199.6,71.7V60.2h2.5v11.5H1199.6z"/>
	<path class="st23" d="M1211.3,62.4h-3.2v5.1c0,0.9,0.1,1.6,0.2,1.9s0.5,0.5,1.1,0.5l1.9-0.1l0.1,2c-1,0.2-1.8,0.3-2.3,0.3
		c-1.3,0-2.2-0.3-2.7-0.9s-0.7-1.7-0.7-3.4v-5.3h-1.5v-2.1h1.5v-3.3h2.5v3.3h3.2L1211.3,62.4L1211.3,62.4z"/>
	<path class="st23" d="M1212.3,60.2h2.5l2.4,9.4h0.6l2.4-9.4h2.5l-4.4,16.4h-2.5l1.4-4.9h-2L1212.3,60.2z"/>
	<path class="st23" d="M1228.7,71.7l3.9-15.8h5.1l3.9,15.8h-2.6l-0.9-3.4h-6l-0.8,3.4H1228.7z M1234.5,58.1l-2,8h5l-1.9-8
		C1235.6,58.1,1234.5,58.1,1234.5,58.1z"/>
	<path class="st23" d="M1251.5,62.6c-1.8-0.2-3.1-0.4-3.9-0.4s-1.4,0.1-1.7,0.3c-0.3,0.2-0.5,0.5-0.5,0.9s0.2,0.7,0.5,0.9
		s1.2,0.4,2.4,0.6c1.3,0.2,2.2,0.6,2.7,1s0.8,1.3,0.8,2.5s-0.4,2.1-1.2,2.7c-0.8,0.6-1.9,0.9-3.4,0.9c-0.9,0-2.1-0.1-3.5-0.4
		l-0.7-0.1l0.1-2.1c1.8,0.2,3.2,0.4,4,0.4s1.4-0.1,1.7-0.3c0.3-0.2,0.5-0.5,0.5-1s-0.2-0.8-0.5-1s-1.1-0.4-2.4-0.6
		c-1.2-0.2-2.2-0.5-2.7-1c-0.6-0.4-0.9-1.3-0.9-2.4s0.4-2.1,1.2-2.6c0.8-0.6,1.8-0.9,3.1-0.9c1,0,2.2,0.1,3.6,0.4l0.7,0.1
		L1251.5,62.6z"/>
	<path class="st23" d="M1262.3,62.6c-1.8-0.2-3.1-0.4-3.9-0.4s-1.4,0.1-1.7,0.3c-0.3,0.2-0.5,0.5-0.5,0.9s0.2,0.7,0.5,0.9
		s1.2,0.4,2.4,0.6c1.3,0.2,2.2,0.6,2.7,1s0.8,1.3,0.8,2.5s-0.4,2.1-1.2,2.7s-1.9,0.9-3.4,0.9c-0.9,0-2.1-0.1-3.5-0.4l-0.7-0.1
		l0.1-2.1c1.8,0.2,3.2,0.4,4,0.4s1.4-0.1,1.7-0.3c0.3-0.2,0.5-0.5,0.5-1s-0.2-0.8-0.5-1s-1.1-0.4-2.4-0.6s-2.2-0.5-2.7-1
		c-0.6-0.4-0.9-1.3-0.9-2.4s0.4-2.1,1.2-2.6c0.8-0.6,1.8-0.9,3.1-0.9c1,0,2.2,0.1,3.6,0.4l0.7,0.1L1262.3,62.6z"/>
	<path class="st23" d="M1272,60.2h2.5v11.5h-2.5V71c-1.1,0.6-2.2,1-3.1,1c-1.6,0-2.6-0.4-3.2-1.3s-0.8-2.3-0.8-4.5v-6h2.5v6
		c0,1.4,0.1,2.3,0.3,2.8c0.2,0.5,0.8,0.7,1.6,0.7c0.8,0,1.6-0.2,2.3-0.5l0.3-0.1L1272,60.2L1272,60.2z"/>
	<path class="st23" d="M1277.6,71.7V60.2h2.5v1.4c1.3-0.8,2.6-1.4,3.9-1.6v2.5c-1.3,0.3-2.4,0.6-3.4,1l-0.5,0.2v8H1277.6
		L1277.6,71.7z"/>
	<path class="st23" d="M1294.4,63.8V69c0,0.3,0.1,0.6,0.3,0.7c0.2,0.2,0.4,0.3,0.7,0.3l-0.1,1.9c-1.3,0-2.3-0.3-3.1-0.9
		c-1.2,0.6-2.5,0.9-3.7,0.9c-2.3,0-3.4-1.2-3.4-3.7c0-1.2,0.3-2,0.9-2.5s1.6-0.8,2.9-0.9l3-0.3v-0.8c0-0.6-0.1-1-0.4-1.3
		s-0.7-0.4-1.2-0.4c-1,0-2.2,0.1-3.7,0.2h-0.7l-0.1-1.8c1.7-0.4,3.2-0.6,4.6-0.6s2.4,0.3,3,0.9C1294.1,61.5,1294.4,62.5,1294.4,63.8
		z M1289.2,66.6c-1.1,0.1-1.6,0.7-1.6,1.7c0,1.1,0.5,1.6,1.4,1.6c0.8,0,1.6-0.1,2.4-0.4l0.4-0.1v-3.1L1289.2,66.6z"/>
	<path class="st23" d="M1300,71.7h-2.5V60.2h2.5v0.7c1.1-0.6,2.2-1,3.2-1c1.5,0,2.6,0.4,3.1,1.3c0.6,0.9,0.8,2.3,0.8,4.3v6.2h-2.5
		v-6.1c0-1.2-0.1-2.1-0.4-2.6s-0.8-0.8-1.6-0.8c-0.8,0-1.5,0.2-2.3,0.5l-0.3,0.1L1300,71.7L1300,71.7z"/>
	<path class="st23" d="M1314.4,60c0.8,0,1.8,0.1,2.9,0.3l0.6,0.1l-0.1,2c-1.2-0.1-2.1-0.2-2.7-0.2c-1.2,0-1.9,0.3-2.3,0.8
		s-0.6,1.5-0.6,2.9s0.2,2.4,0.6,3s1.2,0.8,2.4,0.8l2.7-0.2l0.1,2c-1.5,0.3-2.7,0.4-3.5,0.4c-1.7,0-3-0.5-3.7-1.4s-1.1-2.5-1.1-4.6
		s0.4-3.7,1.1-4.6C1311.4,60.4,1312.7,60,1314.4,60z"/>
	<path class="st23" d="M1328.3,69.7l0.6-0.1v1.9c-1.7,0.4-3.3,0.5-4.6,0.5c-1.7,0-2.9-0.5-3.7-1.4c-0.7-0.9-1.1-2.4-1.1-4.5
		c0-4.1,1.7-6.1,5-6.1c3.2,0,4.8,1.8,4.8,5.3l-0.2,1.8h-7.1c0,1,0.2,1.6,0.6,2.1c0.4,0.4,1.1,0.7,2.2,0.7
		C1326,69.8,1327.2,69.8,1328.3,69.7z M1326.9,65.1c0-1.1-0.2-1.9-0.5-2.4c-0.4-0.5-1-0.7-1.8-0.7c-0.9,0-1.5,0.2-1.9,0.7
		s-0.6,1.3-0.6,2.3L1326.9,65.1L1326.9,65.1z"/>
</g>
<g>
	<path class="st23" d="M920.4,118.1l3.4-12.5h3l3.4,12.5h-1.4l-0.9-3.2h-5.3l-0.9,3.2H920.4z M924.9,106.9l-1.9,6.8h4.7l-1.9-6.8
		H924.9z"/>
	<path class="st23" d="M934.9,110.2c-1.3,0-2,0.5-2,1.4c0,0.4,0.2,0.7,0.5,0.9s1,0.4,2.1,0.5c1.1,0.2,1.8,0.4,2.3,0.8
		c0.4,0.3,0.7,1,0.7,1.9s-0.3,1.6-0.9,2c-0.6,0.4-1.5,0.6-2.6,0.6c-0.7,0-1.6-0.1-2.6-0.3l-0.5-0.1l0.1-1.2c1.4,0.2,2.4,0.3,3.1,0.3
		c0.7,0,1.2-0.1,1.6-0.3c0.4-0.2,0.5-0.6,0.5-1.1s-0.2-0.9-0.5-1.1s-1-0.4-2.1-0.5c-1.1-0.2-1.8-0.4-2.2-0.7s-0.7-0.9-0.7-1.8
		s0.3-1.5,0.9-1.9s1.4-0.6,2.3-0.6c0.7,0,1.7,0.1,2.8,0.3l0.5,0.1v1.2C936.7,110.3,935.6,110.2,934.9,110.2z"/>
	<path class="st23" d="M943.5,109.1h1.3l2.2,7.8h0.6l2.3-7.8h1.3l-3.7,13h-1.3l1.2-4h-1.3L943.5,109.1z"/>
	<path class="st23" d="M952.5,113.6c0-1.6,0.3-2.8,0.9-3.6s1.6-1.1,3-1.1s2.4,0.4,3,1.1s0.9,1.9,0.9,3.6c0,1.6-0.3,2.8-0.8,3.6
		s-1.6,1.1-3,1.1s-2.5-0.4-3-1.1C952.8,116.5,952.5,115.3,952.5,113.6z M953.9,113.6c0,1.3,0.2,2.2,0.5,2.8c0.3,0.5,1,0.8,2,0.8
		s1.7-0.3,2-0.8s0.5-1.4,0.5-2.8c0-1.3-0.2-2.2-0.5-2.7s-1-0.7-1.9-0.7s-1.6,0.2-1.9,0.7C954.1,111.4,953.9,112.3,953.9,113.6z"/>
	<path class="st23" d="M968,109.1h1.3v9H968v-0.6c-0.9,0.5-1.8,0.8-2.7,0.8c-1.2,0-2-0.3-2.4-1c-0.4-0.6-0.6-1.8-0.6-3.5v-4.7h1.3
		v4.7c0,1.3,0.1,2.2,0.3,2.6s0.7,0.7,1.5,0.7c0.4,0,0.8-0.1,1.2-0.2s0.7-0.2,0.9-0.3l0.3-0.2v-7.3H968z"/>
	<path class="st23" d="M972,118.1v-9h1.3v1.2c1-0.7,2.1-1.2,3.3-1.4v1.4c-0.5,0.1-1,0.2-1.6,0.5s-1,0.4-1.3,0.5l-0.5,0.2v6.6
		C973.2,118.1,972,118.1,972,118.1z"/>
	<path class="st23" d="M986.8,118.3c-1.9,0-3.1-0.5-3.9-1.5c-0.7-1-1.1-2.6-1.1-4.8s0.4-3.8,1.1-4.9c0.7-1.1,2-1.6,3.8-1.6
		s3.1,0.5,3.8,1.6s1.1,2.7,1.1,4.9c0,1.5-0.2,2.7-0.5,3.7c-0.3,0.9-0.8,1.6-1.6,2l1.5,2.5l-1.3,0.6l-1.6-2.6
		C987.9,118.3,987.4,118.3,986.8,118.3z M983.3,112c0,1.8,0.2,3.1,0.7,3.9s1.4,1.2,2.8,1.2c1.4,0,2.3-0.4,2.8-1.2s0.7-2.1,0.7-3.9
		s-0.2-3.2-0.7-4s-1.4-1.3-2.8-1.3s-2.3,0.4-2.8,1.3C983.5,108.8,983.3,110.1,983.3,112z"/>
	<path class="st23" d="M992.9,118.1l3.4-12.5h3l3.4,12.5h-1.4l-0.9-3.2h-5.3l-0.9,3.2H992.9z M997.4,106.9l-1.9,6.8h4.7l-1.9-6.8
		H997.4z"/>
	<path class="st23" d="M1011.3,110.2c-1.3,0-2,0.5-2,1.4c0,0.4,0.1,0.7,0.4,0.9s1,0.4,2.1,0.5c1.1,0.2,1.8,0.4,2.3,0.8
		s0.7,1,0.7,1.9s-0.3,1.6-0.9,2c-0.6,0.4-1.5,0.6-2.6,0.6c-0.7,0-1.6-0.1-2.6-0.3l-0.5-0.1l0.1-1.2c1.4,0.2,2.4,0.3,3.1,0.3
		s1.2-0.1,1.6-0.3c0.4-0.2,0.5-0.6,0.5-1.1s-0.2-0.9-0.5-1.1s-1-0.4-2.1-0.5c-1.1-0.2-1.8-0.4-2.2-0.7s-0.7-0.9-0.7-1.8
		s0.3-1.5,0.9-1.9s1.4-0.6,2.3-0.6c0.7,0,1.6,0.1,2.8,0.3l0.5,0.1v1.2C1013.1,110.3,1012.1,110.2,1011.3,110.2z"/>
	<path class="st23" d="M1016.9,122.1v-13h1.3v0.6c0.9-0.6,1.8-0.8,2.7-0.8c1.1,0,2,0.4,2.5,1.1s0.8,1.9,0.8,3.6s-0.3,2.9-0.9,3.6
		c-0.6,0.7-1.6,1.1-3,1.1c-0.7,0-1.4-0.1-2-0.2v4L1016.9,122.1L1016.9,122.1z M1020.7,110.2c-0.4,0-0.7,0.1-1.2,0.2
		c-0.4,0.1-0.7,0.2-1,0.4l-0.3,0.2v6.1c0.9,0.1,1.5,0.2,1.9,0.2c1,0,1.7-0.3,2-0.8c0.4-0.6,0.6-1.5,0.6-2.7s-0.2-2.1-0.5-2.7
		C1021.9,110.4,1021.4,110.2,1020.7,110.2z"/>
	<path class="st23" d="M1032.5,117l0.5-0.1v1.1c-1.4,0.2-2.5,0.3-3.5,0.3c-1.3,0-2.2-0.4-2.8-1.1c-0.5-0.7-0.8-1.9-0.8-3.5
		c0-3.2,1.3-4.7,3.8-4.7c1.2,0,2.1,0.3,2.7,1s0.9,1.7,0.9,3.2l-0.1,1h-5.9c0,1,0.2,1.7,0.5,2.2c0.4,0.5,1,0.7,1.9,0.7
		S1031.5,117.1,1032.5,117z M1032,113.1c0-1.1-0.2-1.9-0.5-2.3c-0.4-0.5-0.9-0.7-1.7-0.7s-1.4,0.2-1.8,0.7s-0.6,1.2-0.6,2.3H1032z"
		/>
	<path class="st23" d="M1038.8,109c0.4,0,1.1,0.1,2,0.2l0.4,0.1l-0.1,1.1c-1-0.1-1.7-0.2-2.1-0.2c-1,0-1.7,0.2-2.1,0.7
		s-0.5,1.4-0.5,2.7s0.2,2.2,0.5,2.7s1.1,0.8,2.1,0.8l2.1-0.2l0.1,1.1c-1.1,0.2-2,0.3-2.5,0.3c-1.4,0-2.4-0.4-2.9-1.1
		s-0.8-1.9-0.8-3.6s0.3-2.9,0.9-3.6S1037.5,109,1038.8,109z"/>
	<path class="st23" d="M1043.3,107.1v-1.6h1.4v1.6H1043.3z M1043.3,118.1v-9h1.4v9H1043.3z"/>
	<path class="st23" d="M1053.6,111.9v4.6c0,0.4,0.4,0.7,1,0.8l-0.1,1.1c-0.9,0-1.7-0.2-2.1-0.7c-1.1,0.5-2.2,0.7-3.2,0.7
		c-0.8,0-1.5-0.2-1.9-0.7s-0.6-1.1-0.6-2s0.2-1.5,0.7-1.9c0.4-0.4,1.1-0.7,2.1-0.8l2.8-0.3v-0.8c0-0.6-0.1-1-0.4-1.3
		s-0.6-0.4-1.1-0.4c-1,0-2,0.1-3,0.2l-0.6,0.1l-0.1-1c1.3-0.3,2.5-0.4,3.5-0.4s1.8,0.2,2.2,0.7S1053.6,110.9,1053.6,111.9z
		 M1048,115.5c0,1.1,0.5,1.7,1.4,1.7c0.8,0,1.6-0.1,2.4-0.4l0.4-0.1v-3l-2.7,0.3c-0.5,0-0.9,0.2-1.2,0.5S1048,115,1048,115.5z"/>
	<path class="st23" d="M1056.4,118.1v-12.9h1.3v12.9H1056.4z"/>
	<path class="st23" d="M1060.4,107.1v-1.6h1.3v1.6H1060.4z M1060.4,118.1v-9h1.3v9H1060.4z"/>
	<path class="st23" d="M1067.2,110.2c-1.3,0-2,0.5-2,1.4c0,0.4,0.2,0.7,0.5,0.9s1,0.4,2.1,0.5c1.1,0.2,1.8,0.4,2.3,0.8
		c0.4,0.3,0.7,1,0.7,1.9s-0.3,1.6-0.9,2s-1.5,0.6-2.6,0.6c-0.7,0-1.6-0.1-2.6-0.3l-0.5-0.1l0.1-1.2c1.4,0.2,2.4,0.3,3.1,0.3
		s1.2-0.1,1.6-0.3s0.5-0.6,0.5-1.1s-0.2-0.9-0.5-1.1s-1-0.4-2.1-0.5c-1.1-0.2-1.8-0.4-2.2-0.7c-0.4-0.3-0.7-0.9-0.7-1.8
		s0.3-1.5,0.9-1.9s1.4-0.6,2.3-0.6c0.7,0,1.7,0.1,2.8,0.3l0.5,0.1v1.2C1069,110.3,1067.9,110.2,1067.2,110.2z"/>
	<path class="st23" d="M1077.4,110.3h-2.9v4.3c0,1,0.1,1.7,0.2,2c0.2,0.3,0.5,0.5,1.1,0.5l1.6-0.1l0.1,1.1c-0.8,0.1-1.4,0.2-1.8,0.2
		c-0.9,0-1.6-0.2-1.9-0.7s-0.5-1.3-0.5-2.6v-4.7h-1.3v-1.2h1.3v-2.8h1.3v2.8h2.9L1077.4,110.3L1077.4,110.3z"/>
	<path class="st23" d="M1078.3,120.4l0.8-4.1h1.5l-1.2,4.1H1078.3z"/>
	<path class="st23" d="M1086.3,105.7h1.4l2.1,11.2h0.5l2.5-11.1h1.6l2.5,11.1h0.5l2.1-11.2h1.4l-2.5,12.5h-2.5l-2.4-10.6l-2.4,10.6
		h-2.5L1086.3,105.7z"/>
	<path class="st23" d="M1103,107.1v-1.6h1.4v1.6H1103z M1103,118.1v-9h1.4v9H1103z"/>
	<path class="st23" d="M1109.7,110.2c-1.3,0-2,0.5-2,1.4c0,0.4,0.1,0.7,0.4,0.9s1,0.4,2.1,0.5c1.1,0.2,1.8,0.4,2.3,0.8
		s0.7,1,0.7,1.9s-0.3,1.6-0.9,2s-1.5,0.6-2.6,0.6c-0.7,0-1.6-0.1-2.6-0.3l-0.5-0.1l0.1-1.2c1.4,0.2,2.4,0.3,3.1,0.3s1.2-0.1,1.6-0.3
		s0.5-0.6,0.5-1.1s-0.2-0.9-0.5-1.1s-1-0.4-2.1-0.5c-1.1-0.2-1.8-0.4-2.2-0.7c-0.4-0.3-0.7-0.9-0.7-1.8s0.3-1.5,0.9-1.9
		s1.4-0.6,2.3-0.6c0.7,0,1.6,0.1,2.8,0.3l0.5,0.1v1.2C1111.5,110.3,1110.5,110.2,1109.7,110.2z"/>
	<path class="st23" d="M1116.6,118.1h-1.4v-12.9h1.4v4.4c1-0.5,1.9-0.7,2.8-0.7c1.2,0,2,0.3,2.4,1c0.4,0.6,0.6,1.8,0.6,3.5v4.8h-1.3
		v-4.7c0-1.2-0.1-2.1-0.4-2.6c-0.2-0.5-0.8-0.7-1.6-0.7c-0.8,0-1.5,0.1-2.2,0.4l-0.3,0.1V118.1z"/>
	<path class="st23" d="M1128.1,105.7h1.4l2.1,11.2h0.5l2.5-11.1h1.6l2.5,11.1h0.5l2.1-11.2h1.4l-2.5,12.5h-2.5l-2.4-10.6l-2.4,10.6
		h-2.5L1128.1,105.7z"/>
	<path class="st23" d="M1144.1,113.6c0-1.6,0.3-2.8,0.9-3.6c0.6-0.7,1.6-1.1,3-1.1s2.4,0.4,3,1.1s0.9,1.9,0.9,3.6
		c0,1.6-0.3,2.8-0.8,3.6s-1.6,1.1-3,1.1c-1.5,0-2.5-0.4-3-1.1S1144.1,115.3,1144.1,113.6z M1145.5,113.6c0,1.3,0.2,2.2,0.5,2.8
		c0.3,0.5,1,0.8,2,0.8s1.7-0.3,2-0.8s0.5-1.4,0.5-2.8c0-1.3-0.2-2.2-0.5-2.7s-1-0.7-1.9-0.7s-1.6,0.2-1.9,0.7
		C1145.6,111.4,1145.5,112.3,1145.5,113.6z"/>
	<path class="st23" d="M1154,118.1v-9h1.3v1.2c1-0.7,2.1-1.2,3.3-1.4v1.4c-0.5,0.1-1,0.2-1.6,0.5c-0.5,0.2-1,0.4-1.3,0.5l-0.5,0.2
		v6.6C1155.2,118.1,1154,118.1,1154,118.1z"/>
	<path class="st23" d="M1161.6,118.1h-1.4v-12.9h1.4v7.6l1.4-0.1l2.6-3.6h1.5l-2.9,4.1l3.1,4.9h-1.5l-2.7-4.2l-1.4,0.1L1161.6,118.1
		L1161.6,118.1z"/>
	<path class="st23" d="M1174.1,118.1h-1.3v-9h1.3v0.6c0.9-0.5,1.8-0.8,2.6-0.8c1.1,0,1.9,0.3,2.3,0.9c0.4-0.2,0.9-0.5,1.5-0.6
		c0.6-0.2,1.2-0.3,1.7-0.3c1.2,0,2,0.3,2.4,1s0.6,1.8,0.6,3.5v4.8h-1.3v-4.7c0-1.2-0.1-2.1-0.4-2.6c-0.2-0.5-0.8-0.7-1.5-0.7
		c-0.4,0-0.8,0.1-1.2,0.2c-0.4,0.1-0.7,0.2-1,0.3l-0.3,0.2c0.2,0.4,0.2,1.3,0.2,2.6v4.7h-1.3v-4.6c0-1.3-0.1-2.2-0.4-2.6
		c-0.2-0.5-0.7-0.7-1.5-0.7c-0.4,0-0.8,0.1-1.2,0.2c-0.4,0.1-0.7,0.2-0.9,0.3l-0.3,0.2L1174.1,118.1L1174.1,118.1z"/>
	<path class="st23" d="M1194.2,111.9v4.6c0,0.4,0.4,0.7,1,0.8l-0.1,1.1c-0.9,0-1.7-0.2-2.1-0.7c-1.1,0.5-2.2,0.7-3.2,0.7
		c-0.8,0-1.5-0.2-1.9-0.7s-0.6-1.1-0.6-2s0.2-1.5,0.7-1.9c0.4-0.4,1.1-0.7,2.1-0.8l2.8-0.3v-0.8c0-0.6-0.1-1-0.4-1.3
		s-0.6-0.4-1.1-0.4c-1,0-2,0.1-3,0.2l-0.6,0.1l-0.1-1c1.3-0.3,2.5-0.4,3.5-0.4s1.8,0.2,2.2,0.7S1194.2,110.9,1194.2,111.9z
		 M1188.7,115.5c0,1.1,0.5,1.7,1.4,1.7c0.8,0,1.6-0.1,2.4-0.4l0.4-0.1v-3l-2.7,0.3c-0.5,0-0.9,0.2-1.2,0.5S1188.7,115,1188.7,115.5z
		"/>
	<path class="st23" d="M1198.2,118.1h-1.4v-12.9h1.4v7.6l1.4-0.1l2.6-3.6h1.5l-2.9,4.1l3.1,4.9h-1.5l-2.7-4.2l-1.4,0.1L1198.2,118.1
		L1198.2,118.1z"/>
	<path class="st23" d="M1211.4,117l0.5-0.1v1.1c-1.4,0.2-2.5,0.3-3.5,0.3c-1.3,0-2.2-0.4-2.8-1.1c-0.5-0.7-0.8-1.9-0.8-3.5
		c0-3.2,1.3-4.7,3.8-4.7c1.2,0,2.1,0.3,2.7,1s0.9,1.7,0.9,3.2l-0.1,1h-5.9c0,1,0.2,1.7,0.5,2.2c0.4,0.5,1,0.7,1.9,0.7
		S1210.4,117.1,1211.4,117z M1210.9,113.1c0-1.1-0.2-1.9-0.5-2.3c-0.4-0.5-0.9-0.7-1.7-0.7s-1.4,0.2-1.8,0.7s-0.6,1.2-0.6,2.3
		H1210.9z"/>
	<path class="st23" d="M1217.2,110.2c-1.3,0-2,0.5-2,1.4c0,0.4,0.1,0.7,0.4,0.9s1,0.4,2.1,0.5c1.1,0.2,1.8,0.4,2.3,0.8
		s0.7,1,0.7,1.9s-0.3,1.6-0.9,2s-1.5,0.6-2.6,0.6c-0.7,0-1.6-0.1-2.6-0.3l-0.5-0.1l0.1-1.2c1.4,0.2,2.4,0.3,3.1,0.3s1.2-0.1,1.6-0.3
		s0.5-0.6,0.5-1.1s-0.2-0.9-0.5-1.1s-1-0.4-2.1-0.5c-1.1-0.2-1.8-0.4-2.2-0.7c-0.4-0.3-0.7-0.9-0.7-1.8s0.3-1.5,0.9-1.9
		s1.4-0.6,2.3-0.6c0.7,0,1.6,0.1,2.8,0.3l0.5,0.1v1.2C1219,110.3,1217.9,110.2,1217.2,110.2z"/>
	<path class="st23" d="M1229.5,110.2c-1.3,0-2,0.5-2,1.4c0,0.4,0.2,0.7,0.5,0.9s1,0.4,2.1,0.5c1.1,0.2,1.8,0.4,2.3,0.8
		c0.4,0.3,0.7,1,0.7,1.9s-0.3,1.6-0.9,2s-1.5,0.6-2.6,0.6c-0.7,0-1.6-0.1-2.6-0.3l-0.5-0.1l0.1-1.2c1.4,0.2,2.4,0.3,3.1,0.3
		s1.2-0.1,1.6-0.3s0.5-0.6,0.5-1.1s-0.2-0.9-0.5-1.1s-1-0.4-2.1-0.5c-1.1-0.2-1.8-0.4-2.2-0.7c-0.4-0.3-0.7-0.9-0.7-1.8
		s0.3-1.5,0.9-1.9s1.4-0.6,2.3-0.6c0.7,0,1.7,0.1,2.8,0.3l0.5,0.1v1.2C1231.3,110.3,1230.3,110.2,1229.5,110.2z"/>
	<path class="st23" d="M1240.7,109.1h1.4v9h-1.4v-0.6c-0.9,0.5-1.8,0.8-2.7,0.8c-1.2,0-2-0.3-2.4-1c-0.4-0.6-0.6-1.8-0.6-3.5v-4.7
		h1.4v4.7c0,1.3,0.1,2.2,0.3,2.6c0.2,0.4,0.7,0.7,1.5,0.7c0.4,0,0.8-0.1,1.2-0.2c0.4-0.1,0.7-0.2,0.9-0.3l0.3-0.2L1240.7,109.1
		L1240.7,109.1z"/>
	<path class="st23" d="M1244.6,118.1v-9h1.3v1.2c1-0.7,2.1-1.2,3.3-1.4v1.4c-0.5,0.1-1,0.2-1.6,0.5c-0.5,0.2-1,0.4-1.3,0.5l-0.5,0.2
		v6.6C1245.8,118.1,1244.6,118.1,1244.6,118.1z"/>
	<path class="st23" d="M1256.8,117l0.5-0.1v1.1c-1.4,0.2-2.5,0.3-3.5,0.3c-1.3,0-2.2-0.4-2.8-1.1c-0.5-0.7-0.8-1.9-0.8-3.5
		c0-3.2,1.3-4.7,3.8-4.7c1.2,0,2.1,0.3,2.7,1s0.9,1.7,0.9,3.2l-0.1,1h-5.9c0,1,0.2,1.7,0.5,2.2c0.4,0.5,1,0.7,1.9,0.7
		S1255.8,117.1,1256.8,117z M1256.3,113.1c0-1.1-0.2-1.9-0.5-2.3c-0.4-0.5-0.9-0.7-1.7-0.7s-1.4,0.2-1.8,0.7s-0.6,1.2-0.6,2.3
		H1256.3z"/>
	<path class="st23" d="M1268.4,110.3h-2.9v4.3c0,1,0.1,1.7,0.2,2s0.5,0.5,1.1,0.5l1.6-0.1l0.1,1.1c-0.8,0.1-1.4,0.2-1.8,0.2
		c-0.9,0-1.6-0.2-1.9-0.7c-0.4-0.5-0.5-1.3-0.5-2.6v-4.7h-1.3v-1.2h1.3v-2.8h1.3v2.8h2.9L1268.4,110.3L1268.4,110.3z"/>
	<path class="st23" d="M1271.4,118.1h-1.3v-12.9h1.3v4.4c1-0.5,1.9-0.7,2.8-0.7c1.2,0,2,0.3,2.4,1c0.4,0.6,0.6,1.8,0.6,3.5v4.8h-1.4
		v-4.7c0-1.2-0.1-2.1-0.4-2.6c-0.2-0.5-0.8-0.7-1.6-0.7c-0.8,0-1.5,0.1-2.2,0.4l-0.3,0.1L1271.4,118.1L1271.4,118.1z"/>
	<path class="st23" d="M1286,111.9v4.6c0,0.4,0.4,0.7,1,0.8l-0.1,1.1c-0.9,0-1.7-0.2-2.1-0.7c-1.1,0.5-2.2,0.7-3.2,0.7
		c-0.8,0-1.5-0.2-1.9-0.7s-0.6-1.1-0.6-2s0.2-1.5,0.7-1.9c0.4-0.4,1.1-0.7,2.1-0.8l2.8-0.3v-0.8c0-0.6-0.1-1-0.4-1.3
		s-0.6-0.4-1.1-0.4c-1,0-2,0.1-3,0.2l-0.6,0.1l-0.1-1c1.3-0.3,2.5-0.4,3.5-0.4s1.8,0.2,2.2,0.7S1286,110.9,1286,111.9z
		 M1280.5,115.5c0,1.1,0.5,1.7,1.4,1.7c0.8,0,1.6-0.1,2.4-0.4l0.4-0.1v-3l-2.7,0.3c-0.5,0-0.9,0.2-1.2,0.5S1280.5,115,1280.5,115.5z
		"/>
	<path class="st23" d="M1293.4,110.3h-2.9v4.3c0,1,0.1,1.7,0.2,2c0.2,0.3,0.5,0.5,1.1,0.5l1.6-0.1l0.1,1.1c-0.8,0.1-1.4,0.2-1.8,0.2
		c-0.9,0-1.6-0.2-1.9-0.7s-0.5-1.3-0.5-2.6v-4.7h-1.3v-1.2h1.3v-2.8h1.3v2.8h2.9L1293.4,110.3L1293.4,110.3z"/>
	<path class="st23" d="M1298.1,109.1h1.3l2.2,7.8h0.6l2.3-7.8h1.4l-3.7,13h-1.4l1.2-4h-1.3L1298.1,109.1z"/>
	<path class="st23" d="M1307.1,113.6c0-1.6,0.3-2.8,0.9-3.6c0.6-0.7,1.6-1.1,3-1.1s2.4,0.4,3,1.1s0.9,1.9,0.9,3.6
		c0,1.6-0.3,2.8-0.8,3.6s-1.6,1.1-3,1.1c-1.5,0-2.5-0.4-3-1.1S1307.1,115.3,1307.1,113.6z M1308.5,113.6c0,1.3,0.2,2.2,0.5,2.8
		c0.3,0.5,1,0.8,2,0.8s1.7-0.3,2-0.8s0.5-1.4,0.5-2.8c0-1.3-0.2-2.2-0.5-2.7s-1-0.7-1.9-0.7s-1.6,0.2-1.9,0.7
		C1308.7,111.4,1308.5,112.3,1308.5,113.6z"/>
	<path class="st23" d="M1322.6,109.1h1.3v9h-1.3v-0.6c-0.9,0.5-1.8,0.8-2.7,0.8c-1.2,0-2-0.3-2.4-1c-0.4-0.6-0.6-1.8-0.6-3.5v-4.7
		h1.3v4.7c0,1.3,0.1,2.2,0.3,2.6c0.2,0.4,0.7,0.7,1.5,0.7c0.4,0,0.8-0.1,1.2-0.2c0.4-0.1,0.7-0.2,0.9-0.3l0.3-0.2v-7.3H1322.6z"/>
	<path class="st23" d="M1326.6,118.1v-9h1.3v1.2c1-0.7,2.1-1.2,3.3-1.4v1.4c-0.5,0.1-1,0.2-1.6,0.5c-0.5,0.2-1,0.4-1.3,0.5l-0.5,0.2
		v6.6C1327.8,118.1,1326.6,118.1,1326.6,118.1z"/>
	<path class="st23" d="M921.3,143.7v-13h1.3v0.6c0.9-0.6,1.8-0.8,2.7-0.8c1.1,0,2,0.4,2.5,1.1c0.5,0.7,0.8,1.9,0.8,3.6
		s-0.3,2.9-0.9,3.6c-0.6,0.7-1.6,1.1-3,1.1c-0.7,0-1.4-0.1-2-0.2v4L921.3,143.7L921.3,143.7z M925.1,131.8c-0.4,0-0.7,0.1-1.2,0.2
		s-0.7,0.2-1,0.4l-0.3,0.2v6.1c0.9,0.1,1.5,0.2,1.9,0.2c1,0,1.7-0.3,2-0.8c0.4-0.6,0.6-1.5,0.6-2.7s-0.2-2.1-0.5-2.7
		C926.3,132,925.8,131.8,925.1,131.8z"/>
	<path class="st23" d="M930.8,139.7v-9h1.3v1.2c1-0.7,2.1-1.2,3.3-1.4v1.4c-0.5,0.1-1,0.2-1.6,0.5c-0.5,0.2-1,0.4-1.3,0.5l-0.5,0.2
		v6.6H930.8z"/>
	<path class="st23" d="M936.4,135.2c0-1.6,0.3-2.8,0.9-3.6c0.6-0.7,1.6-1.1,3-1.1s2.4,0.4,3,1.1c0.6,0.7,0.9,1.9,0.9,3.6
		c0,1.6-0.3,2.8-0.8,3.6s-1.6,1.1-3,1.1s-2.5-0.4-3-1.1C936.7,138.1,936.4,136.9,936.4,135.2z M937.8,135.2c0,1.3,0.2,2.2,0.5,2.8
		c0.3,0.5,1,0.8,2,0.8s1.7-0.3,2-0.8s0.5-1.4,0.5-2.8c0-1.3-0.2-2.2-0.5-2.7s-1-0.7-1.9-0.7s-1.6,0.2-1.9,0.7
		C938,133,937.8,133.9,937.8,135.2z"/>
	<path class="st23" d="M946.4,139.5v-8.8h1.3v8.8c0,1.1-0.2,1.9-0.6,2.5c-0.4,0.6-1.2,1.1-2.4,1.7l-0.5-1c0.9-0.5,1.5-1,1.8-1.4
		S946.4,140.3,946.4,139.5z M946.4,128.7v-1.6h1.3v1.6H946.4z"/>
	<path class="st23" d="M956.4,138.6l0.5-0.1v1.1c-1.4,0.2-2.5,0.3-3.5,0.3c-1.3,0-2.2-0.4-2.8-1.1c-0.5-0.7-0.8-1.9-0.8-3.5
		c0-3.2,1.3-4.7,3.8-4.7c1.2,0,2.1,0.3,2.7,1c0.6,0.7,0.9,1.7,0.9,3.2l-0.1,1h-5.9c0,1,0.2,1.7,0.5,2.2c0.4,0.5,1,0.7,1.9,0.7
		C954.6,138.7,955.5,138.7,956.4,138.6z M955.9,134.7c0-1.1-0.2-1.9-0.5-2.3c-0.4-0.5-0.9-0.7-1.7-0.7s-1.4,0.2-1.8,0.7
		c-0.4,0.5-0.6,1.2-0.6,2.3H955.9z"/>
	<path class="st23" d="M962.7,130.6c0.4,0,1.1,0.1,2,0.2l0.4,0.1L965,132c-1-0.1-1.7-0.2-2.1-0.2c-1,0-1.7,0.2-2.1,0.7
		s-0.5,1.4-0.5,2.7s0.2,2.2,0.5,2.7s1.1,0.8,2.1,0.8l2.1-0.2l0.1,1.1c-1.1,0.2-2,0.3-2.5,0.3c-1.4,0-2.4-0.4-2.9-1.1
		c-0.5-0.7-0.8-1.9-0.8-3.6s0.3-2.9,0.9-3.6C960.4,130.9,961.4,130.6,962.7,130.6z"/>
	<path class="st23" d="M971.9,131.9H969v4.3c0,1,0.1,1.7,0.2,2c0.1,0.3,0.5,0.5,1.1,0.5l1.6-0.1l0.1,1.1c-0.8,0.1-1.4,0.2-1.8,0.2
		c-0.9,0-1.6-0.2-1.9-0.7c-0.4-0.5-0.5-1.3-0.5-2.6v-4.7h-1.3v-1.2h1.3V128h1.3v2.8h2.9L971.9,131.9L971.9,131.9z"/>
	<path class="st23" d="M977.5,128.7v-1.6h1.4v1.6H977.5z M977.5,139.7v-9h1.4v9H977.5z"/>
	<path class="st23" d="M984.3,131.8c-1.3,0-2,0.5-2,1.4c0,0.4,0.2,0.7,0.5,0.9s1,0.4,2.1,0.5c1.1,0.2,1.8,0.4,2.3,0.8
		c0.4,0.3,0.7,1,0.7,1.9s-0.3,1.6-0.9,2c-0.6,0.4-1.5,0.6-2.6,0.6c-0.7,0-1.6-0.1-2.6-0.3l-0.5-0.1l0.1-1.2c1.4,0.2,2.4,0.3,3.1,0.3
		c0.7,0,1.2-0.1,1.6-0.3c0.4-0.2,0.5-0.6,0.5-1.1s-0.2-0.9-0.5-1.1c-0.3-0.2-1-0.4-2.1-0.5c-1.1-0.2-1.8-0.4-2.2-0.7
		s-0.7-0.9-0.7-1.8c0-0.9,0.3-1.5,0.9-1.9s1.4-0.6,2.3-0.6c0.7,0,1.7,0.1,2.8,0.3l0.5,0.1v1.2C986.1,131.9,985,131.8,984.3,131.8z"
		/>
	<path class="st23" d="M998.4,131.9h-2.9v4.3c0,1,0.1,1.7,0.2,2c0.2,0.3,0.5,0.5,1.1,0.5l1.6-0.1l0.1,1.1c-0.8,0.1-1.4,0.2-1.8,0.2
		c-0.9,0-1.6-0.2-1.9-0.7s-0.5-1.3-0.5-2.6v-4.7H993v-1.2h1.3V128h1.3v2.8h2.9L998.4,131.9L998.4,131.9z"/>
	<path class="st23" d="M1001.4,139.7h-1.4v-12.9h1.4v4.4c1-0.5,1.9-0.7,2.8-0.7c1.2,0,2,0.3,2.4,1s0.6,1.8,0.6,3.5v4.8h-1.3V135
		c0-1.2-0.1-2.1-0.4-2.6s-0.8-0.7-1.6-0.7s-1.5,0.1-2.2,0.4l-0.3,0.1V139.7z"/>
	<path class="st23" d="M1015.9,138.6l0.5-0.1v1.1c-1.4,0.2-2.5,0.3-3.5,0.3c-1.3,0-2.2-0.4-2.8-1.1c-0.5-0.7-0.8-1.9-0.8-3.5
		c0-3.2,1.3-4.7,3.8-4.7c1.2,0,2.1,0.3,2.7,1c0.6,0.7,0.9,1.7,0.9,3.2l-0.1,1h-5.9c0,1,0.2,1.7,0.5,2.2c0.4,0.5,1,0.7,1.9,0.7
		C1014,138.7,1014.9,138.7,1015.9,138.6z M1015.4,134.7c0-1.1-0.2-1.9-0.5-2.3c-0.4-0.5-0.9-0.7-1.7-0.7s-1.4,0.2-1.8,0.7
		c-0.4,0.5-0.6,1.2-0.6,2.3H1015.4z"/>
	<path class="st23" d="M1024.2,139.7h-1.3v-9h1.3v0.6c0.9-0.5,1.8-0.8,2.6-0.8c1.1,0,1.9,0.3,2.3,0.9c0.4-0.2,0.9-0.5,1.5-0.6
		c0.6-0.2,1.2-0.3,1.7-0.3c1.2,0,2,0.3,2.4,1s0.6,1.8,0.6,3.5v4.8h-1.3V135c0-1.2-0.1-2.1-0.4-2.6s-0.8-0.7-1.5-0.7
		c-0.4,0-0.8,0.1-1.2,0.2s-0.7,0.2-1,0.3l-0.3,0.2c0.2,0.4,0.2,1.3,0.2,2.6v4.7h-1.3v-4.6c0-1.3-0.1-2.2-0.4-2.6s-0.7-0.7-1.5-0.7
		c-0.4,0-0.8,0.1-1.2,0.2c-0.4,0.1-0.7,0.2-0.9,0.3l-0.3,0.2L1024.2,139.7L1024.2,139.7z"/>
	<path class="st23" d="M1037.5,135.2c0-1.6,0.3-2.8,0.9-3.6c0.6-0.7,1.6-1.1,3-1.1s2.4,0.4,3,1.1c0.6,0.7,0.9,1.9,0.9,3.6
		c0,1.6-0.3,2.8-0.8,3.6s-1.6,1.1-3,1.1c-1.5,0-2.5-0.4-3-1.1S1037.5,136.9,1037.5,135.2z M1038.8,135.2c0,1.3,0.2,2.2,0.5,2.8
		c0.3,0.5,1,0.8,2,0.8s1.7-0.3,2-0.8s0.5-1.4,0.5-2.8c0-1.3-0.2-2.2-0.5-2.7s-1-0.7-1.9-0.7s-1.6,0.2-1.9,0.7
		C1039,133,1038.8,133.9,1038.8,135.2z"/>
	<path class="st23" d="M1050.2,131.8c-1.3,0-2,0.5-2,1.4c0,0.4,0.1,0.7,0.4,0.9s1,0.4,2.1,0.5c1.1,0.2,1.8,0.4,2.3,0.8
		s0.7,1,0.7,1.9s-0.3,1.6-0.9,2s-1.5,0.6-2.6,0.6c-0.7,0-1.6-0.1-2.6-0.3l-0.5-0.1l0.1-1.2c1.4,0.2,2.4,0.3,3.1,0.3s1.2-0.1,1.6-0.3
		s0.5-0.6,0.5-1.1s-0.2-0.9-0.5-1.1c-0.3-0.2-1-0.4-2.1-0.5c-1.1-0.2-1.8-0.4-2.2-0.7c-0.4-0.3-0.7-0.9-0.7-1.8
		c0-0.9,0.3-1.5,0.9-1.9s1.4-0.6,2.3-0.6c0.7,0,1.6,0.1,2.8,0.3l0.5,0.1v1.2C1052,131.9,1050.9,131.8,1050.2,131.8z"/>
	<path class="st23" d="M1060.4,131.9h-2.9v4.3c0,1,0.1,1.7,0.2,2c0.2,0.3,0.5,0.5,1.1,0.5l1.6-0.1l0.1,1.1c-0.8,0.1-1.4,0.2-1.8,0.2
		c-0.9,0-1.6-0.2-1.9-0.7s-0.5-1.3-0.5-2.6v-4.7h-1.3v-1.2h1.3V128h1.3v2.8h2.9L1060.4,131.9L1060.4,131.9z"/>
	<path class="st23" d="M1066,143.7v-13h1.3v0.6c0.9-0.6,1.8-0.8,2.7-0.8c1.1,0,2,0.4,2.5,1.1c0.5,0.7,0.8,1.9,0.8,3.6
		s-0.3,2.9-0.9,3.6c-0.6,0.7-1.6,1.1-3,1.1c-0.7,0-1.4-0.1-2-0.2v4L1066,143.7L1066,143.7z M1069.8,131.8c-0.4,0-0.7,0.1-1.2,0.2
		c-0.4,0.1-0.7,0.2-1,0.4l-0.3,0.2v6.1c0.9,0.1,1.5,0.2,1.9,0.2c1,0,1.7-0.3,2-0.8c0.4-0.6,0.6-1.5,0.6-2.7s-0.2-2.1-0.5-2.7
		C1071,132,1070.5,131.8,1069.8,131.8z"/>
	<path class="st23" d="M1081.6,138.6l0.5-0.1v1.1c-1.4,0.2-2.5,0.3-3.5,0.3c-1.3,0-2.2-0.4-2.8-1.1c-0.5-0.7-0.8-1.9-0.8-3.5
		c0-3.2,1.3-4.7,3.8-4.7c1.2,0,2.1,0.3,2.7,1s0.9,1.7,0.9,3.2l-0.1,1h-5.9c0,1,0.2,1.7,0.5,2.2c0.4,0.5,1,0.7,1.9,0.7
		C1079.8,138.7,1080.7,138.7,1081.6,138.6z M1081.1,134.7c0-1.1-0.2-1.9-0.5-2.3c-0.4-0.5-0.9-0.7-1.7-0.7s-1.4,0.2-1.8,0.7
		s-0.6,1.2-0.6,2.3H1081.1z"/>
	<path class="st23" d="M1084.6,139.7v-9h1.3v1.2c1-0.7,2.1-1.2,3.3-1.4v1.4c-0.5,0.1-1,0.2-1.6,0.5s-1,0.4-1.3,0.5l-0.5,0.2v6.6
		H1084.6z"/>
	<path class="st23" d="M1092.5,131.9v7.8h-1.3v-7.8h-1.1v-1.2h1.1v-0.8c0-1.3,0.2-2.1,0.5-2.6s1-0.7,1.9-0.7l1.8,0.1v1.1
		c-0.7,0-1.2,0-1.7,0c-0.4,0-0.8,0.1-0.9,0.4c-0.2,0.3-0.3,0.8-0.3,1.7v0.8h2.6v1.2H1092.5z"/>
	<path class="st23" d="M1102.7,138.6l0.5-0.1v1.1c-1.4,0.2-2.5,0.3-3.5,0.3c-1.3,0-2.2-0.4-2.8-1.1c-0.5-0.7-0.8-1.9-0.8-3.5
		c0-3.2,1.3-4.7,3.8-4.7c1.2,0,2.1,0.3,2.7,1s0.9,1.7,0.9,3.2l-0.1,1h-5.9c0,1,0.2,1.7,0.5,2.2c0.4,0.5,1,0.7,1.9,0.7
		C1100.9,138.7,1101.8,138.7,1102.7,138.6z M1102.2,134.7c0-1.1-0.2-1.9-0.5-2.3c-0.4-0.5-0.9-0.7-1.7-0.7s-1.4,0.2-1.8,0.7
		s-0.6,1.2-0.6,2.3H1102.2z"/>
	<path class="st23" d="M1109.1,130.6c0.4,0,1.1,0.1,2,0.2l0.4,0.1l-0.1,1.1c-1-0.1-1.7-0.2-2.1-0.2c-1,0-1.7,0.2-2.1,0.7
		s-0.5,1.4-0.5,2.7s0.2,2.2,0.5,2.7s1.1,0.8,2.1,0.8l2.1-0.2l0.1,1.1c-1.1,0.2-2,0.3-2.5,0.3c-1.4,0-2.4-0.4-2.9-1.1
		c-0.5-0.7-0.8-1.9-0.8-3.6s0.3-2.9,0.9-3.6C1106.8,130.9,1107.7,130.6,1109.1,130.6z"/>
	<path class="st23" d="M1118.2,131.9h-2.9v4.3c0,1,0.1,1.7,0.2,2s0.5,0.5,1.1,0.5l1.6-0.1l0.1,1.1c-0.8,0.1-1.4,0.2-1.8,0.2
		c-0.9,0-1.6-0.2-1.9-0.7c-0.4-0.5-0.5-1.3-0.5-2.6v-4.7h-1.3v-1.2h1.3V128h1.3v2.8h2.9L1118.2,131.9L1118.2,131.9z"/>
	<path class="st23" d="M1123.8,143.7v-13h1.3v0.6c0.9-0.6,1.8-0.8,2.7-0.8c1.1,0,2,0.4,2.5,1.1c0.5,0.7,0.8,1.9,0.8,3.6
		s-0.3,2.9-0.9,3.6c-0.6,0.7-1.6,1.1-3,1.1c-0.7,0-1.4-0.1-2-0.2v4L1123.8,143.7L1123.8,143.7z M1127.7,131.8
		c-0.4,0-0.7,0.1-1.2,0.2s-0.7,0.2-1,0.4l-0.3,0.2v6.1c0.9,0.1,1.5,0.2,1.9,0.2c1,0,1.7-0.3,2-0.8c0.4-0.6,0.6-1.5,0.6-2.7
		s-0.2-2.1-0.5-2.7C1128.9,132,1128.3,131.8,1127.7,131.8z"/>
	<path class="st23" d="M1132.9,135.2c0-1.6,0.3-2.8,0.9-3.6c0.6-0.7,1.6-1.1,3-1.1s2.4,0.4,3,1.1c0.6,0.7,0.9,1.9,0.9,3.6
		c0,1.6-0.3,2.8-0.8,3.6s-1.6,1.1-3,1.1s-2.5-0.4-3-1.1C1133.2,138.1,1132.9,136.9,1132.9,135.2z M1134.3,135.2
		c0,1.3,0.2,2.2,0.5,2.8c0.3,0.5,1,0.8,2,0.8s1.7-0.3,2-0.8s0.5-1.4,0.5-2.8c0-1.3-0.2-2.2-0.5-2.7s-1-0.7-1.9-0.7s-1.6,0.2-1.9,0.7
		C1134.5,133,1134.3,133.9,1134.3,135.2z"/>
	<path class="st23" d="M1145.6,131.8c-1.3,0-2,0.5-2,1.4c0,0.4,0.2,0.7,0.5,0.9s1,0.4,2.1,0.5c1.1,0.2,1.8,0.4,2.3,0.8
		c0.4,0.3,0.7,1,0.7,1.9s-0.3,1.6-0.9,2s-1.5,0.6-2.6,0.6c-0.7,0-1.6-0.1-2.6-0.3l-0.5-0.1l0.1-1.2c1.4,0.2,2.4,0.3,3.1,0.3
		s1.2-0.1,1.6-0.3s0.5-0.6,0.5-1.1s-0.2-0.9-0.5-1.1c-0.3-0.2-1-0.4-2.1-0.5c-1.1-0.2-1.8-0.4-2.2-0.7c-0.4-0.3-0.7-0.9-0.7-1.8
		c0-0.9,0.3-1.5,0.9-1.9s1.4-0.6,2.3-0.6c0.7,0,1.7,0.1,2.8,0.3l0.5,0.1v1.2C1147.5,131.9,1146.4,131.8,1145.6,131.8z"/>
	<path class="st23" d="M1154,131.8c-1.3,0-2,0.5-2,1.4c0,0.4,0.2,0.7,0.5,0.9s1,0.4,2.1,0.5c1.1,0.2,1.8,0.4,2.3,0.8
		c0.4,0.3,0.7,1,0.7,1.9s-0.3,1.6-0.9,2s-1.5,0.6-2.6,0.6c-0.7,0-1.6-0.1-2.6-0.3l-0.5-0.1l0.1-1.2c1.4,0.2,2.4,0.3,3.1,0.3
		s1.2-0.1,1.6-0.3s0.5-0.6,0.5-1.1s-0.2-0.9-0.5-1.1c-0.3-0.2-1-0.4-2.1-0.5c-1.1-0.2-1.8-0.4-2.2-0.7c-0.4-0.3-0.7-0.9-0.7-1.8
		c0-0.9,0.3-1.5,0.9-1.9s1.4-0.6,2.3-0.6c0.7,0,1.7,0.1,2.8,0.3l0.5,0.1v1.2C1155.8,131.9,1154.8,131.8,1154,131.8z"/>
	<path class="st23" d="M1159.5,128.7v-1.6h1.3v1.6H1159.5z M1159.5,139.7v-9h1.3v9H1159.5z"/>
	<path class="st23" d="M1167.5,130.6c1.2,0,2.1,0.3,2.5,1c0.5,0.7,0.7,1.9,0.7,3.6c0,1.7-0.3,2.9-0.9,3.6c-0.6,0.7-1.7,1.1-3.3,1.1
		c-0.5,0-1.3,0-2.5-0.1l-0.5-0.1v-12.9h1.3v4.4C1165.7,130.8,1166.6,130.6,1167.5,130.6z M1166.5,138.7c1.2,0,2-0.3,2.3-0.8
		c0.4-0.5,0.6-1.4,0.6-2.7s-0.2-2.2-0.5-2.7s-0.8-0.8-1.6-0.8c-0.7,0-1.4,0.1-2.1,0.4l-0.4,0.1v6.3
		C1165.6,138.7,1166.2,138.7,1166.5,138.7z"/>
	<path class="st23" d="M1173.1,139.7v-12.9h1.3v12.9H1173.1z"/>
	<path class="st23" d="M1183.2,138.6l0.5-0.1v1.1c-1.4,0.2-2.5,0.3-3.5,0.3c-1.3,0-2.2-0.4-2.8-1.1c-0.5-0.7-0.8-1.9-0.8-3.5
		c0-3.2,1.3-4.7,3.8-4.7c1.2,0,2.1,0.3,2.7,1s0.9,1.7,0.9,3.2l-0.1,1h-5.9c0,1,0.2,1.7,0.5,2.2c0.4,0.5,1,0.7,1.9,0.7
		C1181.4,138.7,1182.3,138.7,1183.2,138.6z M1182.7,134.7c0-1.1-0.2-1.9-0.5-2.3c-0.4-0.5-0.9-0.7-1.7-0.7s-1.4,0.2-1.8,0.7
		s-0.6,1.2-0.6,2.3H1182.7z"/>
	<path class="st23" d="M1186.1,139.7v-2.1h1.5v2.1H1186.1z"/>
</g>
</svg>
