<?xml version="1.0" encoding="utf-8"?>
<!-- Generator: Adobe Illustrator 24.1.0, SVG Export Plug-In . SVG Version: 6.00 Build 0)  -->
<svg version="1.1" id="Layer_1" xmlns="http://www.w3.org/2000/svg" xmlns:xlink="http://www.w3.org/1999/xlink" x="0px" y="0px"
	 viewBox="0 0 1435.2 312" style="enable-background:new 0 0 1435.2 312;" xml:space="preserve">
<style type="text/css">
	.st0{fill:#F4F1ED;}
	.st1{fill:none;stroke:#305F89;stroke-width:2;stroke-miterlimit:10;}
	.st2{fill:none;stroke:#305F89;stroke-width:2.5;stroke-linecap:round;stroke-linejoin:round;}
	.st3{fill:#EFB63B;stroke:#305F89;stroke-width:1.5573;stroke-miterlimit:10;}
	.st4{fill:#C9A87E;stroke:#AD8148;stroke-width:2;stroke-miterlimit:10;}
	.st5{display:none;}
	
		.st6{display:inline;fill:none;stroke:#C9A87E;stroke-width:1.0743;stroke-linecap:round;stroke-linejoin:round;stroke-miterlimit:10;}
	.st7{display:inline;fill:none;stroke:#C9A87E;stroke-width:1.3653;stroke-miterlimit:10;}
	.st8{display:inline;fill:#C9A87E;}
	.st9{display:inline;fill:none;stroke:#C9A87E;stroke-width:1.5;stroke-linecap:round;stroke-linejoin:round;stroke-miterlimit:10;}
	.st10{display:inline;}
	.st11{fill:none;stroke:#C9A87E;stroke-width:1.5;stroke-linecap:round;stroke-linejoin:round;stroke-miterlimit:10;}
	.st12{fill:#FFFFFF;stroke:#698588;stroke-width:2.3359;stroke-linecap:round;stroke-linejoin:round;stroke-miterlimit:10;}
	.st13{fill:#EFB63B;stroke:#698588;stroke-width:2.3359;stroke-linecap:round;stroke-linejoin:round;}
	.st14{enable-background:new    ;}
	.st15{fill:#698588;}
	.st16{fill:none;stroke:#698588;stroke-width:2;stroke-linecap:round;stroke-linejoin:round;stroke-miterlimit:10;}
	.st17{fill:none;stroke:#EFB63B;stroke-width:2;stroke-miterlimit:10;}
	.st18{fill:#EFB63B;stroke:#305F89;stroke-width:2.2341;stroke-miterlimit:10;}
	.st19{fill:#EFB63B;stroke:#305F89;stroke-width:1.5572;stroke-miterlimit:9.9997;}
	.st20{fill:#EFB63B;}
	.st21{fill:none;stroke:#698588;stroke-width:2;stroke-linecap:round;stroke-linejoin:round;}
	.st22{fill:#EFB63B;stroke:#698588;stroke-width:2;stroke-linecap:round;stroke-linejoin:round;}
	.st23{fill:#303030;}
</style>
<path class="st0" d="M531.1,197.3v-25.2v-9.2l15.6-8.1l0.3-31.5l31.6-0.3l0.1-0.4l7.1-15.3H657l7.2,15.9l31.6,0.3l0.3,31.5l15.6,8.1
	v69.6l-15.6,8.1l-0.3,31.5l-31.6,0.3l-7.2,15.9h-31.8c-0.3,0-7.7,0-7.7,0h-31.8l-7.2-15.9l-31.6-0.3l-0.3-31.5l-15.6-8.1v-8.6v-24.4
	"/>
<polygon class="st0" points="492.6,14.5 466.1,14.5 447.4,33.2 447.4,59.9 466.1,78.7 492.6,78.7 511.3,59.9 511.3,33.2 "/>
<polygon class="st0" points="786.6,45.8 760.1,45.8 741.3,64.5 741.3,90.9 760.1,109.8 786.6,109.8 805.3,90.9 805.3,64.5 "/>
<polygon class="st0" points="440.2,177.4 409.9,177.4 388.5,198.7 388.5,229.1 409.9,250.6 440.2,250.6 461.5,229.1 461.5,198.7 "/>
<polygon class="st1" points="444.9,166.1 405.3,166.1 377.2,194.1 377.2,233.7 405.3,261.9 444.9,261.9 472.8,233.7 472.8,194.1 "/>
<polygon class="st1" points="790.9,36.4 756.4,36.4 732.1,60.8 732.1,95.3 756.4,119.7 790.9,119.7 815.2,95.3 815.2,60.8 "/>
<polygon class="st1" points="496.7,5.1 462.1,5.1 437.8,29.3 437.8,63.9 462.1,88.2 496.7,88.2 521.1,63.9 521.1,29.3 "/>
<path class="st2" d="M729.2,192v-24.8v-11l-18.7-9.6l-0.3-37.5l-37.6-0.3l-0.1-0.4L664,89.9h-85l-8.6,19l-37.6,0.3l-0.3,37.5
	l-18.7,9.6v82.8l18.7,9.6l0.3,37.5l37.6,0.3l8.6,19h37.8c0.3,0,9.2,0,9.2,0h37.8l8.6-19l37.6-0.3l0.3-37.5l18.7-9.6v-10.2v-35.4"/>
<polyline class="st1" points="671.9,107.5 682.3,93.4 731.1,78.4 "/>
<circle class="st3" cx="672.9" cy="106.8" r="4.9"/>
<line class="st2" x1="734" y1="190.1" x2="1339.1" y2="190.1"/>
<polyline class="st1" points="578.6,87.5 574.6,76.2 520.6,64.3 "/>
<path class="st4" d="M513,215.3h-39.6C473.4,215.3,517.8,215.3,513,215.3z"/>
<line class="st1" x1="513" y1="215.3" x2="473.4" y2="215.3"/>
<g class="st5">
	<path class="st6" d="M794.4,500.6c5.5,8,8.7,17.6,8.7,28c0,27.2-22.1,49.3-49.3,49.3s-49.3-22.1-49.3-49.3s22.1-49.3,49.3-49.3
		c11,0,21.1,3.6,29.3,9.7"/>
	<path class="st6" d="M791.4,528.7c0,20.7-16.8,37.5-37.5,37.5s-37.5-16.8-37.5-37.5s16.8-37.5,37.5-37.5c10.5,0,20.1,4.4,26.9,11.4
		C787.3,509.3,791.4,518.5,791.4,528.7z"/>
	<circle class="st6" cx="753.9" cy="528.7" r="26.4"/>
	<circle class="st7" cx="753.9" cy="528.7" r="15.8"/>
	<circle class="st8" cx="753.9" cy="528.7" r="6.9"/>
	<polyline class="st9" points="798.2,485.2 789,493.9 782.6,500 780.5,502 754.5,526.9 	"/>
	<polyline class="st9" points="782.8,488.6 782.9,488.6 790.1,481.6 790.7,481 798.4,473.6 	"/>
	<line class="st9" x1="782.8" y1="488.6" x2="782.6" y2="500"/>
	<line class="st9" x1="790.5" y1="492.4" x2="790.7" y2="481"/>
	<line class="st9" x1="798.2" y1="485" x2="798.4" y2="473.6"/>
	<g class="st10">
		<polyline class="st11" points="794.1,500.2 801.4,493.2 809.7,485.2 		"/>
		<line class="st11" x1="794.1" y1="500.2" x2="782.8" y2="500"/>
		<line class="st11" x1="802" y1="492.6" x2="790.6" y2="492.4"/>
		<line class="st11" x1="809.7" y1="485.2" x2="798.3" y2="485"/>
	</g>
</g>
<g>
	<g>
		<polygon class="st12" points="564,143.2 564,254.9 681.2,254.9 681.2,168 655.4,143.4 655.4,143.2 		"/>
		<polygon class="st13" points="655.4,143.4 655.4,168.2 681.4,168.2 681.2,168 		"/>
	</g>
	<g class="st14">
		<path class="st15" d="M574.5,187.1l3.5-12.8h3.1l3.5,12.8h-1.4l-0.9-3.3h-5.5l-0.8,3.3H574.5z M579.1,175.5l-1.9,7h4.9l-1.9-7
			H579.1z"/>
		<path class="st15" d="M590.1,175.4c-1.9,0-2.8,0.7-2.8,2.1c0,0.8,0.2,1.3,0.6,1.6c0.4,0.3,1.3,0.6,2.6,0.9
			c1.3,0.3,2.2,0.7,2.8,1.1c0.5,0.5,0.8,1.2,0.8,2.3c0,2.6-1.4,4-4.1,4c-0.9,0-2-0.1-3.4-0.3l-0.7-0.1l0.1-1.2
			c1.7,0.2,3,0.3,3.8,0.3c1.8,0,2.7-0.9,2.7-2.6c0-0.7-0.2-1.2-0.6-1.5s-1.2-0.6-2.3-0.8c-1.4-0.3-2.5-0.7-3.1-1.2s-0.9-1.3-0.9-2.5
			c0-2.3,1.4-3.4,4.1-3.4c0.9,0,2,0.1,3.2,0.3l0.6,0.1l-0.1,1.2C592.1,175.5,590.9,175.4,590.1,175.4z"/>
		<path class="st15" d="M599.6,187.1l3.5-12.8h3.1l3.5,12.8h-1.4l-0.9-3.3h-5.5l-0.9,3.3H599.6z M604.2,175.5l-1.9,7h4.9l-1.9-7
			H604.2z"/>
		<path class="st15" d="M615.5,187.1V185h1.5v2.1H615.5z"/>
		<path class="st15" d="M619.5,187.1V185h1.5v2.1H619.5z"/>
		<path class="st15" d="M623.5,187.1V185h1.5v2.1H623.5z"/>
	</g>
	<g class="st14">
		<path class="st15" d="M575.7,209.4v-12.8h1.4v12.8H575.7z"/>
		<path class="st15" d="M583.3,196.5h1.5l2.2,11.6h0.5l2.6-11.5h1.7l2.6,11.5h0.5l2.2-11.6h1.5l-2.6,12.8h-2.6l-2.4-11l-2.4,11H586
			L583.3,196.5z"/>
		<path class="st15" d="M599.2,209.4l3.5-12.8h3.1l3.5,12.8H608l-1-3.3h-5.5l-0.9,3.3H599.2z M603.8,197.8l-1.9,7h4.9l-1.9-7H603.8z
			"/>
		<path class="st15" d="M611.4,209.4v-12.8h2.7l4.9,11.5h0.4v-11.6h1.4v12.8h-2.6l-5-11.6h-0.4v11.6h-1.4L611.4,209.4L611.4,209.4z"
			/>
		<path class="st15" d="M622.6,197.8v-1.3h9.3v1.3H628v11.6h-1.4v-11.6H622.6z"/>
		<path class="st15" d="M637.4,209.4v-2.1h1.5v2.1H637.4z"/>
		<path class="st15" d="M641.4,209.4v-2.1h1.5v2.1H641.4z"/>
		<path class="st15" d="M645.4,209.4v-2.1h1.5v2.1H645.4z"/>
	</g>
	<g class="st14">
		<path class="st15" d="M579.2,219.9c-1.9,0-2.8,0.7-2.8,2.1c0,0.8,0.2,1.3,0.6,1.6c0.4,0.3,1.3,0.6,2.6,0.9s2.2,0.7,2.8,1.1
			c0.5,0.5,0.8,1.2,0.8,2.3c0,2.6-1.4,4-4.1,4c-0.9,0-2-0.1-3.4-0.3l-0.7-0.1l0.1-1.2c1.7,0.2,3,0.3,3.8,0.3c1.8,0,2.7-0.9,2.7-2.6
			c0-0.7-0.2-1.2-0.6-1.5s-1.2-0.6-2.3-0.8c-1.4-0.3-2.5-0.7-3.1-1.2s-0.9-1.3-0.9-2.5c0-2.3,1.4-3.4,4.1-3.4c0.9,0,2,0.1,3.2,0.3
			l0.6,0.1l-0.1,1.2C581.2,220,579.9,219.9,579.2,219.9z"/>
		<path class="st15" d="M595.4,225.4c0,2.3-0.4,3.9-1.1,5c-0.7,1-2.1,1.5-4,1.5s-3.2-0.5-4-1.6s-1.1-2.7-1.1-5s0.4-3.9,1.1-5
			c0.7-1.1,2.1-1.6,4-1.6s3.2,0.5,4,1.6C595,221.4,595.4,223.1,595.4,225.4z M586.7,225.3c0,1.9,0.2,3.2,0.7,4.1
			c0.5,0.8,1.4,1.2,2.9,1.2s2.4-0.4,2.9-1.2s0.7-2.2,0.7-4s-0.3-3.3-0.8-4.1c-0.5-0.9-1.5-1.3-2.8-1.3c-1.4,0-2.3,0.4-2.8,1.3
			C586.9,222.1,586.7,223.4,586.7,225.3z"/>
		<path class="st15" d="M600.7,220.1v-1.3h9.3v1.3h-3.9v11.6h-1.4v-11.6H600.7z"/>
		<path class="st15" d="M619.8,231.7v-5.8h-6.5v5.8h-1.4v-12.8h1.4v5.7h6.5v-5.7h1.4v12.8H619.8z"/>
		<path class="st15" d="M623.2,231.7l3.5-12.8h3.1l3.5,12.8h-1.4l-0.9-3.3h-5.5l-0.9,3.3H623.2z M627.8,220.1l-1.9,7h4.9l-1.9-7
			H627.8z"/>
		<path class="st15" d="M633.2,220.1v-1.3h9.3v1.3h-3.9v11.6h-1.4v-11.6H633.2z"/>
		<path class="st15" d="M648,231.7v-2.1h1.5v2.1H648z"/>
		<path class="st15" d="M652,231.7v-2.1h1.5v2.1H652z"/>
		<path class="st15" d="M656,231.7v-2.1h1.5v2.1H656z"/>
	</g>
</g>
<g id="XMLID_4_">
	<g>
		<path class="st16" d="M755,72.8c0.4-10.6,9.2-19,19.8-19c11,0,19.8,8.9,19.8,19.8c0,7.2-3.9,13.5-9.6,17"/>
		<polyline class="st16" points="785.1,90.7 785.1,101.7 763.5,101.7 763.5,95.1 		"/>
		<polyline class="st16" points="763.5,95.1 755,95.1 755,84 		"/>
		<polyline class="st16" points="755,84 752.1,84 755,72.8 		"/>
		<path class="st17" d="M778.5,85.5c-0.6,0.1-1.1,0.3-1.5,0.3c-6.1,0.8-12.3-2.6-14.6-8.6c-0.1-0.3-0.1-0.4-0.3-0.7
			c-2.1-6.4,0.8-13.1,6.6-16.2"/>
		<path class="st17" d="M771,59.4c7.1-2.2,14.8,1.7,17,8.8c2.1,6.6-1.1,13.7-7.2,16.5"/>
		<polyline class="st17" points="768.1,58.6 771,59.4 769.5,62.2 		"/>
		<polyline class="st17" points="780.5,83.1 778.5,85.5 778.5,85.5 781.3,86.9 		"/>
		<polyline class="st17" points="768.8,72.5 775.2,72.5 781.6,72.5 		"/>
		<polyline class="st17" points="775.2,78.8 775.2,72.5 775.2,66 		"/>
	</g>
</g>
<circle class="st18" cx="1350.8" cy="190.1" r="13.8"/>
<circle class="st3" cx="578.6" cy="88.6" r="4.9"/>
<ellipse transform="matrix(0.9788 -0.2047 0.2047 0.9788 -33.0024 109.5198)" class="st19" cx="513" cy="214.3" rx="4.9" ry="4.9"/>
<path class="st3" d="M734.9,191.7c0,0.3,0,0.6,0,0.8c-0.4,2.8-2.5,4.9-5.3,5.3c-0.3,0-0.6,0.1-1,0.1c-3.5,0-6.3-2.8-6.3-6.3
	s2.8-6.3,6.3-6.3c0.3,0,0.6,0,1,0.1C732.5,186,734.9,188.7,734.9,191.7z"/>
<g>
	<rect x="477" y="42.7" class="st20" width="11.8" height="10.6"/>
	<g id="XMLID_3_">
		<g>
			<polyline class="st16" points="460.5,53.4 467.1,57.9 467.2,53.4 467.2,53.4 			"/>
			<path class="st16" d="M460.5,53.4h-4.7V32.9h33v9.9v10.6c0,0-6,0-11.7,0c-4.5,0-8.8,0-9.9,0"/>
			<polyline class="st16" points="492.1,59.2 492.2,63.3 498.5,59.2 			"/>
			<polyline class="st16" points="492.1,59.2 477.1,59.2 477.1,53.4 477.1,42.8 488.8,42.8 503.2,42.8 503.2,59.2 498.5,59.2 			"/>
		</g>
	</g>
</g>
<g>
	<polyline class="st21" points="433.6,207.2 439.5,207.2 439.5,231.5 444.8,231.5 433.9,242.5 	"/>
	<polyline class="st21" points="434.1,207.2 428.2,207.2 428.2,231.5 422.9,231.5 433.8,242.5 	"/>
</g>
<g>
	<polyline class="st22" points="414.7,223.7 420.4,223.7 420.4,199.3 425.8,199.3 414.8,188.2 	"/>
	<polyline class="st22" points="415,223.7 409.2,223.7 409.2,199.3 403.8,199.3 414.8,188.2 	"/>
</g>
<g>
	<path class="st23" d="M814.4,219.7v-1.2h9v1.2h-3.8v11.2h-1.4v-11.2H814.4z"/>
	<path class="st23" d="M826.3,230.9h-1.4V218h1.4v4.4c1-0.5,1.9-0.7,2.8-0.7c1.2,0,2,0.3,2.4,1c0.4,0.6,0.6,1.8,0.6,3.5v4.8h-1.3
		v-4.7c0-1.2-0.1-2.1-0.4-2.6c-0.2-0.5-0.8-0.7-1.6-0.7s-1.5,0.1-2.2,0.4l-0.3,0.1V230.9z"/>
	<path class="st23" d="M840.7,229.8l0.5-0.1v1.1c-1.4,0.2-2.5,0.3-3.5,0.3c-1.3,0-2.2-0.4-2.8-1.1c-0.5-0.7-0.8-1.9-0.8-3.5
		c0-3.2,1.3-4.7,3.8-4.7c1.2,0,2.1,0.3,2.7,1c0.6,0.7,0.9,1.7,0.9,3.2l-0.1,1h-5.9c0,1,0.2,1.7,0.5,2.2c0.4,0.5,1,0.7,1.9,0.7
		C838.9,229.9,839.8,229.9,840.7,229.8z M840.2,225.9c0-1.1-0.2-1.9-0.5-2.3c-0.4-0.5-0.9-0.7-1.7-0.7s-1.4,0.2-1.8,0.7
		c-0.4,0.5-0.6,1.2-0.6,2.3H840.2z"/>
	<path class="st23" d="M853.3,221.9h1.3v9h-1.3v-0.6c-0.9,0.5-1.8,0.8-2.7,0.8c-1.2,0-2-0.3-2.4-1c-0.4-0.6-0.6-1.8-0.6-3.5v-4.7
		h1.3v4.7c0,1.3,0.1,2.2,0.3,2.6s0.7,0.7,1.5,0.7c0.4,0,0.8-0.1,1.2-0.2s0.7-0.2,0.9-0.3l0.3-0.2v-7.3H853.3z"/>
	<path class="st23" d="M860,223c-1.3,0-2,0.5-2,1.4c0,0.4,0.1,0.7,0.4,0.9s1,0.4,2.1,0.5c1.1,0.2,1.8,0.4,2.3,0.8s0.7,1,0.7,1.9
		s-0.3,1.6-0.9,2c-0.6,0.4-1.5,0.6-2.6,0.6c-0.7,0-1.6-0.1-2.6-0.3l-0.5-0.1l0.1-1.2c1.4,0.2,2.4,0.3,3.1,0.3s1.2-0.1,1.6-0.3
		c0.4-0.2,0.5-0.6,0.5-1.1s-0.2-0.9-0.5-1.1s-1-0.4-2.1-0.5c-1.1-0.2-1.8-0.4-2.2-0.7s-0.7-0.9-0.7-1.8s0.3-1.5,0.9-1.9
		s1.4-0.6,2.3-0.6c0.7,0,1.6,0.1,2.8,0.3l0.5,0.1v1.2C861.8,223.1,860.8,223,860,223z"/>
	<path class="st23" d="M871.7,229.8l0.5-0.1v1.1c-1.4,0.2-2.5,0.3-3.5,0.3c-1.3,0-2.2-0.4-2.8-1.1c-0.5-0.7-0.8-1.9-0.8-3.5
		c0-3.2,1.3-4.7,3.8-4.7c1.2,0,2.1,0.3,2.7,1c0.6,0.7,0.9,1.7,0.9,3.2l-0.1,1h-5.9c0,1,0.2,1.7,0.5,2.2c0.4,0.5,1,0.7,1.9,0.7
		C869.9,229.9,870.8,229.9,871.7,229.8z M871.2,225.9c0-1.1-0.2-1.9-0.5-2.3c-0.4-0.5-0.9-0.7-1.7-0.7s-1.4,0.2-1.8,0.7
		c-0.4,0.5-0.6,1.2-0.6,2.3H871.2z"/>
	<path class="st23" d="M874.7,230.9v-9h1.3v1.2c1-0.7,2.1-1.2,3.3-1.4v1.4c-0.5,0.1-1,0.2-1.6,0.5s-1,0.4-1.3,0.5l-0.5,0.2v6.6
		H874.7L874.7,230.9z"/>
	<path class="st23" d="M887.7,223c-1.3,0-2,0.5-2,1.4c0,0.4,0.1,0.7,0.4,0.9s1,0.4,2.1,0.5c1.1,0.2,1.8,0.4,2.3,0.8s0.7,1,0.7,1.9
		s-0.3,1.6-0.9,2c-0.6,0.4-1.5,0.6-2.6,0.6c-0.7,0-1.6-0.1-2.6-0.3l-0.5-0.1l0.1-1.2c1.4,0.2,2.4,0.3,3.1,0.3s1.2-0.1,1.6-0.3
		c0.4-0.2,0.5-0.6,0.5-1.1s-0.2-0.9-0.5-1.1s-1-0.4-2.1-0.5c-1.1-0.2-1.8-0.4-2.2-0.7s-0.7-0.9-0.7-1.8s0.3-1.5,0.9-1.9
		s1.4-0.6,2.3-0.6c0.7,0,1.6,0.1,2.8,0.3l0.5,0.1v1.2C889.5,223.1,888.4,223,887.7,223z"/>
	<path class="st23" d="M897.9,223.1H895v4.3c0,1,0.1,1.7,0.2,2c0.2,0.3,0.5,0.5,1.1,0.5l1.6-0.1l0.1,1.1c-0.8,0.1-1.4,0.2-1.8,0.2
		c-0.9,0-1.6-0.2-1.9-0.7s-0.5-1.3-0.5-2.6v-4.7h-1.3v-1.2h1.3v-2.8h1.3v2.8h2.9L897.9,223.1L897.9,223.1z"/>
	<path class="st23" d="M899.1,226.4c0-1.6,0.3-2.8,0.9-3.6c0.6-0.7,1.6-1.1,3-1.1s2.4,0.4,3,1.1s0.9,1.9,0.9,3.6
		c0,1.6-0.3,2.8-0.8,3.6s-1.6,1.1-3,1.1s-2.5-0.4-3-1.1C899.4,229.3,899.1,228.1,899.1,226.4z M900.5,226.4c0,1.3,0.2,2.2,0.5,2.8
		c0.3,0.5,1,0.8,2,0.8s1.7-0.3,2-0.8s0.5-1.4,0.5-2.8c0-1.3-0.2-2.2-0.5-2.7s-1-0.7-1.9-0.7s-1.6,0.2-1.9,0.7
		C900.7,224.2,900.5,225.1,900.5,226.4z"/>
	<path class="st23" d="M909,230.9v-9h1.3v1.2c1-0.7,2.1-1.2,3.3-1.4v1.4c-0.5,0.1-1,0.2-1.6,0.5c-0.5,0.2-1,0.4-1.3,0.5l-0.5,0.2
		v6.6H909L909,230.9z"/>
	<path class="st23" d="M914.4,221.9h1.3l2.2,7.8h0.6l2.3-7.8h1.3l-3.7,13h-1.3l1.2-4H917L914.4,221.9z"/>
	<path class="st23" d="M927.9,219.9v-1.6h1.3v1.6H927.9z M927.9,230.9v-9h1.3v9H927.9z"/>
	<path class="st23" d="M934.7,223c-1.3,0-2,0.5-2,1.4c0,0.4,0.2,0.7,0.5,0.9s1,0.4,2.1,0.5c1.1,0.2,1.8,0.4,2.3,0.8
		c0.4,0.3,0.7,1,0.7,1.9s-0.3,1.6-0.9,2c-0.6,0.4-1.5,0.6-2.6,0.6c-0.7,0-1.6-0.1-2.6-0.3l-0.5-0.1l0.1-1.2c1.4,0.2,2.4,0.3,3.1,0.3
		c0.7,0,1.2-0.1,1.6-0.3c0.4-0.2,0.5-0.6,0.5-1.1s-0.2-0.9-0.5-1.1s-1-0.4-2.1-0.5c-1.1-0.2-1.8-0.4-2.2-0.7s-0.7-0.9-0.7-1.8
		s0.3-1.5,0.9-1.9s1.4-0.6,2.3-0.6c0.7,0,1.7,0.1,2.8,0.3l0.5,0.1v1.2C936.5,223.1,935.5,223,934.7,223z"/>
	<path class="st23" d="M948.9,223.1H946v4.3c0,1,0.1,1.7,0.2,2c0.2,0.3,0.5,0.5,1.1,0.5l1.6-0.1l0.1,1.1c-0.8,0.1-1.4,0.2-1.8,0.2
		c-0.9,0-1.6-0.2-1.9-0.7s-0.5-1.3-0.5-2.6v-4.7h-1.3v-1.2h1.3v-2.8h1.3v2.8h2.9L948.9,223.1L948.9,223.1z"/>
	<path class="st23" d="M951.9,230.9h-1.3V218h1.3v4.4c1-0.5,1.9-0.7,2.8-0.7c1.2,0,2,0.3,2.4,1c0.4,0.6,0.6,1.8,0.6,3.5v4.8h-1.4
		v-4.7c0-1.2-0.1-2.1-0.4-2.6c-0.2-0.5-0.8-0.7-1.6-0.7s-1.5,0.1-2.2,0.4l-0.3,0.1v7.4H951.9L951.9,230.9z"/>
	<path class="st23" d="M966.3,229.8l0.5-0.1v1.1c-1.4,0.2-2.5,0.3-3.5,0.3c-1.3,0-2.2-0.4-2.8-1.1c-0.5-0.7-0.8-1.9-0.8-3.5
		c0-3.2,1.3-4.7,3.8-4.7c1.2,0,2.1,0.3,2.7,1c0.6,0.7,0.9,1.7,0.9,3.2l-0.1,1h-5.9c0,1,0.2,1.7,0.5,2.2c0.4,0.5,1,0.7,1.9,0.7
		C964.5,229.9,965.4,229.9,966.3,229.8z M965.8,225.9c0-1.1-0.2-1.9-0.5-2.3c-0.4-0.5-0.9-0.7-1.7-0.7s-1.4,0.2-1.8,0.7
		c-0.4,0.5-0.6,1.2-0.6,2.3H965.8z"/>
	<path class="st23" d="M974.6,230.9h-1.4V218h1.4v7.6l1.4-0.1l2.6-3.6h1.5l-2.9,4.1l3.1,4.9h-1.5l-2.7-4.2l-1.4,0.1L974.6,230.9
		L974.6,230.9z"/>
	<path class="st23" d="M987.7,229.8l0.5-0.1v1.1c-1.4,0.2-2.5,0.3-3.5,0.3c-1.3,0-2.2-0.4-2.8-1.1c-0.5-0.7-0.8-1.9-0.8-3.5
		c0-3.2,1.3-4.7,3.8-4.7c1.2,0,2.1,0.3,2.7,1c0.6,0.7,0.9,1.7,0.9,3.2l-0.1,1h-5.9c0,1,0.2,1.7,0.5,2.2c0.4,0.5,1,0.7,1.9,0.7
		C985.9,229.9,986.8,229.9,987.7,229.8z M987.3,225.9c0-1.1-0.2-1.9-0.5-2.3c-0.4-0.5-0.9-0.7-1.7-0.7s-1.4,0.2-1.8,0.7
		c-0.4,0.5-0.6,1.2-0.6,2.3H987.3z"/>
	<path class="st23" d="M989.7,221.9h1.3l2.2,7.8h0.6l2.3-7.8h1.3l-3.7,13h-1.3l1.2-4h-1.3L989.7,221.9z"/>
	<path class="st23" d="M1007.9,223.1h-2.9v4.3c0,1,0.1,1.7,0.2,2c0.2,0.3,0.5,0.5,1.1,0.5l1.6-0.1l0.1,1.1c-0.8,0.1-1.4,0.2-1.8,0.2
		c-0.9,0-1.6-0.2-1.9-0.7s-0.5-1.3-0.5-2.6v-4.7h-1.3v-1.2h1.3v-2.8h1.3v2.8h2.9L1007.9,223.1L1007.9,223.1z"/>
	<path class="st23" d="M1009.1,226.4c0-1.6,0.3-2.8,0.9-3.6c0.6-0.7,1.6-1.1,3-1.1s2.4,0.4,3,1.1s0.9,1.9,0.9,3.6
		c0,1.6-0.3,2.8-0.8,3.6s-1.6,1.1-3,1.1c-1.5,0-2.5-0.4-3-1.1S1009.1,228.1,1009.1,226.4z M1010.5,226.4c0,1.3,0.2,2.2,0.5,2.8
		c0.3,0.5,1,0.8,2,0.8s1.7-0.3,2-0.8s0.5-1.4,0.5-2.8c0-1.3-0.2-2.2-0.5-2.7s-1-0.7-1.9-0.7s-1.6,0.2-1.9,0.7
		C1010.7,224.2,1010.5,225.1,1010.5,226.4z"/>
	<path class="st23" d="M1028.6,221.9h1.4v9h-1.4v-0.6c-0.9,0.5-1.8,0.8-2.7,0.8c-1.2,0-2-0.3-2.4-1c-0.4-0.6-0.6-1.8-0.6-3.5v-4.7
		h1.4v4.7c0,1.3,0.1,2.2,0.3,2.6c0.2,0.4,0.7,0.7,1.5,0.7c0.4,0,0.8-0.1,1.2-0.2c0.4-0.1,0.7-0.2,0.9-0.3l0.3-0.2L1028.6,221.9
		L1028.6,221.9z"/>
	<path class="st23" d="M1033.9,230.9h-1.3v-9h1.3v0.6c1-0.5,1.9-0.8,2.8-0.8c1.2,0,2,0.3,2.4,1c0.4,0.6,0.6,1.8,0.6,3.5v4.8h-1.3
		v-4.7c0-1.2-0.1-2.1-0.4-2.6c-0.2-0.5-0.8-0.7-1.6-0.7c-0.4,0-0.8,0.1-1.2,0.2c-0.4,0.1-0.8,0.2-1,0.3l-0.3,0.2V230.9z"/>
	<path class="st23" d="M1049.1,218v12.9h-1.3v-0.6c-0.9,0.5-1.8,0.8-2.7,0.8c-0.5,0-0.9-0.1-1.3-0.2s-0.7-0.3-1-0.6
		c-0.6-0.6-1-1.8-1-3.6s0.3-3,0.9-3.8s1.5-1.2,2.9-1.2c0.7,0,1.4,0.1,2.2,0.2v-4h1.3V218z M1044.4,229.8c0.2,0.1,0.5,0.1,0.8,0.1
		s0.7-0.1,1.2-0.2c0.4-0.1,0.8-0.2,1-0.3l0.4-0.2v-6.1c-0.8-0.1-1.5-0.2-2.1-0.2c-0.9,0-1.5,0.3-1.9,0.9s-0.5,1.5-0.5,2.7
		c0,1.4,0.2,2.3,0.6,2.8C1044,229.6,1044.2,229.7,1044.4,229.8z"/>
	<path class="st23" d="M1057.8,229.8l0.5-0.1v1.1c-1.4,0.2-2.5,0.3-3.5,0.3c-1.3,0-2.2-0.4-2.8-1.1c-0.5-0.7-0.8-1.9-0.8-3.5
		c0-3.2,1.3-4.7,3.8-4.7c1.2,0,2.1,0.3,2.7,1s0.9,1.7,0.9,3.2l-0.1,1h-5.9c0,1,0.2,1.7,0.5,2.2c0.4,0.5,1,0.7,1.9,0.7
		C1056,229.9,1056.9,229.9,1057.8,229.8z M1057.4,225.9c0-1.1-0.2-1.9-0.5-2.3c-0.4-0.5-0.9-0.7-1.7-0.7s-1.4,0.2-1.8,0.7
		s-0.6,1.2-0.6,2.3H1057.4z"/>
	<path class="st23" d="M1060.8,230.9v-9h1.3v1.2c1-0.7,2.1-1.2,3.3-1.4v1.4c-0.5,0.1-1,0.2-1.6,0.5s-1,0.4-1.3,0.5l-0.5,0.2v6.6
		H1060.8L1060.8,230.9z"/>
	<path class="st23" d="M1069.9,223c-1.3,0-2,0.5-2,1.4c0,0.4,0.2,0.7,0.5,0.9s1,0.4,2.1,0.5c1.1,0.2,1.8,0.4,2.3,0.8
		c0.4,0.3,0.7,1,0.7,1.9s-0.3,1.6-0.9,2s-1.5,0.6-2.6,0.6c-0.7,0-1.6-0.1-2.6-0.3l-0.5-0.1l0.1-1.2c1.4,0.2,2.4,0.3,3.1,0.3
		s1.2-0.1,1.6-0.3s0.5-0.6,0.5-1.1s-0.2-0.9-0.5-1.1s-1-0.4-2.1-0.5c-1.1-0.2-1.8-0.4-2.2-0.7c-0.4-0.3-0.7-0.9-0.7-1.8
		s0.3-1.5,0.9-1.9s1.4-0.6,2.3-0.6c0.7,0,1.7,0.1,2.8,0.3l0.5,0.1v1.2C1071.7,223.1,1070.6,223,1069.9,223z"/>
	<path class="st23" d="M1080.1,223.1h-2.9v4.3c0,1,0.1,1.7,0.2,2c0.2,0.3,0.5,0.5,1.1,0.5l1.6-0.1l0.1,1.1c-0.8,0.1-1.4,0.2-1.8,0.2
		c-0.9,0-1.6-0.2-1.9-0.7s-0.5-1.3-0.5-2.6v-4.7h-1.3v-1.2h1.3v-2.8h1.3v2.8h2.9L1080.1,223.1L1080.1,223.1z"/>
	<path class="st23" d="M1088.1,224.7v4.6c0,0.4,0.4,0.7,1,0.8l-0.1,1.1c-0.9,0-1.7-0.2-2.1-0.7c-1.1,0.5-2.2,0.7-3.2,0.7
		c-0.8,0-1.5-0.2-1.9-0.7s-0.6-1.1-0.6-2s0.2-1.5,0.7-1.9c0.4-0.4,1.1-0.7,2.1-0.8l2.8-0.3v-0.8c0-0.6-0.1-1-0.4-1.3
		s-0.6-0.4-1.1-0.4c-1,0-2,0.1-3,0.2l-0.6,0.1l-0.1-1c1.3-0.3,2.5-0.4,3.5-0.4s1.8,0.2,2.2,0.7
		C1087.9,222.9,1088.1,223.7,1088.1,224.7z M1082.5,228.3c0,1.1,0.5,1.7,1.4,1.7c0.8,0,1.6-0.1,2.4-0.4l0.4-0.1v-3l-2.7,0.3
		c-0.5,0-0.9,0.2-1.2,0.5S1082.5,227.8,1082.5,228.3z"/>
	<path class="st23" d="M1092.1,230.9h-1.3v-9h1.3v0.6c1-0.5,1.9-0.8,2.8-0.8c1.2,0,2,0.3,2.4,1c0.4,0.6,0.6,1.8,0.6,3.5v4.8h-1.3
		v-4.7c0-1.2-0.1-2.1-0.4-2.6c-0.2-0.5-0.8-0.7-1.6-0.7c-0.4,0-0.8,0.1-1.2,0.2c-0.4,0.1-0.8,0.2-1,0.3l-0.3,0.2V230.9z"/>
	<path class="st23" d="M1107.3,218v12.9h-1.3v-0.6c-0.9,0.5-1.8,0.8-2.7,0.8c-0.5,0-0.9-0.1-1.3-0.2s-0.7-0.3-1-0.6
		c-0.6-0.6-1-1.8-1-3.6s0.3-3,0.9-3.8s1.5-1.2,2.9-1.2c0.7,0,1.4,0.1,2.2,0.2v-4h1.3V218z M1102.6,229.8c0.2,0.1,0.5,0.1,0.8,0.1
		s0.7-0.1,1.2-0.2c0.4-0.1,0.8-0.2,1-0.3l0.4-0.2v-6.1c-0.8-0.1-1.5-0.2-2.1-0.2c-0.9,0-1.5,0.3-1.9,0.9s-0.5,1.5-0.5,2.7
		c0,1.4,0.2,2.3,0.6,2.8C1102.2,229.6,1102.4,229.7,1102.6,229.8z"/>
	<path class="st23" d="M1109.9,219.9v-1.6h1.3v1.6H1109.9z M1109.9,230.9v-9h1.3v9H1109.9z"/>
	<path class="st23" d="M1115.2,230.9h-1.4v-9h1.3v0.6c1-0.5,1.9-0.8,2.8-0.8c1.2,0,2,0.3,2.4,1c0.4,0.6,0.6,1.8,0.6,3.5v4.8h-1.3
		v-4.7c0-1.2-0.1-2.1-0.4-2.6c-0.2-0.5-0.8-0.7-1.6-0.7c-0.4,0-0.8,0.1-1.2,0.2c-0.4,0.1-0.8,0.2-1,0.3l-0.3,0.2L1115.2,230.9
		L1115.2,230.9z"/>
	<path class="st23" d="M1127,235.2c-1.4,0-2.4-0.2-3-0.6s-0.9-1.1-0.9-2.1c0-0.5,0.1-0.9,0.3-1.2c0.2-0.3,0.6-0.7,1.1-1
		c-0.3-0.2-0.5-0.6-0.5-1.2c0-0.2,0.1-0.6,0.5-1.1l0.2-0.3c-0.9-0.4-1.4-1.3-1.4-2.7c0-2.1,1.1-3.1,3.4-3.1c0.6,0,1.1,0.1,1.6,0.2
		l0.3,0.1l2.7-0.1v1.2h-1.7c0.4,0.4,0.6,1,0.6,1.8c0,1.1-0.3,1.9-0.8,2.4c-0.6,0.5-1.4,0.7-2.6,0.7c-0.3,0-0.6,0-0.9-0.1
		c-0.2,0.5-0.3,0.9-0.3,1c0,0.4,0.1,0.6,0.3,0.7s0.9,0.1,2.1,0.1s2,0.2,2.5,0.5c0.5,0.4,0.8,1.1,0.8,2.1
		C1131,234.2,1129.7,235.2,1127,235.2z M1124.5,232.3c0,0.6,0.2,1.1,0.5,1.3c0.4,0.2,1,0.4,2,0.4s1.6-0.1,2.1-0.4
		c0.4-0.3,0.6-0.7,0.6-1.3s-0.2-1-0.5-1.2s-0.9-0.3-1.8-0.3l-1.9-0.1c-0.4,0.3-0.7,0.5-0.8,0.8
		C1124.5,231.7,1124.5,232,1124.5,232.3z M1124.6,224.8c0,0.7,0.2,1.2,0.5,1.5s0.8,0.5,1.6,0.5c0.7,0,1.3-0.2,1.6-0.5
		c0.3-0.3,0.5-0.8,0.5-1.5s-0.2-1.2-0.5-1.5s-0.8-0.5-1.6-0.5c-0.7,0-1.3,0.2-1.6,0.5S1124.6,224.1,1124.6,224.8z"/>
	<path class="st23" d="M1142.9,229.8l0.5-0.1v1.1c-1.4,0.2-2.5,0.3-3.5,0.3c-1.3,0-2.2-0.4-2.8-1.1c-0.5-0.7-0.8-1.9-0.8-3.5
		c0-3.2,1.3-4.7,3.8-4.7c1.2,0,2.1,0.3,2.7,1s0.9,1.7,0.9,3.2l-0.1,1h-5.9c0,1,0.2,1.7,0.5,2.2c0.4,0.5,1,0.7,1.9,0.7
		S1142,229.9,1142.9,229.8z M1142.4,225.9c0-1.1-0.2-1.9-0.5-2.3c-0.4-0.5-0.9-0.7-1.7-0.7s-1.4,0.2-1.8,0.7s-0.6,1.2-0.6,2.3
		H1142.4z"/>
	<path class="st23" d="M1152.2,224.7v4.6c0,0.4,0.4,0.7,1,0.8l-0.1,1.1c-0.9,0-1.7-0.2-2.1-0.7c-1.1,0.5-2.2,0.7-3.2,0.7
		c-0.8,0-1.5-0.2-1.9-0.7s-0.6-1.1-0.6-2s0.2-1.5,0.7-1.9c0.4-0.4,1.1-0.7,2.1-0.8l2.8-0.3v-0.8c0-0.6-0.1-1-0.4-1.3
		s-0.6-0.4-1.1-0.4c-1,0-2,0.1-3,0.2l-0.6,0.1l-0.1-1c1.3-0.3,2.5-0.4,3.5-0.4s1.8,0.2,2.2,0.7
		C1152,222.9,1152.2,223.7,1152.2,224.7z M1146.7,228.3c0,1.1,0.5,1.7,1.4,1.7c0.8,0,1.6-0.1,2.4-0.4l0.4-0.1v-3l-2.7,0.3
		c-0.5,0-0.9,0.2-1.2,0.5S1146.7,227.8,1146.7,228.3z"/>
	<path class="st23" d="M1158.2,221.8c0.4,0,1.1,0.1,2,0.2l0.4,0.1l-0.1,1.1c-1-0.1-1.7-0.2-2.1-0.2c-1,0-1.7,0.2-2.1,0.7
		s-0.5,1.4-0.5,2.7s0.2,2.2,0.5,2.7s1.1,0.8,2.1,0.8l2.1-0.2l0.1,1.1c-1.1,0.2-2,0.3-2.5,0.3c-1.4,0-2.4-0.4-2.9-1.1
		s-0.8-1.9-0.8-3.6s0.3-2.9,0.9-3.6C1155.9,222.1,1156.9,221.8,1158.2,221.8z"/>
	<path class="st23" d="M1164.1,230.9h-1.4V218h1.4v4.4c1-0.5,1.9-0.7,2.8-0.7c1.2,0,2,0.3,2.4,1c0.4,0.6,0.6,1.8,0.6,3.5v4.8h-1.3
		v-4.7c0-1.2-0.1-2.1-0.4-2.6c-0.2-0.5-0.8-0.7-1.6-0.7c-0.8,0-1.5,0.1-2.2,0.4l-0.3,0.1V230.9z"/>
	<path class="st23" d="M1175.9,226.4c0-1.6,0.3-2.8,0.9-3.6c0.6-0.7,1.6-1.1,3-1.1s2.4,0.4,3,1.1s0.9,1.9,0.9,3.6
		c0,1.6-0.3,2.8-0.8,3.6s-1.6,1.1-3,1.1c-1.5,0-2.5-0.4-3-1.1S1175.9,228.1,1175.9,226.4z M1177.3,226.4c0,1.3,0.2,2.2,0.5,2.8
		c0.3,0.5,1,0.8,2,0.8s1.7-0.3,2-0.8s0.5-1.4,0.5-2.8c0-1.3-0.2-2.2-0.5-2.7s-1-0.7-1.9-0.7s-1.6,0.2-1.9,0.7
		C1177.5,224.2,1177.3,225.1,1177.3,226.4z"/>
	<path class="st23" d="M1190.4,223.1h-2.9v4.3c0,1,0.1,1.7,0.2,2s0.5,0.5,1.1,0.5l1.6-0.1l0.1,1.1c-0.8,0.1-1.4,0.2-1.8,0.2
		c-0.9,0-1.6-0.2-1.9-0.7c-0.4-0.5-0.5-1.3-0.5-2.6v-4.7h-1.3v-1.2h1.3v-2.8h1.3v2.8h2.9L1190.4,223.1L1190.4,223.1z"/>
	<path class="st23" d="M1193.4,230.9h-1.3V218h1.3v4.4c1-0.5,1.9-0.7,2.8-0.7c1.2,0,2,0.3,2.4,1c0.4,0.6,0.6,1.8,0.6,3.5v4.8h-1.4
		v-4.7c0-1.2-0.1-2.1-0.4-2.6c-0.2-0.5-0.8-0.7-1.6-0.7c-0.8,0-1.5,0.1-2.2,0.4l-0.3,0.1L1193.4,230.9L1193.4,230.9z"/>
	<path class="st23" d="M1207.9,229.8l0.5-0.1v1.1c-1.4,0.2-2.5,0.3-3.5,0.3c-1.3,0-2.2-0.4-2.8-1.1c-0.5-0.7-0.8-1.9-0.8-3.5
		c0-3.2,1.3-4.7,3.8-4.7c1.2,0,2.1,0.3,2.7,1s0.9,1.7,0.9,3.2l-0.1,1h-5.9c0,1,0.2,1.7,0.5,2.2c0.4,0.5,1,0.7,1.9,0.7
		S1206.9,229.9,1207.9,229.8z M1207.4,225.9c0-1.1-0.2-1.9-0.5-2.3c-0.4-0.5-0.9-0.7-1.7-0.7s-1.4,0.2-1.8,0.7s-0.6,1.2-0.6,2.3
		H1207.4z"/>
	<path class="st23" d="M1210.8,230.9v-9h1.3v1.2c1-0.7,2.1-1.2,3.3-1.4v1.4c-0.5,0.1-1,0.2-1.6,0.5c-0.5,0.2-1,0.4-1.3,0.5l-0.5,0.2
		v6.6H1210.8L1210.8,230.9z"/>
	<path class="st23" d="M1227.4,224.7v4.6c0,0.4,0.4,0.7,1,0.8l-0.1,1.1c-0.9,0-1.7-0.2-2.1-0.7c-1.1,0.5-2.2,0.7-3.2,0.7
		c-0.8,0-1.5-0.2-1.9-0.7s-0.6-1.1-0.6-2s0.2-1.5,0.7-1.9c0.4-0.4,1.1-0.7,2.1-0.8l2.8-0.3v-0.8c0-0.6-0.1-1-0.4-1.3
		s-0.6-0.4-1.1-0.4c-1,0-2,0.1-3,0.2l-0.6,0.1l-0.1-1c1.3-0.3,2.5-0.4,3.5-0.4s1.8,0.2,2.2,0.7
		C1227.2,222.9,1227.4,223.7,1227.4,224.7z M1221.8,228.3c0,1.1,0.5,1.7,1.4,1.7c0.8,0,1.6-0.1,2.4-0.4l0.4-0.1v-3l-2.7,0.3
		c-0.5,0-0.9,0.2-1.2,0.5S1221.8,227.8,1221.8,228.3z"/>
	<path class="st23" d="M1231.4,230.9h-1.3v-9h1.3v0.6c1-0.5,1.9-0.8,2.8-0.8c1.2,0,2,0.3,2.4,1c0.4,0.6,0.6,1.8,0.6,3.5v4.8h-1.3
		v-4.7c0-1.2-0.1-2.1-0.4-2.6c-0.2-0.5-0.8-0.7-1.6-0.7c-0.4,0-0.8,0.1-1.2,0.2c-0.4,0.1-0.8,0.2-1,0.3l-0.3,0.2V230.9z"/>
	<path class="st23" d="M1246.6,218v12.9h-1.3v-0.6c-0.9,0.5-1.8,0.8-2.7,0.8c-0.5,0-0.9-0.1-1.3-0.2s-0.7-0.3-1-0.6
		c-0.6-0.6-1-1.8-1-3.6s0.3-3,0.9-3.8s1.5-1.2,2.9-1.2c0.7,0,1.4,0.1,2.2,0.2v-4h1.3V218z M1241.9,229.8c0.2,0.1,0.5,0.1,0.8,0.1
		s0.7-0.1,1.2-0.2c0.4-0.1,0.8-0.2,1-0.3l0.4-0.2v-6.1c-0.8-0.1-1.5-0.2-2.1-0.2c-0.9,0-1.5,0.3-1.9,0.9s-0.5,1.5-0.5,2.7
		c0,1.4,0.2,2.3,0.6,2.8C1241.5,229.6,1241.7,229.7,1241.9,229.8z"/>
	<path class="st23" d="M1256,223c-1.3,0-2,0.5-2,1.4c0,0.4,0.1,0.7,0.4,0.9s1,0.4,2.1,0.5c1.1,0.2,1.8,0.4,2.3,0.8s0.7,1,0.7,1.9
		s-0.3,1.6-0.9,2s-1.5,0.6-2.6,0.6c-0.7,0-1.6-0.1-2.6-0.3l-0.5-0.1l0.1-1.2c1.4,0.2,2.4,0.3,3.1,0.3s1.2-0.1,1.6-0.3
		s0.5-0.6,0.5-1.1s-0.2-0.9-0.5-1.1s-1-0.4-2.1-0.5c-1.1-0.2-1.8-0.4-2.2-0.7c-0.4-0.3-0.7-0.9-0.7-1.8s0.3-1.5,0.9-1.9
		s1.4-0.6,2.3-0.6c0.7,0,1.6,0.1,2.8,0.3l0.5,0.1v1.2C1257.8,223.1,1256.8,223,1256,223z"/>
	<path class="st23" d="M1266.2,223.1h-2.9v4.3c0,1,0.1,1.7,0.2,2c0.2,0.3,0.5,0.5,1.1,0.5l1.6-0.1l0.1,1.1c-0.8,0.1-1.4,0.2-1.8,0.2
		c-0.9,0-1.6-0.2-1.9-0.7s-0.5-1.3-0.5-2.6v-4.7h-1.3v-1.2h1.3v-2.8h1.3v2.8h2.9L1266.2,223.1L1266.2,223.1z"/>
	<path class="st23" d="M1274.2,224.7v4.6c0,0.4,0.4,0.7,1,0.8l-0.1,1.1c-0.9,0-1.7-0.2-2.1-0.7c-1.1,0.5-2.2,0.7-3.2,0.7
		c-0.8,0-1.5-0.2-1.9-0.7s-0.6-1.1-0.6-2s0.2-1.5,0.7-1.9c0.4-0.4,1.1-0.7,2.1-0.8l2.8-0.3v-0.8c0-0.6-0.1-1-0.4-1.3
		s-0.6-0.4-1.1-0.4c-1,0-2,0.1-3,0.2l-0.6,0.1l-0.1-1c1.3-0.3,2.5-0.4,3.5-0.4s1.8,0.2,2.2,0.7
		C1274,222.9,1274.2,223.7,1274.2,224.7z M1268.7,228.3c0,1.1,0.5,1.7,1.4,1.7c0.8,0,1.6-0.1,2.4-0.4l0.4-0.1v-3l-2.7,0.3
		c-0.5,0-0.9,0.2-1.2,0.5S1268.7,227.8,1268.7,228.3z"/>
	<path class="st23" d="M1276,221.9h1.3l2.2,7.8h0.6l2.3-7.8h1.3l-3.7,13h-1.3l1.2-4h-1.3L1276,221.9z"/>
	<path class="st23" d="M1295.8,224.7v4.6c0,0.4,0.4,0.7,1,0.8l-0.1,1.1c-0.9,0-1.7-0.2-2.1-0.7c-1.1,0.5-2.2,0.7-3.2,0.7
		c-0.8,0-1.5-0.2-1.9-0.7s-0.6-1.1-0.6-2s0.2-1.5,0.7-1.9c0.4-0.4,1.1-0.7,2.1-0.8l2.8-0.3v-0.8c0-0.6-0.1-1-0.4-1.3
		s-0.6-0.4-1.1-0.4c-1,0-2,0.1-3,0.2l-0.6,0.1l-0.1-1c1.3-0.3,2.5-0.4,3.5-0.4s1.8,0.2,2.2,0.7
		C1295.6,222.9,1295.8,223.7,1295.8,224.7z M1290.3,228.3c0,1.1,0.5,1.7,1.4,1.7c0.8,0,1.6-0.1,2.4-0.4l0.4-0.1v-3l-2.7,0.3
		c-0.5,0-0.9,0.2-1.2,0.5S1290.3,227.8,1290.3,228.3z"/>
	<path class="st23" d="M1303.1,223.1h-2.9v4.3c0,1,0.1,1.7,0.2,2c0.2,0.3,0.5,0.5,1.1,0.5l1.6-0.1l0.1,1.1c-0.8,0.1-1.4,0.2-1.8,0.2
		c-0.9,0-1.6-0.2-1.9-0.7s-0.5-1.3-0.5-2.6v-4.7h-1.3v-1.2h1.3v-2.8h1.3v2.8h2.9L1303.1,223.1L1303.1,223.1z"/>
	<path class="st23" d="M1313.4,223.1h-2.9v4.3c0,1,0.1,1.7,0.2,2s0.5,0.5,1.1,0.5l1.6-0.1l0.1,1.1c-0.8,0.1-1.4,0.2-1.8,0.2
		c-0.9,0-1.6-0.2-1.9-0.7c-0.4-0.5-0.5-1.3-0.5-2.6v-4.7h-1.3v-1.2h1.3v-2.8h1.3v2.8h2.9L1313.4,223.1L1313.4,223.1z"/>
	<path class="st23" d="M1316.4,230.9h-1.3V218h1.3v4.4c1-0.5,1.9-0.7,2.8-0.7c1.2,0,2,0.3,2.4,1c0.4,0.6,0.6,1.8,0.6,3.5v4.8h-1.4
		v-4.7c0-1.2-0.1-2.1-0.4-2.6c-0.2-0.5-0.8-0.7-1.6-0.7c-0.8,0-1.5,0.1-2.2,0.4l-0.3,0.1L1316.4,230.9L1316.4,230.9z"/>
	<path class="st23" d="M1330.9,229.8l0.5-0.1v1.1c-1.4,0.2-2.5,0.3-3.5,0.3c-1.3,0-2.2-0.4-2.8-1.1c-0.5-0.7-0.8-1.9-0.8-3.5
		c0-3.2,1.3-4.7,3.8-4.7c1.2,0,2.1,0.3,2.7,1s0.9,1.7,0.9,3.2l-0.1,1h-5.9c0,1,0.2,1.7,0.5,2.2c0.4,0.5,1,0.7,1.9,0.7
		S1329.9,229.9,1330.9,229.8z M1330.4,225.9c0-1.1-0.2-1.9-0.5-2.3c-0.4-0.5-0.9-0.7-1.7-0.7s-1.4,0.2-1.8,0.7s-0.6,1.2-0.6,2.3
		H1330.4z"/>
	<path class="st23" d="M818.3,244.6c-1.3,0-2,0.5-2,1.4c0,0.4,0.2,0.7,0.5,0.9s1,0.4,2.1,0.5c1.1,0.2,1.8,0.4,2.3,0.8
		c0.4,0.3,0.7,1,0.7,1.9s-0.3,1.6-0.9,2c-0.6,0.4-1.5,0.6-2.6,0.6c-0.7,0-1.6-0.1-2.6-0.3l-0.5-0.1l0.1-1.2c1.4,0.2,2.4,0.3,3.1,0.3
		c0.7,0,1.2-0.1,1.6-0.3c0.4-0.2,0.5-0.6,0.5-1.1s-0.2-0.9-0.5-1.1s-1-0.4-2.1-0.5c-1.1-0.2-1.8-0.4-2.2-0.7s-0.7-0.9-0.7-1.8
		s0.3-1.5,0.9-1.9s1.4-0.6,2.3-0.6c0.7,0,1.7,0.1,2.8,0.3l0.5,0.1v1.2C820.1,244.7,819.1,244.6,818.3,244.6z"/>
	<path class="st23" d="M830.2,246.3v4.6c0,0.4,0.4,0.7,1,0.8l-0.1,1.1c-0.9,0-1.7-0.2-2.1-0.7c-1.1,0.5-2.2,0.7-3.2,0.7
		c-0.8,0-1.5-0.2-1.9-0.7s-0.6-1.1-0.6-2s0.2-1.5,0.7-1.9c0.4-0.4,1.1-0.7,2.1-0.8l2.8-0.3v-0.8c0-0.6-0.1-1-0.4-1.3
		s-0.6-0.4-1.1-0.4c-1,0-2,0.1-3,0.2l-0.6,0.1l-0.1-1c1.3-0.3,2.5-0.4,3.5-0.4s1.8,0.2,2.2,0.7C830,244.5,830.2,245.3,830.2,246.3z
		 M824.6,249.9c0,1.1,0.5,1.7,1.4,1.7c0.8,0,1.6-0.1,2.4-0.4l0.4-0.1v-3l-2.7,0.3c-0.5,0-0.9,0.2-1.2,0.5S824.6,249.4,824.6,249.9z"
		/>
	<path class="st23" d="M834.2,252.5h-1.4v-9h1.3v0.6c0.9-0.5,1.8-0.8,2.6-0.8c1.1,0,1.9,0.3,2.3,0.9c0.4-0.2,0.9-0.5,1.5-0.6
		c0.6-0.2,1.2-0.3,1.7-0.3c1.2,0,2,0.3,2.4,1c0.4,0.6,0.6,1.8,0.6,3.5v4.8H844v-4.7c0-1.2-0.1-2.1-0.4-2.6s-0.8-0.7-1.5-0.7
		c-0.4,0-0.8,0.1-1.2,0.2s-0.7,0.2-1,0.3l-0.3,0.2c0.2,0.4,0.2,1.3,0.2,2.6v4.7h-1.3V248c0-1.3-0.1-2.2-0.4-2.6
		c-0.2-0.5-0.7-0.7-1.5-0.7c-0.4,0-0.8,0.1-1.2,0.2s-0.7,0.2-0.9,0.3l-0.3,0.2L834.2,252.5L834.2,252.5z"/>
	<path class="st23" d="M854,251.4l0.5-0.1v1.1c-1.4,0.2-2.5,0.3-3.5,0.3c-1.3,0-2.2-0.4-2.8-1.1c-0.5-0.7-0.8-1.9-0.8-3.5
		c0-3.2,1.3-4.7,3.8-4.7c1.2,0,2.1,0.3,2.7,1c0.6,0.7,0.9,1.7,0.9,3.2l-0.1,1h-5.9c0,1,0.2,1.7,0.5,2.2c0.4,0.5,1,0.7,1.9,0.7
		C852.2,251.5,853.1,251.5,854,251.4z M853.5,247.5c0-1.1-0.2-1.9-0.5-2.3c-0.4-0.5-0.9-0.7-1.7-0.7s-1.4,0.2-1.8,0.7
		c-0.4,0.5-0.6,1.2-0.6,2.3H853.5z"/>
	<path class="st23" d="M862.3,252.5h-1.4v-12.9h1.4v4.4c1-0.5,1.9-0.7,2.8-0.7c1.2,0,2,0.3,2.4,1s0.6,1.8,0.6,3.5v4.8h-1.3v-4.7
		c0-1.2-0.1-2.1-0.4-2.6s-0.8-0.7-1.6-0.7s-1.5,0.1-2.2,0.4l-0.3,0.1V252.5z"/>
	<path class="st23" d="M876.7,251.4l0.5-0.1v1.1c-1.4,0.2-2.5,0.3-3.5,0.3c-1.3,0-2.2-0.4-2.8-1.1c-0.5-0.7-0.8-1.9-0.8-3.5
		c0-3.2,1.3-4.7,3.8-4.7c1.2,0,2.1,0.3,2.7,1c0.6,0.7,0.9,1.7,0.9,3.2l-0.1,1h-5.9c0,1,0.2,1.7,0.5,2.2c0.4,0.5,1,0.7,1.9,0.7
		C874.9,251.5,875.8,251.5,876.7,251.4z M876.2,247.5c0-1.1-0.2-1.9-0.5-2.3c-0.4-0.5-0.9-0.7-1.7-0.7s-1.4,0.2-1.8,0.7
		c-0.4,0.5-0.6,1.2-0.6,2.3H876.2z"/>
	<path class="st23" d="M879.7,241.5v-1.6h1.3v1.6H879.7z M879.7,252.5v-9h1.3v9H879.7z"/>
	<path class="st23" d="M887.1,256.8c-1.4,0-2.4-0.2-3-0.6s-0.9-1.1-0.9-2.1c0-0.5,0.1-0.9,0.3-1.2s0.6-0.7,1.1-1
		c-0.3-0.2-0.5-0.6-0.5-1.2c0-0.2,0.1-0.6,0.5-1.1l0.2-0.3c-0.9-0.4-1.4-1.3-1.4-2.7c0-2.1,1.1-3.1,3.4-3.1c0.6,0,1.1,0.1,1.6,0.2
		l0.3,0.1l2.7-0.1v1.2h-1.7c0.4,0.4,0.6,1,0.6,1.8c0,1.1-0.3,1.9-0.8,2.4c-0.6,0.5-1.4,0.7-2.6,0.7c-0.3,0-0.6,0-0.9-0.1
		c-0.2,0.5-0.3,0.9-0.3,1c0,0.4,0.1,0.6,0.3,0.7s0.9,0.1,2.1,0.1s2,0.2,2.5,0.5c0.5,0.4,0.8,1.1,0.8,2.1
		C891.1,255.8,889.8,256.8,887.1,256.8z M884.6,253.9c0,0.6,0.2,1.1,0.5,1.3c0.4,0.2,1,0.4,2,0.4s1.6-0.1,2.1-0.4
		c0.4-0.3,0.6-0.7,0.6-1.3s-0.2-1-0.5-1.2s-0.9-0.3-1.8-0.3l-1.9-0.1c-0.4,0.3-0.7,0.5-0.8,0.8C884.7,253.3,884.6,253.6,884.6,253.9
		z M884.7,246.4c0,0.7,0.2,1.2,0.5,1.5s0.8,0.5,1.6,0.5c0.7,0,1.3-0.2,1.6-0.5s0.5-0.8,0.5-1.5s-0.2-1.2-0.5-1.5s-0.8-0.5-1.6-0.5
		c-0.7,0-1.3,0.2-1.6,0.5S884.7,245.7,884.7,246.4z"/>
	<path class="st23" d="M894.2,252.5h-1.4v-12.9h1.4v4.4c1-0.5,1.9-0.7,2.8-0.7c1.2,0,2,0.3,2.4,1s0.6,1.8,0.6,3.5v4.8h-1.3v-4.7
		c0-1.2-0.1-2.1-0.4-2.6s-0.8-0.7-1.6-0.7s-1.5,0.1-2.2,0.4l-0.3,0.1V252.5z"/>
	<path class="st23" d="M907.2,244.7h-2.9v4.3c0,1,0.1,1.7,0.2,2c0.2,0.3,0.5,0.5,1.1,0.5l1.6-0.1l0.1,1.1c-0.8,0.1-1.4,0.2-1.8,0.2
		c-0.9,0-1.6-0.2-1.9-0.7s-0.5-1.3-0.5-2.6v-4.7h-1.3v-1.2h1.3v-2.8h1.3v2.8h2.9L907.2,244.7L907.2,244.7z"/>
	<path class="st23" d="M908.7,252.5v-2.1h1.5v2.1H908.7z"/>
</g>
<g>
	<path class="st23" d="M1231.9,171.5c0,2,1.1,3.1,3.2,3.1s3.2-1,3.2-3.1v-10.7h2.6v10.7c0,1.9-0.5,3.2-1.5,4.1
		c-1,0.9-2.4,1.3-4.3,1.3s-3.4-0.4-4.3-1.3s-1.4-2.2-1.4-4.1v-10.7h2.6L1231.9,171.5L1231.9,171.5z"/>
	<path class="st23" d="M1252,167.4c-1.8-0.2-3.1-0.4-3.9-0.4s-1.4,0.1-1.7,0.3c-0.3,0.2-0.5,0.5-0.5,0.9s0.2,0.7,0.5,0.9
		s1.2,0.4,2.4,0.6c1.3,0.2,2.2,0.6,2.7,1c0.5,0.5,0.8,1.3,0.8,2.5s-0.4,2.1-1.2,2.7c-0.8,0.6-1.9,0.9-3.4,0.9
		c-0.9,0-2.1-0.1-3.5-0.4l-0.7-0.1l0.1-2.1c1.8,0.2,3.2,0.4,4,0.4s1.4-0.1,1.7-0.3c0.3-0.2,0.5-0.5,0.5-1s-0.2-0.8-0.5-1
		s-1.1-0.4-2.4-0.6s-2.2-0.5-2.7-1c-0.6-0.4-0.9-1.3-0.9-2.4s0.4-2.1,1.2-2.6c0.8-0.6,1.8-0.9,3.1-0.9c1,0,2.2,0.1,3.6,0.4l0.7,0.1
		L1252,167.4z"/>
	<path class="st23" d="M1263,174.5l0.6-0.1v1.9c-1.7,0.4-3.3,0.5-4.6,0.5c-1.7,0-2.9-0.5-3.7-1.4c-0.7-0.9-1.1-2.4-1.1-4.5
		c0-4.1,1.7-6.1,5-6.1c3.2,0,4.8,1.8,4.8,5.3l-0.2,1.8h-7.1c0,1,0.2,1.6,0.6,2.1c0.4,0.4,1.1,0.7,2.2,0.7S1261.8,174.6,1263,174.5z
		 M1261.6,169.9c0-1.1-0.2-1.9-0.5-2.4c-0.4-0.5-1-0.7-1.8-0.7c-0.9,0-1.5,0.2-1.9,0.7s-0.6,1.3-0.6,2.3L1261.6,169.9L1261.6,169.9z
		"/>
	<path class="st23" d="M1266.5,176.5V165h2.5v1.4c1.3-0.8,2.6-1.4,3.9-1.6v2.5c-1.3,0.3-2.4,0.6-3.4,1l-0.5,0.2v8L1266.5,176.5
		L1266.5,176.5z"/>
	<path class="st23" d="M1284.8,162.8c-1.9,0-2.9,0.7-2.9,2c0,0.7,0.2,1.2,0.7,1.5s1.5,0.7,3,1.1c1.6,0.4,2.7,1,3.3,1.6
		c0.6,0.6,1,1.6,1,2.9c0,1.7-0.5,2.9-1.4,3.7s-2.2,1.2-3.9,1.2c-1.3,0-2.7-0.2-4.3-0.5l-0.8-0.2l0.3-2c2.1,0.3,3.6,0.4,4.7,0.4
		c1.9,0,2.9-0.8,2.9-2.5c0-0.7-0.2-1.1-0.6-1.5c-0.4-0.3-1.4-0.7-2.9-1c-1.5-0.4-2.6-0.9-3.4-1.6s-1.1-1.7-1.1-3.1s0.5-2.5,1.4-3.2
		s2.2-1.1,3.9-1.1c1.2,0,2.6,0.1,4.2,0.4l0.8,0.1l-0.2,2.1C1287.2,162.9,1285.7,162.8,1284.8,162.8z"/>
	<path class="st23" d="M1298.4,167.2h-3.2v5.1c0,0.9,0.1,1.6,0.2,1.9c0.1,0.3,0.5,0.5,1.1,0.5l1.9-0.1l0.1,2c-1,0.2-1.8,0.3-2.3,0.3
		c-1.3,0-2.2-0.3-2.7-0.9c-0.5-0.6-0.7-1.7-0.7-3.4v-5.3h-1.5v-2.1h1.5v-3.3h2.5v3.3h3.2L1298.4,167.2L1298.4,167.2z"/>
	<path class="st23" d="M1301,166.3c0.8-1,2.1-1.5,3.9-1.5s3.2,0.5,3.9,1.5c0.8,1,1.2,2.5,1.2,4.5s-0.4,3.5-1.1,4.5
		c-0.8,1-2.1,1.5-4,1.5s-3.2-0.5-4-1.5s-1.2-2.5-1.2-4.5C1299.9,168.8,1300.3,167.3,1301,166.3z M1302.9,173.8
		c0.4,0.6,1,0.9,2.1,0.9s1.7-0.3,2.1-0.9c0.4-0.6,0.5-1.6,0.5-3s-0.2-2.4-0.6-3s-1.1-0.9-2-0.9s-1.7,0.3-2,0.9
		c-0.4,0.6-0.6,1.6-0.6,3S1302.6,173.1,1302.9,173.8z"/>
	<path class="st23" d="M1312.6,176.5V165h2.5v1.4c1.3-0.8,2.6-1.4,3.9-1.6v2.5c-1.3,0.3-2.4,0.6-3.4,1l-0.5,0.2v8L1312.6,176.5
		L1312.6,176.5z"/>
	<path class="st23" d="M1319.9,165h2.5l2.4,9.4h0.6l2.4-9.4h2.5l-4.4,16.4h-2.5l1.4-4.9h-2L1319.9,165z"/>
</g>
</svg>
